%TF.GenerationSoftware,KiCad,Pcbnew,(6.0.10)*%
%TF.CreationDate,2023-01-10T09:29:53-08:00*%
%TF.ProjectId,solid_state_relays_12v,736f6c69-645f-4737-9461-74655f72656c,0.0.8*%
%TF.SameCoordinates,PXe4e1c0PY6422c40*%
%TF.FileFunction,Paste,Top*%
%TF.FilePolarity,Positive*%
%FSLAX46Y46*%
G04 Gerber Fmt 4.6, Leading zero omitted, Abs format (unit mm)*
G04 Created by KiCad (PCBNEW (6.0.10)) date 2023-01-10 09:29:53*
%MOMM*%
%LPD*%
G01*
G04 APERTURE LIST*
%ADD10R,1.000000X1.400000*%
%ADD11R,1.400000X1.000000*%
%ADD12R,0.850000X0.900000*%
%ADD13R,2.150000X2.200000*%
%ADD14R,2.200000X2.150000*%
%ADD15R,0.900000X0.950000*%
G04 APERTURE END LIST*
D10*
%TO.C,RP4*%
X27580000Y65450000D03*
X29480000Y65450000D03*
%TD*%
D11*
%TO.C,RL1*%
X75400000Y77050000D03*
X75400000Y78950000D03*
%TD*%
D10*
%TO.C,RP6*%
X62500000Y24550000D03*
X60600000Y24550000D03*
%TD*%
D12*
%TO.C,LED1*%
X75400000Y84750000D03*
X75400000Y83250000D03*
%TD*%
D10*
%TO.C,RP7*%
X42500000Y24550000D03*
X40600000Y24550000D03*
%TD*%
%TO.C,R1*%
X7500000Y22450000D03*
X9400000Y22450000D03*
%TD*%
%TO.C,RP3*%
X47580000Y65450000D03*
X49480000Y65450000D03*
%TD*%
D13*
%TO.C,TVS2*%
X55400000Y70350000D03*
X55400000Y74750000D03*
%TD*%
D10*
%TO.C,RP2*%
X67580000Y65450000D03*
X69480000Y65450000D03*
%TD*%
D12*
%TO.C,LED6*%
X56400000Y5250000D03*
X56400000Y6750000D03*
%TD*%
%TO.C,LED7*%
X36400000Y5250000D03*
X36400000Y6750000D03*
%TD*%
D11*
%TO.C,RL7*%
X36400000Y12950000D03*
X36400000Y11050000D03*
%TD*%
D14*
%TO.C,TVSP1*%
X14550000Y45000000D03*
X10150000Y45000000D03*
%TD*%
D10*
%TO.C,RP1*%
X87580000Y65450000D03*
X89480000Y65450000D03*
%TD*%
D12*
%TO.C,LED8*%
X16380000Y5250000D03*
X16380000Y6750000D03*
%TD*%
D13*
%TO.C,TVS5*%
X76400000Y19650000D03*
X76400000Y15250000D03*
%TD*%
D12*
%TO.C,LED3*%
X35400000Y84750000D03*
X35400000Y83250000D03*
%TD*%
D10*
%TO.C,RP5*%
X82500000Y24550000D03*
X80600000Y24550000D03*
%TD*%
D13*
%TO.C,TVS4*%
X15400000Y70350000D03*
X15400000Y74750000D03*
%TD*%
D11*
%TO.C,RL6*%
X56400000Y12950000D03*
X56400000Y11050000D03*
%TD*%
D12*
%TO.C,LED2*%
X55400000Y84750000D03*
X55400000Y83250000D03*
%TD*%
D10*
%TO.C,RP8*%
X22500000Y24550000D03*
X24400000Y24550000D03*
%TD*%
D15*
%TO.C,LEDP1*%
X5900000Y17600000D03*
X7500000Y17600000D03*
%TD*%
D11*
%TO.C,RL3*%
X35400000Y77050000D03*
X35400000Y78950000D03*
%TD*%
%TO.C,RL8*%
X16380000Y12950000D03*
X16380000Y11050000D03*
%TD*%
D13*
%TO.C,TVS7*%
X36400000Y19650000D03*
X36400000Y15250000D03*
%TD*%
%TO.C,TVS3*%
X35400000Y70350000D03*
X35400000Y74750000D03*
%TD*%
D11*
%TO.C,RL4*%
X15400000Y77050000D03*
X15400000Y78950000D03*
%TD*%
D12*
%TO.C,LED5*%
X76400000Y5250000D03*
X76400000Y6750000D03*
%TD*%
%TO.C,LED4*%
X15400000Y84750000D03*
X15400000Y83250000D03*
%TD*%
D11*
%TO.C,RL2*%
X55400000Y77050000D03*
X55400000Y78950000D03*
%TD*%
D13*
%TO.C,TVS8*%
X16380000Y19650000D03*
X16380000Y15250000D03*
%TD*%
%TO.C,TVS6*%
X56400000Y19650000D03*
X56400000Y15250000D03*
%TD*%
%TO.C,TVS1*%
X75400000Y70350000D03*
X75400000Y74750000D03*
%TD*%
D11*
%TO.C,RL5*%
X76400000Y12950000D03*
X76400000Y11050000D03*
%TD*%
M02*
