%TF.GenerationSoftware,KiCad,Pcbnew,(6.0.10)*%
%TF.CreationDate,2023-01-10T09:29:53-08:00*%
%TF.ProjectId,solid_state_relays_12v,736f6c69-645f-4737-9461-74655f72656c,0.0.8*%
%TF.SameCoordinates,PXe4e1c0PY6422c40*%
%TF.FileFunction,Legend,Bot*%
%TF.FilePolarity,Positive*%
%FSLAX46Y46*%
G04 Gerber Fmt 4.6, Leading zero omitted, Abs format (unit mm)*
G04 Created by KiCad (PCBNEW (6.0.10)) date 2023-01-10 09:29:53*
%MOMM*%
%LPD*%
G01*
G04 APERTURE LIST*
%ADD10C,0.150000*%
%ADD11C,0.500000*%
%ADD12C,0.010000*%
%ADD13C,0.200000*%
G04 APERTURE END LIST*
D10*
X4554761Y48597620D02*
X4554761Y47883334D01*
X4602380Y47740477D01*
X4697619Y47645239D01*
X4840476Y47597620D01*
X4935714Y47597620D01*
X4078571Y47597620D02*
X4078571Y48597620D01*
X3697619Y48597620D01*
X3602380Y48550000D01*
X3554761Y48502381D01*
X3507142Y48407143D01*
X3507142Y48264286D01*
X3554761Y48169048D01*
X3602380Y48121429D01*
X3697619Y48073810D01*
X4078571Y48073810D01*
X3173809Y48597620D02*
X2935714Y47597620D01*
X2745238Y48311905D01*
X2554761Y47597620D01*
X2316666Y48597620D01*
X1364285Y47597620D02*
X1697619Y48073810D01*
X1935714Y47597620D02*
X1935714Y48597620D01*
X1554761Y48597620D01*
X1459523Y48550000D01*
X1411904Y48502381D01*
X1364285Y48407143D01*
X1364285Y48264286D01*
X1411904Y48169048D01*
X1459523Y48121429D01*
X1554761Y48073810D01*
X1935714Y48073810D01*
X983333Y48502381D02*
X935714Y48550000D01*
X840476Y48597620D01*
X602380Y48597620D01*
X507142Y48550000D01*
X459523Y48502381D01*
X411904Y48407143D01*
X411904Y48311905D01*
X459523Y48169048D01*
X1030952Y47597620D01*
X411904Y47597620D01*
D11*
X26341666Y46916667D02*
X27008333Y46916667D01*
X27341666Y46750000D01*
X27508333Y46583334D01*
X27841666Y46083334D01*
X28008333Y45416667D01*
X28008333Y44083334D01*
X27841666Y43750000D01*
X27675000Y43583334D01*
X27341666Y43416667D01*
X26675000Y43416667D01*
X26341666Y43583334D01*
X26175000Y43750000D01*
X26008333Y44083334D01*
X26008333Y44916667D01*
X26175000Y45250000D01*
X26341666Y45416667D01*
X26675000Y45583334D01*
X27341666Y45583334D01*
X27675000Y45416667D01*
X27841666Y45250000D01*
X28008333Y44916667D01*
D10*
X4554761Y25497620D02*
X4554761Y24783334D01*
X4602380Y24640477D01*
X4697619Y24545239D01*
X4840476Y24497620D01*
X4935714Y24497620D01*
X4078571Y24497620D02*
X4078571Y25497620D01*
X3697619Y25497620D01*
X3602380Y25450000D01*
X3554761Y25402381D01*
X3507142Y25307143D01*
X3507142Y25164286D01*
X3554761Y25069048D01*
X3602380Y25021429D01*
X3697619Y24973810D01*
X4078571Y24973810D01*
X3173809Y25497620D02*
X2935714Y24497620D01*
X2745238Y25211905D01*
X2554761Y24497620D01*
X2316666Y25497620D01*
X1364285Y24497620D02*
X1697619Y24973810D01*
X1935714Y24497620D02*
X1935714Y25497620D01*
X1554761Y25497620D01*
X1459523Y25450000D01*
X1411904Y25402381D01*
X1364285Y25307143D01*
X1364285Y25164286D01*
X1411904Y25069048D01*
X1459523Y25021429D01*
X1554761Y24973810D01*
X1935714Y24973810D01*
X411904Y24497620D02*
X983333Y24497620D01*
X697619Y24497620D02*
X697619Y25497620D01*
X792857Y25354762D01*
X888095Y25259524D01*
X983333Y25211905D01*
%TO.C,JCNTL1*%
X99042857Y51297620D02*
X99042857Y50583334D01*
X99090476Y50440477D01*
X99185714Y50345239D01*
X99328571Y50297620D01*
X99423809Y50297620D01*
X97995238Y50392858D02*
X98042857Y50345239D01*
X98185714Y50297620D01*
X98280952Y50297620D01*
X98423809Y50345239D01*
X98519047Y50440477D01*
X98566666Y50535715D01*
X98614285Y50726191D01*
X98614285Y50869048D01*
X98566666Y51059524D01*
X98519047Y51154762D01*
X98423809Y51250000D01*
X98280952Y51297620D01*
X98185714Y51297620D01*
X98042857Y51250000D01*
X97995238Y51202381D01*
X97566666Y50297620D02*
X97566666Y51297620D01*
X96995238Y50297620D01*
X96995238Y51297620D01*
X96661904Y51297620D02*
X96090476Y51297620D01*
X96376190Y50297620D02*
X96376190Y51297620D01*
X95280952Y50297620D02*
X95757142Y50297620D01*
X95757142Y51297620D01*
X94423809Y50297620D02*
X94995238Y50297620D01*
X94709523Y50297620D02*
X94709523Y51297620D01*
X94804761Y51154762D01*
X94900000Y51059524D01*
X94995238Y51011905D01*
%TO.C,JCNTL2*%
X99042857Y39697620D02*
X99042857Y38983334D01*
X99090476Y38840477D01*
X99185714Y38745239D01*
X99328571Y38697620D01*
X99423809Y38697620D01*
X97995238Y38792858D02*
X98042857Y38745239D01*
X98185714Y38697620D01*
X98280952Y38697620D01*
X98423809Y38745239D01*
X98519047Y38840477D01*
X98566666Y38935715D01*
X98614285Y39126191D01*
X98614285Y39269048D01*
X98566666Y39459524D01*
X98519047Y39554762D01*
X98423809Y39650000D01*
X98280952Y39697620D01*
X98185714Y39697620D01*
X98042857Y39650000D01*
X97995238Y39602381D01*
X97566666Y38697620D02*
X97566666Y39697620D01*
X96995238Y38697620D01*
X96995238Y39697620D01*
X96661904Y39697620D02*
X96090476Y39697620D01*
X96376190Y38697620D02*
X96376190Y39697620D01*
X95280952Y38697620D02*
X95757142Y38697620D01*
X95757142Y39697620D01*
X94995238Y39602381D02*
X94947619Y39650000D01*
X94852380Y39697620D01*
X94614285Y39697620D01*
X94519047Y39650000D01*
X94471428Y39602381D01*
X94423809Y39507143D01*
X94423809Y39411905D01*
X94471428Y39269048D01*
X95042857Y38697620D01*
X94423809Y38697620D01*
%TO.C,Q7*%
X38292857Y20978572D02*
X38435714Y21050000D01*
X38578571Y21192858D01*
X38792857Y21407143D01*
X38935714Y21478572D01*
X39078571Y21478572D01*
X39007142Y21121429D02*
X39150000Y21192858D01*
X39292857Y21335715D01*
X39364285Y21621429D01*
X39364285Y22121429D01*
X39292857Y22407143D01*
X39150000Y22550000D01*
X39007142Y22621429D01*
X38721428Y22621429D01*
X38578571Y22550000D01*
X38435714Y22407143D01*
X38364285Y22121429D01*
X38364285Y21621429D01*
X38435714Y21335715D01*
X38578571Y21192858D01*
X38721428Y21121429D01*
X39007142Y21121429D01*
X37864285Y22621429D02*
X36864285Y22621429D01*
X37507142Y21121429D01*
%TO.C,Q6*%
X58292857Y20978572D02*
X58435714Y21050000D01*
X58578571Y21192858D01*
X58792857Y21407143D01*
X58935714Y21478572D01*
X59078571Y21478572D01*
X59007142Y21121429D02*
X59150000Y21192858D01*
X59292857Y21335715D01*
X59364285Y21621429D01*
X59364285Y22121429D01*
X59292857Y22407143D01*
X59150000Y22550000D01*
X59007142Y22621429D01*
X58721428Y22621429D01*
X58578571Y22550000D01*
X58435714Y22407143D01*
X58364285Y22121429D01*
X58364285Y21621429D01*
X58435714Y21335715D01*
X58578571Y21192858D01*
X58721428Y21121429D01*
X59007142Y21121429D01*
X57078571Y22621429D02*
X57364285Y22621429D01*
X57507142Y22550000D01*
X57578571Y22478572D01*
X57721428Y22264286D01*
X57792857Y21978572D01*
X57792857Y21407143D01*
X57721428Y21264286D01*
X57650000Y21192858D01*
X57507142Y21121429D01*
X57221428Y21121429D01*
X57078571Y21192858D01*
X57007142Y21264286D01*
X56935714Y21407143D01*
X56935714Y21764286D01*
X57007142Y21907143D01*
X57078571Y21978572D01*
X57221428Y22050000D01*
X57507142Y22050000D01*
X57650000Y21978572D01*
X57721428Y21907143D01*
X57792857Y21764286D01*
%TO.C,TVSP2*%
X7916666Y45547620D02*
X7345238Y45547620D01*
X7630952Y44547620D02*
X7630952Y45547620D01*
X7154761Y45547620D02*
X6821428Y44547620D01*
X6488095Y45547620D01*
X6202380Y44595239D02*
X6059523Y44547620D01*
X5821428Y44547620D01*
X5726190Y44595239D01*
X5678571Y44642858D01*
X5630952Y44738096D01*
X5630952Y44833334D01*
X5678571Y44928572D01*
X5726190Y44976191D01*
X5821428Y45023810D01*
X6011904Y45071429D01*
X6107142Y45119048D01*
X6154761Y45166667D01*
X6202380Y45261905D01*
X6202380Y45357143D01*
X6154761Y45452381D01*
X6107142Y45500000D01*
X6011904Y45547620D01*
X5773809Y45547620D01*
X5630952Y45500000D01*
X5202380Y44547620D02*
X5202380Y45547620D01*
X4821428Y45547620D01*
X4726190Y45500000D01*
X4678571Y45452381D01*
X4630952Y45357143D01*
X4630952Y45214286D01*
X4678571Y45119048D01*
X4726190Y45071429D01*
X4821428Y45023810D01*
X5202380Y45023810D01*
X4250000Y45452381D02*
X4202380Y45500000D01*
X4107142Y45547620D01*
X3869047Y45547620D01*
X3773809Y45500000D01*
X3726190Y45452381D01*
X3678571Y45357143D01*
X3678571Y45261905D01*
X3726190Y45119048D01*
X4297619Y44547620D01*
X3678571Y44547620D01*
%TO.C,Q3*%
X52142857Y67378572D02*
X52285714Y67450000D01*
X52428571Y67592858D01*
X52642857Y67807143D01*
X52785714Y67878572D01*
X52928571Y67878572D01*
X52857142Y67521429D02*
X53000000Y67592858D01*
X53142857Y67735715D01*
X53214285Y68021429D01*
X53214285Y68521429D01*
X53142857Y68807143D01*
X53000000Y68950000D01*
X52857142Y69021429D01*
X52571428Y69021429D01*
X52428571Y68950000D01*
X52285714Y68807143D01*
X52214285Y68521429D01*
X52214285Y68021429D01*
X52285714Y67735715D01*
X52428571Y67592858D01*
X52571428Y67521429D01*
X52857142Y67521429D01*
X51714285Y69021429D02*
X50785714Y69021429D01*
X51285714Y68450000D01*
X51071428Y68450000D01*
X50928571Y68378572D01*
X50857142Y68307143D01*
X50785714Y68164286D01*
X50785714Y67807143D01*
X50857142Y67664286D01*
X50928571Y67592858D01*
X51071428Y67521429D01*
X51500000Y67521429D01*
X51642857Y67592858D01*
X51714285Y67664286D01*
%TO.C,Q5*%
X78292857Y20978572D02*
X78435714Y21050000D01*
X78578571Y21192858D01*
X78792857Y21407143D01*
X78935714Y21478572D01*
X79078571Y21478572D01*
X79007142Y21121429D02*
X79150000Y21192858D01*
X79292857Y21335715D01*
X79364285Y21621429D01*
X79364285Y22121429D01*
X79292857Y22407143D01*
X79150000Y22550000D01*
X79007142Y22621429D01*
X78721428Y22621429D01*
X78578571Y22550000D01*
X78435714Y22407143D01*
X78364285Y22121429D01*
X78364285Y21621429D01*
X78435714Y21335715D01*
X78578571Y21192858D01*
X78721428Y21121429D01*
X79007142Y21121429D01*
X77007142Y22621429D02*
X77721428Y22621429D01*
X77792857Y21907143D01*
X77721428Y21978572D01*
X77578571Y22050000D01*
X77221428Y22050000D01*
X77078571Y21978572D01*
X77007142Y21907143D01*
X76935714Y21764286D01*
X76935714Y21407143D01*
X77007142Y21264286D01*
X77078571Y21192858D01*
X77221428Y21121429D01*
X77578571Y21121429D01*
X77721428Y21192858D01*
X77792857Y21264286D01*
%TO.C,#LOGO_GITHUB_URL1*%
X78500000Y40000000D02*
X78595238Y40047620D01*
X78738095Y40047620D01*
X78880952Y40000000D01*
X78976190Y39904762D01*
X79023809Y39809524D01*
X79071428Y39619048D01*
X79071428Y39476191D01*
X79023809Y39285715D01*
X78976190Y39190477D01*
X78880952Y39095239D01*
X78738095Y39047620D01*
X78642857Y39047620D01*
X78500000Y39095239D01*
X78452380Y39142858D01*
X78452380Y39476191D01*
X78642857Y39476191D01*
X78023809Y39047620D02*
X78023809Y39714286D01*
X78023809Y40047620D02*
X78071428Y40000000D01*
X78023809Y39952381D01*
X77976190Y40000000D01*
X78023809Y40047620D01*
X78023809Y39952381D01*
X77690476Y39714286D02*
X77309523Y39714286D01*
X77547619Y40047620D02*
X77547619Y39190477D01*
X77500000Y39095239D01*
X77404761Y39047620D01*
X77309523Y39047620D01*
X76976190Y39047620D02*
X76976190Y40047620D01*
X76976190Y39571429D02*
X76404761Y39571429D01*
X76404761Y39047620D02*
X76404761Y40047620D01*
X75500000Y39714286D02*
X75500000Y39047620D01*
X75928571Y39714286D02*
X75928571Y39190477D01*
X75880952Y39095239D01*
X75785714Y39047620D01*
X75642857Y39047620D01*
X75547619Y39095239D01*
X75500000Y39142858D01*
X75023809Y39047620D02*
X75023809Y40047620D01*
X75023809Y39666667D02*
X74928571Y39714286D01*
X74738095Y39714286D01*
X74642857Y39666667D01*
X74595238Y39619048D01*
X74547619Y39523810D01*
X74547619Y39238096D01*
X74595238Y39142858D01*
X74642857Y39095239D01*
X74738095Y39047620D01*
X74928571Y39047620D01*
X75023809Y39095239D01*
X73357142Y40047620D02*
X73357142Y39238096D01*
X73309523Y39142858D01*
X73261904Y39095239D01*
X73166666Y39047620D01*
X72976190Y39047620D01*
X72880952Y39095239D01*
X72833333Y39142858D01*
X72785714Y39238096D01*
X72785714Y40047620D01*
X71738095Y39047620D02*
X72071428Y39523810D01*
X72309523Y39047620D02*
X72309523Y40047620D01*
X71928571Y40047620D01*
X71833333Y40000000D01*
X71785714Y39952381D01*
X71738095Y39857143D01*
X71738095Y39714286D01*
X71785714Y39619048D01*
X71833333Y39571429D01*
X71928571Y39523810D01*
X72309523Y39523810D01*
X70833333Y39047620D02*
X71309523Y39047620D01*
X71309523Y40047620D01*
%TO.C,Q2*%
X72142857Y67378572D02*
X72285714Y67450000D01*
X72428571Y67592858D01*
X72642857Y67807143D01*
X72785714Y67878572D01*
X72928571Y67878572D01*
X72857142Y67521429D02*
X73000000Y67592858D01*
X73142857Y67735715D01*
X73214285Y68021429D01*
X73214285Y68521429D01*
X73142857Y68807143D01*
X73000000Y68950000D01*
X72857142Y69021429D01*
X72571428Y69021429D01*
X72428571Y68950000D01*
X72285714Y68807143D01*
X72214285Y68521429D01*
X72214285Y68021429D01*
X72285714Y67735715D01*
X72428571Y67592858D01*
X72571428Y67521429D01*
X72857142Y67521429D01*
X71642857Y68878572D02*
X71571428Y68950000D01*
X71428571Y69021429D01*
X71071428Y69021429D01*
X70928571Y68950000D01*
X70857142Y68878572D01*
X70785714Y68735715D01*
X70785714Y68592858D01*
X70857142Y68378572D01*
X71714285Y67521429D01*
X70785714Y67521429D01*
%TO.C,Q4*%
X32142857Y67378572D02*
X32285714Y67450000D01*
X32428571Y67592858D01*
X32642857Y67807143D01*
X32785714Y67878572D01*
X32928571Y67878572D01*
X32857142Y67521429D02*
X33000000Y67592858D01*
X33142857Y67735715D01*
X33214285Y68021429D01*
X33214285Y68521429D01*
X33142857Y68807143D01*
X33000000Y68950000D01*
X32857142Y69021429D01*
X32571428Y69021429D01*
X32428571Y68950000D01*
X32285714Y68807143D01*
X32214285Y68521429D01*
X32214285Y68021429D01*
X32285714Y67735715D01*
X32428571Y67592858D01*
X32571428Y67521429D01*
X32857142Y67521429D01*
X30928571Y68521429D02*
X30928571Y67521429D01*
X31285714Y69092858D02*
X31642857Y68021429D01*
X30714285Y68021429D01*
%TO.C,Q1*%
X92042857Y67378572D02*
X92185714Y67450000D01*
X92328571Y67592858D01*
X92542857Y67807143D01*
X92685714Y67878572D01*
X92828571Y67878572D01*
X92757142Y67521429D02*
X92900000Y67592858D01*
X93042857Y67735715D01*
X93114285Y68021429D01*
X93114285Y68521429D01*
X93042857Y68807143D01*
X92900000Y68950000D01*
X92757142Y69021429D01*
X92471428Y69021429D01*
X92328571Y68950000D01*
X92185714Y68807143D01*
X92114285Y68521429D01*
X92114285Y68021429D01*
X92185714Y67735715D01*
X92328571Y67592858D01*
X92471428Y67521429D01*
X92757142Y67521429D01*
X90685714Y67521429D02*
X91542857Y67521429D01*
X91114285Y67521429D02*
X91114285Y69021429D01*
X91257142Y68807143D01*
X91400000Y68664286D01*
X91542857Y68592858D01*
%TO.C,Q8*%
X18292857Y20978572D02*
X18435714Y21050000D01*
X18578571Y21192858D01*
X18792857Y21407143D01*
X18935714Y21478572D01*
X19078571Y21478572D01*
X19007142Y21121429D02*
X19150000Y21192858D01*
X19292857Y21335715D01*
X19364285Y21621429D01*
X19364285Y22121429D01*
X19292857Y22407143D01*
X19150000Y22550000D01*
X19007142Y22621429D01*
X18721428Y22621429D01*
X18578571Y22550000D01*
X18435714Y22407143D01*
X18364285Y22121429D01*
X18364285Y21621429D01*
X18435714Y21335715D01*
X18578571Y21192858D01*
X18721428Y21121429D01*
X19007142Y21121429D01*
X17507142Y21978572D02*
X17650000Y22050000D01*
X17721428Y22121429D01*
X17792857Y22264286D01*
X17792857Y22335715D01*
X17721428Y22478572D01*
X17650000Y22550000D01*
X17507142Y22621429D01*
X17221428Y22621429D01*
X17078571Y22550000D01*
X17007142Y22478572D01*
X16935714Y22335715D01*
X16935714Y22264286D01*
X17007142Y22121429D01*
X17078571Y22050000D01*
X17221428Y21978572D01*
X17507142Y21978572D01*
X17650000Y21907143D01*
X17721428Y21835715D01*
X17792857Y21692858D01*
X17792857Y21407143D01*
X17721428Y21264286D01*
X17650000Y21192858D01*
X17507142Y21121429D01*
X17221428Y21121429D01*
X17078571Y21192858D01*
X17007142Y21264286D01*
X16935714Y21407143D01*
X16935714Y21692858D01*
X17007142Y21835715D01*
X17078571Y21907143D01*
X17221428Y21978572D01*
%TO.C,#LOGO_KICAD1*%
G36*
X39856734Y42730917D02*
G01*
X39933831Y42730725D01*
X39992777Y42730140D01*
X40036364Y42728949D01*
X40067383Y42726936D01*
X40088625Y42723888D01*
X40102882Y42719591D01*
X40112945Y42713828D01*
X40121606Y42706388D01*
X40123391Y42704707D01*
X40130635Y42697168D01*
X40136277Y42688150D01*
X40140517Y42675016D01*
X40143556Y42655128D01*
X40145594Y42625849D01*
X40146830Y42584542D01*
X40147465Y42528569D01*
X40147700Y42455293D01*
X40147734Y42362077D01*
X40147697Y42289287D01*
X40147448Y42211111D01*
X40146812Y42150897D01*
X40145615Y42106018D01*
X40143684Y42073848D01*
X40140846Y42051761D01*
X40136927Y42037130D01*
X40131755Y42027330D01*
X40125156Y42019733D01*
X40121822Y42016556D01*
X40113300Y42010446D01*
X40101298Y42005771D01*
X40083087Y42002341D01*
X40055940Y41999964D01*
X40017129Y41998448D01*
X39963924Y41997602D01*
X39893598Y41997235D01*
X39803422Y41997155D01*
X39761314Y41997167D01*
X39680167Y41997349D01*
X39617675Y41997902D01*
X39571109Y41999018D01*
X39537741Y42000887D01*
X39514844Y42003702D01*
X39499688Y42007654D01*
X39489546Y42012934D01*
X39481689Y42019733D01*
X39466963Y42041333D01*
X39459111Y42070533D01*
X39464610Y42094440D01*
X39481689Y42121333D01*
X39486668Y42125941D01*
X39496443Y42132228D01*
X39510559Y42136854D01*
X39532054Y42140070D01*
X39563968Y42142130D01*
X39609342Y42143288D01*
X39671213Y42143798D01*
X39752622Y42143911D01*
X40000978Y42143911D01*
X40000978Y42301955D01*
X39839801Y42301955D01*
X39803983Y42302101D01*
X39738359Y42303824D01*
X39691118Y42308259D01*
X39659383Y42316363D01*
X39640277Y42329094D01*
X39630923Y42347408D01*
X39628445Y42372262D01*
X39629242Y42392518D01*
X39634494Y42414344D01*
X39647288Y42429696D01*
X39670628Y42439691D01*
X39707517Y42445447D01*
X39760959Y42448081D01*
X39833958Y42448711D01*
X40002105Y42448711D01*
X39998719Y42513622D01*
X39995334Y42578533D01*
X39747617Y42581582D01*
X39685026Y42582461D01*
X39616565Y42583905D01*
X39565661Y42585836D01*
X39529408Y42588486D01*
X39504901Y42592090D01*
X39489235Y42596879D01*
X39479506Y42603087D01*
X39473491Y42609490D01*
X39460482Y42641172D01*
X39464043Y42676858D01*
X39483818Y42707916D01*
X39487069Y42710839D01*
X39496049Y42717190D01*
X39508153Y42722043D01*
X39526159Y42725597D01*
X39552847Y42728054D01*
X39590997Y42729615D01*
X39643386Y42730482D01*
X39712794Y42730854D01*
X39802001Y42730933D01*
X39856734Y42730917D01*
G37*
D12*
X39856734Y42730917D02*
X39933831Y42730725D01*
X39992777Y42730140D01*
X40036364Y42728949D01*
X40067383Y42726936D01*
X40088625Y42723888D01*
X40102882Y42719591D01*
X40112945Y42713828D01*
X40121606Y42706388D01*
X40123391Y42704707D01*
X40130635Y42697168D01*
X40136277Y42688150D01*
X40140517Y42675016D01*
X40143556Y42655128D01*
X40145594Y42625849D01*
X40146830Y42584542D01*
X40147465Y42528569D01*
X40147700Y42455293D01*
X40147734Y42362077D01*
X40147697Y42289287D01*
X40147448Y42211111D01*
X40146812Y42150897D01*
X40145615Y42106018D01*
X40143684Y42073848D01*
X40140846Y42051761D01*
X40136927Y42037130D01*
X40131755Y42027330D01*
X40125156Y42019733D01*
X40121822Y42016556D01*
X40113300Y42010446D01*
X40101298Y42005771D01*
X40083087Y42002341D01*
X40055940Y41999964D01*
X40017129Y41998448D01*
X39963924Y41997602D01*
X39893598Y41997235D01*
X39803422Y41997155D01*
X39761314Y41997167D01*
X39680167Y41997349D01*
X39617675Y41997902D01*
X39571109Y41999018D01*
X39537741Y42000887D01*
X39514844Y42003702D01*
X39499688Y42007654D01*
X39489546Y42012934D01*
X39481689Y42019733D01*
X39466963Y42041333D01*
X39459111Y42070533D01*
X39464610Y42094440D01*
X39481689Y42121333D01*
X39486668Y42125941D01*
X39496443Y42132228D01*
X39510559Y42136854D01*
X39532054Y42140070D01*
X39563968Y42142130D01*
X39609342Y42143288D01*
X39671213Y42143798D01*
X39752622Y42143911D01*
X40000978Y42143911D01*
X40000978Y42301955D01*
X39839801Y42301955D01*
X39803983Y42302101D01*
X39738359Y42303824D01*
X39691118Y42308259D01*
X39659383Y42316363D01*
X39640277Y42329094D01*
X39630923Y42347408D01*
X39628445Y42372262D01*
X39629242Y42392518D01*
X39634494Y42414344D01*
X39647288Y42429696D01*
X39670628Y42439691D01*
X39707517Y42445447D01*
X39760959Y42448081D01*
X39833958Y42448711D01*
X40002105Y42448711D01*
X39998719Y42513622D01*
X39995334Y42578533D01*
X39747617Y42581582D01*
X39685026Y42582461D01*
X39616565Y42583905D01*
X39565661Y42585836D01*
X39529408Y42588486D01*
X39504901Y42592090D01*
X39489235Y42596879D01*
X39479506Y42603087D01*
X39473491Y42609490D01*
X39460482Y42641172D01*
X39464043Y42676858D01*
X39483818Y42707916D01*
X39487069Y42710839D01*
X39496049Y42717190D01*
X39508153Y42722043D01*
X39526159Y42725597D01*
X39552847Y42728054D01*
X39590997Y42729615D01*
X39643386Y42730482D01*
X39712794Y42730854D01*
X39802001Y42730933D01*
X39856734Y42730917D01*
G36*
X41276059Y46756989D02*
G01*
X41276362Y46609784D01*
X41276548Y46445651D01*
X41276642Y46263648D01*
X41276671Y46062835D01*
X41276661Y45842268D01*
X41276636Y45601008D01*
X41276622Y45338111D01*
X41276622Y45295960D01*
X41276646Y45035332D01*
X41276685Y44796204D01*
X41276708Y44577640D01*
X41276687Y44378705D01*
X41276593Y44198465D01*
X41276395Y44035985D01*
X41276063Y43890330D01*
X41275569Y43760566D01*
X41274883Y43645757D01*
X41273976Y43544970D01*
X41272817Y43457270D01*
X41271378Y43381721D01*
X41269629Y43317389D01*
X41267540Y43263339D01*
X41265083Y43218637D01*
X41262227Y43182348D01*
X41258943Y43153537D01*
X41255202Y43131269D01*
X41250974Y43114610D01*
X41246229Y43102625D01*
X41240939Y43094379D01*
X41235073Y43088938D01*
X41228602Y43085366D01*
X41221497Y43082730D01*
X41213728Y43080094D01*
X41205266Y43076523D01*
X41200908Y43074855D01*
X41192395Y43072889D01*
X41179694Y43071089D01*
X41161885Y43069445D01*
X41138049Y43067953D01*
X41107266Y43066603D01*
X41068617Y43065389D01*
X41021182Y43064303D01*
X40964043Y43063339D01*
X40896279Y43062489D01*
X40816971Y43061747D01*
X40725199Y43061103D01*
X40620044Y43060553D01*
X40500587Y43060087D01*
X40365908Y43059700D01*
X40215088Y43059384D01*
X40047206Y43059131D01*
X39861345Y43058934D01*
X39656583Y43058787D01*
X39432002Y43058682D01*
X39186682Y43058611D01*
X38919704Y43058568D01*
X38881321Y43058563D01*
X38615922Y43058520D01*
X38372050Y43058475D01*
X38148783Y43058452D01*
X37945196Y43058476D01*
X37760367Y43058570D01*
X37593373Y43058757D01*
X37443290Y43059061D01*
X37309196Y43059506D01*
X37190166Y43060115D01*
X37085279Y43060911D01*
X36993610Y43061920D01*
X36914237Y43063163D01*
X36846237Y43064665D01*
X36788686Y43066449D01*
X36740662Y43068539D01*
X36701240Y43070958D01*
X36669499Y43073730D01*
X36644514Y43076879D01*
X36625364Y43080428D01*
X36611123Y43084402D01*
X36600871Y43088822D01*
X36593682Y43093714D01*
X36588635Y43099100D01*
X36584805Y43105004D01*
X36581271Y43111451D01*
X36577108Y43118463D01*
X36576025Y43120313D01*
X36573813Y43125820D01*
X36571786Y43134132D01*
X36569938Y43146191D01*
X36568261Y43162937D01*
X36566745Y43185313D01*
X36565383Y43214260D01*
X36564167Y43250720D01*
X36563089Y43295633D01*
X36562140Y43349943D01*
X36561312Y43414590D01*
X36560597Y43490516D01*
X36559987Y43578662D01*
X36559942Y43587507D01*
X36851378Y43587507D01*
X36855260Y43586235D01*
X36878520Y43584209D01*
X36920874Y43582374D01*
X36980132Y43580773D01*
X37054107Y43579451D01*
X37140610Y43578452D01*
X37237452Y43577820D01*
X37342445Y43577600D01*
X38040651Y43577600D01*
X39195090Y43577600D01*
X39194456Y43653800D01*
X39195574Y43695840D01*
X39201304Y43731666D01*
X39213890Y43769228D01*
X39235568Y43817423D01*
X39238789Y43824103D01*
X39264188Y43873641D01*
X39290996Y43921631D01*
X39313917Y43958534D01*
X39318485Y43965166D01*
X39340516Y43996407D01*
X39372693Y44041346D01*
X39413457Y44097853D01*
X39461245Y44163796D01*
X39514498Y44237043D01*
X39571655Y44315464D01*
X39631155Y44396928D01*
X39691437Y44479302D01*
X39750940Y44560456D01*
X39808105Y44638258D01*
X39861370Y44710577D01*
X39909174Y44775282D01*
X39949957Y44830241D01*
X39982158Y44873324D01*
X40004216Y44902398D01*
X40014571Y44915333D01*
X40019044Y44919649D01*
X40023236Y44921688D01*
X40026643Y44919074D01*
X40029325Y44910014D01*
X40031341Y44892715D01*
X40032748Y44865386D01*
X40033605Y44826235D01*
X40033970Y44773467D01*
X40033903Y44705293D01*
X40033460Y44619918D01*
X40032702Y44515551D01*
X40031685Y44390400D01*
X40031308Y44345700D01*
X40030169Y44224605D01*
X40028972Y44123312D01*
X40027636Y44039738D01*
X40026077Y43971796D01*
X40024215Y43917401D01*
X40021966Y43874468D01*
X40019248Y43840911D01*
X40015979Y43814645D01*
X40012078Y43793584D01*
X40007461Y43775643D01*
X39999192Y43749230D01*
X39975583Y43687228D01*
X39949685Y43634427D01*
X39924535Y43597355D01*
X39923339Y43595925D01*
X39921168Y43591576D01*
X39923328Y43587974D01*
X39931644Y43585049D01*
X39947940Y43582731D01*
X39974041Y43580949D01*
X40011771Y43579633D01*
X40062956Y43578714D01*
X40129420Y43578122D01*
X40212987Y43577785D01*
X40315483Y43577635D01*
X40438732Y43577600D01*
X40970296Y43577600D01*
X40931523Y43635217D01*
X40925432Y43644107D01*
X40914976Y43658931D01*
X40905579Y43672578D01*
X40897183Y43686235D01*
X40889733Y43701089D01*
X40883173Y43718330D01*
X40877446Y43739145D01*
X40872495Y43764720D01*
X40868266Y43796245D01*
X40864701Y43834907D01*
X40861744Y43881893D01*
X40859340Y43938392D01*
X40857431Y44005591D01*
X40855962Y44084678D01*
X40854876Y44176840D01*
X40854118Y44283266D01*
X40853630Y44405143D01*
X40853358Y44543659D01*
X40853243Y44700001D01*
X40853231Y44875358D01*
X40853265Y45070918D01*
X40853289Y45287867D01*
X40853280Y45410487D01*
X40853243Y45615553D01*
X40853227Y45799884D01*
X40853288Y45964666D01*
X40853484Y46111084D01*
X40853870Y46240326D01*
X40854505Y46353578D01*
X40855444Y46452025D01*
X40856745Y46536856D01*
X40858464Y46609256D01*
X40860659Y46670411D01*
X40863385Y46721508D01*
X40866701Y46763733D01*
X40870662Y46798273D01*
X40875325Y46826314D01*
X40880747Y46849042D01*
X40886986Y46867644D01*
X40894097Y46883307D01*
X40902138Y46897216D01*
X40911166Y46910559D01*
X40921236Y46924521D01*
X40932407Y46940289D01*
X40972197Y46998133D01*
X39912314Y46998133D01*
X39950311Y46935034D01*
X39964993Y46909995D01*
X39979531Y46882414D01*
X39991627Y46854300D01*
X40001532Y46823449D01*
X40009494Y46787656D01*
X40015761Y46744717D01*
X40020582Y46692426D01*
X40024206Y46628581D01*
X40026881Y46550975D01*
X40028857Y46457406D01*
X40030382Y46345667D01*
X40031704Y46213555D01*
X40032613Y46093566D01*
X40033020Y45976937D01*
X40032767Y45881469D01*
X40031857Y45807444D01*
X40030293Y45755145D01*
X40028079Y45724851D01*
X40025220Y45716844D01*
X40022161Y45720142D01*
X40004006Y45741592D01*
X39974275Y45778111D01*
X39934639Y45827558D01*
X39886771Y45887793D01*
X39832343Y45956673D01*
X39773027Y46032057D01*
X39710495Y46111804D01*
X39646421Y46193772D01*
X39582475Y46275820D01*
X39520331Y46355806D01*
X39461661Y46431589D01*
X39408137Y46501027D01*
X39361430Y46561979D01*
X39323214Y46612304D01*
X39295161Y46649860D01*
X39278943Y46672505D01*
X39233635Y46744788D01*
X39193661Y46824537D01*
X39172130Y46892812D01*
X39168827Y46950156D01*
X39174116Y46998133D01*
X38042356Y46997883D01*
X38081867Y46967278D01*
X38091248Y46959911D01*
X38154183Y46905562D01*
X38222997Y46837741D01*
X38299596Y46754484D01*
X38385888Y46653822D01*
X38403052Y46633153D01*
X38443833Y46583591D01*
X38493588Y46522674D01*
X38550955Y46452102D01*
X38614569Y46373576D01*
X38683069Y46288796D01*
X38755090Y46199463D01*
X38829270Y46107278D01*
X38844517Y46088298D01*
X38904246Y46013940D01*
X38978653Y45921152D01*
X39051131Y45830612D01*
X39120314Y45744022D01*
X39184841Y45663082D01*
X39243347Y45589494D01*
X39294470Y45524956D01*
X39336847Y45471171D01*
X39369115Y45429838D01*
X39389910Y45402658D01*
X39397869Y45391332D01*
X39396111Y45387229D01*
X39383230Y45366666D01*
X39358885Y45330439D01*
X39324247Y45280176D01*
X39280486Y45217508D01*
X39228775Y45144064D01*
X39170284Y45061473D01*
X39106184Y44971364D01*
X39037646Y44875369D01*
X38965843Y44775115D01*
X38891944Y44672232D01*
X38817121Y44568350D01*
X38742545Y44465099D01*
X38669387Y44364108D01*
X38598819Y44267006D01*
X38532011Y44175423D01*
X38470135Y44090989D01*
X38414361Y44015333D01*
X38365862Y43950084D01*
X38325807Y43896872D01*
X38295369Y43857327D01*
X38274944Y43831974D01*
X38228899Y43777705D01*
X38178612Y43721225D01*
X38131815Y43671331D01*
X38040651Y43577600D01*
X37342445Y43577600D01*
X37411356Y43577651D01*
X37509607Y43577909D01*
X37599030Y43578363D01*
X37677333Y43578990D01*
X37742223Y43579765D01*
X37791411Y43580665D01*
X37822604Y43581666D01*
X37833511Y43582743D01*
X37832322Y43585963D01*
X37822176Y43603548D01*
X37805040Y43629842D01*
X37796540Y43642309D01*
X37787329Y43656378D01*
X37779233Y43670649D01*
X37772185Y43686521D01*
X37766117Y43705391D01*
X37760961Y43728659D01*
X37756651Y43757722D01*
X37753119Y43793979D01*
X37750297Y43838830D01*
X37748118Y43893672D01*
X37746514Y43959903D01*
X37745419Y44038923D01*
X37744765Y44132129D01*
X37744484Y44240921D01*
X37744509Y44366697D01*
X37744772Y44510855D01*
X37745206Y44674793D01*
X37745745Y44859911D01*
X37746279Y45038768D01*
X37746805Y45197626D01*
X37747350Y45336684D01*
X37747945Y45457335D01*
X37748619Y45560972D01*
X37749403Y45648989D01*
X37750326Y45722777D01*
X37751419Y45783731D01*
X37752712Y45833243D01*
X37754235Y45872707D01*
X37756019Y45903516D01*
X37758092Y45927062D01*
X37760486Y45944740D01*
X37763230Y45957941D01*
X37766356Y45968060D01*
X37769892Y45976489D01*
X37773791Y45984625D01*
X37793438Y46021456D01*
X37812225Y46051609D01*
X37813272Y46053092D01*
X37827602Y46075341D01*
X37833511Y46088298D01*
X37832504Y46088751D01*
X37815305Y46090197D01*
X37778656Y46091520D01*
X37724962Y46092684D01*
X37656630Y46093653D01*
X37576064Y46094389D01*
X37485670Y46094858D01*
X37387853Y46095022D01*
X36942195Y46095022D01*
X36939120Y44918155D01*
X36936045Y43741289D01*
X36909407Y43682378D01*
X36897485Y43657817D01*
X36880246Y43627566D01*
X36867074Y43610440D01*
X36859076Y43602409D01*
X36851378Y43587507D01*
X36559942Y43587507D01*
X36559474Y43679971D01*
X36559050Y43795383D01*
X36558706Y43925840D01*
X36558434Y44072284D01*
X36558227Y44235656D01*
X36558076Y44416899D01*
X36557972Y44616952D01*
X36557908Y44836759D01*
X36557876Y45077261D01*
X36557867Y45339398D01*
X36557867Y47530969D01*
X36596249Y47569351D01*
X36623355Y47593089D01*
X36650253Y47604889D01*
X36686560Y47607733D01*
X36738489Y47607733D01*
X36738489Y47519794D01*
X36740427Y47469898D01*
X36759199Y47359477D01*
X36796217Y47258013D01*
X36849369Y47166848D01*
X36916546Y47087327D01*
X36995638Y47020795D01*
X37084534Y46968594D01*
X37181125Y46932070D01*
X37283300Y46912566D01*
X37388950Y46911427D01*
X37495964Y46929995D01*
X37602232Y46969616D01*
X37699219Y47027484D01*
X37784293Y47102316D01*
X37853015Y47190385D01*
X37903918Y47289384D01*
X37935535Y47397007D01*
X37946400Y47510946D01*
X37946400Y47607733D01*
X39566753Y47607733D01*
X39777897Y47607720D01*
X39982020Y47607670D01*
X40165686Y47607570D01*
X40329991Y47607408D01*
X40476029Y47607171D01*
X40604894Y47606847D01*
X40717683Y47606425D01*
X40815488Y47605891D01*
X40899404Y47605233D01*
X40970527Y47604439D01*
X41029950Y47603496D01*
X41078768Y47602392D01*
X41118077Y47601116D01*
X41148969Y47599653D01*
X41172541Y47597993D01*
X41189886Y47596122D01*
X41202099Y47594028D01*
X41210275Y47591700D01*
X41215508Y47589124D01*
X41221504Y47585555D01*
X41228279Y47582022D01*
X41234478Y47578512D01*
X41240126Y47574082D01*
X41245247Y47567792D01*
X41249869Y47558699D01*
X41254015Y47545861D01*
X41257713Y47528338D01*
X41260987Y47505187D01*
X41263863Y47475466D01*
X41266367Y47438235D01*
X41268524Y47392551D01*
X41270360Y47337473D01*
X41271900Y47272059D01*
X41273170Y47195367D01*
X41274195Y47106456D01*
X41275001Y47004383D01*
X41275034Y46998133D01*
X41275614Y46888208D01*
X41276059Y46756989D01*
G37*
X41276059Y46756989D02*
X41276362Y46609784D01*
X41276548Y46445651D01*
X41276642Y46263648D01*
X41276671Y46062835D01*
X41276661Y45842268D01*
X41276636Y45601008D01*
X41276622Y45338111D01*
X41276622Y45295960D01*
X41276646Y45035332D01*
X41276685Y44796204D01*
X41276708Y44577640D01*
X41276687Y44378705D01*
X41276593Y44198465D01*
X41276395Y44035985D01*
X41276063Y43890330D01*
X41275569Y43760566D01*
X41274883Y43645757D01*
X41273976Y43544970D01*
X41272817Y43457270D01*
X41271378Y43381721D01*
X41269629Y43317389D01*
X41267540Y43263339D01*
X41265083Y43218637D01*
X41262227Y43182348D01*
X41258943Y43153537D01*
X41255202Y43131269D01*
X41250974Y43114610D01*
X41246229Y43102625D01*
X41240939Y43094379D01*
X41235073Y43088938D01*
X41228602Y43085366D01*
X41221497Y43082730D01*
X41213728Y43080094D01*
X41205266Y43076523D01*
X41200908Y43074855D01*
X41192395Y43072889D01*
X41179694Y43071089D01*
X41161885Y43069445D01*
X41138049Y43067953D01*
X41107266Y43066603D01*
X41068617Y43065389D01*
X41021182Y43064303D01*
X40964043Y43063339D01*
X40896279Y43062489D01*
X40816971Y43061747D01*
X40725199Y43061103D01*
X40620044Y43060553D01*
X40500587Y43060087D01*
X40365908Y43059700D01*
X40215088Y43059384D01*
X40047206Y43059131D01*
X39861345Y43058934D01*
X39656583Y43058787D01*
X39432002Y43058682D01*
X39186682Y43058611D01*
X38919704Y43058568D01*
X38881321Y43058563D01*
X38615922Y43058520D01*
X38372050Y43058475D01*
X38148783Y43058452D01*
X37945196Y43058476D01*
X37760367Y43058570D01*
X37593373Y43058757D01*
X37443290Y43059061D01*
X37309196Y43059506D01*
X37190166Y43060115D01*
X37085279Y43060911D01*
X36993610Y43061920D01*
X36914237Y43063163D01*
X36846237Y43064665D01*
X36788686Y43066449D01*
X36740662Y43068539D01*
X36701240Y43070958D01*
X36669499Y43073730D01*
X36644514Y43076879D01*
X36625364Y43080428D01*
X36611123Y43084402D01*
X36600871Y43088822D01*
X36593682Y43093714D01*
X36588635Y43099100D01*
X36584805Y43105004D01*
X36581271Y43111451D01*
X36577108Y43118463D01*
X36576025Y43120313D01*
X36573813Y43125820D01*
X36571786Y43134132D01*
X36569938Y43146191D01*
X36568261Y43162937D01*
X36566745Y43185313D01*
X36565383Y43214260D01*
X36564167Y43250720D01*
X36563089Y43295633D01*
X36562140Y43349943D01*
X36561312Y43414590D01*
X36560597Y43490516D01*
X36559987Y43578662D01*
X36559942Y43587507D01*
X36851378Y43587507D01*
X36855260Y43586235D01*
X36878520Y43584209D01*
X36920874Y43582374D01*
X36980132Y43580773D01*
X37054107Y43579451D01*
X37140610Y43578452D01*
X37237452Y43577820D01*
X37342445Y43577600D01*
X38040651Y43577600D01*
X39195090Y43577600D01*
X39194456Y43653800D01*
X39195574Y43695840D01*
X39201304Y43731666D01*
X39213890Y43769228D01*
X39235568Y43817423D01*
X39238789Y43824103D01*
X39264188Y43873641D01*
X39290996Y43921631D01*
X39313917Y43958534D01*
X39318485Y43965166D01*
X39340516Y43996407D01*
X39372693Y44041346D01*
X39413457Y44097853D01*
X39461245Y44163796D01*
X39514498Y44237043D01*
X39571655Y44315464D01*
X39631155Y44396928D01*
X39691437Y44479302D01*
X39750940Y44560456D01*
X39808105Y44638258D01*
X39861370Y44710577D01*
X39909174Y44775282D01*
X39949957Y44830241D01*
X39982158Y44873324D01*
X40004216Y44902398D01*
X40014571Y44915333D01*
X40019044Y44919649D01*
X40023236Y44921688D01*
X40026643Y44919074D01*
X40029325Y44910014D01*
X40031341Y44892715D01*
X40032748Y44865386D01*
X40033605Y44826235D01*
X40033970Y44773467D01*
X40033903Y44705293D01*
X40033460Y44619918D01*
X40032702Y44515551D01*
X40031685Y44390400D01*
X40031308Y44345700D01*
X40030169Y44224605D01*
X40028972Y44123312D01*
X40027636Y44039738D01*
X40026077Y43971796D01*
X40024215Y43917401D01*
X40021966Y43874468D01*
X40019248Y43840911D01*
X40015979Y43814645D01*
X40012078Y43793584D01*
X40007461Y43775643D01*
X39999192Y43749230D01*
X39975583Y43687228D01*
X39949685Y43634427D01*
X39924535Y43597355D01*
X39923339Y43595925D01*
X39921168Y43591576D01*
X39923328Y43587974D01*
X39931644Y43585049D01*
X39947940Y43582731D01*
X39974041Y43580949D01*
X40011771Y43579633D01*
X40062956Y43578714D01*
X40129420Y43578122D01*
X40212987Y43577785D01*
X40315483Y43577635D01*
X40438732Y43577600D01*
X40970296Y43577600D01*
X40931523Y43635217D01*
X40925432Y43644107D01*
X40914976Y43658931D01*
X40905579Y43672578D01*
X40897183Y43686235D01*
X40889733Y43701089D01*
X40883173Y43718330D01*
X40877446Y43739145D01*
X40872495Y43764720D01*
X40868266Y43796245D01*
X40864701Y43834907D01*
X40861744Y43881893D01*
X40859340Y43938392D01*
X40857431Y44005591D01*
X40855962Y44084678D01*
X40854876Y44176840D01*
X40854118Y44283266D01*
X40853630Y44405143D01*
X40853358Y44543659D01*
X40853243Y44700001D01*
X40853231Y44875358D01*
X40853265Y45070918D01*
X40853289Y45287867D01*
X40853280Y45410487D01*
X40853243Y45615553D01*
X40853227Y45799884D01*
X40853288Y45964666D01*
X40853484Y46111084D01*
X40853870Y46240326D01*
X40854505Y46353578D01*
X40855444Y46452025D01*
X40856745Y46536856D01*
X40858464Y46609256D01*
X40860659Y46670411D01*
X40863385Y46721508D01*
X40866701Y46763733D01*
X40870662Y46798273D01*
X40875325Y46826314D01*
X40880747Y46849042D01*
X40886986Y46867644D01*
X40894097Y46883307D01*
X40902138Y46897216D01*
X40911166Y46910559D01*
X40921236Y46924521D01*
X40932407Y46940289D01*
X40972197Y46998133D01*
X39912314Y46998133D01*
X39950311Y46935034D01*
X39964993Y46909995D01*
X39979531Y46882414D01*
X39991627Y46854300D01*
X40001532Y46823449D01*
X40009494Y46787656D01*
X40015761Y46744717D01*
X40020582Y46692426D01*
X40024206Y46628581D01*
X40026881Y46550975D01*
X40028857Y46457406D01*
X40030382Y46345667D01*
X40031704Y46213555D01*
X40032613Y46093566D01*
X40033020Y45976937D01*
X40032767Y45881469D01*
X40031857Y45807444D01*
X40030293Y45755145D01*
X40028079Y45724851D01*
X40025220Y45716844D01*
X40022161Y45720142D01*
X40004006Y45741592D01*
X39974275Y45778111D01*
X39934639Y45827558D01*
X39886771Y45887793D01*
X39832343Y45956673D01*
X39773027Y46032057D01*
X39710495Y46111804D01*
X39646421Y46193772D01*
X39582475Y46275820D01*
X39520331Y46355806D01*
X39461661Y46431589D01*
X39408137Y46501027D01*
X39361430Y46561979D01*
X39323214Y46612304D01*
X39295161Y46649860D01*
X39278943Y46672505D01*
X39233635Y46744788D01*
X39193661Y46824537D01*
X39172130Y46892812D01*
X39168827Y46950156D01*
X39174116Y46998133D01*
X38042356Y46997883D01*
X38081867Y46967278D01*
X38091248Y46959911D01*
X38154183Y46905562D01*
X38222997Y46837741D01*
X38299596Y46754484D01*
X38385888Y46653822D01*
X38403052Y46633153D01*
X38443833Y46583591D01*
X38493588Y46522674D01*
X38550955Y46452102D01*
X38614569Y46373576D01*
X38683069Y46288796D01*
X38755090Y46199463D01*
X38829270Y46107278D01*
X38844517Y46088298D01*
X38904246Y46013940D01*
X38978653Y45921152D01*
X39051131Y45830612D01*
X39120314Y45744022D01*
X39184841Y45663082D01*
X39243347Y45589494D01*
X39294470Y45524956D01*
X39336847Y45471171D01*
X39369115Y45429838D01*
X39389910Y45402658D01*
X39397869Y45391332D01*
X39396111Y45387229D01*
X39383230Y45366666D01*
X39358885Y45330439D01*
X39324247Y45280176D01*
X39280486Y45217508D01*
X39228775Y45144064D01*
X39170284Y45061473D01*
X39106184Y44971364D01*
X39037646Y44875369D01*
X38965843Y44775115D01*
X38891944Y44672232D01*
X38817121Y44568350D01*
X38742545Y44465099D01*
X38669387Y44364108D01*
X38598819Y44267006D01*
X38532011Y44175423D01*
X38470135Y44090989D01*
X38414361Y44015333D01*
X38365862Y43950084D01*
X38325807Y43896872D01*
X38295369Y43857327D01*
X38274944Y43831974D01*
X38228899Y43777705D01*
X38178612Y43721225D01*
X38131815Y43671331D01*
X38040651Y43577600D01*
X37342445Y43577600D01*
X37411356Y43577651D01*
X37509607Y43577909D01*
X37599030Y43578363D01*
X37677333Y43578990D01*
X37742223Y43579765D01*
X37791411Y43580665D01*
X37822604Y43581666D01*
X37833511Y43582743D01*
X37832322Y43585963D01*
X37822176Y43603548D01*
X37805040Y43629842D01*
X37796540Y43642309D01*
X37787329Y43656378D01*
X37779233Y43670649D01*
X37772185Y43686521D01*
X37766117Y43705391D01*
X37760961Y43728659D01*
X37756651Y43757722D01*
X37753119Y43793979D01*
X37750297Y43838830D01*
X37748118Y43893672D01*
X37746514Y43959903D01*
X37745419Y44038923D01*
X37744765Y44132129D01*
X37744484Y44240921D01*
X37744509Y44366697D01*
X37744772Y44510855D01*
X37745206Y44674793D01*
X37745745Y44859911D01*
X37746279Y45038768D01*
X37746805Y45197626D01*
X37747350Y45336684D01*
X37747945Y45457335D01*
X37748619Y45560972D01*
X37749403Y45648989D01*
X37750326Y45722777D01*
X37751419Y45783731D01*
X37752712Y45833243D01*
X37754235Y45872707D01*
X37756019Y45903516D01*
X37758092Y45927062D01*
X37760486Y45944740D01*
X37763230Y45957941D01*
X37766356Y45968060D01*
X37769892Y45976489D01*
X37773791Y45984625D01*
X37793438Y46021456D01*
X37812225Y46051609D01*
X37813272Y46053092D01*
X37827602Y46075341D01*
X37833511Y46088298D01*
X37832504Y46088751D01*
X37815305Y46090197D01*
X37778656Y46091520D01*
X37724962Y46092684D01*
X37656630Y46093653D01*
X37576064Y46094389D01*
X37485670Y46094858D01*
X37387853Y46095022D01*
X36942195Y46095022D01*
X36939120Y44918155D01*
X36936045Y43741289D01*
X36909407Y43682378D01*
X36897485Y43657817D01*
X36880246Y43627566D01*
X36867074Y43610440D01*
X36859076Y43602409D01*
X36851378Y43587507D01*
X36559942Y43587507D01*
X36559474Y43679971D01*
X36559050Y43795383D01*
X36558706Y43925840D01*
X36558434Y44072284D01*
X36558227Y44235656D01*
X36558076Y44416899D01*
X36557972Y44616952D01*
X36557908Y44836759D01*
X36557876Y45077261D01*
X36557867Y45339398D01*
X36557867Y47530969D01*
X36596249Y47569351D01*
X36623355Y47593089D01*
X36650253Y47604889D01*
X36686560Y47607733D01*
X36738489Y47607733D01*
X36738489Y47519794D01*
X36740427Y47469898D01*
X36759199Y47359477D01*
X36796217Y47258013D01*
X36849369Y47166848D01*
X36916546Y47087327D01*
X36995638Y47020795D01*
X37084534Y46968594D01*
X37181125Y46932070D01*
X37283300Y46912566D01*
X37388950Y46911427D01*
X37495964Y46929995D01*
X37602232Y46969616D01*
X37699219Y47027484D01*
X37784293Y47102316D01*
X37853015Y47190385D01*
X37903918Y47289384D01*
X37935535Y47397007D01*
X37946400Y47510946D01*
X37946400Y47607733D01*
X39566753Y47607733D01*
X39777897Y47607720D01*
X39982020Y47607670D01*
X40165686Y47607570D01*
X40329991Y47607408D01*
X40476029Y47607171D01*
X40604894Y47606847D01*
X40717683Y47606425D01*
X40815488Y47605891D01*
X40899404Y47605233D01*
X40970527Y47604439D01*
X41029950Y47603496D01*
X41078768Y47602392D01*
X41118077Y47601116D01*
X41148969Y47599653D01*
X41172541Y47597993D01*
X41189886Y47596122D01*
X41202099Y47594028D01*
X41210275Y47591700D01*
X41215508Y47589124D01*
X41221504Y47585555D01*
X41228279Y47582022D01*
X41234478Y47578512D01*
X41240126Y47574082D01*
X41245247Y47567792D01*
X41249869Y47558699D01*
X41254015Y47545861D01*
X41257713Y47528338D01*
X41260987Y47505187D01*
X41263863Y47475466D01*
X41266367Y47438235D01*
X41268524Y47392551D01*
X41270360Y47337473D01*
X41271900Y47272059D01*
X41273170Y47195367D01*
X41274195Y47106456D01*
X41275001Y47004383D01*
X41275034Y46998133D01*
X41275614Y46888208D01*
X41276059Y46756989D01*
G36*
X31289702Y42721522D02*
G01*
X31307663Y42703011D01*
X31328263Y42671929D01*
X31353095Y42626244D01*
X31383750Y42563922D01*
X31421820Y42482929D01*
X31436454Y42451546D01*
X31466203Y42388362D01*
X31492297Y42333756D01*
X31513292Y42290710D01*
X31527739Y42262207D01*
X31534191Y42251230D01*
X31535550Y42251811D01*
X31545542Y42265758D01*
X31562833Y42295296D01*
X31585430Y42336913D01*
X31611338Y42387097D01*
X31627311Y42418586D01*
X31656261Y42473939D01*
X31678749Y42512956D01*
X31696965Y42538434D01*
X31713096Y42553169D01*
X31729330Y42559958D01*
X31747857Y42561600D01*
X31758360Y42561125D01*
X31774476Y42556918D01*
X31789790Y42546054D01*
X31806388Y42525781D01*
X31826357Y42493346D01*
X31851783Y42445996D01*
X31884752Y42380978D01*
X31894485Y42361723D01*
X31918943Y42315054D01*
X31939178Y42278891D01*
X31953311Y42256503D01*
X31959460Y42251155D01*
X31960827Y42254427D01*
X31970202Y42275336D01*
X31987062Y42312275D01*
X32009979Y42362126D01*
X32037520Y42421774D01*
X32068255Y42488102D01*
X32094970Y42545323D01*
X32124593Y42607312D01*
X32147664Y42653051D01*
X32165643Y42685092D01*
X32179990Y42705986D01*
X32192166Y42718282D01*
X32203632Y42724534D01*
X32213042Y42727426D01*
X32238147Y42727575D01*
X32265290Y42712232D01*
X32266590Y42711247D01*
X32288674Y42688612D01*
X32299723Y42666387D01*
X32299769Y42665747D01*
X32295228Y42648085D01*
X32282364Y42613519D01*
X32262605Y42565174D01*
X32237381Y42506175D01*
X32208119Y42439645D01*
X32176250Y42368709D01*
X32143201Y42296493D01*
X32110401Y42226120D01*
X32079280Y42160715D01*
X32051265Y42103403D01*
X32027786Y42057308D01*
X32010272Y42025554D01*
X32000151Y42011267D01*
X31965743Y41997898D01*
X31924046Y42004259D01*
X31918681Y42008956D01*
X31902852Y42031107D01*
X31880650Y42067868D01*
X31854233Y42115585D01*
X31825760Y42170607D01*
X31745986Y42329850D01*
X31672799Y42183258D01*
X31663103Y42163968D01*
X31636125Y42111620D01*
X31612096Y42066830D01*
X31593332Y42033846D01*
X31582146Y42016911D01*
X31581000Y42015668D01*
X31552879Y42000381D01*
X31517817Y41998698D01*
X31486776Y42011267D01*
X31484350Y42014116D01*
X31472090Y42034741D01*
X31452352Y42072292D01*
X31426448Y42124120D01*
X31395685Y42187577D01*
X31361375Y42260015D01*
X31324825Y42338784D01*
X31304585Y42382907D01*
X31267812Y42463635D01*
X31239355Y42527313D01*
X31218331Y42576248D01*
X31203854Y42612743D01*
X31195039Y42639105D01*
X31191004Y42657639D01*
X31190862Y42670648D01*
X31193730Y42680439D01*
X31208387Y42701322D01*
X31234990Y42721623D01*
X31235745Y42721965D01*
X31255335Y42728966D01*
X31272790Y42729496D01*
X31289702Y42721522D01*
G37*
X31289702Y42721522D02*
X31307663Y42703011D01*
X31328263Y42671929D01*
X31353095Y42626244D01*
X31383750Y42563922D01*
X31421820Y42482929D01*
X31436454Y42451546D01*
X31466203Y42388362D01*
X31492297Y42333756D01*
X31513292Y42290710D01*
X31527739Y42262207D01*
X31534191Y42251230D01*
X31535550Y42251811D01*
X31545542Y42265758D01*
X31562833Y42295296D01*
X31585430Y42336913D01*
X31611338Y42387097D01*
X31627311Y42418586D01*
X31656261Y42473939D01*
X31678749Y42512956D01*
X31696965Y42538434D01*
X31713096Y42553169D01*
X31729330Y42559958D01*
X31747857Y42561600D01*
X31758360Y42561125D01*
X31774476Y42556918D01*
X31789790Y42546054D01*
X31806388Y42525781D01*
X31826357Y42493346D01*
X31851783Y42445996D01*
X31884752Y42380978D01*
X31894485Y42361723D01*
X31918943Y42315054D01*
X31939178Y42278891D01*
X31953311Y42256503D01*
X31959460Y42251155D01*
X31960827Y42254427D01*
X31970202Y42275336D01*
X31987062Y42312275D01*
X32009979Y42362126D01*
X32037520Y42421774D01*
X32068255Y42488102D01*
X32094970Y42545323D01*
X32124593Y42607312D01*
X32147664Y42653051D01*
X32165643Y42685092D01*
X32179990Y42705986D01*
X32192166Y42718282D01*
X32203632Y42724534D01*
X32213042Y42727426D01*
X32238147Y42727575D01*
X32265290Y42712232D01*
X32266590Y42711247D01*
X32288674Y42688612D01*
X32299723Y42666387D01*
X32299769Y42665747D01*
X32295228Y42648085D01*
X32282364Y42613519D01*
X32262605Y42565174D01*
X32237381Y42506175D01*
X32208119Y42439645D01*
X32176250Y42368709D01*
X32143201Y42296493D01*
X32110401Y42226120D01*
X32079280Y42160715D01*
X32051265Y42103403D01*
X32027786Y42057308D01*
X32010272Y42025554D01*
X32000151Y42011267D01*
X31965743Y41997898D01*
X31924046Y42004259D01*
X31918681Y42008956D01*
X31902852Y42031107D01*
X31880650Y42067868D01*
X31854233Y42115585D01*
X31825760Y42170607D01*
X31745986Y42329850D01*
X31672799Y42183258D01*
X31663103Y42163968D01*
X31636125Y42111620D01*
X31612096Y42066830D01*
X31593332Y42033846D01*
X31582146Y42016911D01*
X31581000Y42015668D01*
X31552879Y42000381D01*
X31517817Y41998698D01*
X31486776Y42011267D01*
X31484350Y42014116D01*
X31472090Y42034741D01*
X31452352Y42072292D01*
X31426448Y42124120D01*
X31395685Y42187577D01*
X31361375Y42260015D01*
X31324825Y42338784D01*
X31304585Y42382907D01*
X31267812Y42463635D01*
X31239355Y42527313D01*
X31218331Y42576248D01*
X31203854Y42612743D01*
X31195039Y42639105D01*
X31191004Y42657639D01*
X31190862Y42670648D01*
X31193730Y42680439D01*
X31208387Y42701322D01*
X31234990Y42721623D01*
X31235745Y42721965D01*
X31255335Y42728966D01*
X31272790Y42729496D01*
X31289702Y42721522D01*
G36*
X30855406Y42725051D02*
G01*
X30881127Y42709353D01*
X30907778Y42687773D01*
X30907778Y42040316D01*
X30881127Y42018736D01*
X30849767Y42001261D01*
X30813966Y42000425D01*
X30782528Y42020918D01*
X30778652Y42025584D01*
X30773186Y42035051D01*
X30768979Y42048733D01*
X30765867Y42069252D01*
X30763687Y42099232D01*
X30762276Y42141296D01*
X30761471Y42198068D01*
X30761107Y42272170D01*
X30761022Y42366227D01*
X30761022Y42687773D01*
X30787673Y42709353D01*
X30811386Y42724123D01*
X30834400Y42730933D01*
X30855406Y42725051D01*
G37*
X30855406Y42725051D02*
X30881127Y42709353D01*
X30907778Y42687773D01*
X30907778Y42040316D01*
X30881127Y42018736D01*
X30849767Y42001261D01*
X30813966Y42000425D01*
X30782528Y42020918D01*
X30778652Y42025584D01*
X30773186Y42035051D01*
X30768979Y42048733D01*
X30765867Y42069252D01*
X30763687Y42099232D01*
X30762276Y42141296D01*
X30761471Y42198068D01*
X30761107Y42272170D01*
X30761022Y42366227D01*
X30761022Y42687773D01*
X30787673Y42709353D01*
X30811386Y42724123D01*
X30834400Y42730933D01*
X30855406Y42725051D01*
G36*
X38840853Y42730064D02*
G01*
X38907100Y42724634D01*
X38962400Y42715036D01*
X39013283Y42700175D01*
X39084595Y42667042D01*
X39135752Y42624360D01*
X39166575Y42572295D01*
X39176889Y42511017D01*
X39175952Y42479768D01*
X39170160Y42454971D01*
X39155353Y42433301D01*
X39127380Y42405951D01*
X39119402Y42398622D01*
X39095692Y42377719D01*
X39073298Y42360749D01*
X39049265Y42346795D01*
X39020637Y42334944D01*
X38984460Y42324280D01*
X38937780Y42313889D01*
X38877641Y42302854D01*
X38801090Y42290262D01*
X38705171Y42275196D01*
X38686808Y42272162D01*
X38624478Y42258542D01*
X38579260Y42242808D01*
X38552976Y42225737D01*
X38547447Y42208103D01*
X38550068Y42203832D01*
X38568000Y42188767D01*
X38596126Y42172133D01*
X38608926Y42166143D01*
X38630224Y42158950D01*
X38656610Y42154173D01*
X38692454Y42151354D01*
X38742128Y42150036D01*
X38810000Y42149763D01*
X38827785Y42149836D01*
X38895406Y42150947D01*
X38960345Y42153172D01*
X39015970Y42156238D01*
X39055651Y42159873D01*
X39091162Y42163941D01*
X39120415Y42164724D01*
X39139315Y42160124D01*
X39154429Y42149449D01*
X39158085Y42145856D01*
X39174427Y42114082D01*
X39173107Y42078428D01*
X39154150Y42047810D01*
X39133780Y42036204D01*
X39097796Y42023509D01*
X39055372Y42013459D01*
X39051922Y42012860D01*
X39009252Y42007644D01*
X38951866Y42003270D01*
X38886849Y42000182D01*
X38821289Y41998823D01*
X38805057Y41998782D01*
X38706744Y42001259D01*
X38626692Y42009265D01*
X38561513Y42023797D01*
X38507817Y42045851D01*
X38462216Y42076424D01*
X38421323Y42116514D01*
X38401202Y42142741D01*
X38389576Y42172288D01*
X38386667Y42212005D01*
X38386808Y42223974D01*
X38390681Y42256655D01*
X38403065Y42283181D01*
X38428230Y42314029D01*
X38449442Y42336169D01*
X38475838Y42358715D01*
X38505555Y42377083D01*
X38541785Y42392339D01*
X38587717Y42405551D01*
X38646544Y42417786D01*
X38721456Y42430111D01*
X38815645Y42443594D01*
X38860957Y42450604D01*
X38928911Y42465163D01*
X38978047Y42481663D01*
X39007614Y42499561D01*
X39016864Y42518315D01*
X39005048Y42537385D01*
X38971416Y42556229D01*
X38968370Y42557443D01*
X38922011Y42569521D01*
X38859361Y42577721D01*
X38785927Y42581881D01*
X38707217Y42581839D01*
X38628739Y42577431D01*
X38556000Y42568495D01*
X38552073Y42567846D01*
X38503257Y42560139D01*
X38471005Y42556527D01*
X38450008Y42557124D01*
X38434954Y42562046D01*
X38420534Y42571404D01*
X38419364Y42572275D01*
X38394847Y42602649D01*
X38390054Y42638150D01*
X38405860Y42672731D01*
X38410406Y42677187D01*
X38440020Y42692327D01*
X38487002Y42705450D01*
X38547306Y42716250D01*
X38616888Y42724419D01*
X38691703Y42729649D01*
X38767706Y42731633D01*
X38840853Y42730064D01*
G37*
X38840853Y42730064D02*
X38907100Y42724634D01*
X38962400Y42715036D01*
X39013283Y42700175D01*
X39084595Y42667042D01*
X39135752Y42624360D01*
X39166575Y42572295D01*
X39176889Y42511017D01*
X39175952Y42479768D01*
X39170160Y42454971D01*
X39155353Y42433301D01*
X39127380Y42405951D01*
X39119402Y42398622D01*
X39095692Y42377719D01*
X39073298Y42360749D01*
X39049265Y42346795D01*
X39020637Y42334944D01*
X38984460Y42324280D01*
X38937780Y42313889D01*
X38877641Y42302854D01*
X38801090Y42290262D01*
X38705171Y42275196D01*
X38686808Y42272162D01*
X38624478Y42258542D01*
X38579260Y42242808D01*
X38552976Y42225737D01*
X38547447Y42208103D01*
X38550068Y42203832D01*
X38568000Y42188767D01*
X38596126Y42172133D01*
X38608926Y42166143D01*
X38630224Y42158950D01*
X38656610Y42154173D01*
X38692454Y42151354D01*
X38742128Y42150036D01*
X38810000Y42149763D01*
X38827785Y42149836D01*
X38895406Y42150947D01*
X38960345Y42153172D01*
X39015970Y42156238D01*
X39055651Y42159873D01*
X39091162Y42163941D01*
X39120415Y42164724D01*
X39139315Y42160124D01*
X39154429Y42149449D01*
X39158085Y42145856D01*
X39174427Y42114082D01*
X39173107Y42078428D01*
X39154150Y42047810D01*
X39133780Y42036204D01*
X39097796Y42023509D01*
X39055372Y42013459D01*
X39051922Y42012860D01*
X39009252Y42007644D01*
X38951866Y42003270D01*
X38886849Y42000182D01*
X38821289Y41998823D01*
X38805057Y41998782D01*
X38706744Y42001259D01*
X38626692Y42009265D01*
X38561513Y42023797D01*
X38507817Y42045851D01*
X38462216Y42076424D01*
X38421323Y42116514D01*
X38401202Y42142741D01*
X38389576Y42172288D01*
X38386667Y42212005D01*
X38386808Y42223974D01*
X38390681Y42256655D01*
X38403065Y42283181D01*
X38428230Y42314029D01*
X38449442Y42336169D01*
X38475838Y42358715D01*
X38505555Y42377083D01*
X38541785Y42392339D01*
X38587717Y42405551D01*
X38646544Y42417786D01*
X38721456Y42430111D01*
X38815645Y42443594D01*
X38860957Y42450604D01*
X38928911Y42465163D01*
X38978047Y42481663D01*
X39007614Y42499561D01*
X39016864Y42518315D01*
X39005048Y42537385D01*
X38971416Y42556229D01*
X38968370Y42557443D01*
X38922011Y42569521D01*
X38859361Y42577721D01*
X38785927Y42581881D01*
X38707217Y42581839D01*
X38628739Y42577431D01*
X38556000Y42568495D01*
X38552073Y42567846D01*
X38503257Y42560139D01*
X38471005Y42556527D01*
X38450008Y42557124D01*
X38434954Y42562046D01*
X38420534Y42571404D01*
X38419364Y42572275D01*
X38394847Y42602649D01*
X38390054Y42638150D01*
X38405860Y42672731D01*
X38410406Y42677187D01*
X38440020Y42692327D01*
X38487002Y42705450D01*
X38547306Y42716250D01*
X38616888Y42724419D01*
X38691703Y42729649D01*
X38767706Y42731633D01*
X38840853Y42730064D01*
G36*
X33727261Y44322637D02*
G01*
X33723632Y44247798D01*
X33716022Y44185599D01*
X33703688Y44129016D01*
X33659313Y44002924D01*
X33596400Y43888321D01*
X33516238Y43787432D01*
X33419740Y43701076D01*
X33307822Y43630068D01*
X33181397Y43575224D01*
X33041378Y43537362D01*
X33005149Y43531649D01*
X32926155Y43525687D01*
X32837841Y43525354D01*
X32748075Y43530341D01*
X32664722Y43540334D01*
X32595651Y43555022D01*
X32509187Y43585251D01*
X32399286Y43639943D01*
X32301956Y43707457D01*
X32239867Y43758444D01*
X32236605Y43662378D01*
X32233343Y43566311D01*
X31810450Y43566311D01*
X31799543Y43566314D01*
X31705056Y43566620D01*
X31618331Y43567384D01*
X31541837Y43568549D01*
X31478043Y43570058D01*
X31429418Y43571853D01*
X31398433Y43573879D01*
X31387556Y43576078D01*
X31387578Y43576537D01*
X31394614Y43592090D01*
X31410434Y43614929D01*
X31414734Y43620362D01*
X31425777Y43634394D01*
X31435311Y43647814D01*
X31443461Y43662278D01*
X31450352Y43679444D01*
X31456111Y43700966D01*
X31460862Y43728502D01*
X31464731Y43763708D01*
X31467844Y43808240D01*
X31470325Y43863754D01*
X31472300Y43931907D01*
X31473894Y44014355D01*
X31475234Y44112754D01*
X31476444Y44228761D01*
X31476896Y44279538D01*
X32279378Y44279538D01*
X32324048Y44223027D01*
X32336785Y44207788D01*
X32383604Y44165156D01*
X32444255Y44129328D01*
X32454897Y44124150D01*
X32493676Y44107255D01*
X32528692Y44097091D01*
X32568722Y44091675D01*
X32622541Y44089022D01*
X32640648Y44088617D01*
X32716011Y44091460D01*
X32776743Y44103380D01*
X32828452Y44125963D01*
X32876746Y44160789D01*
X32881803Y44165202D01*
X32930272Y44220840D01*
X32958459Y44284667D01*
X32967752Y44359718D01*
X32960520Y44431307D01*
X32935796Y44494355D01*
X32891249Y44552242D01*
X32836319Y44599192D01*
X32763894Y44639039D01*
X32677340Y44666737D01*
X32574670Y44682904D01*
X32453894Y44688158D01*
X32445007Y44688143D01*
X32389660Y44687345D01*
X32342736Y44685512D01*
X32308953Y44682889D01*
X32293028Y44679726D01*
X32288943Y44673259D01*
X32284572Y44651125D01*
X32281604Y44612012D01*
X32279914Y44554061D01*
X32279378Y44475414D01*
X32279378Y44279538D01*
X31476896Y44279538D01*
X31477649Y44364032D01*
X31478975Y44520222D01*
X31480228Y44662988D01*
X31481651Y44808058D01*
X31483176Y44933973D01*
X31484933Y45042564D01*
X31487051Y45135666D01*
X31489660Y45215109D01*
X31492890Y45282727D01*
X31496869Y45340351D01*
X31501728Y45389815D01*
X31507597Y45432950D01*
X31514604Y45471590D01*
X31522880Y45507566D01*
X31532554Y45542711D01*
X31543756Y45578858D01*
X31556616Y45617839D01*
X31572090Y45660909D01*
X31614994Y45753129D01*
X31668735Y45832901D01*
X31737576Y45907035D01*
X31815185Y45970595D01*
X31919761Y46032275D01*
X32039244Y46079798D01*
X32174508Y46113433D01*
X32326426Y46133448D01*
X32495872Y46140111D01*
X32553890Y46139713D01*
X32619398Y46137665D01*
X32680693Y46133296D01*
X32742097Y46125965D01*
X32807932Y46115031D01*
X32882520Y46099853D01*
X32970184Y46079791D01*
X33075245Y46054203D01*
X33103806Y46047180D01*
X33179054Y46029224D01*
X33249388Y46013180D01*
X33310567Y45999972D01*
X33358354Y45990526D01*
X33388511Y45985769D01*
X33416783Y45982090D01*
X33443060Y45976813D01*
X33453059Y45972058D01*
X33449952Y45963219D01*
X33439194Y45935928D01*
X33421864Y45893094D01*
X33399126Y45837575D01*
X33372147Y45772228D01*
X33342090Y45699911D01*
X33335493Y45684121D01*
X33296907Y45593516D01*
X33265768Y45523783D01*
X33241917Y45474595D01*
X33225198Y45445626D01*
X33215454Y45436548D01*
X33207766Y45438595D01*
X33181415Y45448240D01*
X33142982Y45463810D01*
X33097822Y45483185D01*
X33003293Y45521186D01*
X32866480Y45562220D01*
X32725289Y45587388D01*
X32687314Y45591389D01*
X32584059Y45593553D01*
X32496952Y45580378D01*
X32425129Y45551244D01*
X32367731Y45505534D01*
X32323896Y45442628D01*
X32292762Y45361908D01*
X32273470Y45262755D01*
X32266050Y45203776D01*
X32427936Y45210555D01*
X32554495Y45212187D01*
X32705951Y45205806D01*
X32854396Y45191223D01*
X32990578Y45169118D01*
X33055245Y45154179D01*
X33187490Y45111259D01*
X33309762Y45054660D01*
X33419685Y44985983D01*
X33514883Y44906830D01*
X33592980Y44818804D01*
X33651599Y44723507D01*
X33675595Y44671136D01*
X33701232Y44600410D01*
X33717478Y44529188D01*
X33725822Y44450288D01*
X33727690Y44359718D01*
X33727755Y44356533D01*
X33727261Y44322637D01*
G37*
X33727261Y44322637D02*
X33723632Y44247798D01*
X33716022Y44185599D01*
X33703688Y44129016D01*
X33659313Y44002924D01*
X33596400Y43888321D01*
X33516238Y43787432D01*
X33419740Y43701076D01*
X33307822Y43630068D01*
X33181397Y43575224D01*
X33041378Y43537362D01*
X33005149Y43531649D01*
X32926155Y43525687D01*
X32837841Y43525354D01*
X32748075Y43530341D01*
X32664722Y43540334D01*
X32595651Y43555022D01*
X32509187Y43585251D01*
X32399286Y43639943D01*
X32301956Y43707457D01*
X32239867Y43758444D01*
X32236605Y43662378D01*
X32233343Y43566311D01*
X31810450Y43566311D01*
X31799543Y43566314D01*
X31705056Y43566620D01*
X31618331Y43567384D01*
X31541837Y43568549D01*
X31478043Y43570058D01*
X31429418Y43571853D01*
X31398433Y43573879D01*
X31387556Y43576078D01*
X31387578Y43576537D01*
X31394614Y43592090D01*
X31410434Y43614929D01*
X31414734Y43620362D01*
X31425777Y43634394D01*
X31435311Y43647814D01*
X31443461Y43662278D01*
X31450352Y43679444D01*
X31456111Y43700966D01*
X31460862Y43728502D01*
X31464731Y43763708D01*
X31467844Y43808240D01*
X31470325Y43863754D01*
X31472300Y43931907D01*
X31473894Y44014355D01*
X31475234Y44112754D01*
X31476444Y44228761D01*
X31476896Y44279538D01*
X32279378Y44279538D01*
X32324048Y44223027D01*
X32336785Y44207788D01*
X32383604Y44165156D01*
X32444255Y44129328D01*
X32454897Y44124150D01*
X32493676Y44107255D01*
X32528692Y44097091D01*
X32568722Y44091675D01*
X32622541Y44089022D01*
X32640648Y44088617D01*
X32716011Y44091460D01*
X32776743Y44103380D01*
X32828452Y44125963D01*
X32876746Y44160789D01*
X32881803Y44165202D01*
X32930272Y44220840D01*
X32958459Y44284667D01*
X32967752Y44359718D01*
X32960520Y44431307D01*
X32935796Y44494355D01*
X32891249Y44552242D01*
X32836319Y44599192D01*
X32763894Y44639039D01*
X32677340Y44666737D01*
X32574670Y44682904D01*
X32453894Y44688158D01*
X32445007Y44688143D01*
X32389660Y44687345D01*
X32342736Y44685512D01*
X32308953Y44682889D01*
X32293028Y44679726D01*
X32288943Y44673259D01*
X32284572Y44651125D01*
X32281604Y44612012D01*
X32279914Y44554061D01*
X32279378Y44475414D01*
X32279378Y44279538D01*
X31476896Y44279538D01*
X31477649Y44364032D01*
X31478975Y44520222D01*
X31480228Y44662988D01*
X31481651Y44808058D01*
X31483176Y44933973D01*
X31484933Y45042564D01*
X31487051Y45135666D01*
X31489660Y45215109D01*
X31492890Y45282727D01*
X31496869Y45340351D01*
X31501728Y45389815D01*
X31507597Y45432950D01*
X31514604Y45471590D01*
X31522880Y45507566D01*
X31532554Y45542711D01*
X31543756Y45578858D01*
X31556616Y45617839D01*
X31572090Y45660909D01*
X31614994Y45753129D01*
X31668735Y45832901D01*
X31737576Y45907035D01*
X31815185Y45970595D01*
X31919761Y46032275D01*
X32039244Y46079798D01*
X32174508Y46113433D01*
X32326426Y46133448D01*
X32495872Y46140111D01*
X32553890Y46139713D01*
X32619398Y46137665D01*
X32680693Y46133296D01*
X32742097Y46125965D01*
X32807932Y46115031D01*
X32882520Y46099853D01*
X32970184Y46079791D01*
X33075245Y46054203D01*
X33103806Y46047180D01*
X33179054Y46029224D01*
X33249388Y46013180D01*
X33310567Y45999972D01*
X33358354Y45990526D01*
X33388511Y45985769D01*
X33416783Y45982090D01*
X33443060Y45976813D01*
X33453059Y45972058D01*
X33449952Y45963219D01*
X33439194Y45935928D01*
X33421864Y45893094D01*
X33399126Y45837575D01*
X33372147Y45772228D01*
X33342090Y45699911D01*
X33335493Y45684121D01*
X33296907Y45593516D01*
X33265768Y45523783D01*
X33241917Y45474595D01*
X33225198Y45445626D01*
X33215454Y45436548D01*
X33207766Y45438595D01*
X33181415Y45448240D01*
X33142982Y45463810D01*
X33097822Y45483185D01*
X33003293Y45521186D01*
X32866480Y45562220D01*
X32725289Y45587388D01*
X32687314Y45591389D01*
X32584059Y45593553D01*
X32496952Y45580378D01*
X32425129Y45551244D01*
X32367731Y45505534D01*
X32323896Y45442628D01*
X32292762Y45361908D01*
X32273470Y45262755D01*
X32266050Y45203776D01*
X32427936Y45210555D01*
X32554495Y45212187D01*
X32705951Y45205806D01*
X32854396Y45191223D01*
X32990578Y45169118D01*
X33055245Y45154179D01*
X33187490Y45111259D01*
X33309762Y45054660D01*
X33419685Y44985983D01*
X33514883Y44906830D01*
X33592980Y44818804D01*
X33651599Y44723507D01*
X33675595Y44671136D01*
X33701232Y44600410D01*
X33717478Y44529188D01*
X33725822Y44450288D01*
X33727690Y44359718D01*
X33727755Y44356533D01*
X33727261Y44322637D01*
G36*
X30155767Y42730932D02*
G01*
X30249890Y42730842D01*
X30324405Y42730502D01*
X30381811Y42729761D01*
X30424611Y42728465D01*
X30455304Y42726463D01*
X30476391Y42723604D01*
X30490373Y42719734D01*
X30499750Y42714702D01*
X30507022Y42708355D01*
X30525828Y42675638D01*
X30527275Y42638061D01*
X30510917Y42604822D01*
X30509557Y42603369D01*
X30498354Y42595008D01*
X30481252Y42589453D01*
X30454082Y42586160D01*
X30412678Y42584582D01*
X30352873Y42584178D01*
X30213511Y42584178D01*
X30213511Y42320411D01*
X30213436Y42244583D01*
X30213028Y42177917D01*
X30212046Y42128133D01*
X30210250Y42092216D01*
X30207399Y42067150D01*
X30203253Y42049919D01*
X30197571Y42037508D01*
X30190114Y42026900D01*
X30187824Y42024094D01*
X30156646Y42001452D01*
X30122266Y41999888D01*
X30089334Y42019733D01*
X30082355Y42027809D01*
X30076883Y42038407D01*
X30072863Y42054251D01*
X30070072Y42078227D01*
X30068288Y42113226D01*
X30067289Y42162136D01*
X30066852Y42227846D01*
X30066756Y42313244D01*
X30066756Y42584178D01*
X29920820Y42584178D01*
X29909720Y42584179D01*
X29853202Y42584404D01*
X29814358Y42585543D01*
X29788965Y42588343D01*
X29772804Y42593550D01*
X29761652Y42601911D01*
X29751289Y42614174D01*
X29735441Y42644862D01*
X29738543Y42678642D01*
X29764187Y42711178D01*
X29769129Y42714895D01*
X29779338Y42719731D01*
X29794764Y42723494D01*
X29817886Y42726317D01*
X29851183Y42728330D01*
X29897137Y42729667D01*
X29958228Y42730458D01*
X30036935Y42730837D01*
X30135740Y42730933D01*
X30155767Y42730932D01*
G37*
X30155767Y42730932D02*
X30249890Y42730842D01*
X30324405Y42730502D01*
X30381811Y42729761D01*
X30424611Y42728465D01*
X30455304Y42726463D01*
X30476391Y42723604D01*
X30490373Y42719734D01*
X30499750Y42714702D01*
X30507022Y42708355D01*
X30525828Y42675638D01*
X30527275Y42638061D01*
X30510917Y42604822D01*
X30509557Y42603369D01*
X30498354Y42595008D01*
X30481252Y42589453D01*
X30454082Y42586160D01*
X30412678Y42584582D01*
X30352873Y42584178D01*
X30213511Y42584178D01*
X30213511Y42320411D01*
X30213436Y42244583D01*
X30213028Y42177917D01*
X30212046Y42128133D01*
X30210250Y42092216D01*
X30207399Y42067150D01*
X30203253Y42049919D01*
X30197571Y42037508D01*
X30190114Y42026900D01*
X30187824Y42024094D01*
X30156646Y42001452D01*
X30122266Y41999888D01*
X30089334Y42019733D01*
X30082355Y42027809D01*
X30076883Y42038407D01*
X30072863Y42054251D01*
X30070072Y42078227D01*
X30068288Y42113226D01*
X30067289Y42162136D01*
X30066852Y42227846D01*
X30066756Y42313244D01*
X30066756Y42584178D01*
X29920820Y42584178D01*
X29909720Y42584179D01*
X29853202Y42584404D01*
X29814358Y42585543D01*
X29788965Y42588343D01*
X29772804Y42593550D01*
X29761652Y42601911D01*
X29751289Y42614174D01*
X29735441Y42644862D01*
X29738543Y42678642D01*
X29764187Y42711178D01*
X29769129Y42714895D01*
X29779338Y42719731D01*
X29794764Y42723494D01*
X29817886Y42726317D01*
X29851183Y42728330D01*
X29897137Y42729667D01*
X29958228Y42730458D01*
X30036935Y42730837D01*
X30135740Y42730933D01*
X30155767Y42730932D01*
G36*
X35179803Y42701189D02*
G01*
X35184752Y42694505D01*
X35190596Y42683934D01*
X35195057Y42669847D01*
X35198321Y42649522D01*
X35200574Y42620235D01*
X35202002Y42579263D01*
X35202792Y42523883D01*
X35203129Y42451372D01*
X35203200Y42359006D01*
X35203171Y42293089D01*
X35202939Y42214772D01*
X35202319Y42154504D01*
X35201126Y42109607D01*
X35199179Y42077398D01*
X35196294Y42055200D01*
X35192288Y42040331D01*
X35186979Y42030111D01*
X35180183Y42021862D01*
X35175668Y42017205D01*
X35167438Y42010718D01*
X35156078Y42005806D01*
X35138810Y42002251D01*
X35112855Y41999833D01*
X35075436Y41998333D01*
X35023773Y41997533D01*
X34955089Y41997213D01*
X34866606Y41997155D01*
X34846931Y41997162D01*
X34759906Y41997428D01*
X34692254Y41998194D01*
X34641299Y41999608D01*
X34604367Y42001820D01*
X34578783Y42004978D01*
X34561871Y42009231D01*
X34550957Y42014729D01*
X34540464Y42024715D01*
X34527203Y42055832D01*
X34528386Y42091720D01*
X34544550Y42123267D01*
X34546739Y42125543D01*
X34555427Y42131811D01*
X34568769Y42136477D01*
X34589752Y42139773D01*
X34621363Y42141932D01*
X34666590Y42143186D01*
X34728420Y42143769D01*
X34809839Y42143911D01*
X35056445Y42143911D01*
X35056445Y42301955D01*
X34894006Y42301955D01*
X34858338Y42302036D01*
X34802568Y42302833D01*
X34763430Y42304838D01*
X34736976Y42308479D01*
X34719259Y42314188D01*
X34706329Y42322393D01*
X34702686Y42325577D01*
X34684278Y42356552D01*
X34683644Y42392888D01*
X34701183Y42426507D01*
X34701245Y42426576D01*
X34710916Y42435202D01*
X34724209Y42441258D01*
X34744917Y42445189D01*
X34776828Y42447444D01*
X34823734Y42448469D01*
X34889424Y42448711D01*
X35057571Y42448711D01*
X35054186Y42513622D01*
X35050800Y42578533D01*
X34808723Y42581586D01*
X34783707Y42581914D01*
X34702087Y42583394D01*
X34639768Y42585778D01*
X34594154Y42589773D01*
X34562652Y42596087D01*
X34542667Y42605426D01*
X34531604Y42618497D01*
X34526869Y42636008D01*
X34525867Y42658665D01*
X34525873Y42661030D01*
X34527027Y42681061D01*
X34531824Y42696854D01*
X34542632Y42708910D01*
X34561817Y42717733D01*
X34591745Y42723825D01*
X34634783Y42727689D01*
X34693299Y42729826D01*
X34769657Y42730740D01*
X34866226Y42730933D01*
X35156406Y42730933D01*
X35179803Y42701189D01*
G37*
X35179803Y42701189D02*
X35184752Y42694505D01*
X35190596Y42683934D01*
X35195057Y42669847D01*
X35198321Y42649522D01*
X35200574Y42620235D01*
X35202002Y42579263D01*
X35202792Y42523883D01*
X35203129Y42451372D01*
X35203200Y42359006D01*
X35203171Y42293089D01*
X35202939Y42214772D01*
X35202319Y42154504D01*
X35201126Y42109607D01*
X35199179Y42077398D01*
X35196294Y42055200D01*
X35192288Y42040331D01*
X35186979Y42030111D01*
X35180183Y42021862D01*
X35175668Y42017205D01*
X35167438Y42010718D01*
X35156078Y42005806D01*
X35138810Y42002251D01*
X35112855Y41999833D01*
X35075436Y41998333D01*
X35023773Y41997533D01*
X34955089Y41997213D01*
X34866606Y41997155D01*
X34846931Y41997162D01*
X34759906Y41997428D01*
X34692254Y41998194D01*
X34641299Y41999608D01*
X34604367Y42001820D01*
X34578783Y42004978D01*
X34561871Y42009231D01*
X34550957Y42014729D01*
X34540464Y42024715D01*
X34527203Y42055832D01*
X34528386Y42091720D01*
X34544550Y42123267D01*
X34546739Y42125543D01*
X34555427Y42131811D01*
X34568769Y42136477D01*
X34589752Y42139773D01*
X34621363Y42141932D01*
X34666590Y42143186D01*
X34728420Y42143769D01*
X34809839Y42143911D01*
X35056445Y42143911D01*
X35056445Y42301955D01*
X34894006Y42301955D01*
X34858338Y42302036D01*
X34802568Y42302833D01*
X34763430Y42304838D01*
X34736976Y42308479D01*
X34719259Y42314188D01*
X34706329Y42322393D01*
X34702686Y42325577D01*
X34684278Y42356552D01*
X34683644Y42392888D01*
X34701183Y42426507D01*
X34701245Y42426576D01*
X34710916Y42435202D01*
X34724209Y42441258D01*
X34744917Y42445189D01*
X34776828Y42447444D01*
X34823734Y42448469D01*
X34889424Y42448711D01*
X35057571Y42448711D01*
X35054186Y42513622D01*
X35050800Y42578533D01*
X34808723Y42581586D01*
X34783707Y42581914D01*
X34702087Y42583394D01*
X34639768Y42585778D01*
X34594154Y42589773D01*
X34562652Y42596087D01*
X34542667Y42605426D01*
X34531604Y42618497D01*
X34526869Y42636008D01*
X34525867Y42658665D01*
X34525873Y42661030D01*
X34527027Y42681061D01*
X34531824Y42696854D01*
X34542632Y42708910D01*
X34561817Y42717733D01*
X34591745Y42723825D01*
X34634783Y42727689D01*
X34693299Y42729826D01*
X34769657Y42730740D01*
X34866226Y42730933D01*
X35156406Y42730933D01*
X35179803Y42701189D01*
G36*
X29479734Y42708355D02*
G01*
X29485366Y42702165D01*
X29490456Y42693959D01*
X29494543Y42682183D01*
X29497721Y42664724D01*
X29500087Y42639470D01*
X29501738Y42604310D01*
X29502769Y42557131D01*
X29503277Y42495823D01*
X29503359Y42418273D01*
X29503109Y42322369D01*
X29502625Y42206000D01*
X29502557Y42191825D01*
X29501971Y42130063D01*
X29500648Y42086380D01*
X29498103Y42056999D01*
X29493848Y42038145D01*
X29487396Y42026041D01*
X29478262Y42016911D01*
X29444804Y41999494D01*
X29409856Y42002396D01*
X29378953Y42026900D01*
X29369944Y42040103D01*
X29362492Y42058639D01*
X29358124Y42084667D01*
X29356069Y42123213D01*
X29355556Y42179300D01*
X29355556Y42301955D01*
X28858845Y42301955D01*
X28858845Y42167129D01*
X28858772Y42131338D01*
X28858009Y42085008D01*
X28855833Y42054474D01*
X28851536Y42035443D01*
X28844412Y42023626D01*
X28833755Y42014729D01*
X28801504Y41999659D01*
X28766217Y42002327D01*
X28735486Y42026900D01*
X28730831Y42033155D01*
X28724895Y42043679D01*
X28720364Y42057609D01*
X28717048Y42077683D01*
X28714759Y42106640D01*
X28713308Y42147220D01*
X28712505Y42202160D01*
X28712162Y42274201D01*
X28712089Y42366080D01*
X28712089Y42675515D01*
X28739798Y42703224D01*
X28771177Y42725467D01*
X28804406Y42728156D01*
X28836267Y42708355D01*
X28844553Y42698585D01*
X28851965Y42682693D01*
X28856302Y42658725D01*
X28858338Y42621852D01*
X28858845Y42567244D01*
X28858845Y42448711D01*
X29355556Y42448711D01*
X29355556Y42564224D01*
X29355994Y42615922D01*
X29357958Y42650446D01*
X29362474Y42673022D01*
X29370567Y42688874D01*
X29383265Y42703224D01*
X29414643Y42725467D01*
X29447872Y42728156D01*
X29479734Y42708355D01*
G37*
X29479734Y42708355D02*
X29485366Y42702165D01*
X29490456Y42693959D01*
X29494543Y42682183D01*
X29497721Y42664724D01*
X29500087Y42639470D01*
X29501738Y42604310D01*
X29502769Y42557131D01*
X29503277Y42495823D01*
X29503359Y42418273D01*
X29503109Y42322369D01*
X29502625Y42206000D01*
X29502557Y42191825D01*
X29501971Y42130063D01*
X29500648Y42086380D01*
X29498103Y42056999D01*
X29493848Y42038145D01*
X29487396Y42026041D01*
X29478262Y42016911D01*
X29444804Y41999494D01*
X29409856Y42002396D01*
X29378953Y42026900D01*
X29369944Y42040103D01*
X29362492Y42058639D01*
X29358124Y42084667D01*
X29356069Y42123213D01*
X29355556Y42179300D01*
X29355556Y42301955D01*
X28858845Y42301955D01*
X28858845Y42167129D01*
X28858772Y42131338D01*
X28858009Y42085008D01*
X28855833Y42054474D01*
X28851536Y42035443D01*
X28844412Y42023626D01*
X28833755Y42014729D01*
X28801504Y41999659D01*
X28766217Y42002327D01*
X28735486Y42026900D01*
X28730831Y42033155D01*
X28724895Y42043679D01*
X28720364Y42057609D01*
X28717048Y42077683D01*
X28714759Y42106640D01*
X28713308Y42147220D01*
X28712505Y42202160D01*
X28712162Y42274201D01*
X28712089Y42366080D01*
X28712089Y42675515D01*
X28739798Y42703224D01*
X28771177Y42725467D01*
X28804406Y42728156D01*
X28836267Y42708355D01*
X28844553Y42698585D01*
X28851965Y42682693D01*
X28856302Y42658725D01*
X28858338Y42621852D01*
X28858845Y42567244D01*
X28858845Y42448711D01*
X29355556Y42448711D01*
X29355556Y42564224D01*
X29355994Y42615922D01*
X29357958Y42650446D01*
X29362474Y42673022D01*
X29370567Y42688874D01*
X29383265Y42703224D01*
X29414643Y42725467D01*
X29447872Y42728156D01*
X29479734Y42708355D01*
G36*
X34988711Y47037967D02*
G01*
X35084268Y47020477D01*
X35248558Y46975436D01*
X35402589Y46912344D01*
X35548509Y46830085D01*
X35688466Y46727543D01*
X35824608Y46603601D01*
X35868473Y46558339D01*
X35980758Y46426135D01*
X36073972Y46288168D01*
X36150719Y46140250D01*
X36213603Y45978197D01*
X36217420Y45966609D01*
X36267507Y45780608D01*
X36300899Y45584479D01*
X36317584Y45382432D01*
X36317551Y45178675D01*
X36300791Y44977419D01*
X36267292Y44782872D01*
X36217044Y44599244D01*
X36173190Y44481947D01*
X36095348Y44319049D01*
X36001828Y44165134D01*
X35894822Y44023329D01*
X35776519Y43896761D01*
X35649111Y43788559D01*
X35571606Y43735880D01*
X35444725Y43666250D01*
X35307243Y43607532D01*
X35165716Y43562413D01*
X35026702Y43533578D01*
X35012597Y43531894D01*
X34969153Y43528566D01*
X34911723Y43525725D01*
X34846122Y43523627D01*
X34778167Y43522532D01*
X34651378Y43524860D01*
X34503673Y43537864D01*
X34365779Y43562867D01*
X34232014Y43600682D01*
X34208562Y43609111D01*
X34160612Y43628592D01*
X34104140Y43653527D01*
X34042379Y43682278D01*
X33978563Y43713210D01*
X33915926Y43744685D01*
X33857703Y43775066D01*
X33807127Y43802717D01*
X33767433Y43826001D01*
X33741854Y43843282D01*
X33733625Y43852921D01*
X33735076Y43856016D01*
X33746250Y43875921D01*
X33767134Y43911580D01*
X33796265Y43960541D01*
X33832181Y44020354D01*
X33873420Y44088567D01*
X33918517Y44162729D01*
X34099785Y44459992D01*
X34146315Y44415461D01*
X34237723Y44337135D01*
X34351334Y44262561D01*
X34469122Y44208526D01*
X34589559Y44175710D01*
X34711117Y44164789D01*
X34752585Y44166132D01*
X34870080Y44184388D01*
X34980089Y44223383D01*
X35081430Y44282330D01*
X35172921Y44360443D01*
X35253380Y44456936D01*
X35321627Y44571022D01*
X35337908Y44605276D01*
X35383982Y44728760D01*
X35419106Y44867082D01*
X35443197Y45016439D01*
X35456173Y45173027D01*
X35457949Y45333044D01*
X35448443Y45492686D01*
X35427572Y45648150D01*
X35395252Y45795634D01*
X35351399Y45931333D01*
X35313982Y46017924D01*
X35249185Y46131312D01*
X35173772Y46224930D01*
X35087418Y46299041D01*
X34989795Y46353906D01*
X34880577Y46389788D01*
X34759439Y46406949D01*
X34690038Y46408120D01*
X34567168Y46393859D01*
X34451664Y46358759D01*
X34344953Y46303318D01*
X34248464Y46228036D01*
X34232720Y46213560D01*
X34202150Y46187038D01*
X34179809Y46169862D01*
X34169691Y46165213D01*
X34167706Y46167403D01*
X34153241Y46186279D01*
X34129400Y46219603D01*
X34098029Y46264620D01*
X34060974Y46318575D01*
X34020083Y46378715D01*
X33977202Y46442282D01*
X33934178Y46506524D01*
X33892857Y46568685D01*
X33855086Y46626009D01*
X33822712Y46675743D01*
X33797582Y46715132D01*
X33781542Y46741420D01*
X33776439Y46751853D01*
X33781050Y46756059D01*
X33800267Y46761067D01*
X33809838Y46763614D01*
X33837809Y46774751D01*
X33879448Y46793198D01*
X33930995Y46817275D01*
X33988690Y46845301D01*
X33999957Y46850846D01*
X34177687Y46930111D01*
X34347490Y46989615D01*
X34511430Y47029755D01*
X34671571Y47050929D01*
X34829977Y47053534D01*
X34988711Y47037967D01*
G37*
X34988711Y47037967D02*
X35084268Y47020477D01*
X35248558Y46975436D01*
X35402589Y46912344D01*
X35548509Y46830085D01*
X35688466Y46727543D01*
X35824608Y46603601D01*
X35868473Y46558339D01*
X35980758Y46426135D01*
X36073972Y46288168D01*
X36150719Y46140250D01*
X36213603Y45978197D01*
X36217420Y45966609D01*
X36267507Y45780608D01*
X36300899Y45584479D01*
X36317584Y45382432D01*
X36317551Y45178675D01*
X36300791Y44977419D01*
X36267292Y44782872D01*
X36217044Y44599244D01*
X36173190Y44481947D01*
X36095348Y44319049D01*
X36001828Y44165134D01*
X35894822Y44023329D01*
X35776519Y43896761D01*
X35649111Y43788559D01*
X35571606Y43735880D01*
X35444725Y43666250D01*
X35307243Y43607532D01*
X35165716Y43562413D01*
X35026702Y43533578D01*
X35012597Y43531894D01*
X34969153Y43528566D01*
X34911723Y43525725D01*
X34846122Y43523627D01*
X34778167Y43522532D01*
X34651378Y43524860D01*
X34503673Y43537864D01*
X34365779Y43562867D01*
X34232014Y43600682D01*
X34208562Y43609111D01*
X34160612Y43628592D01*
X34104140Y43653527D01*
X34042379Y43682278D01*
X33978563Y43713210D01*
X33915926Y43744685D01*
X33857703Y43775066D01*
X33807127Y43802717D01*
X33767433Y43826001D01*
X33741854Y43843282D01*
X33733625Y43852921D01*
X33735076Y43856016D01*
X33746250Y43875921D01*
X33767134Y43911580D01*
X33796265Y43960541D01*
X33832181Y44020354D01*
X33873420Y44088567D01*
X33918517Y44162729D01*
X34099785Y44459992D01*
X34146315Y44415461D01*
X34237723Y44337135D01*
X34351334Y44262561D01*
X34469122Y44208526D01*
X34589559Y44175710D01*
X34711117Y44164789D01*
X34752585Y44166132D01*
X34870080Y44184388D01*
X34980089Y44223383D01*
X35081430Y44282330D01*
X35172921Y44360443D01*
X35253380Y44456936D01*
X35321627Y44571022D01*
X35337908Y44605276D01*
X35383982Y44728760D01*
X35419106Y44867082D01*
X35443197Y45016439D01*
X35456173Y45173027D01*
X35457949Y45333044D01*
X35448443Y45492686D01*
X35427572Y45648150D01*
X35395252Y45795634D01*
X35351399Y45931333D01*
X35313982Y46017924D01*
X35249185Y46131312D01*
X35173772Y46224930D01*
X35087418Y46299041D01*
X34989795Y46353906D01*
X34880577Y46389788D01*
X34759439Y46406949D01*
X34690038Y46408120D01*
X34567168Y46393859D01*
X34451664Y46358759D01*
X34344953Y46303318D01*
X34248464Y46228036D01*
X34232720Y46213560D01*
X34202150Y46187038D01*
X34179809Y46169862D01*
X34169691Y46165213D01*
X34167706Y46167403D01*
X34153241Y46186279D01*
X34129400Y46219603D01*
X34098029Y46264620D01*
X34060974Y46318575D01*
X34020083Y46378715D01*
X33977202Y46442282D01*
X33934178Y46506524D01*
X33892857Y46568685D01*
X33855086Y46626009D01*
X33822712Y46675743D01*
X33797582Y46715132D01*
X33781542Y46741420D01*
X33776439Y46751853D01*
X33781050Y46756059D01*
X33800267Y46761067D01*
X33809838Y46763614D01*
X33837809Y46774751D01*
X33879448Y46793198D01*
X33930995Y46817275D01*
X33988690Y46845301D01*
X33999957Y46850846D01*
X34177687Y46930111D01*
X34347490Y46989615D01*
X34511430Y47029755D01*
X34671571Y47050929D01*
X34829977Y47053534D01*
X34988711Y47037967D01*
G36*
X34183163Y42086825D02*
G01*
X34180235Y42063905D01*
X34176158Y42048103D01*
X34170743Y42036681D01*
X34163803Y42026900D01*
X34140406Y41997155D01*
X33974714Y41997749D01*
X33939918Y41998047D01*
X33841435Y42001478D01*
X33760473Y42009161D01*
X33693379Y42021718D01*
X33636496Y42039773D01*
X33586169Y42063948D01*
X33582810Y42065865D01*
X33524998Y42102583D01*
X33482644Y42139549D01*
X33449828Y42183034D01*
X33420628Y42239311D01*
X33416346Y42248927D01*
X33393769Y42312113D01*
X33388034Y42357667D01*
X33537279Y42357667D01*
X33542892Y42332939D01*
X33548618Y42317061D01*
X33581548Y42257153D01*
X33628886Y42211400D01*
X33692652Y42178264D01*
X33774861Y42156210D01*
X33777655Y42155708D01*
X33823940Y42149745D01*
X33880336Y42145517D01*
X33935274Y42143911D01*
X34029156Y42143911D01*
X34029156Y42584178D01*
X33941667Y42583730D01*
X33874747Y42581254D01*
X33782349Y42570002D01*
X33703034Y42550463D01*
X33641060Y42523489D01*
X33610120Y42502760D01*
X33582000Y42472994D01*
X33558660Y42430566D01*
X33551533Y42414600D01*
X33539709Y42382098D01*
X33537279Y42357667D01*
X33388034Y42357667D01*
X33386797Y42367491D01*
X33395399Y42422517D01*
X33419541Y42484649D01*
X33420337Y42486342D01*
X33460788Y42555764D01*
X33511473Y42612362D01*
X33574198Y42656930D01*
X33650774Y42690259D01*
X33743009Y42713139D01*
X33852712Y42726364D01*
X33981691Y42730725D01*
X33985263Y42730730D01*
X34045283Y42730590D01*
X34087214Y42729554D01*
X34115328Y42726960D01*
X34133897Y42722147D01*
X34147194Y42714456D01*
X34159491Y42703224D01*
X34187200Y42675515D01*
X34187200Y42366080D01*
X34187175Y42304474D01*
X34186950Y42225689D01*
X34186332Y42164979D01*
X34185775Y42143911D01*
X34185133Y42119604D01*
X34183163Y42086825D01*
G37*
X34183163Y42086825D02*
X34180235Y42063905D01*
X34176158Y42048103D01*
X34170743Y42036681D01*
X34163803Y42026900D01*
X34140406Y41997155D01*
X33974714Y41997749D01*
X33939918Y41998047D01*
X33841435Y42001478D01*
X33760473Y42009161D01*
X33693379Y42021718D01*
X33636496Y42039773D01*
X33586169Y42063948D01*
X33582810Y42065865D01*
X33524998Y42102583D01*
X33482644Y42139549D01*
X33449828Y42183034D01*
X33420628Y42239311D01*
X33416346Y42248927D01*
X33393769Y42312113D01*
X33388034Y42357667D01*
X33537279Y42357667D01*
X33542892Y42332939D01*
X33548618Y42317061D01*
X33581548Y42257153D01*
X33628886Y42211400D01*
X33692652Y42178264D01*
X33774861Y42156210D01*
X33777655Y42155708D01*
X33823940Y42149745D01*
X33880336Y42145517D01*
X33935274Y42143911D01*
X34029156Y42143911D01*
X34029156Y42584178D01*
X33941667Y42583730D01*
X33874747Y42581254D01*
X33782349Y42570002D01*
X33703034Y42550463D01*
X33641060Y42523489D01*
X33610120Y42502760D01*
X33582000Y42472994D01*
X33558660Y42430566D01*
X33551533Y42414600D01*
X33539709Y42382098D01*
X33537279Y42357667D01*
X33388034Y42357667D01*
X33386797Y42367491D01*
X33395399Y42422517D01*
X33419541Y42484649D01*
X33420337Y42486342D01*
X33460788Y42555764D01*
X33511473Y42612362D01*
X33574198Y42656930D01*
X33650774Y42690259D01*
X33743009Y42713139D01*
X33852712Y42726364D01*
X33981691Y42730725D01*
X33985263Y42730730D01*
X34045283Y42730590D01*
X34087214Y42729554D01*
X34115328Y42726960D01*
X34133897Y42722147D01*
X34147194Y42714456D01*
X34159491Y42703224D01*
X34187200Y42675515D01*
X34187200Y42366080D01*
X34187175Y42304474D01*
X34186950Y42225689D01*
X34186332Y42164979D01*
X34185775Y42143911D01*
X34185133Y42119604D01*
X34183163Y42086825D01*
G36*
X37129150Y42725821D02*
G01*
X37235157Y42709506D01*
X37328969Y42681455D01*
X37407765Y42642548D01*
X37468719Y42593666D01*
X37494789Y42560805D01*
X37524297Y42511606D01*
X37549568Y42457748D01*
X37567218Y42406581D01*
X37573858Y42365456D01*
X37572298Y42345741D01*
X37559357Y42294408D01*
X37536194Y42237882D01*
X37506302Y42183965D01*
X37473173Y42140461D01*
X37462977Y42130113D01*
X37395892Y42078338D01*
X37315766Y42038446D01*
X37229556Y42014044D01*
X37174592Y42005932D01*
X37081139Y41999327D01*
X36991358Y42001414D01*
X36908869Y42011660D01*
X36837286Y42029530D01*
X36780228Y42054492D01*
X36741311Y42086012D01*
X36739936Y42087988D01*
X36732848Y42113214D01*
X36728609Y42160465D01*
X36727200Y42229929D01*
X36728060Y42292162D01*
X36732780Y42339544D01*
X36744470Y42371647D01*
X36766239Y42391200D01*
X36801198Y42400930D01*
X36852456Y42403567D01*
X36923123Y42401839D01*
X36971743Y42398827D01*
X37021939Y42390634D01*
X37054433Y42376581D01*
X37071892Y42355346D01*
X37076983Y42325606D01*
X37076877Y42321064D01*
X37068175Y42286270D01*
X37044165Y42262853D01*
X37002900Y42249653D01*
X36942431Y42245511D01*
X36873956Y42245511D01*
X36873956Y42207159D01*
X36874006Y42198024D01*
X36876227Y42180773D01*
X36885494Y42170479D01*
X36906875Y42163541D01*
X36945436Y42156359D01*
X36950910Y42155425D01*
X37047860Y42145522D01*
X37137852Y42148441D01*
X37218760Y42163171D01*
X37288459Y42188701D01*
X37344824Y42224022D01*
X37385729Y42268121D01*
X37409051Y42319988D01*
X37412663Y42378612D01*
X37407145Y42407506D01*
X37380461Y42463396D01*
X37334273Y42509055D01*
X37269291Y42543892D01*
X37186229Y42567310D01*
X37161555Y42571759D01*
X37072226Y42582258D01*
X36992419Y42581029D01*
X36914326Y42568094D01*
X36879183Y42561304D01*
X36833745Y42560287D01*
X36802430Y42572818D01*
X36782277Y42599605D01*
X36775893Y42627852D01*
X36785379Y42659076D01*
X36794708Y42672501D01*
X36828943Y42696033D01*
X36881565Y42713905D01*
X36950081Y42725401D01*
X37032000Y42729808D01*
X37129150Y42725821D01*
G37*
X37129150Y42725821D02*
X37235157Y42709506D01*
X37328969Y42681455D01*
X37407765Y42642548D01*
X37468719Y42593666D01*
X37494789Y42560805D01*
X37524297Y42511606D01*
X37549568Y42457748D01*
X37567218Y42406581D01*
X37573858Y42365456D01*
X37572298Y42345741D01*
X37559357Y42294408D01*
X37536194Y42237882D01*
X37506302Y42183965D01*
X37473173Y42140461D01*
X37462977Y42130113D01*
X37395892Y42078338D01*
X37315766Y42038446D01*
X37229556Y42014044D01*
X37174592Y42005932D01*
X37081139Y41999327D01*
X36991358Y42001414D01*
X36908869Y42011660D01*
X36837286Y42029530D01*
X36780228Y42054492D01*
X36741311Y42086012D01*
X36739936Y42087988D01*
X36732848Y42113214D01*
X36728609Y42160465D01*
X36727200Y42229929D01*
X36728060Y42292162D01*
X36732780Y42339544D01*
X36744470Y42371647D01*
X36766239Y42391200D01*
X36801198Y42400930D01*
X36852456Y42403567D01*
X36923123Y42401839D01*
X36971743Y42398827D01*
X37021939Y42390634D01*
X37054433Y42376581D01*
X37071892Y42355346D01*
X37076983Y42325606D01*
X37076877Y42321064D01*
X37068175Y42286270D01*
X37044165Y42262853D01*
X37002900Y42249653D01*
X36942431Y42245511D01*
X36873956Y42245511D01*
X36873956Y42207159D01*
X36874006Y42198024D01*
X36876227Y42180773D01*
X36885494Y42170479D01*
X36906875Y42163541D01*
X36945436Y42156359D01*
X36950910Y42155425D01*
X37047860Y42145522D01*
X37137852Y42148441D01*
X37218760Y42163171D01*
X37288459Y42188701D01*
X37344824Y42224022D01*
X37385729Y42268121D01*
X37409051Y42319988D01*
X37412663Y42378612D01*
X37407145Y42407506D01*
X37380461Y42463396D01*
X37334273Y42509055D01*
X37269291Y42543892D01*
X37186229Y42567310D01*
X37161555Y42571759D01*
X37072226Y42582258D01*
X36992419Y42581029D01*
X36914326Y42568094D01*
X36879183Y42561304D01*
X36833745Y42560287D01*
X36802430Y42572818D01*
X36782277Y42599605D01*
X36775893Y42627852D01*
X36785379Y42659076D01*
X36794708Y42672501D01*
X36828943Y42696033D01*
X36881565Y42713905D01*
X36950081Y42725401D01*
X37032000Y42729808D01*
X37129150Y42725821D01*
G36*
X37986137Y42726537D02*
G01*
X38020291Y42703224D01*
X38048000Y42675515D01*
X38048000Y42362463D01*
X38047959Y42278433D01*
X38047701Y42204211D01*
X38047030Y42147459D01*
X38045752Y42105488D01*
X38043673Y42075611D01*
X38040599Y42055139D01*
X38036334Y42041386D01*
X38030684Y42031663D01*
X38023455Y42023283D01*
X37991991Y42001819D01*
X37956826Y42000053D01*
X37923822Y42019733D01*
X37918516Y42025602D01*
X37913066Y42034686D01*
X37908900Y42048027D01*
X37905846Y42068243D01*
X37903732Y42097951D01*
X37902386Y42139768D01*
X37901638Y42196311D01*
X37901314Y42270198D01*
X37901245Y42364044D01*
X37901284Y42439706D01*
X37901539Y42517615D01*
X37902183Y42577625D01*
X37903387Y42622352D01*
X37905324Y42654415D01*
X37908164Y42676429D01*
X37912079Y42691013D01*
X37917242Y42700782D01*
X37923822Y42708355D01*
X37953006Y42727377D01*
X37986137Y42726537D01*
G37*
X37986137Y42726537D02*
X38020291Y42703224D01*
X38048000Y42675515D01*
X38048000Y42362463D01*
X38047959Y42278433D01*
X38047701Y42204211D01*
X38047030Y42147459D01*
X38045752Y42105488D01*
X38043673Y42075611D01*
X38040599Y42055139D01*
X38036334Y42041386D01*
X38030684Y42031663D01*
X38023455Y42023283D01*
X37991991Y42001819D01*
X37956826Y42000053D01*
X37923822Y42019733D01*
X37918516Y42025602D01*
X37913066Y42034686D01*
X37908900Y42048027D01*
X37905846Y42068243D01*
X37903732Y42097951D01*
X37902386Y42139768D01*
X37901638Y42196311D01*
X37901314Y42270198D01*
X37901245Y42364044D01*
X37901284Y42439706D01*
X37901539Y42517615D01*
X37902183Y42577625D01*
X37903387Y42622352D01*
X37905324Y42654415D01*
X37908164Y42676429D01*
X37912079Y42691013D01*
X37917242Y42700782D01*
X37923822Y42708355D01*
X37953006Y42727377D01*
X37986137Y42726537D01*
G36*
X37454562Y47967150D02*
G01*
X37537313Y47939947D01*
X37612406Y47894516D01*
X37684298Y47828698D01*
X37722846Y47784433D01*
X37762256Y47726039D01*
X37787446Y47665414D01*
X37800861Y47596135D01*
X37804948Y47511778D01*
X37804669Y47465693D01*
X37802460Y47424550D01*
X37796894Y47392418D01*
X37786586Y47361878D01*
X37770148Y47325511D01*
X37756200Y47298272D01*
X37697665Y47212571D01*
X37625619Y47143383D01*
X37541947Y47092259D01*
X37448531Y47060750D01*
X37415434Y47053775D01*
X37374960Y47046906D01*
X37341999Y47045081D01*
X37307698Y47048053D01*
X37263200Y47055574D01*
X37211934Y47067998D01*
X37121434Y47105888D01*
X37042345Y47160164D01*
X36976528Y47228230D01*
X36925840Y47307489D01*
X36892140Y47395346D01*
X36877286Y47489205D01*
X36883136Y47586470D01*
X36909399Y47682780D01*
X36954418Y47771506D01*
X37015373Y47846581D01*
X37090184Y47906359D01*
X37176768Y47949191D01*
X37273043Y47973429D01*
X37376928Y47977424D01*
X37454562Y47967150D01*
G37*
X37454562Y47967150D02*
X37537313Y47939947D01*
X37612406Y47894516D01*
X37684298Y47828698D01*
X37722846Y47784433D01*
X37762256Y47726039D01*
X37787446Y47665414D01*
X37800861Y47596135D01*
X37804948Y47511778D01*
X37804669Y47465693D01*
X37802460Y47424550D01*
X37796894Y47392418D01*
X37786586Y47361878D01*
X37770148Y47325511D01*
X37756200Y47298272D01*
X37697665Y47212571D01*
X37625619Y47143383D01*
X37541947Y47092259D01*
X37448531Y47060750D01*
X37415434Y47053775D01*
X37374960Y47046906D01*
X37341999Y47045081D01*
X37307698Y47048053D01*
X37263200Y47055574D01*
X37211934Y47067998D01*
X37121434Y47105888D01*
X37042345Y47160164D01*
X36976528Y47228230D01*
X36925840Y47307489D01*
X36892140Y47395346D01*
X36877286Y47489205D01*
X36883136Y47586470D01*
X36909399Y47682780D01*
X36954418Y47771506D01*
X37015373Y47846581D01*
X37090184Y47906359D01*
X37176768Y47949191D01*
X37273043Y47973429D01*
X37376928Y47977424D01*
X37454562Y47967150D01*
G36*
X36331893Y42732108D02*
G01*
X36343301Y42725971D01*
X36353850Y42715309D01*
X36365136Y42701189D01*
X36369589Y42695228D01*
X36375588Y42684732D01*
X36380167Y42670907D01*
X36383519Y42651002D01*
X36385833Y42622268D01*
X36387301Y42581955D01*
X36388113Y42527313D01*
X36388460Y42455593D01*
X36388534Y42364044D01*
X36388511Y42305514D01*
X36388292Y42226427D01*
X36387683Y42165484D01*
X36386492Y42119938D01*
X36384529Y42087037D01*
X36381603Y42064032D01*
X36377523Y42048174D01*
X36372097Y42036714D01*
X36365136Y42026900D01*
X36334708Y42002507D01*
X36299765Y41999628D01*
X36262784Y42018718D01*
X36258600Y42022193D01*
X36250424Y42030721D01*
X36244364Y42042272D01*
X36239981Y42060104D01*
X36236839Y42087476D01*
X36234502Y42127646D01*
X36232531Y42183872D01*
X36230489Y42259411D01*
X36224845Y42478542D01*
X35959556Y42237901D01*
X35885722Y42171125D01*
X35820542Y42113009D01*
X35768348Y42068051D01*
X35727273Y42035129D01*
X35695455Y42013121D01*
X35671026Y42000906D01*
X35652124Y41997361D01*
X35636883Y42001364D01*
X35623439Y42011793D01*
X35609927Y42027526D01*
X35603682Y42036009D01*
X35598050Y42046587D01*
X35593839Y42060745D01*
X35590887Y42081197D01*
X35589032Y42110658D01*
X35588113Y42151839D01*
X35587968Y42207456D01*
X35588435Y42280221D01*
X35589352Y42372849D01*
X35592667Y42687801D01*
X35619318Y42709367D01*
X35645383Y42725559D01*
X35678241Y42728330D01*
X35712772Y42709377D01*
X35717084Y42705792D01*
X35725216Y42697263D01*
X35731245Y42685671D01*
X35735606Y42667765D01*
X35738734Y42640294D01*
X35741063Y42600006D01*
X35743029Y42543649D01*
X35745067Y42467971D01*
X35750711Y42248122D01*
X35931334Y42411916D01*
X36018072Y42490549D01*
X36093843Y42558942D01*
X36155980Y42614292D01*
X36206078Y42657662D01*
X36245735Y42690119D01*
X36276548Y42712727D01*
X36300114Y42726552D01*
X36318030Y42732657D01*
X36331893Y42732108D01*
G37*
X36331893Y42732108D02*
X36343301Y42725971D01*
X36353850Y42715309D01*
X36365136Y42701189D01*
X36369589Y42695228D01*
X36375588Y42684732D01*
X36380167Y42670907D01*
X36383519Y42651002D01*
X36385833Y42622268D01*
X36387301Y42581955D01*
X36388113Y42527313D01*
X36388460Y42455593D01*
X36388534Y42364044D01*
X36388511Y42305514D01*
X36388292Y42226427D01*
X36387683Y42165484D01*
X36386492Y42119938D01*
X36384529Y42087037D01*
X36381603Y42064032D01*
X36377523Y42048174D01*
X36372097Y42036714D01*
X36365136Y42026900D01*
X36334708Y42002507D01*
X36299765Y41999628D01*
X36262784Y42018718D01*
X36258600Y42022193D01*
X36250424Y42030721D01*
X36244364Y42042272D01*
X36239981Y42060104D01*
X36236839Y42087476D01*
X36234502Y42127646D01*
X36232531Y42183872D01*
X36230489Y42259411D01*
X36224845Y42478542D01*
X35959556Y42237901D01*
X35885722Y42171125D01*
X35820542Y42113009D01*
X35768348Y42068051D01*
X35727273Y42035129D01*
X35695455Y42013121D01*
X35671026Y42000906D01*
X35652124Y41997361D01*
X35636883Y42001364D01*
X35623439Y42011793D01*
X35609927Y42027526D01*
X35603682Y42036009D01*
X35598050Y42046587D01*
X35593839Y42060745D01*
X35590887Y42081197D01*
X35589032Y42110658D01*
X35588113Y42151839D01*
X35587968Y42207456D01*
X35588435Y42280221D01*
X35589352Y42372849D01*
X35592667Y42687801D01*
X35619318Y42709367D01*
X35645383Y42725559D01*
X35678241Y42728330D01*
X35712772Y42709377D01*
X35717084Y42705792D01*
X35725216Y42697263D01*
X35731245Y42685671D01*
X35735606Y42667765D01*
X35738734Y42640294D01*
X35741063Y42600006D01*
X35743029Y42543649D01*
X35745067Y42467971D01*
X35750711Y42248122D01*
X35931334Y42411916D01*
X36018072Y42490549D01*
X36093843Y42558942D01*
X36155980Y42614292D01*
X36206078Y42657662D01*
X36245735Y42690119D01*
X36276548Y42712727D01*
X36300114Y42726552D01*
X36318030Y42732657D01*
X36331893Y42732108D01*
G36*
X41276870Y42464959D02*
G01*
X41276622Y42364044D01*
X41276583Y42288383D01*
X41276328Y42210474D01*
X41275684Y42150464D01*
X41274480Y42105736D01*
X41272543Y42073674D01*
X41269703Y42051660D01*
X41265788Y42037076D01*
X41260626Y42027306D01*
X41254045Y42019733D01*
X41247077Y42013499D01*
X41234079Y42006199D01*
X41214931Y42001446D01*
X41185528Y41998708D01*
X41141762Y41997455D01*
X41079528Y41997155D01*
X41030582Y41997531D01*
X40923722Y42001959D01*
X40834494Y42012047D01*
X40759696Y42028635D01*
X40696125Y42052565D01*
X40640579Y42084679D01*
X40589854Y42125818D01*
X40583866Y42131670D01*
X40546999Y42180179D01*
X40515899Y42240987D01*
X40494417Y42305231D01*
X40489136Y42343974D01*
X40636353Y42343974D01*
X40654635Y42293039D01*
X40684305Y42247122D01*
X40731002Y42204713D01*
X40792392Y42174910D01*
X40871538Y42155774D01*
X40873028Y42155536D01*
X40921999Y42149744D01*
X40980693Y42145604D01*
X41036734Y42143996D01*
X41129867Y42143911D01*
X41129867Y42584178D01*
X41053667Y42584192D01*
X41050639Y42584183D01*
X40999519Y42582218D01*
X40939416Y42577493D01*
X40882708Y42570965D01*
X40832750Y42561669D01*
X40757998Y42535400D01*
X40700489Y42496101D01*
X40658988Y42443067D01*
X40637771Y42391800D01*
X40636353Y42343974D01*
X40489136Y42343974D01*
X40486400Y42364044D01*
X40487679Y42385261D01*
X40499991Y42442677D01*
X40522520Y42502587D01*
X40551750Y42556637D01*
X40584167Y42596468D01*
X40603708Y42613490D01*
X40658420Y42652678D01*
X40718723Y42682807D01*
X40787919Y42704768D01*
X40869311Y42719450D01*
X40966200Y42727741D01*
X41081889Y42730533D01*
X41121371Y42730934D01*
X41167082Y42731347D01*
X41202883Y42729543D01*
X41229974Y42723261D01*
X41249556Y42710241D01*
X41262830Y42688222D01*
X41270998Y42654945D01*
X41275260Y42608149D01*
X41275857Y42584178D01*
X41276817Y42545573D01*
X41276870Y42464959D01*
G37*
X41276870Y42464959D02*
X41276622Y42364044D01*
X41276583Y42288383D01*
X41276328Y42210474D01*
X41275684Y42150464D01*
X41274480Y42105736D01*
X41272543Y42073674D01*
X41269703Y42051660D01*
X41265788Y42037076D01*
X41260626Y42027306D01*
X41254045Y42019733D01*
X41247077Y42013499D01*
X41234079Y42006199D01*
X41214931Y42001446D01*
X41185528Y41998708D01*
X41141762Y41997455D01*
X41079528Y41997155D01*
X41030582Y41997531D01*
X40923722Y42001959D01*
X40834494Y42012047D01*
X40759696Y42028635D01*
X40696125Y42052565D01*
X40640579Y42084679D01*
X40589854Y42125818D01*
X40583866Y42131670D01*
X40546999Y42180179D01*
X40515899Y42240987D01*
X40494417Y42305231D01*
X40489136Y42343974D01*
X40636353Y42343974D01*
X40654635Y42293039D01*
X40684305Y42247122D01*
X40731002Y42204713D01*
X40792392Y42174910D01*
X40871538Y42155774D01*
X40873028Y42155536D01*
X40921999Y42149744D01*
X40980693Y42145604D01*
X41036734Y42143996D01*
X41129867Y42143911D01*
X41129867Y42584178D01*
X41053667Y42584192D01*
X41050639Y42584183D01*
X40999519Y42582218D01*
X40939416Y42577493D01*
X40882708Y42570965D01*
X40832750Y42561669D01*
X40757998Y42535400D01*
X40700489Y42496101D01*
X40658988Y42443067D01*
X40637771Y42391800D01*
X40636353Y42343974D01*
X40489136Y42343974D01*
X40486400Y42364044D01*
X40487679Y42385261D01*
X40499991Y42442677D01*
X40522520Y42502587D01*
X40551750Y42556637D01*
X40584167Y42596468D01*
X40603708Y42613490D01*
X40658420Y42652678D01*
X40718723Y42682807D01*
X40787919Y42704768D01*
X40869311Y42719450D01*
X40966200Y42727741D01*
X41081889Y42730533D01*
X41121371Y42730934D01*
X41167082Y42731347D01*
X41202883Y42729543D01*
X41229974Y42723261D01*
X41249556Y42710241D01*
X41262830Y42688222D01*
X41270998Y42654945D01*
X41275260Y42608149D01*
X41275857Y42584178D01*
X41276817Y42545573D01*
X41276870Y42464959D01*
G36*
X31185268Y44679842D02*
G01*
X31176689Y44528406D01*
X31157833Y44391717D01*
X31127837Y44265724D01*
X31085836Y44146375D01*
X31030969Y44029619D01*
X30964167Y43918821D01*
X30873363Y43805261D01*
X30769708Y43709789D01*
X30653887Y43632927D01*
X30526586Y43575203D01*
X30388489Y43537142D01*
X30350793Y43531334D01*
X30271752Y43525604D01*
X30183629Y43525417D01*
X30094236Y43530461D01*
X30011384Y43540422D01*
X29942887Y43554988D01*
X29912035Y43564636D01*
X29834730Y43594877D01*
X29757679Y43632383D01*
X29688200Y43673386D01*
X29633615Y43714121D01*
X29610916Y43733495D01*
X29588201Y43751338D01*
X29576779Y43758222D01*
X29575537Y43756576D01*
X29572728Y43738795D01*
X29570776Y43705630D01*
X29570045Y43662267D01*
X29570045Y43566311D01*
X28711896Y43566311D01*
X28746161Y43627026D01*
X28751355Y43636132D01*
X28759715Y43650751D01*
X28767288Y43664827D01*
X28774112Y43679460D01*
X28780227Y43695751D01*
X28785673Y43714802D01*
X28790487Y43737714D01*
X28794708Y43765587D01*
X28798377Y43799522D01*
X28801531Y43840621D01*
X28804211Y43889985D01*
X28806454Y43948714D01*
X28808299Y44017910D01*
X28809787Y44098674D01*
X28810955Y44192106D01*
X28811678Y44279279D01*
X29615200Y44279279D01*
X29685756Y44232911D01*
X29726417Y44209209D01*
X29780546Y44183361D01*
X29829689Y44165171D01*
X29893165Y44149449D01*
X29989331Y44138459D01*
X30073900Y44146635D01*
X30147219Y44174195D01*
X30209637Y44221358D01*
X30261502Y44288342D01*
X30303160Y44375367D01*
X30334962Y44482650D01*
X30337545Y44494991D01*
X30346000Y44556228D01*
X30351663Y44633308D01*
X30354576Y44720998D01*
X30354783Y44814066D01*
X30352330Y44907280D01*
X30347261Y44995406D01*
X30339619Y45073212D01*
X30329448Y45135467D01*
X30328167Y45141334D01*
X30299126Y45251879D01*
X30264610Y45342425D01*
X30223456Y45415047D01*
X30174499Y45471819D01*
X30116574Y45514816D01*
X30084620Y45530385D01*
X30011784Y45549278D01*
X29930443Y45552535D01*
X29845319Y45540611D01*
X29761133Y45513960D01*
X29682608Y45473038D01*
X29615200Y45429470D01*
X29615200Y44279279D01*
X28811678Y44279279D01*
X28811844Y44299308D01*
X28812491Y44421380D01*
X28812936Y44559424D01*
X28813218Y44714541D01*
X28813375Y44887832D01*
X28813448Y45080397D01*
X28813474Y45293338D01*
X28813493Y45527755D01*
X28813689Y47212622D01*
X29719017Y47212622D01*
X29694585Y47175933D01*
X29688318Y47166353D01*
X29662208Y47120019D01*
X29644469Y47072898D01*
X29632908Y47017749D01*
X29625331Y46947333D01*
X29624839Y46940350D01*
X29623062Y46902359D01*
X29621444Y46848424D01*
X29619999Y46781297D01*
X29618740Y46703729D01*
X29617680Y46618472D01*
X29616829Y46528276D01*
X29616203Y46435893D01*
X29615812Y46344075D01*
X29615670Y46255573D01*
X29615790Y46173138D01*
X29616183Y46099521D01*
X29616862Y46037474D01*
X29617841Y45989749D01*
X29619132Y45959096D01*
X29620747Y45948267D01*
X29628957Y45952667D01*
X29650647Y45967638D01*
X29680014Y45989552D01*
X29728879Y46023764D01*
X29817125Y46070286D01*
X29915916Y46103954D01*
X30028510Y46125769D01*
X30158164Y46136735D01*
X30250670Y46137781D01*
X30372011Y46127986D01*
X30482099Y46103826D01*
X30585389Y46064215D01*
X30686338Y46008068D01*
X30731503Y45977117D01*
X30836911Y45885885D01*
X30928538Y45776894D01*
X31006332Y45650274D01*
X31070241Y45506155D01*
X31120214Y45344668D01*
X31156198Y45165941D01*
X31178143Y44970105D01*
X31183900Y44814066D01*
X31185994Y44757289D01*
X31185268Y44679842D01*
G37*
X31185268Y44679842D02*
X31176689Y44528406D01*
X31157833Y44391717D01*
X31127837Y44265724D01*
X31085836Y44146375D01*
X31030969Y44029619D01*
X30964167Y43918821D01*
X30873363Y43805261D01*
X30769708Y43709789D01*
X30653887Y43632927D01*
X30526586Y43575203D01*
X30388489Y43537142D01*
X30350793Y43531334D01*
X30271752Y43525604D01*
X30183629Y43525417D01*
X30094236Y43530461D01*
X30011384Y43540422D01*
X29942887Y43554988D01*
X29912035Y43564636D01*
X29834730Y43594877D01*
X29757679Y43632383D01*
X29688200Y43673386D01*
X29633615Y43714121D01*
X29610916Y43733495D01*
X29588201Y43751338D01*
X29576779Y43758222D01*
X29575537Y43756576D01*
X29572728Y43738795D01*
X29570776Y43705630D01*
X29570045Y43662267D01*
X29570045Y43566311D01*
X28711896Y43566311D01*
X28746161Y43627026D01*
X28751355Y43636132D01*
X28759715Y43650751D01*
X28767288Y43664827D01*
X28774112Y43679460D01*
X28780227Y43695751D01*
X28785673Y43714802D01*
X28790487Y43737714D01*
X28794708Y43765587D01*
X28798377Y43799522D01*
X28801531Y43840621D01*
X28804211Y43889985D01*
X28806454Y43948714D01*
X28808299Y44017910D01*
X28809787Y44098674D01*
X28810955Y44192106D01*
X28811678Y44279279D01*
X29615200Y44279279D01*
X29685756Y44232911D01*
X29726417Y44209209D01*
X29780546Y44183361D01*
X29829689Y44165171D01*
X29893165Y44149449D01*
X29989331Y44138459D01*
X30073900Y44146635D01*
X30147219Y44174195D01*
X30209637Y44221358D01*
X30261502Y44288342D01*
X30303160Y44375367D01*
X30334962Y44482650D01*
X30337545Y44494991D01*
X30346000Y44556228D01*
X30351663Y44633308D01*
X30354576Y44720998D01*
X30354783Y44814066D01*
X30352330Y44907280D01*
X30347261Y44995406D01*
X30339619Y45073212D01*
X30329448Y45135467D01*
X30328167Y45141334D01*
X30299126Y45251879D01*
X30264610Y45342425D01*
X30223456Y45415047D01*
X30174499Y45471819D01*
X30116574Y45514816D01*
X30084620Y45530385D01*
X30011784Y45549278D01*
X29930443Y45552535D01*
X29845319Y45540611D01*
X29761133Y45513960D01*
X29682608Y45473038D01*
X29615200Y45429470D01*
X29615200Y44279279D01*
X28811678Y44279279D01*
X28811844Y44299308D01*
X28812491Y44421380D01*
X28812936Y44559424D01*
X28813218Y44714541D01*
X28813375Y44887832D01*
X28813448Y45080397D01*
X28813474Y45293338D01*
X28813493Y45527755D01*
X28813689Y47212622D01*
X29719017Y47212622D01*
X29694585Y47175933D01*
X29688318Y47166353D01*
X29662208Y47120019D01*
X29644469Y47072898D01*
X29632908Y47017749D01*
X29625331Y46947333D01*
X29624839Y46940350D01*
X29623062Y46902359D01*
X29621444Y46848424D01*
X29619999Y46781297D01*
X29618740Y46703729D01*
X29617680Y46618472D01*
X29616829Y46528276D01*
X29616203Y46435893D01*
X29615812Y46344075D01*
X29615670Y46255573D01*
X29615790Y46173138D01*
X29616183Y46099521D01*
X29616862Y46037474D01*
X29617841Y45989749D01*
X29619132Y45959096D01*
X29620747Y45948267D01*
X29628957Y45952667D01*
X29650647Y45967638D01*
X29680014Y45989552D01*
X29728879Y46023764D01*
X29817125Y46070286D01*
X29915916Y46103954D01*
X30028510Y46125769D01*
X30158164Y46136735D01*
X30250670Y46137781D01*
X30372011Y46127986D01*
X30482099Y46103826D01*
X30585389Y46064215D01*
X30686338Y46008068D01*
X30731503Y45977117D01*
X30836911Y45885885D01*
X30928538Y45776894D01*
X31006332Y45650274D01*
X31070241Y45506155D01*
X31120214Y45344668D01*
X31156198Y45165941D01*
X31178143Y44970105D01*
X31183900Y44814066D01*
X31185994Y44757289D01*
X31185268Y44679842D01*
D13*
%TO.C,Q7*%
X50310000Y23295000D02*
X50310000Y18605000D01*
X50310000Y18605000D02*
X39770000Y18605000D01*
X39770000Y18605000D02*
X39770000Y21800000D01*
%TO.C,Q6*%
X70310000Y18605000D02*
X59770000Y18605000D01*
X70310000Y23295000D02*
X70310000Y18605000D01*
X59770000Y18605000D02*
X59770000Y21800000D01*
%TO.C,TVSP2*%
X15025000Y46812000D02*
X9675000Y46812000D01*
X15025000Y43188000D02*
X9675000Y43188000D01*
%TO.C,Q3*%
X50310000Y71395000D02*
X50310000Y68200000D01*
X39770000Y71395000D02*
X50310000Y71395000D01*
X39770000Y66705000D02*
X39770000Y71395000D01*
%TO.C,Q5*%
X90310000Y23295000D02*
X90310000Y18605000D01*
X79770000Y18605000D02*
X79770000Y21800000D01*
X90310000Y18605000D02*
X79770000Y18605000D01*
%TO.C,#LOGO_GITHUB_URL1*%
G36*
X70960927Y46777192D02*
G01*
X71284053Y46777192D01*
X71284053Y46454066D01*
X70314675Y46454066D01*
X70314675Y46777192D01*
X70637801Y46777192D01*
X70637801Y47100318D01*
X70960927Y47100318D01*
X70960927Y46777192D01*
G37*
G36*
X70314675Y47423444D02*
G01*
X70314675Y47746570D01*
X70637801Y47746570D01*
X72253430Y47746570D01*
X72253430Y49362199D01*
X70637801Y49362199D01*
X70637801Y47746570D01*
X70314675Y47746570D01*
X70314675Y49685325D01*
X72576556Y49685325D01*
X72576556Y47423444D01*
X70314675Y47423444D01*
G37*
G36*
X74192185Y40314675D02*
G01*
X73869059Y40314675D01*
X73869059Y40637801D01*
X74192185Y40637801D01*
X74192185Y40314675D01*
G37*
G36*
X77100318Y47423444D02*
G01*
X76777192Y47423444D01*
X76777192Y48069695D01*
X77100318Y48069695D01*
X77100318Y47423444D01*
G37*
G36*
X70637801Y43222808D02*
G01*
X70314675Y43222808D01*
X70314675Y43545933D01*
X70637801Y43545933D01*
X70637801Y43222808D01*
G37*
G36*
X73869059Y41930304D02*
G01*
X73545933Y41930304D01*
X73545933Y42253430D01*
X73869059Y42253430D01*
X73869059Y41930304D01*
G37*
G36*
X75807814Y41930304D02*
G01*
X75484689Y41930304D01*
X75484689Y42253430D01*
X75807814Y42253430D01*
X75807814Y41930304D01*
G37*
G36*
X75161563Y47423444D02*
G01*
X74838437Y47423444D01*
X74838437Y47746570D01*
X75161563Y47746570D01*
X75161563Y47423444D01*
G37*
G36*
X71284053Y41607178D02*
G01*
X70960927Y41607178D01*
X70960927Y41930304D01*
X71284053Y41930304D01*
X71284053Y41607178D01*
G37*
G36*
X73869059Y47423444D02*
G01*
X73545933Y47423444D01*
X73545933Y47746570D01*
X73869059Y47746570D01*
X73869059Y47423444D01*
G37*
G36*
X75807814Y43545933D02*
G01*
X76130940Y43545933D01*
X76130940Y43222808D01*
X75484689Y43222808D01*
X75484689Y43869059D01*
X75807814Y43869059D01*
X75807814Y43545933D01*
G37*
G36*
X71607178Y46777192D02*
G01*
X71284053Y46777192D01*
X71284053Y47100318D01*
X71607178Y47100318D01*
X71607178Y46777192D01*
G37*
G36*
X77423444Y40314675D02*
G01*
X77423444Y40637801D01*
X77746570Y40637801D01*
X79362199Y40637801D01*
X79362199Y42253430D01*
X77746570Y42253430D01*
X77746570Y40637801D01*
X77423444Y40637801D01*
X77423444Y42576556D01*
X79685325Y42576556D01*
X79685325Y40314675D01*
X77423444Y40314675D01*
G37*
G36*
X79039073Y40960927D02*
G01*
X78069695Y40960927D01*
X78069695Y41930304D01*
X79039073Y41930304D01*
X79039073Y40960927D01*
G37*
G36*
X77746570Y46130940D02*
G01*
X78069695Y46130940D01*
X78069695Y45484689D01*
X77423444Y45484689D01*
X77423444Y45161563D01*
X78069695Y45161563D01*
X78069695Y44838437D01*
X78392821Y44838437D01*
X78392821Y44515311D01*
X78069695Y44515311D01*
X78069695Y43869059D01*
X79039073Y43869059D01*
X79039073Y43222808D01*
X78715947Y43222808D01*
X78715947Y43545933D01*
X78392821Y43545933D01*
X78392821Y43222808D01*
X78069695Y43222808D01*
X78069695Y43545933D01*
X77423444Y43545933D01*
X77423444Y43222808D01*
X76454066Y43222808D01*
X76454066Y42899682D01*
X77100318Y42899682D01*
X77100318Y42253430D01*
X76454066Y42253430D01*
X76454066Y42576556D01*
X74838437Y42576556D01*
X74838437Y42899682D01*
X74515311Y42899682D01*
X74515311Y42576556D01*
X74838437Y42576556D01*
X74838437Y42253430D01*
X74515311Y42253430D01*
X74515311Y41607178D01*
X74838437Y41607178D01*
X74838437Y42253430D01*
X75161563Y42253430D01*
X75161563Y41930304D01*
X75484689Y41930304D01*
X75484689Y41607178D01*
X76130940Y41607178D01*
X76130940Y41284053D01*
X75484689Y41284053D01*
X75484689Y41607178D01*
X75161563Y41607178D01*
X75161563Y41284053D01*
X74838437Y41284053D01*
X74838437Y40960927D01*
X75161563Y40960927D01*
X75161563Y40314675D01*
X74515311Y40314675D01*
X74515311Y40637801D01*
X74192185Y40637801D01*
X74192185Y40960927D01*
X74515311Y40960927D01*
X74515311Y41284053D01*
X73869059Y41284053D01*
X73869059Y40960927D01*
X73222808Y40960927D01*
X73222808Y40637801D01*
X72899682Y40637801D01*
X72899682Y40960927D01*
X72576556Y40960927D01*
X72576556Y40314675D01*
X71930304Y40314675D01*
X71930304Y40960927D01*
X71607178Y40960927D01*
X71607178Y40637801D01*
X71284053Y40637801D01*
X71284053Y40960927D01*
X70960927Y40960927D01*
X70960927Y40637801D01*
X71284053Y40637801D01*
X71284053Y40314675D01*
X70960927Y40314675D01*
X70960927Y40637801D01*
X70637801Y40637801D01*
X70637801Y41284053D01*
X70314675Y41284053D01*
X70314675Y42253430D01*
X70637801Y42253430D01*
X70637801Y41607178D01*
X70960927Y41607178D01*
X70960927Y41284053D01*
X72899682Y41284053D01*
X73222808Y41284053D01*
X73545933Y41284053D01*
X73545933Y41607178D01*
X73869059Y41607178D01*
X73869059Y41930304D01*
X74192185Y41930304D01*
X74192185Y42576556D01*
X73545933Y42576556D01*
X73545933Y42899682D01*
X73222808Y42899682D01*
X73222808Y42576556D01*
X73545933Y42576556D01*
X73545933Y42253430D01*
X73222808Y42253430D01*
X73222808Y41284053D01*
X72899682Y41284053D01*
X72899682Y41607178D01*
X71607178Y41607178D01*
X71607178Y41930304D01*
X71930304Y41930304D01*
X72899682Y41930304D01*
X72899682Y42899682D01*
X71930304Y42899682D01*
X71930304Y41930304D01*
X71607178Y41930304D01*
X71284053Y41930304D01*
X71284053Y42253430D01*
X71607178Y42253430D01*
X71607178Y42576556D01*
X71284053Y42576556D01*
X71284053Y42253430D01*
X70960927Y42253430D01*
X70960927Y42576556D01*
X70314675Y42576556D01*
X70314675Y42899682D01*
X70960927Y42899682D01*
X70960927Y43222808D01*
X71284053Y43222808D01*
X71284053Y42899682D01*
X71607178Y42899682D01*
X71607178Y43222808D01*
X71930304Y43222808D01*
X71930304Y43545933D01*
X72253430Y43545933D01*
X72576556Y43545933D01*
X72576556Y43222808D01*
X72899682Y43222808D01*
X73222808Y43222808D01*
X73545933Y43222808D01*
X73545933Y42899682D01*
X73869059Y42899682D01*
X73869059Y43222808D01*
X74838437Y43222808D01*
X74838437Y43545933D01*
X73869059Y43545933D01*
X73869059Y43869059D01*
X74515311Y43869059D01*
X74838437Y43869059D01*
X74838437Y43545933D01*
X75161563Y43545933D01*
X75161563Y43222808D01*
X75484689Y43222808D01*
X75484689Y42899682D01*
X76130940Y42899682D01*
X76130940Y43222808D01*
X76454066Y43222808D01*
X76454066Y43545933D01*
X77100318Y43545933D01*
X77100318Y43869059D01*
X77423444Y43869059D01*
X77746570Y43869059D01*
X77746570Y44192185D01*
X77423444Y44192185D01*
X77423444Y43869059D01*
X77100318Y43869059D01*
X75807814Y43869059D01*
X75807814Y44192185D01*
X76454066Y44192185D01*
X77100318Y44192185D01*
X77423444Y44192185D01*
X77423444Y44515311D01*
X77746570Y44515311D01*
X77746570Y44838437D01*
X77100318Y44838437D01*
X77100318Y44192185D01*
X76454066Y44192185D01*
X76454066Y44515311D01*
X75807814Y44515311D01*
X75807814Y44838437D01*
X76130940Y44838437D01*
X76454066Y44838437D01*
X76777192Y44838437D01*
X76777192Y45161563D01*
X77100318Y45161563D01*
X77100318Y45484689D01*
X76777192Y45484689D01*
X76777192Y45161563D01*
X76454066Y45161563D01*
X76454066Y44838437D01*
X76130940Y44838437D01*
X76130940Y45484689D01*
X76454066Y45484689D01*
X76454066Y45807814D01*
X76130940Y45807814D01*
X76130940Y45484689D01*
X75807814Y45484689D01*
X75807814Y44838437D01*
X75484689Y44838437D01*
X75484689Y45161563D01*
X75161563Y45161563D01*
X75161563Y44838437D01*
X74838437Y44838437D01*
X74838437Y44515311D01*
X75484689Y44515311D01*
X75484689Y44192185D01*
X74515311Y44192185D01*
X74515311Y43869059D01*
X73869059Y43869059D01*
X73222808Y43869059D01*
X73222808Y43222808D01*
X72899682Y43222808D01*
X72899682Y43869059D01*
X72253430Y43869059D01*
X72253430Y43545933D01*
X71930304Y43545933D01*
X71607178Y43545933D01*
X71607178Y44192185D01*
X71930304Y44192185D01*
X71930304Y43869059D01*
X72253430Y43869059D01*
X72253430Y44192185D01*
X73222808Y44192185D01*
X73222808Y44515311D01*
X72899682Y44515311D01*
X72899682Y44838437D01*
X72576556Y44838437D01*
X72576556Y45161563D01*
X72253430Y45161563D01*
X72253430Y44515311D01*
X71930304Y44515311D01*
X71930304Y45161563D01*
X71607178Y45161563D01*
X71607178Y44515311D01*
X71284053Y44515311D01*
X71284053Y45484689D01*
X71607178Y45484689D01*
X73222808Y45484689D01*
X73222808Y45807814D01*
X71607178Y45807814D01*
X71607178Y45484689D01*
X71284053Y45484689D01*
X70960927Y45484689D01*
X70960927Y45807814D01*
X71284053Y45807814D01*
X71284053Y46130940D01*
X71607178Y46130940D01*
X71930304Y46130940D01*
X72576556Y46130940D01*
X73222808Y46130940D01*
X73545933Y46130940D01*
X73545933Y45161563D01*
X73222808Y45161563D01*
X73222808Y44515311D01*
X73545933Y44515311D01*
X73545933Y44192185D01*
X73869059Y44192185D01*
X73869059Y44515311D01*
X74192185Y44515311D01*
X74192185Y44838437D01*
X74515311Y44838437D01*
X74515311Y45161563D01*
X75161563Y45161563D01*
X75161563Y45484689D01*
X74515311Y45484689D01*
X74515311Y46130940D01*
X73869059Y46130940D01*
X73869059Y46454066D01*
X73222808Y46454066D01*
X73222808Y46130940D01*
X72576556Y46130940D01*
X72576556Y46454066D01*
X72899682Y46454066D01*
X72899682Y46777192D01*
X72576556Y46777192D01*
X72576556Y46454066D01*
X71930304Y46454066D01*
X71930304Y46130940D01*
X71607178Y46130940D01*
X71607178Y46777192D01*
X71930304Y46777192D01*
X71930304Y47100318D01*
X72253430Y47100318D01*
X72253430Y46777192D01*
X72576556Y46777192D01*
X72576556Y47100318D01*
X72899682Y47100318D01*
X72899682Y46777192D01*
X73545933Y46777192D01*
X73545933Y47100318D01*
X74192185Y47100318D01*
X74192185Y47746570D01*
X74515311Y47746570D01*
X74515311Y48069695D01*
X74192185Y48069695D01*
X74192185Y48392821D01*
X74515311Y48392821D01*
X74515311Y48069695D01*
X74838437Y48069695D01*
X74838437Y47746570D01*
X74515311Y47746570D01*
X74515311Y47423444D01*
X74838437Y47423444D01*
X74838437Y47100318D01*
X75484689Y47100318D01*
X75484689Y47746570D01*
X75161563Y47746570D01*
X75161563Y48069695D01*
X74838437Y48069695D01*
X74838437Y48392821D01*
X74515311Y48392821D01*
X74515311Y48715947D01*
X74192185Y48715947D01*
X74192185Y48392821D01*
X73869059Y48392821D01*
X73869059Y48715947D01*
X73545933Y48715947D01*
X73545933Y48392821D01*
X73869059Y48392821D01*
X73869059Y48069695D01*
X72899682Y48069695D01*
X72899682Y48392821D01*
X73222808Y48392821D01*
X73222808Y48715947D01*
X73545933Y48715947D01*
X73545933Y49039073D01*
X73869059Y49039073D01*
X73869059Y48715947D01*
X74192185Y48715947D01*
X74192185Y49362199D01*
X73222808Y49362199D01*
X73222808Y49039073D01*
X72899682Y49039073D01*
X72899682Y49685325D01*
X75484689Y49685325D01*
X75484689Y49362199D01*
X76130940Y49362199D01*
X76130940Y49039073D01*
X76454066Y49039073D01*
X76454066Y49685325D01*
X76777192Y49685325D01*
X76777192Y49362199D01*
X77100318Y49362199D01*
X77100318Y49039073D01*
X76777192Y49039073D01*
X76777192Y48715947D01*
X77100318Y48715947D01*
X77100318Y48392821D01*
X76454066Y48392821D01*
X76454066Y48715947D01*
X76130940Y48715947D01*
X76130940Y48392821D01*
X76454066Y48392821D01*
X76454066Y47423444D01*
X76130940Y47423444D01*
X76130940Y48392821D01*
X75807814Y48392821D01*
X75807814Y49039073D01*
X75161563Y49039073D01*
X75161563Y48715947D01*
X75484689Y48715947D01*
X75484689Y48392821D01*
X75161563Y48392821D01*
X75161563Y48069695D01*
X75484689Y48069695D01*
X75484689Y47746570D01*
X75807814Y47746570D01*
X75807814Y46777192D01*
X74515311Y46777192D01*
X74515311Y46454066D01*
X75161563Y46454066D01*
X75161563Y45807814D01*
X75807814Y45807814D01*
X75807814Y46130940D01*
X75484689Y46130940D01*
X75484689Y46454066D01*
X76130940Y46454066D01*
X76130940Y46130940D01*
X76454066Y46130940D01*
X76454066Y46777192D01*
X76130940Y46777192D01*
X76130940Y47100318D01*
X77746570Y47100318D01*
X77746570Y46777192D01*
X77100318Y46777192D01*
X77100318Y46454066D01*
X77746570Y46454066D01*
X77746570Y46130940D01*
X76777192Y46130940D01*
X76777192Y45807814D01*
X77100318Y45807814D01*
X77100318Y45484689D01*
X77423444Y45484689D01*
X77423444Y45807814D01*
X77746570Y45807814D01*
X77746570Y46130940D01*
G37*
G36*
X75484689Y41284053D02*
G01*
X75484689Y40960927D01*
X75161563Y40960927D01*
X75161563Y41284053D01*
X75484689Y41284053D01*
G37*
G36*
X78069695Y43222808D02*
G01*
X78069695Y42899682D01*
X77423444Y42899682D01*
X77423444Y43222808D01*
X78069695Y43222808D01*
G37*
G36*
X75807814Y48392821D02*
G01*
X75807814Y48069695D01*
X75484689Y48069695D01*
X75484689Y48392821D01*
X75807814Y48392821D01*
G37*
G36*
X71930304Y48069695D02*
G01*
X70960927Y48069695D01*
X70960927Y49039073D01*
X71930304Y49039073D01*
X71930304Y48069695D01*
G37*
G36*
X71284053Y43545933D02*
G01*
X70960927Y43545933D01*
X70960927Y43869059D01*
X71284053Y43869059D01*
X71284053Y43545933D01*
G37*
G36*
X79039073Y48069695D02*
G01*
X78069695Y48069695D01*
X78069695Y49039073D01*
X79039073Y49039073D01*
X79039073Y48069695D01*
G37*
G36*
X74515311Y45161563D02*
G01*
X74192185Y45161563D01*
X74192185Y45484689D01*
X74515311Y45484689D01*
X74515311Y45161563D01*
G37*
G36*
X74192185Y45484689D02*
G01*
X73869059Y45484689D01*
X73869059Y45807814D01*
X74192185Y45807814D01*
X74192185Y45484689D01*
G37*
G36*
X79685325Y42899682D02*
G01*
X79362199Y42899682D01*
X79362199Y43869059D01*
X79039073Y43869059D01*
X79039073Y44192185D01*
X79685325Y44192185D01*
X79685325Y42899682D01*
G37*
G36*
X73222808Y47423444D02*
G01*
X72899682Y47423444D01*
X72899682Y47746570D01*
X73222808Y47746570D01*
X73222808Y47423444D01*
G37*
G36*
X71284053Y44192185D02*
G01*
X70960927Y44192185D01*
X70960927Y43869059D01*
X70314675Y43869059D01*
X70314675Y44515311D01*
X71284053Y44515311D01*
X71284053Y44192185D01*
G37*
G36*
X70637801Y45161563D02*
G01*
X70314675Y45161563D01*
X70314675Y45484689D01*
X70637801Y45484689D01*
X70637801Y45161563D01*
G37*
G36*
X70960927Y45807814D02*
G01*
X70637801Y45807814D01*
X70637801Y46130940D01*
X70960927Y46130940D01*
X70960927Y45807814D01*
G37*
G36*
X72576556Y42253430D02*
G01*
X72253430Y42253430D01*
X72253430Y42576556D01*
X72576556Y42576556D01*
X72576556Y42253430D01*
G37*
G36*
X77100318Y40314675D02*
G01*
X76454066Y40314675D01*
X76454066Y40637801D01*
X76130940Y40637801D01*
X76130940Y40314675D01*
X75807814Y40314675D01*
X75807814Y40960927D01*
X76777192Y40960927D01*
X76777192Y41284053D01*
X76454066Y41284053D01*
X76454066Y41607178D01*
X76130940Y41607178D01*
X76130940Y41930304D01*
X77100318Y41930304D01*
X77100318Y40314675D01*
G37*
G36*
X79039073Y46130940D02*
G01*
X79362199Y46130940D01*
X79362199Y45484689D01*
X79685325Y45484689D01*
X79685325Y44838437D01*
X79039073Y44838437D01*
X79039073Y44515311D01*
X78715947Y44515311D01*
X78715947Y45161563D01*
X78392821Y45161563D01*
X78392821Y46454066D01*
X79039073Y46454066D01*
X79039073Y46777192D01*
X78069695Y46777192D01*
X78069695Y47100318D01*
X79685325Y47100318D01*
X79685325Y46130940D01*
X79362199Y46130940D01*
X79362199Y46454066D01*
X79039073Y46454066D01*
X79039073Y46130940D01*
X78715947Y46130940D01*
X78715947Y45161563D01*
X79039073Y45161563D01*
X79039073Y46130940D01*
G37*
G36*
X78715947Y44192185D02*
G01*
X78392821Y44192185D01*
X78392821Y44515311D01*
X78715947Y44515311D01*
X78715947Y44192185D01*
G37*
G36*
X73545933Y47100318D02*
G01*
X73222808Y47100318D01*
X73222808Y47423444D01*
X73545933Y47423444D01*
X73545933Y47100318D01*
G37*
G36*
X77423444Y47423444D02*
G01*
X77423444Y47746570D01*
X77746570Y47746570D01*
X79362199Y47746570D01*
X79362199Y49362199D01*
X77746570Y49362199D01*
X77746570Y47746570D01*
X77423444Y47746570D01*
X77423444Y49685325D01*
X79685325Y49685325D01*
X79685325Y47423444D01*
X77423444Y47423444D01*
G37*
G36*
X73545933Y40314675D02*
G01*
X73222808Y40314675D01*
X73222808Y40637801D01*
X73545933Y40637801D01*
X73545933Y40314675D01*
G37*
G36*
X74192185Y44838437D02*
G01*
X73545933Y44838437D01*
X73545933Y45161563D01*
X74192185Y45161563D01*
X74192185Y44838437D01*
G37*
%TO.C,Q2*%
X59770000Y66705000D02*
X59770000Y71395000D01*
X70310000Y71395000D02*
X70310000Y68200000D01*
X59770000Y71395000D02*
X70310000Y71395000D01*
%TO.C,Q4*%
X19770000Y71395000D02*
X30310000Y71395000D01*
X30310000Y71395000D02*
X30310000Y68200000D01*
X19770000Y66705000D02*
X19770000Y71395000D01*
%TO.C,Q1*%
X90310000Y71395000D02*
X90310000Y68200000D01*
X79770000Y66705000D02*
X79770000Y71395000D01*
X79770000Y71395000D02*
X90310000Y71395000D01*
%TO.C,Q8*%
X19770000Y18605000D02*
X19770000Y21800000D01*
X30310000Y18605000D02*
X19770000Y18605000D01*
X30310000Y23295000D02*
X30310000Y18605000D01*
%TD*%
M02*
