  0
SECTION
  2
HEADER
  9
$ANGBASE
  50
0.0
  9
$ANGDIR
  70
1
  9
$MEASUREMENT
  70
1
  0
ENDSEC
  0
SECTION
  2
TABLES
  0
TABLE
  2
LTYPE
  70
4
  0
LTYPE
  5
40F
  2
CONTINUOUS
  70
0
  3
Solid line
  72
65
  73
0
  40
0.0
  0
LTYPE
  5
410
  2
DASHDOT
 70
0
  3
Dash Dot ____ _ ____ _
 72
65
 73
4
 40
2.0
 49
1.25
 49
-0.25
 49
0.25
 49
-0.25
  0
LTYPE
  5
411
  2
DASHED
 70
0
  3
Dashed __ __ __ __ __
 72
65
 73
2
 40
0.75
 49
0.5
 49
-0.25
  0
LTYPE
  5
43B
  2
DOTTED
 70
0
  3
Dotted .  .  .  .
 72
65
 73
2
 40
0.2
 49
0.0
 49
-0.2
  0
ENDTAB
  0
TABLE
  2
STYLE
  70
4
  0
STYLE
  2
KICAD
  70
0
  40
0
  41
1
  42
1
  50
0
  71
0
  3
isocp.shx
  0
STYLE
  2
KICADB
  70
0
  40
0
  41
1
  42
1
  50
0
  71
0
  3
isocp.shx
  0
STYLE
  2
KICADI
  70
0
  40
0
  41
1
  42
1
  50
15
  71
0
  3
isocp.shx
  0
STYLE
  2
KICADBI
  70
0
  40
0
  41
1
  42
1
  50
15
  71
0
  3
isocp.shx
  0
ENDTAB
  0
TABLE
  2
LAYER
  70
1
  0
LAYER
  2
BLACK
  70
0
  62
7
  6
CONTINUOUS
  0
ENDTAB
  0
ENDSEC
  0
SECTION
  2
ENTITIES
0
ARC
8
BLACK
10
5
20
5
40
5
50
-180
51
-90
0
LINE
8
BLACK
6
CONTINUOUS
10
0
20
5
11
0
21
85
0
LINE
8
BLACK
6
CONTINUOUS
10
95
20
0
11
5
21
0
0
LINE
8
BLACK
6
CONTINUOUS
10
5
20
90
11
95
21
90
0
ARC
8
BLACK
10
95
20
85
40
5
50
-0
51
90
0
ARC
8
BLACK
10
95
20
5
40
5
50
-90
51
-0
0
ARC
8
BLACK
10
5
20
85
40
5
50
90
51
180
0
LINE
8
BLACK
6
CONTINUOUS
10
100
20
85
11
100
21
5
0
LINE
8
BLACK
6
CONTINUOUS
10
10.3
20
63.7
11
11.1
21
62.9
0
LINE
8
BLACK
6
CONTINUOUS
10
11.1
20
63.7
11
10.3
21
62.9
0
LINE
8
BLACK
6
CONTINUOUS
10
10.2
20
62.9
11
11.2
21
62.9
0
LINE
8
BLACK
6
CONTINUOUS
10
10.2
20
63.7
11
11.2
21
63.7
0
ARC
8
BLACK
10
11.2
20
63.3
40
0.4
50
270
51
450
0
ARC
8
BLACK
10
10.2
20
63.3
40
0.4
50
90
51
270
0
LINE
8
BLACK
6
CONTINUOUS
10
10.3
20
50.2
11
11.1
21
49.4
0
LINE
8
BLACK
6
CONTINUOUS
10
11.1
20
50.2
11
10.3
21
49.4
0
LINE
8
BLACK
6
CONTINUOUS
10
10.2
20
49.4
11
11.2
21
49.4
0
LINE
8
BLACK
6
CONTINUOUS
10
10.2
20
50.2
11
11.2
21
50.2
0
ARC
8
BLACK
10
11.2
20
49.8
40
0.4
50
270
51
450
0
ARC
8
BLACK
10
10.2
20
49.8
40
0.4
50
90
51
270
0
LINE
8
BLACK
6
CONTINUOUS
10
10.3
20
40.6
11
11.1
21
39.8
0
LINE
8
BLACK
6
CONTINUOUS
10
11.1
20
40.6
11
10.3
21
39.8
0
LINE
8
BLACK
6
CONTINUOUS
10
10.2
20
39.8
11
11.2
21
39.8
0
LINE
8
BLACK
6
CONTINUOUS
10
10.2
20
40.6
11
11.2
21
40.6
0
ARC
8
BLACK
10
11.2
20
40.2
40
0.4
50
270
51
450
0
ARC
8
BLACK
10
10.2
20
40.2
40
0.4
50
90
51
270
0
LINE
8
BLACK
6
CONTINUOUS
10
10.3
20
27.1
11
11.1
21
26.3
0
LINE
8
BLACK
6
CONTINUOUS
10
11.1
20
27.1
11
10.3
21
26.3
0
LINE
8
BLACK
6
CONTINUOUS
10
10.2
20
26.3
11
11.2
21
26.3
0
LINE
8
BLACK
6
CONTINUOUS
10
10.2
20
27.1
11
11.2
21
27.1
0
ARC
8
BLACK
10
11.2
20
26.7
40
0.4
50
270
51
450
0
ARC
8
BLACK
10
10.2
20
26.7
40
0.4
50
90
51
270
0
LINE
8
BLACK
6
CONTINUOUS
10
2.57119
20
-3.10976
11
2.57119
21
-1.10976
0
LINE
8
BLACK
6
CONTINUOUS
10
2.57119
20
-1.10976
11
3.04738
21
-1.10976
0
LINE
8
BLACK
6
CONTINUOUS
10
3.04738
20
-1.10976
11
3.33309
21
-1.205
0
LINE
8
BLACK
6
CONTINUOUS
10
3.33309
20
-1.205
11
3.52357
21
-1.39548
0
LINE
8
BLACK
6
CONTINUOUS
10
3.52357
20
-1.39548
11
3.61881
21
-1.58595
0
LINE
8
BLACK
6
CONTINUOUS
10
3.61881
20
-1.58595
11
3.71405
21
-1.9669
0
LINE
8
BLACK
6
CONTINUOUS
10
3.71405
20
-1.9669
11
3.71405
21
-2.25262
0
LINE
8
BLACK
6
CONTINUOUS
10
3.71405
20
-2.25262
11
3.61881
21
-2.63357
0
LINE
8
BLACK
6
CONTINUOUS
10
3.61881
20
-2.63357
11
3.52357
21
-2.82405
0
LINE
8
BLACK
6
CONTINUOUS
10
3.52357
20
-2.82405
11
3.33309
21
-3.01452
0
LINE
8
BLACK
6
CONTINUOUS
10
3.33309
20
-3.01452
11
3.04738
21
-3.10976
0
LINE
8
BLACK
6
CONTINUOUS
10
3.04738
20
-3.10976
11
2.57119
21
-3.10976
0
LINE
8
BLACK
6
CONTINUOUS
10
4.57119
20
-3.10976
11
4.57119
21
-1.77643
0
LINE
8
BLACK
6
CONTINUOUS
10
4.57119
20
-2.15738
11
4.66643
21
-1.9669
0
LINE
8
BLACK
6
CONTINUOUS
10
4.66643
20
-1.9669
11
4.76167
21
-1.87167
0
LINE
8
BLACK
6
CONTINUOUS
10
4.76167
20
-1.87167
11
4.95214
21
-1.77643
0
LINE
8
BLACK
6
CONTINUOUS
10
4.95214
20
-1.77643
11
5.14262
21
-1.77643
0
LINE
8
BLACK
6
CONTINUOUS
10
5.80929
20
-3.10976
11
5.80929
21
-1.77643
0
LINE
8
BLACK
6
CONTINUOUS
10
5.80929
20
-1.10976
11
5.71405
21
-1.205
0
LINE
8
BLACK
6
CONTINUOUS
10
5.71405
20
-1.205
11
5.80929
21
-1.30024
0
LINE
8
BLACK
6
CONTINUOUS
10
5.80929
20
-1.30024
11
5.90452
21
-1.205
0
LINE
8
BLACK
6
CONTINUOUS
10
5.90452
20
-1.205
11
5.80929
21
-1.10976
0
LINE
8
BLACK
6
CONTINUOUS
10
5.80929
20
-1.10976
11
5.80929
21
-1.30024
0
LINE
8
BLACK
6
CONTINUOUS
10
7.04738
20
-3.10976
11
6.8569
21
-3.01452
0
LINE
8
BLACK
6
CONTINUOUS
10
6.8569
20
-3.01452
11
6.76167
21
-2.82405
0
LINE
8
BLACK
6
CONTINUOUS
10
6.76167
20
-2.82405
11
6.76167
21
-1.10976
0
LINE
8
BLACK
6
CONTINUOUS
10
8.095
20
-3.10976
11
7.90452
21
-3.01452
0
LINE
8
BLACK
6
CONTINUOUS
10
7.90452
20
-3.01452
11
7.80929
21
-2.82405
0
LINE
8
BLACK
6
CONTINUOUS
10
7.80929
20
-2.82405
11
7.80929
21
-1.10976
0
LINE
8
BLACK
6
CONTINUOUS
10
10.3807
20
-3.10976
11
10.3807
21
-1.10976
0
LINE
8
BLACK
6
CONTINUOUS
10
10.3807
20
-1.10976
11
11.0474
21
-2.53833
0
LINE
8
BLACK
6
CONTINUOUS
10
11.0474
20
-2.53833
11
11.714
21
-1.10976
0
LINE
8
BLACK
6
CONTINUOUS
10
11.714
20
-1.10976
11
11.714
21
-3.10976
0
LINE
8
BLACK
6
CONTINUOUS
10
13.5236
20
-3.10976
11
13.5236
21
-2.06214
0
LINE
8
BLACK
6
CONTINUOUS
10
13.5236
20
-2.06214
11
13.4283
21
-1.87167
0
LINE
8
BLACK
6
CONTINUOUS
10
13.4283
20
-1.87167
11
13.2379
21
-1.77643
0
LINE
8
BLACK
6
CONTINUOUS
10
13.2379
20
-1.77643
11
12.8569
21
-1.77643
0
LINE
8
BLACK
6
CONTINUOUS
10
12.8569
20
-1.77643
11
12.6664
21
-1.87167
0
LINE
8
BLACK
6
CONTINUOUS
10
13.5236
20
-3.01452
11
13.3331
21
-3.10976
0
LINE
8
BLACK
6
CONTINUOUS
10
13.3331
20
-3.10976
11
12.8569
21
-3.10976
0
LINE
8
BLACK
6
CONTINUOUS
10
12.8569
20
-3.10976
11
12.6664
21
-3.01452
0
LINE
8
BLACK
6
CONTINUOUS
10
12.6664
20
-3.01452
11
12.5712
21
-2.82405
0
LINE
8
BLACK
6
CONTINUOUS
10
12.5712
20
-2.82405
11
12.5712
21
-2.63357
0
LINE
8
BLACK
6
CONTINUOUS
10
12.5712
20
-2.63357
11
12.6664
21
-2.4431
0
LINE
8
BLACK
6
CONTINUOUS
10
12.6664
20
-2.4431
11
12.8569
21
-2.34786
0
LINE
8
BLACK
6
CONTINUOUS
10
12.8569
20
-2.34786
11
13.3331
21
-2.34786
0
LINE
8
BLACK
6
CONTINUOUS
10
13.3331
20
-2.34786
11
13.5236
21
-2.25262
0
LINE
8
BLACK
6
CONTINUOUS
10
14.476
20
-1.77643
11
14.476
21
-3.77643
0
LINE
8
BLACK
6
CONTINUOUS
10
14.476
20
-1.87167
11
14.6664
21
-1.77643
0
LINE
8
BLACK
6
CONTINUOUS
10
14.6664
20
-1.77643
11
15.0474
21
-1.77643
0
LINE
8
BLACK
6
CONTINUOUS
10
15.0474
20
-1.77643
11
15.2379
21
-1.87167
0
LINE
8
BLACK
6
CONTINUOUS
10
15.2379
20
-1.87167
11
15.3331
21
-1.9669
0
LINE
8
BLACK
6
CONTINUOUS
10
15.3331
20
-1.9669
11
15.4283
21
-2.15738
0
LINE
8
BLACK
6
CONTINUOUS
10
15.4283
20
-2.15738
11
15.4283
21
-2.72881
0
LINE
8
BLACK
6
CONTINUOUS
10
15.4283
20
-2.72881
11
15.3331
21
-2.91928
0
LINE
8
BLACK
6
CONTINUOUS
10
15.3331
20
-2.91928
11
15.2379
21
-3.01452
0
LINE
8
BLACK
6
CONTINUOUS
10
15.2379
20
-3.01452
11
15.0474
21
-3.10976
0
LINE
8
BLACK
6
CONTINUOUS
10
15.0474
20
-3.10976
11
14.6664
21
-3.10976
0
LINE
8
BLACK
6
CONTINUOUS
10
14.6664
20
-3.10976
11
14.476
21
-3.01452
0
LINE
8
BLACK
6
CONTINUOUS
10
16.2855
20
-2.91928
11
16.3807
21
-3.01452
0
LINE
8
BLACK
6
CONTINUOUS
10
16.3807
20
-3.01452
11
16.2855
21
-3.10976
0
LINE
8
BLACK
6
CONTINUOUS
10
16.2855
20
-3.10976
11
16.1902
21
-3.01452
0
LINE
8
BLACK
6
CONTINUOUS
10
16.1902
20
-3.01452
11
16.2855
21
-2.91928
0
LINE
8
BLACK
6
CONTINUOUS
10
16.2855
20
-2.91928
11
16.2855
21
-3.10976
0
LINE
8
BLACK
6
CONTINUOUS
10
16.2855
20
-1.87167
11
16.3807
21
-1.9669
0
LINE
8
BLACK
6
CONTINUOUS
10
16.3807
20
-1.9669
11
16.2855
21
-2.06214
0
LINE
8
BLACK
6
CONTINUOUS
10
16.2855
20
-2.06214
11
16.1902
21
-1.9669
0
LINE
8
BLACK
6
CONTINUOUS
10
16.1902
20
-1.9669
11
16.2855
21
-1.87167
0
LINE
8
BLACK
6
CONTINUOUS
10
16.2855
20
-1.87167
11
16.2855
21
-2.06214
0
LINE
8
BLACK
6
CONTINUOUS
10
-0.805
20
-6.005
11
-0.005
21
-6.805
0
LINE
8
BLACK
6
CONTINUOUS
10
-0.005
20
-6.005
11
-0.805
21
-6.805
0
LINE
8
BLACK
6
CONTINUOUS
10
2.95214
20
-5.30976
11
3.14262
21
-5.30976
0
LINE
8
BLACK
6
CONTINUOUS
10
3.14262
20
-5.30976
11
3.33309
21
-5.405
0
LINE
8
BLACK
6
CONTINUOUS
10
3.33309
20
-5.405
11
3.42833
21
-5.50024
0
LINE
8
BLACK
6
CONTINUOUS
10
3.42833
20
-5.50024
11
3.52357
21
-5.69071
0
LINE
8
BLACK
6
CONTINUOUS
10
3.52357
20
-5.69071
11
3.61881
21
-6.07167
0
LINE
8
BLACK
6
CONTINUOUS
10
3.61881
20
-6.07167
11
3.61881
21
-6.54786
0
LINE
8
BLACK
6
CONTINUOUS
10
3.61881
20
-6.54786
11
3.52357
21
-6.92881
0
LINE
8
BLACK
6
CONTINUOUS
10
3.52357
20
-6.92881
11
3.42833
21
-7.11928
0
LINE
8
BLACK
6
CONTINUOUS
10
3.42833
20
-7.11928
11
3.33309
21
-7.21452
0
LINE
8
BLACK
6
CONTINUOUS
10
3.33309
20
-7.21452
11
3.14262
21
-7.30976
0
LINE
8
BLACK
6
CONTINUOUS
10
3.14262
20
-7.30976
11
2.95214
21
-7.30976
0
LINE
8
BLACK
6
CONTINUOUS
10
2.95214
20
-7.30976
11
2.76167
21
-7.21452
0
LINE
8
BLACK
6
CONTINUOUS
10
2.76167
20
-7.21452
11
2.66643
21
-7.11928
0
LINE
8
BLACK
6
CONTINUOUS
10
2.66643
20
-7.11928
11
2.57119
21
-6.92881
0
LINE
8
BLACK
6
CONTINUOUS
10
2.57119
20
-6.92881
11
2.47595
21
-6.54786
0
LINE
8
BLACK
6
CONTINUOUS
10
2.47595
20
-6.54786
11
2.47595
21
-6.07167
0
LINE
8
BLACK
6
CONTINUOUS
10
2.47595
20
-6.07167
11
2.57119
21
-5.69071
0
LINE
8
BLACK
6
CONTINUOUS
10
2.57119
20
-5.69071
11
2.66643
21
-5.50024
0
LINE
8
BLACK
6
CONTINUOUS
10
2.66643
20
-5.50024
11
2.76167
21
-5.405
0
LINE
8
BLACK
6
CONTINUOUS
10
2.76167
20
-5.405
11
2.95214
21
-5.30976
0
LINE
8
BLACK
6
CONTINUOUS
10
4.47595
20
-7.11928
11
4.57119
21
-7.21452
0
LINE
8
BLACK
6
CONTINUOUS
10
4.57119
20
-7.21452
11
4.47595
21
-7.30976
0
LINE
8
BLACK
6
CONTINUOUS
10
4.47595
20
-7.30976
11
4.38071
21
-7.21452
0
LINE
8
BLACK
6
CONTINUOUS
10
4.38071
20
-7.21452
11
4.47595
21
-7.11928
0
LINE
8
BLACK
6
CONTINUOUS
10
4.47595
20
-7.11928
11
4.47595
21
-7.30976
0
LINE
8
BLACK
6
CONTINUOUS
10
5.71405
20
-6.1669
11
5.52357
21
-6.07167
0
LINE
8
BLACK
6
CONTINUOUS
10
5.52357
20
-6.07167
11
5.42833
21
-5.97643
0
LINE
8
BLACK
6
CONTINUOUS
10
5.42833
20
-5.97643
11
5.3331
21
-5.78595
0
LINE
8
BLACK
6
CONTINUOUS
10
5.3331
20
-5.78595
11
5.3331
21
-5.69071
0
LINE
8
BLACK
6
CONTINUOUS
10
5.3331
20
-5.69071
11
5.42833
21
-5.50024
0
LINE
8
BLACK
6
CONTINUOUS
10
5.42833
20
-5.50024
11
5.52357
21
-5.405
0
LINE
8
BLACK
6
CONTINUOUS
10
5.52357
20
-5.405
11
5.71405
21
-5.30976
0
LINE
8
BLACK
6
CONTINUOUS
10
5.71405
20
-5.30976
11
6.095
21
-5.30976
0
LINE
8
BLACK
6
CONTINUOUS
10
6.095
20
-5.30976
11
6.28548
21
-5.405
0
LINE
8
BLACK
6
CONTINUOUS
10
6.28548
20
-5.405
11
6.38071
21
-5.50024
0
LINE
8
BLACK
6
CONTINUOUS
10
6.38071
20
-5.50024
11
6.47595
21
-5.69071
0
LINE
8
BLACK
6
CONTINUOUS
10
6.47595
20
-5.69071
11
6.47595
21
-5.78595
0
LINE
8
BLACK
6
CONTINUOUS
10
6.47595
20
-5.78595
11
6.38071
21
-5.97643
0
LINE
8
BLACK
6
CONTINUOUS
10
6.38071
20
-5.97643
11
6.28548
21
-6.07167
0
LINE
8
BLACK
6
CONTINUOUS
10
6.28548
20
-6.07167
11
6.095
21
-6.1669
0
LINE
8
BLACK
6
CONTINUOUS
10
6.095
20
-6.1669
11
5.71405
21
-6.1669
0
LINE
8
BLACK
6
CONTINUOUS
10
5.71405
20
-6.1669
11
5.52357
21
-6.26214
0
LINE
8
BLACK
6
CONTINUOUS
10
5.52357
20
-6.26214
11
5.42833
21
-6.35738
0
LINE
8
BLACK
6
CONTINUOUS
10
5.42833
20
-6.35738
11
5.3331
21
-6.54786
0
LINE
8
BLACK
6
CONTINUOUS
10
5.3331
20
-6.54786
11
5.3331
21
-6.92881
0
LINE
8
BLACK
6
CONTINUOUS
10
5.3331
20
-6.92881
11
5.42833
21
-7.11928
0
LINE
8
BLACK
6
CONTINUOUS
10
5.42833
20
-7.11928
11
5.52357
21
-7.21452
0
LINE
8
BLACK
6
CONTINUOUS
10
5.52357
20
-7.21452
11
5.71405
21
-7.30976
0
LINE
8
BLACK
6
CONTINUOUS
10
5.71405
20
-7.30976
11
6.095
21
-7.30976
0
LINE
8
BLACK
6
CONTINUOUS
10
6.095
20
-7.30976
11
6.28548
21
-7.21452
0
LINE
8
BLACK
6
CONTINUOUS
10
6.28548
20
-7.21452
11
6.38071
21
-7.11928
0
LINE
8
BLACK
6
CONTINUOUS
10
6.38071
20
-7.11928
11
6.47595
21
-6.92881
0
LINE
8
BLACK
6
CONTINUOUS
10
6.47595
20
-6.92881
11
6.47595
21
-6.54786
0
LINE
8
BLACK
6
CONTINUOUS
10
6.47595
20
-6.54786
11
6.38071
21
-6.35738
0
LINE
8
BLACK
6
CONTINUOUS
10
6.38071
20
-6.35738
11
6.28548
21
-6.26214
0
LINE
8
BLACK
6
CONTINUOUS
10
6.28548
20
-6.26214
11
6.095
21
-6.1669
0
LINE
8
BLACK
6
CONTINUOUS
10
7.71405
20
-5.30976
11
7.90452
21
-5.30976
0
LINE
8
BLACK
6
CONTINUOUS
10
7.90452
20
-5.30976
11
8.095
21
-5.405
0
LINE
8
BLACK
6
CONTINUOUS
10
8.095
20
-5.405
11
8.19024
21
-5.50024
0
LINE
8
BLACK
6
CONTINUOUS
10
8.19024
20
-5.50024
11
8.28548
21
-5.69071
0
LINE
8
BLACK
6
CONTINUOUS
10
8.28548
20
-5.69071
11
8.38071
21
-6.07167
0
LINE
8
BLACK
6
CONTINUOUS
10
8.38071
20
-6.07167
11
8.38071
21
-6.54786
0
LINE
8
BLACK
6
CONTINUOUS
10
8.38071
20
-6.54786
11
8.28548
21
-6.92881
0
LINE
8
BLACK
6
CONTINUOUS
10
8.28548
20
-6.92881
11
8.19024
21
-7.11928
0
LINE
8
BLACK
6
CONTINUOUS
10
8.19024
20
-7.11928
11
8.095
21
-7.21452
0
LINE
8
BLACK
6
CONTINUOUS
10
8.095
20
-7.21452
11
7.90452
21
-7.30976
0
LINE
8
BLACK
6
CONTINUOUS
10
7.90452
20
-7.30976
11
7.71405
21
-7.30976
0
LINE
8
BLACK
6
CONTINUOUS
10
7.71405
20
-7.30976
11
7.52357
21
-7.21452
0
LINE
8
BLACK
6
CONTINUOUS
10
7.52357
20
-7.21452
11
7.42833
21
-7.11928
0
LINE
8
BLACK
6
CONTINUOUS
10
7.42833
20
-7.11928
11
7.33309
21
-6.92881
0
LINE
8
BLACK
6
CONTINUOUS
10
7.33309
20
-6.92881
11
7.23786
21
-6.54786
0
LINE
8
BLACK
6
CONTINUOUS
10
7.23786
20
-6.54786
11
7.23786
21
-6.07167
0
LINE
8
BLACK
6
CONTINUOUS
10
7.23786
20
-6.07167
11
7.33309
21
-5.69071
0
LINE
8
BLACK
6
CONTINUOUS
10
7.33309
20
-5.69071
11
7.42833
21
-5.50024
0
LINE
8
BLACK
6
CONTINUOUS
10
7.42833
20
-5.50024
11
7.52357
21
-5.405
0
LINE
8
BLACK
6
CONTINUOUS
10
7.52357
20
-5.405
11
7.71405
21
-5.30976
0
LINE
8
BLACK
6
CONTINUOUS
10
9.61881
20
-5.30976
11
9.80928
21
-5.30976
0
LINE
8
BLACK
6
CONTINUOUS
10
9.80928
20
-5.30976
11
9.99976
21
-5.405
0
LINE
8
BLACK
6
CONTINUOUS
10
9.99976
20
-5.405
11
10.095
21
-5.50024
0
LINE
8
BLACK
6
CONTINUOUS
10
10.095
20
-5.50024
11
10.1902
21
-5.69071
0
LINE
8
BLACK
6
CONTINUOUS
10
10.1902
20
-5.69071
11
10.2855
21
-6.07167
0
LINE
8
BLACK
6
CONTINUOUS
10
10.2855
20
-6.07167
11
10.2855
21
-6.54786
0
LINE
8
BLACK
6
CONTINUOUS
10
10.2855
20
-6.54786
11
10.1902
21
-6.92881
0
LINE
8
BLACK
6
CONTINUOUS
10
10.1902
20
-6.92881
11
10.095
21
-7.11928
0
LINE
8
BLACK
6
CONTINUOUS
10
10.095
20
-7.11928
11
9.99976
21
-7.21452
0
LINE
8
BLACK
6
CONTINUOUS
10
9.99976
20
-7.21452
11
9.80928
21
-7.30976
0
LINE
8
BLACK
6
CONTINUOUS
10
9.80928
20
-7.30976
11
9.61881
21
-7.30976
0
LINE
8
BLACK
6
CONTINUOUS
10
9.61881
20
-7.30976
11
9.42833
21
-7.21452
0
LINE
8
BLACK
6
CONTINUOUS
10
9.42833
20
-7.21452
11
9.3331
21
-7.11928
0
LINE
8
BLACK
6
CONTINUOUS
10
9.3331
20
-7.11928
11
9.23786
21
-6.92881
0
LINE
8
BLACK
6
CONTINUOUS
10
9.23786
20
-6.92881
11
9.14262
21
-6.54786
0
LINE
8
BLACK
6
CONTINUOUS
10
9.14262
20
-6.54786
11
9.14262
21
-6.07167
0
LINE
8
BLACK
6
CONTINUOUS
10
9.14262
20
-6.07167
11
9.23786
21
-5.69071
0
LINE
8
BLACK
6
CONTINUOUS
10
9.23786
20
-5.69071
11
9.3331
21
-5.50024
0
LINE
8
BLACK
6
CONTINUOUS
10
9.3331
20
-5.50024
11
9.42833
21
-5.405
0
LINE
8
BLACK
6
CONTINUOUS
10
9.42833
20
-5.405
11
9.61881
21
-5.30976
0
LINE
8
BLACK
6
CONTINUOUS
10
11.1426
20
-7.30976
11
11.1426
21
-5.97643
0
LINE
8
BLACK
6
CONTINUOUS
10
11.1426
20
-6.1669
11
11.2379
21
-6.07167
0
LINE
8
BLACK
6
CONTINUOUS
10
11.2379
20
-6.07167
11
11.4283
21
-5.97643
0
LINE
8
BLACK
6
CONTINUOUS
10
11.4283
20
-5.97643
11
11.714
21
-5.97643
0
LINE
8
BLACK
6
CONTINUOUS
10
11.714
20
-5.97643
11
11.9045
21
-6.07167
0
LINE
8
BLACK
6
CONTINUOUS
10
11.9045
20
-6.07167
11
11.9998
21
-6.26214
0
LINE
8
BLACK
6
CONTINUOUS
10
11.9998
20
-6.26214
11
11.9998
21
-7.30976
0
LINE
8
BLACK
6
CONTINUOUS
10
11.9998
20
-6.26214
11
12.095
21
-6.07167
0
LINE
8
BLACK
6
CONTINUOUS
10
12.095
20
-6.07167
11
12.2855
21
-5.97643
0
LINE
8
BLACK
6
CONTINUOUS
10
12.2855
20
-5.97643
11
12.5712
21
-5.97643
0
LINE
8
BLACK
6
CONTINUOUS
10
12.5712
20
-5.97643
11
12.7617
21
-6.07167
0
LINE
8
BLACK
6
CONTINUOUS
10
12.7617
20
-6.07167
11
12.8569
21
-6.26214
0
LINE
8
BLACK
6
CONTINUOUS
10
12.8569
20
-6.26214
11
12.8569
21
-7.30976
0
LINE
8
BLACK
6
CONTINUOUS
10
13.8093
20
-7.30976
11
13.8093
21
-5.97643
0
LINE
8
BLACK
6
CONTINUOUS
10
13.8093
20
-6.1669
11
13.9045
21
-6.07167
0
LINE
8
BLACK
6
CONTINUOUS
10
13.9045
20
-6.07167
11
14.095
21
-5.97643
0
LINE
8
BLACK
6
CONTINUOUS
10
14.095
20
-5.97643
11
14.3807
21
-5.97643
0
LINE
8
BLACK
6
CONTINUOUS
10
14.3807
20
-5.97643
11
14.5712
21
-6.07167
0
LINE
8
BLACK
6
CONTINUOUS
10
14.5712
20
-6.07167
11
14.6664
21
-6.26214
0
LINE
8
BLACK
6
CONTINUOUS
10
14.6664
20
-6.26214
11
14.6664
21
-7.30976
0
LINE
8
BLACK
6
CONTINUOUS
10
14.6664
20
-6.26214
11
14.7617
21
-6.07167
0
LINE
8
BLACK
6
CONTINUOUS
10
14.7617
20
-6.07167
11
14.9521
21
-5.97643
0
LINE
8
BLACK
6
CONTINUOUS
10
14.9521
20
-5.97643
11
15.2379
21
-5.97643
0
LINE
8
BLACK
6
CONTINUOUS
10
15.2379
20
-5.97643
11
15.4283
21
-6.07167
0
LINE
8
BLACK
6
CONTINUOUS
10
15.4283
20
-6.07167
11
15.5236
21
-6.26214
0
LINE
8
BLACK
6
CONTINUOUS
10
15.5236
20
-6.26214
11
15.5236
21
-7.30976
0
LINE
8
BLACK
6
CONTINUOUS
10
19.4283
20
-5.21452
11
17.714
21
-7.78595
0
LINE
8
BLACK
6
CONTINUOUS
10
21.9998
20
-5.30976
11
22.1902
21
-5.30976
0
LINE
8
BLACK
6
CONTINUOUS
10
22.1902
20
-5.30976
11
22.3807
21
-5.405
0
LINE
8
BLACK
6
CONTINUOUS
10
22.3807
20
-5.405
11
22.476
21
-5.50024
0
LINE
8
BLACK
6
CONTINUOUS
10
22.476
20
-5.50024
11
22.5712
21
-5.69071
0
LINE
8
BLACK
6
CONTINUOUS
10
22.5712
20
-5.69071
11
22.6664
21
-6.07167
0
LINE
8
BLACK
6
CONTINUOUS
10
22.6664
20
-6.07167
11
22.6664
21
-6.54786
0
LINE
8
BLACK
6
CONTINUOUS
10
22.6664
20
-6.54786
11
22.5712
21
-6.92881
0
LINE
8
BLACK
6
CONTINUOUS
10
22.5712
20
-6.92881
11
22.476
21
-7.11928
0
LINE
8
BLACK
6
CONTINUOUS
10
22.476
20
-7.11928
11
22.3807
21
-7.21452
0
LINE
8
BLACK
6
CONTINUOUS
10
22.3807
20
-7.21452
11
22.1902
21
-7.30976
0
LINE
8
BLACK
6
CONTINUOUS
10
22.1902
20
-7.30976
11
21.9998
21
-7.30976
0
LINE
8
BLACK
6
CONTINUOUS
10
21.9998
20
-7.30976
11
21.8093
21
-7.21452
0
LINE
8
BLACK
6
CONTINUOUS
10
21.8093
20
-7.21452
11
21.714
21
-7.11928
0
LINE
8
BLACK
6
CONTINUOUS
10
21.714
20
-7.11928
11
21.6188
21
-6.92881
0
LINE
8
BLACK
6
CONTINUOUS
10
21.6188
20
-6.92881
11
21.5236
21
-6.54786
0
LINE
8
BLACK
6
CONTINUOUS
10
21.5236
20
-6.54786
11
21.5236
21
-6.07167
0
LINE
8
BLACK
6
CONTINUOUS
10
21.5236
20
-6.07167
11
21.6188
21
-5.69071
0
LINE
8
BLACK
6
CONTINUOUS
10
21.6188
20
-5.69071
11
21.714
21
-5.50024
0
LINE
8
BLACK
6
CONTINUOUS
10
21.714
20
-5.50024
11
21.8093
21
-5.405
0
LINE
8
BLACK
6
CONTINUOUS
10
21.8093
20
-5.405
11
21.9998
21
-5.30976
0
LINE
8
BLACK
6
CONTINUOUS
10
23.5236
20
-7.11928
11
23.6188
21
-7.21452
0
LINE
8
BLACK
6
CONTINUOUS
10
23.6188
20
-7.21452
11
23.5236
21
-7.30976
0
LINE
8
BLACK
6
CONTINUOUS
10
23.5236
20
-7.30976
11
23.4283
21
-7.21452
0
LINE
8
BLACK
6
CONTINUOUS
10
23.4283
20
-7.21452
11
23.5236
21
-7.11928
0
LINE
8
BLACK
6
CONTINUOUS
10
23.5236
20
-7.11928
11
23.5236
21
-7.30976
0
LINE
8
BLACK
6
CONTINUOUS
10
24.8569
20
-5.30976
11
25.0474
21
-5.30976
0
LINE
8
BLACK
6
CONTINUOUS
10
25.0474
20
-5.30976
11
25.2379
21
-5.405
0
LINE
8
BLACK
6
CONTINUOUS
10
25.2379
20
-5.405
11
25.3331
21
-5.50024
0
LINE
8
BLACK
6
CONTINUOUS
10
25.3331
20
-5.50024
11
25.4283
21
-5.69071
0
LINE
8
BLACK
6
CONTINUOUS
10
25.4283
20
-5.69071
11
25.5236
21
-6.07167
0
LINE
8
BLACK
6
CONTINUOUS
10
25.5236
20
-6.07167
11
25.5236
21
-6.54786
0
LINE
8
BLACK
6
CONTINUOUS
10
25.5236
20
-6.54786
11
25.4283
21
-6.92881
0
LINE
8
BLACK
6
CONTINUOUS
10
25.4283
20
-6.92881
11
25.3331
21
-7.11928
0
LINE
8
BLACK
6
CONTINUOUS
10
25.3331
20
-7.11928
11
25.2379
21
-7.21452
0
LINE
8
BLACK
6
CONTINUOUS
10
25.2379
20
-7.21452
11
25.0474
21
-7.30976
0
LINE
8
BLACK
6
CONTINUOUS
10
25.0474
20
-7.30976
11
24.8569
21
-7.30976
0
LINE
8
BLACK
6
CONTINUOUS
10
24.8569
20
-7.30976
11
24.6664
21
-7.21452
0
LINE
8
BLACK
6
CONTINUOUS
10
24.6664
20
-7.21452
11
24.5712
21
-7.11928
0
LINE
8
BLACK
6
CONTINUOUS
10
24.5712
20
-7.11928
11
24.476
21
-6.92881
0
LINE
8
BLACK
6
CONTINUOUS
10
24.476
20
-6.92881
11
24.3807
21
-6.54786
0
LINE
8
BLACK
6
CONTINUOUS
10
24.3807
20
-6.54786
11
24.3807
21
-6.07167
0
LINE
8
BLACK
6
CONTINUOUS
10
24.3807
20
-6.07167
11
24.476
21
-5.69071
0
LINE
8
BLACK
6
CONTINUOUS
10
24.476
20
-5.69071
11
24.5712
21
-5.50024
0
LINE
8
BLACK
6
CONTINUOUS
10
24.5712
20
-5.50024
11
24.6664
21
-5.405
0
LINE
8
BLACK
6
CONTINUOUS
10
24.6664
20
-5.405
11
24.8569
21
-5.30976
0
LINE
8
BLACK
6
CONTINUOUS
10
26.1902
20
-5.30976
11
27.4283
21
-5.30976
0
LINE
8
BLACK
6
CONTINUOUS
10
27.4283
20
-5.30976
11
26.7617
21
-6.07167
0
LINE
8
BLACK
6
CONTINUOUS
10
26.7617
20
-6.07167
11
27.0474
21
-6.07167
0
LINE
8
BLACK
6
CONTINUOUS
10
27.0474
20
-6.07167
11
27.2379
21
-6.1669
0
LINE
8
BLACK
6
CONTINUOUS
10
27.2379
20
-6.1669
11
27.3331
21
-6.26214
0
LINE
8
BLACK
6
CONTINUOUS
10
27.3331
20
-6.26214
11
27.4283
21
-6.45262
0
LINE
8
BLACK
6
CONTINUOUS
10
27.4283
20
-6.45262
11
27.4283
21
-6.92881
0
LINE
8
BLACK
6
CONTINUOUS
10
27.4283
20
-6.92881
11
27.3331
21
-7.11928
0
LINE
8
BLACK
6
CONTINUOUS
10
27.3331
20
-7.11928
11
27.2379
21
-7.21452
0
LINE
8
BLACK
6
CONTINUOUS
10
27.2379
20
-7.21452
11
27.0474
21
-7.30976
0
LINE
8
BLACK
6
CONTINUOUS
10
27.0474
20
-7.30976
11
26.476
21
-7.30976
0
LINE
8
BLACK
6
CONTINUOUS
10
26.476
20
-7.30976
11
26.2855
21
-7.21452
0
LINE
8
BLACK
6
CONTINUOUS
10
26.2855
20
-7.21452
11
26.1902
21
-7.11928
0
LINE
8
BLACK
6
CONTINUOUS
10
29.3331
20
-7.30976
11
28.1902
21
-7.30976
0
LINE
8
BLACK
6
CONTINUOUS
10
28.7617
20
-7.30976
11
28.7617
21
-5.30976
0
LINE
8
BLACK
6
CONTINUOUS
10
28.7617
20
-5.30976
11
28.5712
21
-5.59548
0
LINE
8
BLACK
6
CONTINUOUS
10
28.5712
20
-5.59548
11
28.3807
21
-5.78595
0
LINE
8
BLACK
6
CONTINUOUS
10
28.3807
20
-5.78595
11
28.1902
21
-5.88119
0
LINE
8
BLACK
6
CONTINUOUS
10
31.1426
20
-5.30976
11
30.1902
21
-5.30976
0
LINE
8
BLACK
6
CONTINUOUS
10
30.1902
20
-5.30976
11
30.095
21
-6.26214
0
LINE
8
BLACK
6
CONTINUOUS
10
30.095
20
-6.26214
11
30.1902
21
-6.1669
0
LINE
8
BLACK
6
CONTINUOUS
10
30.1902
20
-6.1669
11
30.3807
21
-6.07167
0
LINE
8
BLACK
6
CONTINUOUS
10
30.3807
20
-6.07167
11
30.8569
21
-6.07167
0
LINE
8
BLACK
6
CONTINUOUS
10
30.8569
20
-6.07167
11
31.0474
21
-6.1669
0
LINE
8
BLACK
6
CONTINUOUS
10
31.0474
20
-6.1669
11
31.1426
21
-6.26214
0
LINE
8
BLACK
6
CONTINUOUS
10
31.1426
20
-6.26214
11
31.2379
21
-6.45262
0
LINE
8
BLACK
6
CONTINUOUS
10
31.2379
20
-6.45262
11
31.2379
21
-6.92881
0
LINE
8
BLACK
6
CONTINUOUS
10
31.2379
20
-6.92881
11
31.1426
21
-7.11928
0
LINE
8
BLACK
6
CONTINUOUS
10
31.1426
20
-7.11928
11
31.0474
21
-7.21452
0
LINE
8
BLACK
6
CONTINUOUS
10
31.0474
20
-7.21452
11
30.8569
21
-7.30976
0
LINE
8
BLACK
6
CONTINUOUS
10
30.8569
20
-7.30976
11
30.3807
21
-7.30976
0
LINE
8
BLACK
6
CONTINUOUS
10
30.3807
20
-7.30976
11
30.1902
21
-7.21452
0
LINE
8
BLACK
6
CONTINUOUS
10
30.1902
20
-7.21452
11
30.095
21
-7.11928
0
LINE
8
BLACK
6
CONTINUOUS
10
31.9998
20
-5.30976
11
31.9998
21
-5.69071
0
LINE
8
BLACK
6
CONTINUOUS
10
32.7617
20
-5.30976
11
32.7617
21
-5.69071
0
LINE
8
BLACK
6
CONTINUOUS
10
35.714
20
-8.07167
11
35.6188
21
-7.97643
0
LINE
8
BLACK
6
CONTINUOUS
10
35.6188
20
-7.97643
11
35.4283
21
-7.69071
0
LINE
8
BLACK
6
CONTINUOUS
10
35.4283
20
-7.69071
11
35.3331
21
-7.50024
0
LINE
8
BLACK
6
CONTINUOUS
10
35.3331
20
-7.50024
11
35.2379
21
-7.21452
0
LINE
8
BLACK
6
CONTINUOUS
10
35.2379
20
-7.21452
11
35.1426
21
-6.73833
0
LINE
8
BLACK
6
CONTINUOUS
10
35.1426
20
-6.73833
11
35.1426
21
-6.35738
0
LINE
8
BLACK
6
CONTINUOUS
10
35.1426
20
-6.35738
11
35.2379
21
-5.88119
0
LINE
8
BLACK
6
CONTINUOUS
10
35.2379
20
-5.88119
11
35.3331
21
-5.59548
0
LINE
8
BLACK
6
CONTINUOUS
10
35.3331
20
-5.59548
11
35.4283
21
-5.405
0
LINE
8
BLACK
6
CONTINUOUS
10
35.4283
20
-5.405
11
35.6188
21
-5.11928
0
LINE
8
BLACK
6
CONTINUOUS
10
35.6188
20
-5.11928
11
35.714
21
-5.02405
0
LINE
8
BLACK
6
CONTINUOUS
10
36.8569
20
-5.30976
11
37.0474
21
-5.30976
0
LINE
8
BLACK
6
CONTINUOUS
10
37.0474
20
-5.30976
11
37.2379
21
-5.405
0
LINE
8
BLACK
6
CONTINUOUS
10
37.2379
20
-5.405
11
37.3331
21
-5.50024
0
LINE
8
BLACK
6
CONTINUOUS
10
37.3331
20
-5.50024
11
37.4283
21
-5.69071
0
LINE
8
BLACK
6
CONTINUOUS
10
37.4283
20
-5.69071
11
37.5236
21
-6.07167
0
LINE
8
BLACK
6
CONTINUOUS
10
37.5236
20
-6.07167
11
37.5236
21
-6.54786
0
LINE
8
BLACK
6
CONTINUOUS
10
37.5236
20
-6.54786
11
37.4283
21
-6.92881
0
LINE
8
BLACK
6
CONTINUOUS
10
37.4283
20
-6.92881
11
37.3331
21
-7.11928
0
LINE
8
BLACK
6
CONTINUOUS
10
37.3331
20
-7.11928
11
37.2379
21
-7.21452
0
LINE
8
BLACK
6
CONTINUOUS
10
37.2379
20
-7.21452
11
37.0474
21
-7.30976
0
LINE
8
BLACK
6
CONTINUOUS
10
37.0474
20
-7.30976
11
36.8569
21
-7.30976
0
LINE
8
BLACK
6
CONTINUOUS
10
36.8569
20
-7.30976
11
36.6664
21
-7.21452
0
LINE
8
BLACK
6
CONTINUOUS
10
36.6664
20
-7.21452
11
36.5712
21
-7.11928
0
LINE
8
BLACK
6
CONTINUOUS
10
36.5712
20
-7.11928
11
36.476
21
-6.92881
0
LINE
8
BLACK
6
CONTINUOUS
10
36.476
20
-6.92881
11
36.3807
21
-6.54786
0
LINE
8
BLACK
6
CONTINUOUS
10
36.3807
20
-6.54786
11
36.3807
21
-6.07167
0
LINE
8
BLACK
6
CONTINUOUS
10
36.3807
20
-6.07167
11
36.476
21
-5.69071
0
LINE
8
BLACK
6
CONTINUOUS
10
36.476
20
-5.69071
11
36.5712
21
-5.50024
0
LINE
8
BLACK
6
CONTINUOUS
10
36.5712
20
-5.50024
11
36.6664
21
-5.405
0
LINE
8
BLACK
6
CONTINUOUS
10
36.6664
20
-5.405
11
36.8569
21
-5.30976
0
LINE
8
BLACK
6
CONTINUOUS
10
39.9045
20
-7.30976
11
39.9045
21
-5.30976
0
LINE
8
BLACK
6
CONTINUOUS
10
40.7617
20
-7.30976
11
40.7617
21
-6.26214
0
LINE
8
BLACK
6
CONTINUOUS
10
40.7617
20
-6.26214
11
40.6664
21
-6.07167
0
LINE
8
BLACK
6
CONTINUOUS
10
40.6664
20
-6.07167
11
40.476
21
-5.97643
0
LINE
8
BLACK
6
CONTINUOUS
10
40.476
20
-5.97643
11
40.1902
21
-5.97643
0
LINE
8
BLACK
6
CONTINUOUS
10
40.1902
20
-5.97643
11
39.9998
21
-6.07167
0
LINE
8
BLACK
6
CONTINUOUS
10
39.9998
20
-6.07167
11
39.9045
21
-6.1669
0
LINE
8
BLACK
6
CONTINUOUS
10
41.9998
20
-7.30976
11
41.8093
21
-7.21452
0
LINE
8
BLACK
6
CONTINUOUS
10
41.8093
20
-7.21452
11
41.714
21
-7.11928
0
LINE
8
BLACK
6
CONTINUOUS
10
41.714
20
-7.11928
11
41.6188
21
-6.92881
0
LINE
8
BLACK
6
CONTINUOUS
10
41.6188
20
-6.92881
11
41.6188
21
-6.35738
0
LINE
8
BLACK
6
CONTINUOUS
10
41.6188
20
-6.35738
11
41.714
21
-6.1669
0
LINE
8
BLACK
6
CONTINUOUS
10
41.714
20
-6.1669
11
41.8093
21
-6.07167
0
LINE
8
BLACK
6
CONTINUOUS
10
41.8093
20
-6.07167
11
41.9998
21
-5.97643
0
LINE
8
BLACK
6
CONTINUOUS
10
41.9998
20
-5.97643
11
42.2855
21
-5.97643
0
LINE
8
BLACK
6
CONTINUOUS
10
42.2855
20
-5.97643
11
42.476
21
-6.07167
0
LINE
8
BLACK
6
CONTINUOUS
10
42.476
20
-6.07167
11
42.5712
21
-6.1669
0
LINE
8
BLACK
6
CONTINUOUS
10
42.5712
20
-6.1669
11
42.6664
21
-6.35738
0
LINE
8
BLACK
6
CONTINUOUS
10
42.6664
20
-6.35738
11
42.6664
21
-6.92881
0
LINE
8
BLACK
6
CONTINUOUS
10
42.6664
20
-6.92881
11
42.5712
21
-7.11928
0
LINE
8
BLACK
6
CONTINUOUS
10
42.5712
20
-7.11928
11
42.476
21
-7.21452
0
LINE
8
BLACK
6
CONTINUOUS
10
42.476
20
-7.21452
11
42.2855
21
-7.30976
0
LINE
8
BLACK
6
CONTINUOUS
10
42.2855
20
-7.30976
11
41.9998
21
-7.30976
0
LINE
8
BLACK
6
CONTINUOUS
10
43.8093
20
-7.30976
11
43.6188
21
-7.21452
0
LINE
8
BLACK
6
CONTINUOUS
10
43.6188
20
-7.21452
11
43.5236
21
-7.02405
0
LINE
8
BLACK
6
CONTINUOUS
10
43.5236
20
-7.02405
11
43.5236
21
-5.30976
0
LINE
8
BLACK
6
CONTINUOUS
10
45.3331
20
-7.21452
11
45.1426
21
-7.30976
0
LINE
8
BLACK
6
CONTINUOUS
10
45.1426
20
-7.30976
11
44.7617
21
-7.30976
0
LINE
8
BLACK
6
CONTINUOUS
10
44.7617
20
-7.30976
11
44.5712
21
-7.21452
0
LINE
8
BLACK
6
CONTINUOUS
10
44.5712
20
-7.21452
11
44.476
21
-7.02405
0
LINE
8
BLACK
6
CONTINUOUS
10
44.476
20
-7.02405
11
44.476
21
-6.26214
0
LINE
8
BLACK
6
CONTINUOUS
10
44.476
20
-6.26214
11
44.5712
21
-6.07167
0
LINE
8
BLACK
6
CONTINUOUS
10
44.5712
20
-6.07167
11
44.7617
21
-5.97643
0
LINE
8
BLACK
6
CONTINUOUS
10
44.7617
20
-5.97643
11
45.1426
21
-5.97643
0
LINE
8
BLACK
6
CONTINUOUS
10
45.1426
20
-5.97643
11
45.3331
21
-6.07167
0
LINE
8
BLACK
6
CONTINUOUS
10
45.3331
20
-6.07167
11
45.4283
21
-6.26214
0
LINE
8
BLACK
6
CONTINUOUS
10
45.4283
20
-6.26214
11
45.4283
21
-6.45262
0
LINE
8
BLACK
6
CONTINUOUS
10
45.4283
20
-6.45262
11
44.476
21
-6.64309
0
LINE
8
BLACK
6
CONTINUOUS
10
46.1902
20
-7.21452
11
46.3807
21
-7.30976
0
LINE
8
BLACK
6
CONTINUOUS
10
46.3807
20
-7.30976
11
46.7617
21
-7.30976
0
LINE
8
BLACK
6
CONTINUOUS
10
46.7617
20
-7.30976
11
46.9521
21
-7.21452
0
LINE
8
BLACK
6
CONTINUOUS
10
46.9521
20
-7.21452
11
47.0474
21
-7.02405
0
LINE
8
BLACK
6
CONTINUOUS
10
47.0474
20
-7.02405
11
47.0474
21
-6.92881
0
LINE
8
BLACK
6
CONTINUOUS
10
47.0474
20
-6.92881
11
46.9521
21
-6.73833
0
LINE
8
BLACK
6
CONTINUOUS
10
46.9521
20
-6.73833
11
46.7617
21
-6.64309
0
LINE
8
BLACK
6
CONTINUOUS
10
46.7617
20
-6.64309
11
46.476
21
-6.64309
0
LINE
8
BLACK
6
CONTINUOUS
10
46.476
20
-6.64309
11
46.2855
21
-6.54786
0
LINE
8
BLACK
6
CONTINUOUS
10
46.2855
20
-6.54786
11
46.1902
21
-6.35738
0
LINE
8
BLACK
6
CONTINUOUS
10
46.1902
20
-6.35738
11
46.1902
21
-6.26214
0
LINE
8
BLACK
6
CONTINUOUS
10
46.1902
20
-6.26214
11
46.2855
21
-6.07167
0
LINE
8
BLACK
6
CONTINUOUS
10
46.2855
20
-6.07167
11
46.476
21
-5.97643
0
LINE
8
BLACK
6
CONTINUOUS
10
46.476
20
-5.97643
11
46.7617
21
-5.97643
0
LINE
8
BLACK
6
CONTINUOUS
10
46.7617
20
-5.97643
11
46.9521
21
-6.07167
0
LINE
8
BLACK
6
CONTINUOUS
10
49.4283
20
-6.54786
11
50.9521
21
-6.54786
0
LINE
8
BLACK
6
CONTINUOUS
10
50.1902
20
-7.30976
11
50.1902
21
-5.78595
0
LINE
8
BLACK
6
CONTINUOUS
10
54.2855
20
-5.97643
11
54.2855
21
-7.30976
0
LINE
8
BLACK
6
CONTINUOUS
10
53.8093
20
-5.21452
11
53.3331
21
-6.64309
0
LINE
8
BLACK
6
CONTINUOUS
10
53.3331
20
-6.64309
11
54.5712
21
-6.64309
0
LINE
8
BLACK
6
CONTINUOUS
10
56.7617
20
-7.21452
11
56.9521
21
-7.30976
0
LINE
8
BLACK
6
CONTINUOUS
10
56.9521
20
-7.30976
11
57.3331
21
-7.30976
0
LINE
8
BLACK
6
CONTINUOUS
10
57.3331
20
-7.30976
11
57.5236
21
-7.21452
0
LINE
8
BLACK
6
CONTINUOUS
10
57.5236
20
-7.21452
11
57.6188
21
-7.02405
0
LINE
8
BLACK
6
CONTINUOUS
10
57.6188
20
-7.02405
11
57.6188
21
-6.92881
0
LINE
8
BLACK
6
CONTINUOUS
10
57.6188
20
-6.92881
11
57.5236
21
-6.73833
0
LINE
8
BLACK
6
CONTINUOUS
10
57.5236
20
-6.73833
11
57.3331
21
-6.64309
0
LINE
8
BLACK
6
CONTINUOUS
10
57.3331
20
-6.64309
11
57.0474
21
-6.64309
0
LINE
8
BLACK
6
CONTINUOUS
10
57.0474
20
-6.64309
11
56.8569
21
-6.54786
0
LINE
8
BLACK
6
CONTINUOUS
10
56.8569
20
-6.54786
11
56.7617
21
-6.35738
0
LINE
8
BLACK
6
CONTINUOUS
10
56.7617
20
-6.35738
11
56.7617
21
-6.26214
0
LINE
8
BLACK
6
CONTINUOUS
10
56.7617
20
-6.26214
11
56.8569
21
-6.07167
0
LINE
8
BLACK
6
CONTINUOUS
10
56.8569
20
-6.07167
11
57.0474
21
-5.97643
0
LINE
8
BLACK
6
CONTINUOUS
10
57.0474
20
-5.97643
11
57.3331
21
-5.97643
0
LINE
8
BLACK
6
CONTINUOUS
10
57.3331
20
-5.97643
11
57.5236
21
-6.07167
0
LINE
8
BLACK
6
CONTINUOUS
10
58.7617
20
-7.30976
11
58.5712
21
-7.21452
0
LINE
8
BLACK
6
CONTINUOUS
10
58.5712
20
-7.21452
11
58.476
21
-7.02405
0
LINE
8
BLACK
6
CONTINUOUS
10
58.476
20
-7.02405
11
58.476
21
-5.30976
0
LINE
8
BLACK
6
CONTINUOUS
10
59.8093
20
-7.30976
11
59.6188
21
-7.21452
0
LINE
8
BLACK
6
CONTINUOUS
10
59.6188
20
-7.21452
11
59.5236
21
-7.11928
0
LINE
8
BLACK
6
CONTINUOUS
10
59.5236
20
-7.11928
11
59.4283
21
-6.92881
0
LINE
8
BLACK
6
CONTINUOUS
10
59.4283
20
-6.92881
11
59.4283
21
-6.35738
0
LINE
8
BLACK
6
CONTINUOUS
10
59.4283
20
-6.35738
11
59.5236
21
-6.1669
0
LINE
8
BLACK
6
CONTINUOUS
10
59.5236
20
-6.1669
11
59.6188
21
-6.07167
0
LINE
8
BLACK
6
CONTINUOUS
10
59.6188
20
-6.07167
11
59.8093
21
-5.97643
0
LINE
8
BLACK
6
CONTINUOUS
10
59.8093
20
-5.97643
11
60.095
21
-5.97643
0
LINE
8
BLACK
6
CONTINUOUS
10
60.095
20
-5.97643
11
60.2855
21
-6.07167
0
LINE
8
BLACK
6
CONTINUOUS
10
60.2855
20
-6.07167
11
60.3807
21
-6.1669
0
LINE
8
BLACK
6
CONTINUOUS
10
60.3807
20
-6.1669
11
60.476
21
-6.35738
0
LINE
8
BLACK
6
CONTINUOUS
10
60.476
20
-6.35738
11
60.476
21
-6.92881
0
LINE
8
BLACK
6
CONTINUOUS
10
60.476
20
-6.92881
11
60.3807
21
-7.11928
0
LINE
8
BLACK
6
CONTINUOUS
10
60.3807
20
-7.11928
11
60.2855
21
-7.21452
0
LINE
8
BLACK
6
CONTINUOUS
10
60.2855
20
-7.21452
11
60.095
21
-7.30976
0
LINE
8
BLACK
6
CONTINUOUS
10
60.095
20
-7.30976
11
59.8093
21
-7.30976
0
LINE
8
BLACK
6
CONTINUOUS
10
61.0474
20
-5.97643
11
61.8093
21
-5.97643
0
LINE
8
BLACK
6
CONTINUOUS
10
61.3331
20
-5.30976
11
61.3331
21
-7.02405
0
LINE
8
BLACK
6
CONTINUOUS
10
61.3331
20
-7.02405
11
61.4283
21
-7.21452
0
LINE
8
BLACK
6
CONTINUOUS
10
61.4283
20
-7.21452
11
61.6188
21
-7.30976
0
LINE
8
BLACK
6
CONTINUOUS
10
61.6188
20
-7.30976
11
61.8093
21
-7.30976
0
LINE
8
BLACK
6
CONTINUOUS
10
62.3807
20
-7.21452
11
62.5712
21
-7.30976
0
LINE
8
BLACK
6
CONTINUOUS
10
62.5712
20
-7.30976
11
62.9521
21
-7.30976
0
LINE
8
BLACK
6
CONTINUOUS
10
62.9521
20
-7.30976
11
63.1426
21
-7.21452
0
LINE
8
BLACK
6
CONTINUOUS
10
63.1426
20
-7.21452
11
63.2379
21
-7.02405
0
LINE
8
BLACK
6
CONTINUOUS
10
63.2379
20
-7.02405
11
63.2379
21
-6.92881
0
LINE
8
BLACK
6
CONTINUOUS
10
63.2379
20
-6.92881
11
63.1426
21
-6.73833
0
LINE
8
BLACK
6
CONTINUOUS
10
63.1426
20
-6.73833
11
62.9521
21
-6.64309
0
LINE
8
BLACK
6
CONTINUOUS
10
62.9521
20
-6.64309
11
62.6664
21
-6.64309
0
LINE
8
BLACK
6
CONTINUOUS
10
62.6664
20
-6.64309
11
62.476
21
-6.54786
0
LINE
8
BLACK
6
CONTINUOUS
10
62.476
20
-6.54786
11
62.3807
21
-6.35738
0
LINE
8
BLACK
6
CONTINUOUS
10
62.3807
20
-6.35738
11
62.3807
21
-6.26214
0
LINE
8
BLACK
6
CONTINUOUS
10
62.3807
20
-6.26214
11
62.476
21
-6.07167
0
LINE
8
BLACK
6
CONTINUOUS
10
62.476
20
-6.07167
11
62.6664
21
-5.97643
0
LINE
8
BLACK
6
CONTINUOUS
10
62.6664
20
-5.97643
11
62.9521
21
-5.97643
0
LINE
8
BLACK
6
CONTINUOUS
10
62.9521
20
-5.97643
11
63.1426
21
-6.07167
0
LINE
8
BLACK
6
CONTINUOUS
10
63.9045
20
-8.07167
11
63.9998
21
-7.97643
0
LINE
8
BLACK
6
CONTINUOUS
10
63.9998
20
-7.97643
11
64.1902
21
-7.69071
0
LINE
8
BLACK
6
CONTINUOUS
10
64.1902
20
-7.69071
11
64.2855
21
-7.50024
0
LINE
8
BLACK
6
CONTINUOUS
10
64.2855
20
-7.50024
11
64.3807
21
-7.21452
0
LINE
8
BLACK
6
CONTINUOUS
10
64.3807
20
-7.21452
11
64.476
21
-6.73833
0
LINE
8
BLACK
6
CONTINUOUS
10
64.476
20
-6.73833
11
64.476
21
-6.35738
0
LINE
8
BLACK
6
CONTINUOUS
10
64.476
20
-6.35738
11
64.3807
21
-5.88119
0
LINE
8
BLACK
6
CONTINUOUS
10
64.3807
20
-5.88119
11
64.2855
21
-5.59548
0
LINE
8
BLACK
6
CONTINUOUS
10
64.2855
20
-5.59548
11
64.1902
21
-5.405
0
LINE
8
BLACK
6
CONTINUOUS
10
64.1902
20
-5.405
11
63.9998
21
-5.11928
0
LINE
8
BLACK
6
CONTINUOUS
10
63.9998
20
-5.11928
11
63.9045
21
-5.02405
0
LINE
8
BLACK
6
CONTINUOUS
10
67.5236
20
-8.07167
11
67.4283
21
-7.97643
0
LINE
8
BLACK
6
CONTINUOUS
10
67.4283
20
-7.97643
11
67.2379
21
-7.69071
0
LINE
8
BLACK
6
CONTINUOUS
10
67.2379
20
-7.69071
11
67.1426
21
-7.50024
0
LINE
8
BLACK
6
CONTINUOUS
10
67.1426
20
-7.50024
11
67.0474
21
-7.21452
0
LINE
8
BLACK
6
CONTINUOUS
10
67.0474
20
-7.21452
11
66.9521
21
-6.73833
0
LINE
8
BLACK
6
CONTINUOUS
10
66.9521
20
-6.73833
11
66.9521
21
-6.35738
0
LINE
8
BLACK
6
CONTINUOUS
10
66.9521
20
-6.35738
11
67.0474
21
-5.88119
0
LINE
8
BLACK
6
CONTINUOUS
10
67.0474
20
-5.88119
11
67.1426
21
-5.59548
0
LINE
8
BLACK
6
CONTINUOUS
10
67.1426
20
-5.59548
11
67.2379
21
-5.405
0
LINE
8
BLACK
6
CONTINUOUS
10
67.2379
20
-5.405
11
67.4283
21
-5.11928
0
LINE
8
BLACK
6
CONTINUOUS
10
67.4283
20
-5.11928
11
67.5236
21
-5.02405
0
LINE
8
BLACK
6
CONTINUOUS
10
68.2855
20
-5.97643
11
68.2855
21
-7.30976
0
LINE
8
BLACK
6
CONTINUOUS
10
68.2855
20
-6.1669
11
68.3807
21
-6.07167
0
LINE
8
BLACK
6
CONTINUOUS
10
68.3807
20
-6.07167
11
68.5712
21
-5.97643
0
LINE
8
BLACK
6
CONTINUOUS
10
68.5712
20
-5.97643
11
68.8569
21
-5.97643
0
LINE
8
BLACK
6
CONTINUOUS
10
68.8569
20
-5.97643
11
69.0474
21
-6.07167
0
LINE
8
BLACK
6
CONTINUOUS
10
69.0474
20
-6.07167
11
69.1426
21
-6.26214
0
LINE
8
BLACK
6
CONTINUOUS
10
69.1426
20
-6.26214
11
69.1426
21
-7.30976
0
LINE
8
BLACK
6
CONTINUOUS
10
70.3807
20
-7.30976
11
70.1902
21
-7.21452
0
LINE
8
BLACK
6
CONTINUOUS
10
70.1902
20
-7.21452
11
70.095
21
-7.11928
0
LINE
8
BLACK
6
CONTINUOUS
10
70.095
20
-7.11928
11
69.9998
21
-6.92881
0
LINE
8
BLACK
6
CONTINUOUS
10
69.9998
20
-6.92881
11
69.9998
21
-6.35738
0
LINE
8
BLACK
6
CONTINUOUS
10
69.9998
20
-6.35738
11
70.095
21
-6.1669
0
LINE
8
BLACK
6
CONTINUOUS
10
70.095
20
-6.1669
11
70.1902
21
-6.07167
0
LINE
8
BLACK
6
CONTINUOUS
10
70.1902
20
-6.07167
11
70.3807
21
-5.97643
0
LINE
8
BLACK
6
CONTINUOUS
10
70.3807
20
-5.97643
11
70.6664
21
-5.97643
0
LINE
8
BLACK
6
CONTINUOUS
10
70.6664
20
-5.97643
11
70.8569
21
-6.07167
0
LINE
8
BLACK
6
CONTINUOUS
10
70.8569
20
-6.07167
11
70.9521
21
-6.1669
0
LINE
8
BLACK
6
CONTINUOUS
10
70.9521
20
-6.1669
11
71.0474
21
-6.35738
0
LINE
8
BLACK
6
CONTINUOUS
10
71.0474
20
-6.35738
11
71.0474
21
-6.92881
0
LINE
8
BLACK
6
CONTINUOUS
10
71.0474
20
-6.92881
11
70.9521
21
-7.11928
0
LINE
8
BLACK
6
CONTINUOUS
10
70.9521
20
-7.11928
11
70.8569
21
-7.21452
0
LINE
8
BLACK
6
CONTINUOUS
10
70.8569
20
-7.21452
11
70.6664
21
-7.30976
0
LINE
8
BLACK
6
CONTINUOUS
10
70.6664
20
-7.30976
11
70.3807
21
-7.30976
0
LINE
8
BLACK
6
CONTINUOUS
10
71.6188
20
-5.97643
11
72.3807
21
-5.97643
0
LINE
8
BLACK
6
CONTINUOUS
10
71.9045
20
-5.30976
11
71.9045
21
-7.02405
0
LINE
8
BLACK
6
CONTINUOUS
10
71.9045
20
-7.02405
11
71.9998
21
-7.21452
0
LINE
8
BLACK
6
CONTINUOUS
10
71.9998
20
-7.21452
11
72.1902
21
-7.30976
0
LINE
8
BLACK
6
CONTINUOUS
10
72.1902
20
-7.30976
11
72.3807
21
-7.30976
0
LINE
8
BLACK
6
CONTINUOUS
10
74.5712
20
-5.97643
11
74.5712
21
-7.97643
0
LINE
8
BLACK
6
CONTINUOUS
10
74.5712
20
-6.07167
11
74.7617
21
-5.97643
0
LINE
8
BLACK
6
CONTINUOUS
10
74.7617
20
-5.97643
11
75.1426
21
-5.97643
0
LINE
8
BLACK
6
CONTINUOUS
10
75.1426
20
-5.97643
11
75.3331
21
-6.07167
0
LINE
8
BLACK
6
CONTINUOUS
10
75.3331
20
-6.07167
11
75.4283
21
-6.1669
0
LINE
8
BLACK
6
CONTINUOUS
10
75.4283
20
-6.1669
11
75.5236
21
-6.35738
0
LINE
8
BLACK
6
CONTINUOUS
10
75.5236
20
-6.35738
11
75.5236
21
-6.92881
0
LINE
8
BLACK
6
CONTINUOUS
10
75.5236
20
-6.92881
11
75.4283
21
-7.11928
0
LINE
8
BLACK
6
CONTINUOUS
10
75.4283
20
-7.11928
11
75.3331
21
-7.21452
0
LINE
8
BLACK
6
CONTINUOUS
10
75.3331
20
-7.21452
11
75.1426
21
-7.30976
0
LINE
8
BLACK
6
CONTINUOUS
10
75.1426
20
-7.30976
11
74.7617
21
-7.30976
0
LINE
8
BLACK
6
CONTINUOUS
10
74.7617
20
-7.30976
11
74.5712
21
-7.21452
0
LINE
8
BLACK
6
CONTINUOUS
10
76.6664
20
-7.30976
11
76.476
21
-7.21452
0
LINE
8
BLACK
6
CONTINUOUS
10
76.476
20
-7.21452
11
76.3807
21
-7.02405
0
LINE
8
BLACK
6
CONTINUOUS
10
76.3807
20
-7.02405
11
76.3807
21
-5.30976
0
LINE
8
BLACK
6
CONTINUOUS
10
78.2855
20
-7.30976
11
78.2855
21
-6.26214
0
LINE
8
BLACK
6
CONTINUOUS
10
78.2855
20
-6.26214
11
78.1902
21
-6.07167
0
LINE
8
BLACK
6
CONTINUOUS
10
78.1902
20
-6.07167
11
77.9998
21
-5.97643
0
LINE
8
BLACK
6
CONTINUOUS
10
77.9998
20
-5.97643
11
77.6188
21
-5.97643
0
LINE
8
BLACK
6
CONTINUOUS
10
77.6188
20
-5.97643
11
77.4283
21
-6.07167
0
LINE
8
BLACK
6
CONTINUOUS
10
78.2855
20
-7.21452
11
78.095
21
-7.30976
0
LINE
8
BLACK
6
CONTINUOUS
10
78.095
20
-7.30976
11
77.6188
21
-7.30976
0
LINE
8
BLACK
6
CONTINUOUS
10
77.6188
20
-7.30976
11
77.4283
21
-7.21452
0
LINE
8
BLACK
6
CONTINUOUS
10
77.4283
20
-7.21452
11
77.3331
21
-7.02405
0
LINE
8
BLACK
6
CONTINUOUS
10
77.3331
20
-7.02405
11
77.3331
21
-6.83357
0
LINE
8
BLACK
6
CONTINUOUS
10
77.3331
20
-6.83357
11
77.4283
21
-6.64309
0
LINE
8
BLACK
6
CONTINUOUS
10
77.4283
20
-6.64309
11
77.6188
21
-6.54786
0
LINE
8
BLACK
6
CONTINUOUS
10
77.6188
20
-6.54786
11
78.095
21
-6.54786
0
LINE
8
BLACK
6
CONTINUOUS
10
78.095
20
-6.54786
11
78.2855
21
-6.45262
0
LINE
8
BLACK
6
CONTINUOUS
10
78.9521
20
-5.97643
11
79.714
21
-5.97643
0
LINE
8
BLACK
6
CONTINUOUS
10
79.2379
20
-5.30976
11
79.2379
21
-7.02405
0
LINE
8
BLACK
6
CONTINUOUS
10
79.2379
20
-7.02405
11
79.3331
21
-7.21452
0
LINE
8
BLACK
6
CONTINUOUS
10
79.3331
20
-7.21452
11
79.5236
21
-7.30976
0
LINE
8
BLACK
6
CONTINUOUS
10
79.5236
20
-7.30976
11
79.714
21
-7.30976
0
LINE
8
BLACK
6
CONTINUOUS
10
81.1426
20
-7.21452
11
80.9521
21
-7.30976
0
LINE
8
BLACK
6
CONTINUOUS
10
80.9521
20
-7.30976
11
80.5712
21
-7.30976
0
LINE
8
BLACK
6
CONTINUOUS
10
80.5712
20
-7.30976
11
80.3807
21
-7.21452
0
LINE
8
BLACK
6
CONTINUOUS
10
80.3807
20
-7.21452
11
80.2855
21
-7.02405
0
LINE
8
BLACK
6
CONTINUOUS
10
80.2855
20
-7.02405
11
80.2855
21
-6.26214
0
LINE
8
BLACK
6
CONTINUOUS
10
80.2855
20
-6.26214
11
80.3807
21
-6.07167
0
LINE
8
BLACK
6
CONTINUOUS
10
80.3807
20
-6.07167
11
80.5712
21
-5.97643
0
LINE
8
BLACK
6
CONTINUOUS
10
80.5712
20
-5.97643
11
80.9521
21
-5.97643
0
LINE
8
BLACK
6
CONTINUOUS
10
80.9521
20
-5.97643
11
81.1426
21
-6.07167
0
LINE
8
BLACK
6
CONTINUOUS
10
81.1426
20
-6.07167
11
81.2379
21
-6.26214
0
LINE
8
BLACK
6
CONTINUOUS
10
81.2379
20
-6.26214
11
81.2379
21
-6.45262
0
LINE
8
BLACK
6
CONTINUOUS
10
81.2379
20
-6.45262
11
80.2855
21
-6.64309
0
LINE
8
BLACK
6
CONTINUOUS
10
82.9521
20
-7.30976
11
82.9521
21
-5.30976
0
LINE
8
BLACK
6
CONTINUOUS
10
82.9521
20
-7.21452
11
82.7617
21
-7.30976
0
LINE
8
BLACK
6
CONTINUOUS
10
82.7617
20
-7.30976
11
82.3807
21
-7.30976
0
LINE
8
BLACK
6
CONTINUOUS
10
82.3807
20
-7.30976
11
82.1902
21
-7.21452
0
LINE
8
BLACK
6
CONTINUOUS
10
82.1902
20
-7.21452
11
82.095
21
-7.11928
0
LINE
8
BLACK
6
CONTINUOUS
10
82.095
20
-7.11928
11
81.9998
21
-6.92881
0
LINE
8
BLACK
6
CONTINUOUS
10
81.9998
20
-6.92881
11
81.9998
21
-6.35738
0
LINE
8
BLACK
6
CONTINUOUS
10
81.9998
20
-6.35738
11
82.095
21
-6.1669
0
LINE
8
BLACK
6
CONTINUOUS
10
82.095
20
-6.1669
11
82.1902
21
-6.07167
0
LINE
8
BLACK
6
CONTINUOUS
10
82.1902
20
-6.07167
11
82.3807
21
-5.97643
0
LINE
8
BLACK
6
CONTINUOUS
10
82.3807
20
-5.97643
11
82.7617
21
-5.97643
0
LINE
8
BLACK
6
CONTINUOUS
10
82.7617
20
-5.97643
11
82.9521
21
-6.07167
0
LINE
8
BLACK
6
CONTINUOUS
10
83.714
20
-8.07167
11
83.8093
21
-7.97643
0
LINE
8
BLACK
6
CONTINUOUS
10
83.8093
20
-7.97643
11
83.9998
21
-7.69071
0
LINE
8
BLACK
6
CONTINUOUS
10
83.9998
20
-7.69071
11
84.095
21
-7.50024
0
LINE
8
BLACK
6
CONTINUOUS
10
84.095
20
-7.50024
11
84.1902
21
-7.21452
0
LINE
8
BLACK
6
CONTINUOUS
10
84.1902
20
-7.21452
11
84.2855
21
-6.73833
0
LINE
8
BLACK
6
CONTINUOUS
10
84.2855
20
-6.73833
11
84.2855
21
-6.35738
0
LINE
8
BLACK
6
CONTINUOUS
10
84.2855
20
-6.35738
11
84.1902
21
-5.88119
0
LINE
8
BLACK
6
CONTINUOUS
10
84.1902
20
-5.88119
11
84.095
21
-5.59548
0
LINE
8
BLACK
6
CONTINUOUS
10
84.095
20
-5.59548
11
83.9998
21
-5.405
0
LINE
8
BLACK
6
CONTINUOUS
10
83.9998
20
-5.405
11
83.8093
21
-5.11928
0
LINE
8
BLACK
6
CONTINUOUS
10
83.8093
20
-5.11928
11
83.714
21
-5.02405
  0
ENDSEC
  0
EOF
