M48
METRIC,TZ
T1C0.400
T2C0.500
T3C0.600
T4C0.740
T5C1.280
T6C1.300
T7C2.700
T8C3.200
T9C6.100
%
G90
G05
T1
X8200Y45000
X10150Y46900
X10150Y43100
X13500Y70350
X13700Y63150
X13700Y62150
X13700Y61150
X13700Y60150
X13700Y59150
X13700Y58150
X13700Y57150
X13700Y55850
X13700Y54850
X13700Y53850
X13700Y52850
X13700Y51850
X13700Y50850
X13700Y49850
X13700Y40050
X13700Y39050
X13700Y38050
X13700Y37050
X13700Y36050
X13700Y35050
X13700Y34050
X13700Y32750
X13700Y31750
X13700Y30750
X13700Y29750
X13700Y28750
X13700Y27750
X13700Y26750
X14430Y19650
X14550Y46900
X14550Y43100
X14700Y63150
X14700Y62150
X14700Y58150
X14700Y57150
X14700Y55850
X14700Y49850
X14700Y40050
X14700Y39050
X14700Y35050
X14700Y34050
X14700Y32750
X14700Y26750
X15400Y68400
X15700Y63150
X15700Y57150
X15700Y55850
X15700Y49850
X15700Y40050
X15700Y34050
X15700Y32750
X15700Y26750
X16380Y21600
X16500Y45000
X16700Y63150
X16700Y57150
X16700Y55850
X16700Y49850
X16700Y40050
X16700Y34050
X16700Y32750
X16700Y26750
X17350Y70350
X17700Y63150
X17700Y57150
X17700Y55850
X17700Y49850
X17700Y40050
X17700Y34050
X17700Y32750
X17700Y26750
X18280Y19650
X18700Y63150
X18700Y62150
X18700Y58150
X18700Y57150
X18700Y55850
X18700Y49850
X18700Y40050
X18700Y39050
X18700Y35050
X18700Y34050
X18700Y32750
X18700Y26750
X19700Y63150
X19700Y62150
X19700Y61150
X19700Y60150
X19700Y59150
X19700Y58150
X19700Y57150
X19700Y55850
X19700Y54850
X19700Y53850
X19700Y52850
X19700Y51850
X19700Y50850
X19700Y49850
X19700Y40050
X19700Y39050
X19700Y38050
X19700Y37050
X19700Y36050
X19700Y35050
X19700Y34050
X19700Y32750
X19700Y31750
X19700Y30750
X19700Y29750
X19700Y28750
X19700Y27750
X19700Y26750
X23150Y26350
X24150Y27350
X24290Y69600
X24290Y66800
X24290Y23200
X24290Y20400
X24300Y25200
X25150Y28350
X25300Y26200
X25790Y69600
X25790Y66800
X25790Y23200
X25790Y20400
X26150Y29350
X26300Y27200
X27150Y30350
X27300Y28200
X27550Y64000
X28150Y31350
X28300Y29200
X28550Y63150
X29150Y32350
X29300Y30200
X29550Y62150
X30150Y33350
X30300Y31200
X30550Y63450
X30550Y61150
X31300Y32200
X31550Y62450
X31550Y60150
X32550Y61450
X32550Y59150
X33500Y70350
X33550Y60450
X33550Y58150
X34450Y19600
X34550Y59450
X34550Y57150
X35400Y68400
X35650Y28650
X35700Y61300
X35700Y32200
X36400Y21550
X37350Y70350
X38300Y19600
X41700Y28650
X41700Y27600
X41700Y26000
X43300Y27600
X43300Y26000
X43600Y28650
X44290Y69600
X44290Y66800
X44290Y23200
X44290Y20400
X44800Y32200
X45790Y69600
X45790Y66800
X45790Y23200
X45790Y20400
X46750Y64100
X46750Y62450
X46800Y61350
X48350Y64050
X48350Y61350
X48400Y62450
X53500Y70350
X54450Y19650
X55400Y68400
X56400Y21600
X57350Y70350
X58300Y19650
X61700Y28700
X61700Y27600
X61700Y26000
X63300Y27600
X63300Y26050
X63350Y30950
X63400Y28700
X64290Y69600
X64290Y66800
X64290Y23200
X64290Y20400
X65790Y69600
X65790Y66800
X65790Y23200
X65790Y20400
X66800Y64150
X66800Y62400
X66800Y61300
X68350Y64100
X68350Y62400
X68600Y61300
X73500Y70350
X75400Y68400
X76400Y21600
X77350Y70350
X78300Y19650
X81700Y28700
X81700Y27600
X81700Y25950
X82300Y29700
X83300Y27600
X83300Y25950
X84290Y69600
X84290Y66800
X84290Y23200
X84290Y20400
X85790Y69600
X85790Y66800
X85790Y23200
X85790Y20400
X86800Y64150
X86800Y62400
X86800Y61350
X88350Y64100
X88350Y62400
X90700Y61250
X90950Y28650
X91865Y62750
X91865Y27250
T2
X2600Y85000
X2600Y5000
X3303Y86697
X3303Y83303
X3303Y6697
X3303Y3303
X5000Y87400
X5000Y82600
X5000Y7400
X5000Y2600
X6500Y19850
X6697Y86697
X6697Y83303
X6697Y6697
X6697Y3303
X7400Y85000
X7400Y5000
X7500Y19850
X14400Y81000
X15380Y9000
X15400Y81000
X16380Y9000
X34400Y81000
X35400Y81000
X35400Y9000
X36400Y9000
X54400Y81000
X55400Y81000
X55400Y9000
X56400Y9000
X57600Y45000
X58303Y46697
X58303Y43303
X60000Y47400
X60000Y42600
X61697Y46697
X61697Y43303
X62400Y45000
X74400Y81000
X75400Y81000
X75400Y9000
X76400Y9000
X93350Y85000
X93350Y5000
X94053Y86697
X94053Y83303
X94053Y6697
X94053Y3303
X95750Y87400
X95750Y82600
X95750Y7400
X95750Y2600
X97447Y86697
X97447Y83303
X97447Y6697
X97447Y3303
X98150Y85000
X98150Y5000
T3
X21290Y52000
X21290Y38000
X22388Y54652
X22388Y49348
X22388Y40652
X22388Y35348
X25040Y55750
X25040Y48250
X25040Y41750
X25040Y34250
X27692Y54652
X27692Y49348
X27692Y40652
X27692Y35348
X28790Y52000
X28790Y38000
X41290Y52000
X41290Y38000
X42388Y54652
X42388Y49348
X42388Y40652
X42388Y35348
X45040Y55750
X45040Y48250
X45040Y41750
X45040Y34250
X47692Y54652
X47692Y49348
X47692Y40652
X47692Y35348
X48790Y52000
X48790Y38000
X61290Y52000
X61290Y38000
X62388Y54652
X62388Y49348
X62388Y40652
X62388Y35348
X65040Y55750
X65040Y48250
X65040Y41750
X65040Y34250
X67692Y54652
X67692Y49348
X67692Y40652
X67692Y35348
X68790Y52000
X68790Y38000
X81290Y52000
X81290Y38000
X82388Y54652
X82388Y49348
X82388Y40652
X82388Y35348
X85040Y55750
X85040Y48250
X85040Y41750
X85040Y34250
X87692Y54652
X87692Y49348
X87692Y40652
X87692Y35348
X88790Y52000
X88790Y38000
T4
X91865Y60540
X91865Y59270
X91865Y58000
X91865Y56730
X91865Y55460
X91865Y34540
X91865Y33270
X91865Y32000
X91865Y30730
X91865Y29460
X93135Y60540
X93135Y59270
X93135Y58000
X93135Y56730
X93135Y55460
X93135Y34540
X93135Y33270
X93135Y32000
X93135Y30730
X93135Y29460
T5
X22500Y68200
X22500Y21800
X25040Y68200
X25040Y21800
X27580Y68200
X27580Y21800
X42500Y68200
X42500Y21800
X45040Y68200
X45040Y21800
X47580Y68200
X47580Y21800
X62500Y68200
X62500Y21800
X65040Y68200
X65040Y21800
X67580Y68200
X67580Y21800
X82500Y68200
X82500Y21800
X85040Y68200
X85040Y21800
X87580Y68200
X87580Y21800
T6
X22500Y82950
X22500Y74750
X22580Y15250
X22580Y7050
X27500Y82950
X27500Y74750
X27580Y15250
X27580Y7050
X42500Y82950
X42500Y74750
X42580Y15250
X42580Y7050
X47500Y82950
X47500Y74750
X47580Y15250
X47580Y7050
X62500Y82950
X62500Y74750
X62580Y15250
X62580Y7050
X67500Y82950
X67500Y74750
X67580Y15250
X67580Y7050
X82500Y82950
X82500Y74750
X82580Y15250
X82580Y7050
X87500Y82950
X87500Y74750
X87580Y15250
X87580Y7050
T7
X16700Y60150
X16700Y52950
X16700Y37050
X16700Y29850
T8
X5000Y85000
X5000Y5000
X60000Y45000
X95750Y85000
X95750Y5000
T9
X25040Y52000
X25040Y38000
X45040Y52000
X45040Y38000
X65040Y52000
X65040Y38000
X85040Y52000
X85040Y38000
T0
M30
