%TF.GenerationSoftware,KiCad,Pcbnew,(6.0.10)*%
%TF.CreationDate,2023-01-04T08:24:49-08:00*%
%TF.ProjectId,solid_state_relays_12v,736f6c69-645f-4737-9461-74655f72656c,0.0.7*%
%TF.SameCoordinates,PXe4e1c0PY6422c40*%
%TF.FileFunction,Legend,Top*%
%TF.FilePolarity,Positive*%
%FSLAX46Y46*%
G04 Gerber Fmt 4.6, Leading zero omitted, Abs format (unit mm)*
G04 Created by KiCad (PCBNEW (6.0.10)) date 2023-01-04 08:24:49*
%MOMM*%
%LPD*%
G01*
G04 APERTURE LIST*
%ADD10C,0.200000*%
%ADD11C,0.150000*%
%ADD12C,0.300000*%
%ADD13C,0.250000*%
%ADD14C,0.113500*%
%ADD15C,0.120000*%
%ADD16C,0.100000*%
%ADD17C,0.010000*%
G04 APERTURE END LIST*
D10*
X18525000Y88462500D02*
X17775000Y87387500D01*
X17775000Y89537500D02*
X18525000Y88462500D01*
D11*
X94550000Y73550000D02*
X99650000Y73550000D01*
X99650000Y73550000D02*
X99650000Y64650000D01*
X99650000Y64650000D02*
X94550000Y64650000D01*
X94550000Y64650000D02*
X94550000Y73550000D01*
D10*
X33000000Y2575000D02*
X38750000Y2575000D01*
X72075000Y89537500D02*
X72075000Y87387500D01*
X32075000Y89537500D02*
X32075000Y87387500D01*
X73000000Y2625000D02*
X78750000Y2625000D01*
X18750000Y475000D02*
X13000000Y475000D01*
D11*
X94550000Y25400000D02*
X99650000Y25400000D01*
X99650000Y25400000D02*
X99650000Y16500000D01*
X99650000Y16500000D02*
X94550000Y16500000D01*
X94550000Y16500000D02*
X94550000Y25400000D01*
D10*
X52075000Y89537500D02*
X52075000Y87387500D01*
X12025000Y89537500D02*
X17775000Y89537500D01*
X52075000Y89537500D02*
X57825000Y89537500D01*
X38750000Y2575000D02*
X39500000Y1500000D01*
X32075000Y89537500D02*
X37825000Y89537500D01*
X58575000Y88462500D02*
X57825000Y87387500D01*
X77825000Y87387500D02*
X72075000Y87387500D01*
X79500000Y1550000D02*
X78750000Y475000D01*
X33000000Y2575000D02*
X33000000Y425000D01*
X38575000Y88462500D02*
X37825000Y87387500D01*
X72075000Y89537500D02*
X77825000Y89537500D01*
X19500000Y1550000D02*
X18750000Y475000D01*
X58750000Y462500D02*
X53000000Y462500D01*
X53000000Y2612500D02*
X58750000Y2612500D01*
X59500000Y1537500D02*
X58750000Y462500D01*
X73000000Y2625000D02*
X73000000Y475000D01*
X78575000Y88462500D02*
X77825000Y87387500D01*
X39500000Y1500000D02*
X38750000Y425000D01*
X53000000Y2612500D02*
X53000000Y462500D01*
X57825000Y87387500D02*
X52075000Y87387500D01*
X13000000Y2625000D02*
X13000000Y475000D01*
X38750000Y425000D02*
X33000000Y425000D01*
X17775000Y87387500D02*
X12025000Y87387500D01*
X13000000Y2625000D02*
X18750000Y2625000D01*
X58750000Y2612500D02*
X59500000Y1537500D01*
X12025000Y89537500D02*
X12025000Y87387500D01*
X77825000Y89537500D02*
X78575000Y88462500D01*
X18750000Y2625000D02*
X19500000Y1550000D01*
X57825000Y89537500D02*
X58575000Y88462500D01*
X78750000Y475000D02*
X73000000Y475000D01*
X78750000Y2625000D02*
X79500000Y1550000D01*
X37825000Y87387500D02*
X32075000Y87387500D01*
X37825000Y89537500D02*
X38575000Y88462500D01*
X32810714Y89233929D02*
X33096428Y89233929D01*
X33239285Y89162500D01*
X33382142Y89019643D01*
X33453571Y88733929D01*
X33453571Y88233929D01*
X33382142Y87948215D01*
X33239285Y87805358D01*
X33096428Y87733929D01*
X32810714Y87733929D01*
X32667857Y87805358D01*
X32525000Y87948215D01*
X32453571Y88233929D01*
X32453571Y88733929D01*
X32525000Y89019643D01*
X32667857Y89162500D01*
X32810714Y89233929D01*
X34096428Y89233929D02*
X34096428Y88019643D01*
X34167857Y87876786D01*
X34239285Y87805358D01*
X34382142Y87733929D01*
X34667857Y87733929D01*
X34810714Y87805358D01*
X34882142Y87876786D01*
X34953571Y88019643D01*
X34953571Y89233929D01*
X35453571Y89233929D02*
X36310714Y89233929D01*
X35882142Y87733929D02*
X35882142Y89233929D01*
X36667857Y89233929D02*
X37596428Y89233929D01*
X37096428Y88662500D01*
X37310714Y88662500D01*
X37453571Y88591072D01*
X37525000Y88519643D01*
X37596428Y88376786D01*
X37596428Y88019643D01*
X37525000Y87876786D01*
X37453571Y87805358D01*
X37310714Y87733929D01*
X36882142Y87733929D01*
X36739285Y87805358D01*
X36667857Y87876786D01*
D12*
X35809523Y29190477D02*
X36095238Y29095239D01*
X36571428Y29095239D01*
X36761904Y29190477D01*
X36857142Y29285715D01*
X36952380Y29476191D01*
X36952380Y29666667D01*
X36857142Y29857143D01*
X36761904Y29952381D01*
X36571428Y30047620D01*
X36190476Y30142858D01*
X35999999Y30238096D01*
X35904761Y30333334D01*
X35809523Y30523810D01*
X35809523Y30714286D01*
X35904761Y30904762D01*
X35999999Y31000000D01*
X36190476Y31095239D01*
X36666666Y31095239D01*
X36952380Y31000000D01*
X38095238Y29095239D02*
X37904761Y29190477D01*
X37809523Y29285715D01*
X37714285Y29476191D01*
X37714285Y30047620D01*
X37809523Y30238096D01*
X37904761Y30333334D01*
X38095238Y30428572D01*
X38380952Y30428572D01*
X38571428Y30333334D01*
X38666666Y30238096D01*
X38761904Y30047620D01*
X38761904Y29476191D01*
X38666666Y29285715D01*
X38571428Y29190477D01*
X38380952Y29095239D01*
X38095238Y29095239D01*
X39904761Y29095239D02*
X39714285Y29190477D01*
X39619047Y29380953D01*
X39619047Y31095239D01*
X40666666Y29095239D02*
X40666666Y30428572D01*
X40666666Y31095239D02*
X40571428Y31000000D01*
X40666666Y30904762D01*
X40761904Y31000000D01*
X40666666Y31095239D01*
X40666666Y30904762D01*
X42476190Y29095239D02*
X42476190Y31095239D01*
X42476190Y29190477D02*
X42285714Y29095239D01*
X41904761Y29095239D01*
X41714285Y29190477D01*
X41619047Y29285715D01*
X41523809Y29476191D01*
X41523809Y30047620D01*
X41619047Y30238096D01*
X41714285Y30333334D01*
X41904761Y30428572D01*
X42285714Y30428572D01*
X42476190Y30333334D01*
X44857142Y29190477D02*
X45142857Y29095239D01*
X45619047Y29095239D01*
X45809523Y29190477D01*
X45904761Y29285715D01*
X45999999Y29476191D01*
X45999999Y29666667D01*
X45904761Y29857143D01*
X45809523Y29952381D01*
X45619047Y30047620D01*
X45238095Y30142858D01*
X45047619Y30238096D01*
X44952380Y30333334D01*
X44857142Y30523810D01*
X44857142Y30714286D01*
X44952380Y30904762D01*
X45047619Y31000000D01*
X45238095Y31095239D01*
X45714285Y31095239D01*
X45999999Y31000000D01*
X46571428Y30428572D02*
X47333333Y30428572D01*
X46857142Y31095239D02*
X46857142Y29380953D01*
X46952380Y29190477D01*
X47142857Y29095239D01*
X47333333Y29095239D01*
X48857142Y29095239D02*
X48857142Y30142858D01*
X48761904Y30333334D01*
X48571428Y30428572D01*
X48190476Y30428572D01*
X47999999Y30333334D01*
X48857142Y29190477D02*
X48666666Y29095239D01*
X48190476Y29095239D01*
X47999999Y29190477D01*
X47904761Y29380953D01*
X47904761Y29571429D01*
X47999999Y29761905D01*
X48190476Y29857143D01*
X48666666Y29857143D01*
X48857142Y29952381D01*
X49523809Y30428572D02*
X50285714Y30428572D01*
X49809523Y31095239D02*
X49809523Y29380953D01*
X49904761Y29190477D01*
X50095238Y29095239D01*
X50285714Y29095239D01*
X51714285Y29190477D02*
X51523809Y29095239D01*
X51142857Y29095239D01*
X50952380Y29190477D01*
X50857142Y29380953D01*
X50857142Y30142858D01*
X50952380Y30333334D01*
X51142857Y30428572D01*
X51523809Y30428572D01*
X51714285Y30333334D01*
X51809523Y30142858D01*
X51809523Y29952381D01*
X50857142Y29761905D01*
X55333333Y29095239D02*
X54666666Y30047620D01*
X54190476Y29095239D02*
X54190476Y31095239D01*
X54952380Y31095239D01*
X55142857Y31000000D01*
X55238095Y30904762D01*
X55333333Y30714286D01*
X55333333Y30428572D01*
X55238095Y30238096D01*
X55142857Y30142858D01*
X54952380Y30047620D01*
X54190476Y30047620D01*
X56952380Y29190477D02*
X56761904Y29095239D01*
X56380952Y29095239D01*
X56190476Y29190477D01*
X56095238Y29380953D01*
X56095238Y30142858D01*
X56190476Y30333334D01*
X56380952Y30428572D01*
X56761904Y30428572D01*
X56952380Y30333334D01*
X57047619Y30142858D01*
X57047619Y29952381D01*
X56095238Y29761905D01*
X58190476Y29095239D02*
X57999999Y29190477D01*
X57904761Y29380953D01*
X57904761Y31095239D01*
X59809523Y29095239D02*
X59809523Y30142858D01*
X59714285Y30333334D01*
X59523809Y30428572D01*
X59142857Y30428572D01*
X58952380Y30333334D01*
X59809523Y29190477D02*
X59619047Y29095239D01*
X59142857Y29095239D01*
X58952380Y29190477D01*
X58857142Y29380953D01*
X58857142Y29571429D01*
X58952380Y29761905D01*
X59142857Y29857143D01*
X59619047Y29857143D01*
X59809523Y29952381D01*
X60571428Y30428572D02*
X61047619Y29095239D01*
X61523809Y30428572D02*
X61047619Y29095239D01*
X60857142Y28619048D01*
X60761904Y28523810D01*
X60571428Y28428572D01*
X64476190Y30142858D02*
X64761904Y30047620D01*
X64857142Y29952381D01*
X64952380Y29761905D01*
X64952380Y29476191D01*
X64857142Y29285715D01*
X64761904Y29190477D01*
X64571428Y29095239D01*
X63809523Y29095239D01*
X63809523Y31095239D01*
X64476190Y31095239D01*
X64666666Y31000000D01*
X64761904Y30904762D01*
X64857142Y30714286D01*
X64857142Y30523810D01*
X64761904Y30333334D01*
X64666666Y30238096D01*
X64476190Y30142858D01*
X63809523Y30142858D01*
X66666666Y29095239D02*
X66666666Y30142858D01*
X66571428Y30333334D01*
X66380952Y30428572D01*
X65999999Y30428572D01*
X65809523Y30333334D01*
X66666666Y29190477D02*
X66476190Y29095239D01*
X65999999Y29095239D01*
X65809523Y29190477D01*
X65714285Y29380953D01*
X65714285Y29571429D01*
X65809523Y29761905D01*
X65999999Y29857143D01*
X66476190Y29857143D01*
X66666666Y29952381D01*
X67619047Y30428572D02*
X67619047Y29095239D01*
X67619047Y30238096D02*
X67714285Y30333334D01*
X67904761Y30428572D01*
X68190476Y30428572D01*
X68380952Y30333334D01*
X68476190Y30142858D01*
X68476190Y29095239D01*
X69428571Y29095239D02*
X69428571Y31095239D01*
X69619047Y29857143D02*
X70190476Y29095239D01*
X70190476Y30428572D02*
X69428571Y29666667D01*
X73238095Y30142858D02*
X73523809Y30047620D01*
X73619047Y29952381D01*
X73714285Y29761905D01*
X73714285Y29476191D01*
X73619047Y29285715D01*
X73523809Y29190477D01*
X73333333Y29095239D01*
X72571428Y29095239D01*
X72571428Y31095239D01*
X73238095Y31095239D01*
X73428571Y31000000D01*
X73523809Y30904762D01*
X73619047Y30714286D01*
X73619047Y30523810D01*
X73523809Y30333334D01*
X73428571Y30238096D01*
X73238095Y30142858D01*
X72571428Y30142858D01*
X76666666Y28428572D02*
X76190476Y28428572D01*
X76190476Y31285715D01*
X76666666Y31285715D01*
X78380952Y31095239D02*
X77428571Y31095239D01*
X77333333Y30142858D01*
X77428571Y30238096D01*
X77619047Y30333334D01*
X78095238Y30333334D01*
X78285714Y30238096D01*
X78380952Y30142858D01*
X78476190Y29952381D01*
X78476190Y29476191D01*
X78380952Y29285715D01*
X78285714Y29190477D01*
X78095238Y29095239D01*
X77619047Y29095239D01*
X77428571Y29190477D01*
X77333333Y29285715D01*
X79333333Y29857143D02*
X80857142Y29857143D01*
X82095238Y30238096D02*
X81904761Y30333334D01*
X81809523Y30428572D01*
X81714285Y30619048D01*
X81714285Y30714286D01*
X81809523Y30904762D01*
X81904761Y31000000D01*
X82095238Y31095239D01*
X82476190Y31095239D01*
X82666666Y31000000D01*
X82761904Y30904762D01*
X82857142Y30714286D01*
X82857142Y30619048D01*
X82761904Y30428572D01*
X82666666Y30333334D01*
X82476190Y30238096D01*
X82095238Y30238096D01*
X81904761Y30142858D01*
X81809523Y30047620D01*
X81714285Y29857143D01*
X81714285Y29476191D01*
X81809523Y29285715D01*
X81904761Y29190477D01*
X82095238Y29095239D01*
X82476190Y29095239D01*
X82666666Y29190477D01*
X82761904Y29285715D01*
X82857142Y29476191D01*
X82857142Y29857143D01*
X82761904Y30047620D01*
X82666666Y30142858D01*
X82476190Y30238096D01*
X83523809Y28428572D02*
X83999999Y28428572D01*
X83999999Y31285715D01*
X83523809Y31285715D01*
D11*
X46476190Y32809524D02*
X46380952Y32857143D01*
X46190476Y32857143D01*
X46095238Y32809524D01*
X46000000Y32714286D01*
X45952380Y32619048D01*
X45952380Y32428572D01*
X46000000Y32333334D01*
X46095238Y32238096D01*
X46190476Y32190477D01*
X46380952Y32190477D01*
X46476190Y32238096D01*
X46285714Y33190477D02*
X46047619Y33142858D01*
X45809523Y33000000D01*
X45666666Y32761905D01*
X45619047Y32523810D01*
X45666666Y32285715D01*
X45809523Y32047620D01*
X46047619Y31904762D01*
X46285714Y31857143D01*
X46523809Y31904762D01*
X46761904Y32047620D01*
X46904761Y32285715D01*
X46952380Y32523810D01*
X46904761Y32761905D01*
X46761904Y33000000D01*
X46523809Y33142858D01*
X46285714Y33190477D01*
X48095238Y32952381D02*
X48142857Y33000000D01*
X48238095Y33047620D01*
X48476190Y33047620D01*
X48571428Y33000000D01*
X48619047Y32952381D01*
X48666666Y32857143D01*
X48666666Y32761905D01*
X48619047Y32619048D01*
X48047619Y32047620D01*
X48666666Y32047620D01*
X49285714Y33047620D02*
X49380952Y33047620D01*
X49476190Y33000000D01*
X49523809Y32952381D01*
X49571428Y32857143D01*
X49619047Y32666667D01*
X49619047Y32428572D01*
X49571428Y32238096D01*
X49523809Y32142858D01*
X49476190Y32095239D01*
X49380952Y32047620D01*
X49285714Y32047620D01*
X49190476Y32095239D01*
X49142857Y32142858D01*
X49095238Y32238096D01*
X49047619Y32428572D01*
X49047619Y32666667D01*
X49095238Y32857143D01*
X49142857Y32952381D01*
X49190476Y33000000D01*
X49285714Y33047620D01*
X50000000Y32952381D02*
X50047619Y33000000D01*
X50142857Y33047620D01*
X50380952Y33047620D01*
X50476190Y33000000D01*
X50523809Y32952381D01*
X50571428Y32857143D01*
X50571428Y32761905D01*
X50523809Y32619048D01*
X49952380Y32047620D01*
X50571428Y32047620D01*
X50952380Y32952381D02*
X51000000Y33000000D01*
X51095238Y33047620D01*
X51333333Y33047620D01*
X51428571Y33000000D01*
X51476190Y32952381D01*
X51523809Y32857143D01*
X51523809Y32761905D01*
X51476190Y32619048D01*
X50904761Y32047620D01*
X51523809Y32047620D01*
X52714285Y32047620D02*
X52714285Y33047620D01*
X53047619Y32333334D01*
X53380952Y33047620D01*
X53380952Y32047620D01*
X53857142Y32047620D02*
X53857142Y32714286D01*
X53857142Y33047620D02*
X53809523Y33000000D01*
X53857142Y32952381D01*
X53904761Y33000000D01*
X53857142Y33047620D01*
X53857142Y32952381D01*
X54761904Y32095239D02*
X54666666Y32047620D01*
X54476190Y32047620D01*
X54380952Y32095239D01*
X54333333Y32142858D01*
X54285714Y32238096D01*
X54285714Y32523810D01*
X54333333Y32619048D01*
X54380952Y32666667D01*
X54476190Y32714286D01*
X54666666Y32714286D01*
X54761904Y32666667D01*
X55190476Y32047620D02*
X55190476Y33047620D01*
X55619047Y32047620D02*
X55619047Y32571429D01*
X55571428Y32666667D01*
X55476190Y32714286D01*
X55333333Y32714286D01*
X55238095Y32666667D01*
X55190476Y32619048D01*
X56523809Y32047620D02*
X56523809Y32571429D01*
X56476190Y32666667D01*
X56380952Y32714286D01*
X56190476Y32714286D01*
X56095238Y32666667D01*
X56523809Y32095239D02*
X56428571Y32047620D01*
X56190476Y32047620D01*
X56095238Y32095239D01*
X56047619Y32190477D01*
X56047619Y32285715D01*
X56095238Y32380953D01*
X56190476Y32428572D01*
X56428571Y32428572D01*
X56523809Y32476191D01*
X57380952Y32095239D02*
X57285714Y32047620D01*
X57095238Y32047620D01*
X57000000Y32095239D01*
X56952380Y32190477D01*
X56952380Y32571429D01*
X57000000Y32666667D01*
X57095238Y32714286D01*
X57285714Y32714286D01*
X57380952Y32666667D01*
X57428571Y32571429D01*
X57428571Y32476191D01*
X56952380Y32380953D01*
X58000000Y32047620D02*
X57904761Y32095239D01*
X57857142Y32190477D01*
X57857142Y33047620D01*
X59714285Y32142858D02*
X59666666Y32095239D01*
X59523809Y32047620D01*
X59428571Y32047620D01*
X59285714Y32095239D01*
X59190476Y32190477D01*
X59142857Y32285715D01*
X59095238Y32476191D01*
X59095238Y32619048D01*
X59142857Y32809524D01*
X59190476Y32904762D01*
X59285714Y33000000D01*
X59428571Y33047620D01*
X59523809Y33047620D01*
X59666666Y33000000D01*
X59714285Y32952381D01*
X60571428Y32714286D02*
X60571428Y32047620D01*
X60142857Y32714286D02*
X60142857Y32190477D01*
X60190476Y32095239D01*
X60285714Y32047620D01*
X60428571Y32047620D01*
X60523809Y32095239D01*
X60571428Y32142858D01*
X61047619Y32047620D02*
X61047619Y32714286D01*
X61047619Y32619048D02*
X61095238Y32666667D01*
X61190476Y32714286D01*
X61333333Y32714286D01*
X61428571Y32666667D01*
X61476190Y32571429D01*
X61476190Y32047620D01*
X61476190Y32571429D02*
X61523809Y32666667D01*
X61619047Y32714286D01*
X61761904Y32714286D01*
X61857142Y32666667D01*
X61904761Y32571429D01*
X61904761Y32047620D01*
X62380952Y32047620D02*
X62380952Y32714286D01*
X62380952Y32619048D02*
X62428571Y32666667D01*
X62523809Y32714286D01*
X62666666Y32714286D01*
X62761904Y32666667D01*
X62809523Y32571429D01*
X62809523Y32047620D01*
X62809523Y32571429D02*
X62857142Y32666667D01*
X62952380Y32714286D01*
X63095238Y32714286D01*
X63190476Y32666667D01*
X63238095Y32571429D01*
X63238095Y32047620D01*
X63714285Y32047620D02*
X63714285Y32714286D01*
X63714285Y33047620D02*
X63666666Y33000000D01*
X63714285Y32952381D01*
X63761904Y33000000D01*
X63714285Y33047620D01*
X63714285Y32952381D01*
X64190476Y32714286D02*
X64190476Y32047620D01*
X64190476Y32619048D02*
X64238095Y32666667D01*
X64333333Y32714286D01*
X64476190Y32714286D01*
X64571428Y32666667D01*
X64619047Y32571429D01*
X64619047Y32047620D01*
X65523809Y32714286D02*
X65523809Y31904762D01*
X65476190Y31809524D01*
X65428571Y31761905D01*
X65333333Y31714286D01*
X65190476Y31714286D01*
X65095238Y31761905D01*
X65523809Y32095239D02*
X65428571Y32047620D01*
X65238095Y32047620D01*
X65142857Y32095239D01*
X65095238Y32142858D01*
X65047619Y32238096D01*
X65047619Y32523810D01*
X65095238Y32619048D01*
X65142857Y32666667D01*
X65238095Y32714286D01*
X65428571Y32714286D01*
X65523809Y32666667D01*
X65952380Y32095239D02*
X66047619Y32047620D01*
X66238095Y32047620D01*
X66333333Y32095239D01*
X66380952Y32190477D01*
X66380952Y32238096D01*
X66333333Y32333334D01*
X66238095Y32380953D01*
X66095238Y32380953D01*
X66000000Y32428572D01*
X65952380Y32523810D01*
X65952380Y32571429D01*
X66000000Y32666667D01*
X66095238Y32714286D01*
X66238095Y32714286D01*
X66333333Y32666667D01*
D10*
X72810714Y89233929D02*
X73096428Y89233929D01*
X73239285Y89162500D01*
X73382142Y89019643D01*
X73453571Y88733929D01*
X73453571Y88233929D01*
X73382142Y87948215D01*
X73239285Y87805358D01*
X73096428Y87733929D01*
X72810714Y87733929D01*
X72667857Y87805358D01*
X72525000Y87948215D01*
X72453571Y88233929D01*
X72453571Y88733929D01*
X72525000Y89019643D01*
X72667857Y89162500D01*
X72810714Y89233929D01*
X74096428Y89233929D02*
X74096428Y88019643D01*
X74167857Y87876786D01*
X74239285Y87805358D01*
X74382142Y87733929D01*
X74667857Y87733929D01*
X74810714Y87805358D01*
X74882142Y87876786D01*
X74953571Y88019643D01*
X74953571Y89233929D01*
X75453571Y89233929D02*
X76310714Y89233929D01*
X75882142Y87733929D02*
X75882142Y89233929D01*
X77596428Y87733929D02*
X76739285Y87733929D01*
X77167857Y87733929D02*
X77167857Y89233929D01*
X77025000Y89019643D01*
X76882142Y88876786D01*
X76739285Y88805358D01*
X12760714Y89233929D02*
X13046428Y89233929D01*
X13189285Y89162500D01*
X13332142Y89019643D01*
X13403571Y88733929D01*
X13403571Y88233929D01*
X13332142Y87948215D01*
X13189285Y87805358D01*
X13046428Y87733929D01*
X12760714Y87733929D01*
X12617857Y87805358D01*
X12475000Y87948215D01*
X12403571Y88233929D01*
X12403571Y88733929D01*
X12475000Y89019643D01*
X12617857Y89162500D01*
X12760714Y89233929D01*
X14046428Y89233929D02*
X14046428Y88019643D01*
X14117857Y87876786D01*
X14189285Y87805358D01*
X14332142Y87733929D01*
X14617857Y87733929D01*
X14760714Y87805358D01*
X14832142Y87876786D01*
X14903571Y88019643D01*
X14903571Y89233929D01*
X15403571Y89233929D02*
X16260714Y89233929D01*
X15832142Y87733929D02*
X15832142Y89233929D01*
X17403571Y88733929D02*
X17403571Y87733929D01*
X17046428Y89305358D02*
X16689285Y88233929D01*
X17617857Y88233929D01*
X73710714Y2258929D02*
X73996428Y2258929D01*
X74139285Y2187500D01*
X74282142Y2044643D01*
X74353571Y1758929D01*
X74353571Y1258929D01*
X74282142Y973215D01*
X74139285Y830358D01*
X73996428Y758929D01*
X73710714Y758929D01*
X73567857Y830358D01*
X73425000Y973215D01*
X73353571Y1258929D01*
X73353571Y1758929D01*
X73425000Y2044643D01*
X73567857Y2187500D01*
X73710714Y2258929D01*
X74996428Y2258929D02*
X74996428Y1044643D01*
X75067857Y901786D01*
X75139285Y830358D01*
X75282142Y758929D01*
X75567857Y758929D01*
X75710714Y830358D01*
X75782142Y901786D01*
X75853571Y1044643D01*
X75853571Y2258929D01*
X76353571Y2258929D02*
X77210714Y2258929D01*
X76782142Y758929D02*
X76782142Y2258929D01*
X78425000Y2258929D02*
X77710714Y2258929D01*
X77639285Y1544643D01*
X77710714Y1616072D01*
X77853571Y1687500D01*
X78210714Y1687500D01*
X78353571Y1616072D01*
X78425000Y1544643D01*
X78496428Y1401786D01*
X78496428Y1044643D01*
X78425000Y901786D01*
X78353571Y830358D01*
X78210714Y758929D01*
X77853571Y758929D01*
X77710714Y830358D01*
X77639285Y901786D01*
X52810714Y89233929D02*
X53096428Y89233929D01*
X53239285Y89162500D01*
X53382142Y89019643D01*
X53453571Y88733929D01*
X53453571Y88233929D01*
X53382142Y87948215D01*
X53239285Y87805358D01*
X53096428Y87733929D01*
X52810714Y87733929D01*
X52667857Y87805358D01*
X52525000Y87948215D01*
X52453571Y88233929D01*
X52453571Y88733929D01*
X52525000Y89019643D01*
X52667857Y89162500D01*
X52810714Y89233929D01*
X54096428Y89233929D02*
X54096428Y88019643D01*
X54167857Y87876786D01*
X54239285Y87805358D01*
X54382142Y87733929D01*
X54667857Y87733929D01*
X54810714Y87805358D01*
X54882142Y87876786D01*
X54953571Y88019643D01*
X54953571Y89233929D01*
X55453571Y89233929D02*
X56310714Y89233929D01*
X55882142Y87733929D02*
X55882142Y89233929D01*
X56739285Y89091072D02*
X56810714Y89162500D01*
X56953571Y89233929D01*
X57310714Y89233929D01*
X57453571Y89162500D01*
X57525000Y89091072D01*
X57596428Y88948215D01*
X57596428Y88805358D01*
X57525000Y88591072D01*
X56667857Y87733929D01*
X57596428Y87733929D01*
D12*
X35952380Y59190477D02*
X36238095Y59095239D01*
X36714285Y59095239D01*
X36904761Y59190477D01*
X36999999Y59285715D01*
X37095238Y59476191D01*
X37095238Y59666667D01*
X36999999Y59857143D01*
X36904761Y59952381D01*
X36714285Y60047620D01*
X36333333Y60142858D01*
X36142857Y60238096D01*
X36047619Y60333334D01*
X35952380Y60523810D01*
X35952380Y60714286D01*
X36047619Y60904762D01*
X36142857Y61000000D01*
X36333333Y61095239D01*
X36809523Y61095239D01*
X37095238Y61000000D01*
X38238095Y59095239D02*
X38047619Y59190477D01*
X37952380Y59285715D01*
X37857142Y59476191D01*
X37857142Y60047620D01*
X37952380Y60238096D01*
X38047619Y60333334D01*
X38238095Y60428572D01*
X38523809Y60428572D01*
X38714285Y60333334D01*
X38809523Y60238096D01*
X38904761Y60047620D01*
X38904761Y59476191D01*
X38809523Y59285715D01*
X38714285Y59190477D01*
X38523809Y59095239D01*
X38238095Y59095239D01*
X40047619Y59095239D02*
X39857142Y59190477D01*
X39761904Y59380953D01*
X39761904Y61095239D01*
X40809523Y59095239D02*
X40809523Y60428572D01*
X40809523Y61095239D02*
X40714285Y61000000D01*
X40809523Y60904762D01*
X40904761Y61000000D01*
X40809523Y61095239D01*
X40809523Y60904762D01*
X42619047Y59095239D02*
X42619047Y61095239D01*
X42619047Y59190477D02*
X42428571Y59095239D01*
X42047619Y59095239D01*
X41857142Y59190477D01*
X41761904Y59285715D01*
X41666666Y59476191D01*
X41666666Y60047620D01*
X41761904Y60238096D01*
X41857142Y60333334D01*
X42047619Y60428572D01*
X42428571Y60428572D01*
X42619047Y60333334D01*
X44999999Y59190477D02*
X45285714Y59095239D01*
X45761904Y59095239D01*
X45952380Y59190477D01*
X46047619Y59285715D01*
X46142857Y59476191D01*
X46142857Y59666667D01*
X46047619Y59857143D01*
X45952380Y59952381D01*
X45761904Y60047620D01*
X45380952Y60142858D01*
X45190476Y60238096D01*
X45095238Y60333334D01*
X44999999Y60523810D01*
X44999999Y60714286D01*
X45095238Y60904762D01*
X45190476Y61000000D01*
X45380952Y61095239D01*
X45857142Y61095239D01*
X46142857Y61000000D01*
X46714285Y60428572D02*
X47476190Y60428572D01*
X46999999Y61095239D02*
X46999999Y59380953D01*
X47095238Y59190477D01*
X47285714Y59095239D01*
X47476190Y59095239D01*
X48999999Y59095239D02*
X48999999Y60142858D01*
X48904761Y60333334D01*
X48714285Y60428572D01*
X48333333Y60428572D01*
X48142857Y60333334D01*
X48999999Y59190477D02*
X48809523Y59095239D01*
X48333333Y59095239D01*
X48142857Y59190477D01*
X48047619Y59380953D01*
X48047619Y59571429D01*
X48142857Y59761905D01*
X48333333Y59857143D01*
X48809523Y59857143D01*
X48999999Y59952381D01*
X49666666Y60428572D02*
X50428571Y60428572D01*
X49952380Y61095239D02*
X49952380Y59380953D01*
X50047619Y59190477D01*
X50238095Y59095239D01*
X50428571Y59095239D01*
X51857142Y59190477D02*
X51666666Y59095239D01*
X51285714Y59095239D01*
X51095238Y59190477D01*
X50999999Y59380953D01*
X50999999Y60142858D01*
X51095238Y60333334D01*
X51285714Y60428572D01*
X51666666Y60428572D01*
X51857142Y60333334D01*
X51952380Y60142858D01*
X51952380Y59952381D01*
X50999999Y59761905D01*
X55476190Y59095239D02*
X54809523Y60047620D01*
X54333333Y59095239D02*
X54333333Y61095239D01*
X55095238Y61095239D01*
X55285714Y61000000D01*
X55380952Y60904762D01*
X55476190Y60714286D01*
X55476190Y60428572D01*
X55380952Y60238096D01*
X55285714Y60142858D01*
X55095238Y60047620D01*
X54333333Y60047620D01*
X57095238Y59190477D02*
X56904761Y59095239D01*
X56523809Y59095239D01*
X56333333Y59190477D01*
X56238095Y59380953D01*
X56238095Y60142858D01*
X56333333Y60333334D01*
X56523809Y60428572D01*
X56904761Y60428572D01*
X57095238Y60333334D01*
X57190476Y60142858D01*
X57190476Y59952381D01*
X56238095Y59761905D01*
X58333333Y59095239D02*
X58142857Y59190477D01*
X58047619Y59380953D01*
X58047619Y61095239D01*
X59952380Y59095239D02*
X59952380Y60142858D01*
X59857142Y60333334D01*
X59666666Y60428572D01*
X59285714Y60428572D01*
X59095238Y60333334D01*
X59952380Y59190477D02*
X59761904Y59095239D01*
X59285714Y59095239D01*
X59095238Y59190477D01*
X59000000Y59380953D01*
X59000000Y59571429D01*
X59095238Y59761905D01*
X59285714Y59857143D01*
X59761904Y59857143D01*
X59952380Y59952381D01*
X60714285Y60428572D02*
X61190476Y59095239D01*
X61666666Y60428572D02*
X61190476Y59095239D01*
X61000000Y58619048D01*
X60904761Y58523810D01*
X60714285Y58428572D01*
X64619047Y60142858D02*
X64904761Y60047620D01*
X64999999Y59952381D01*
X65095238Y59761905D01*
X65095238Y59476191D01*
X64999999Y59285715D01*
X64904761Y59190477D01*
X64714285Y59095239D01*
X63952380Y59095239D01*
X63952380Y61095239D01*
X64619047Y61095239D01*
X64809523Y61000000D01*
X64904761Y60904762D01*
X64999999Y60714286D01*
X64999999Y60523810D01*
X64904761Y60333334D01*
X64809523Y60238096D01*
X64619047Y60142858D01*
X63952380Y60142858D01*
X66809523Y59095239D02*
X66809523Y60142858D01*
X66714285Y60333334D01*
X66523809Y60428572D01*
X66142857Y60428572D01*
X65952380Y60333334D01*
X66809523Y59190477D02*
X66619047Y59095239D01*
X66142857Y59095239D01*
X65952380Y59190477D01*
X65857142Y59380953D01*
X65857142Y59571429D01*
X65952380Y59761905D01*
X66142857Y59857143D01*
X66619047Y59857143D01*
X66809523Y59952381D01*
X67761904Y60428572D02*
X67761904Y59095239D01*
X67761904Y60238096D02*
X67857142Y60333334D01*
X68047619Y60428572D01*
X68333333Y60428572D01*
X68523809Y60333334D01*
X68619047Y60142858D01*
X68619047Y59095239D01*
X69571428Y59095239D02*
X69571428Y61095239D01*
X69761904Y59857143D02*
X70333333Y59095239D01*
X70333333Y60428572D02*
X69571428Y59666667D01*
X72619047Y59666667D02*
X73571428Y59666667D01*
X72428571Y59095239D02*
X73095238Y61095239D01*
X73761904Y59095239D01*
X76523809Y58428572D02*
X76047619Y58428572D01*
X76047619Y61285715D01*
X76523809Y61285715D01*
X78333333Y59095239D02*
X77190476Y59095239D01*
X77761904Y59095239D02*
X77761904Y61095239D01*
X77571428Y60809524D01*
X77380952Y60619048D01*
X77190476Y60523810D01*
X79190476Y59857143D02*
X80714285Y59857143D01*
X82523809Y60428572D02*
X82523809Y59095239D01*
X82047619Y61190477D02*
X81571428Y59761905D01*
X82809523Y59761905D01*
X83380952Y58428572D02*
X83857142Y58428572D01*
X83857142Y61285715D01*
X83380952Y61285715D01*
D13*
X1376785Y12821429D02*
X1733928Y11821429D01*
X2091071Y12821429D01*
X2948214Y13321429D02*
X3091071Y13321429D01*
X3233928Y13250000D01*
X3305357Y13178572D01*
X3376785Y13035715D01*
X3448214Y12750000D01*
X3448214Y12392858D01*
X3376785Y12107143D01*
X3305357Y11964286D01*
X3233928Y11892858D01*
X3091071Y11821429D01*
X2948214Y11821429D01*
X2805357Y11892858D01*
X2733928Y11964286D01*
X2662500Y12107143D01*
X2591071Y12392858D01*
X2591071Y12750000D01*
X2662500Y13035715D01*
X2733928Y13178572D01*
X2805357Y13250000D01*
X2948214Y13321429D01*
X4091071Y11964286D02*
X4162500Y11892858D01*
X4091071Y11821429D01*
X4019642Y11892858D01*
X4091071Y11964286D01*
X4091071Y11821429D01*
X5091071Y13321429D02*
X5233928Y13321429D01*
X5376785Y13250000D01*
X5448214Y13178572D01*
X5519642Y13035715D01*
X5591071Y12750000D01*
X5591071Y12392858D01*
X5519642Y12107143D01*
X5448214Y11964286D01*
X5376785Y11892858D01*
X5233928Y11821429D01*
X5091071Y11821429D01*
X4948214Y11892858D01*
X4876785Y11964286D01*
X4805357Y12107143D01*
X4733928Y12392858D01*
X4733928Y12750000D01*
X4805357Y13035715D01*
X4876785Y13178572D01*
X4948214Y13250000D01*
X5091071Y13321429D01*
X6233928Y11964286D02*
X6305357Y11892858D01*
X6233928Y11821429D01*
X6162500Y11892858D01*
X6233928Y11964286D01*
X6233928Y11821429D01*
X6805357Y13321429D02*
X7805357Y13321429D01*
X7162500Y11821429D01*
D11*
X94985595Y72298572D02*
X95747500Y72298572D01*
X95366547Y71917620D02*
X95366547Y72679524D01*
X96557023Y72441429D02*
X96699880Y72393810D01*
X96747500Y72346191D01*
X96795119Y72250953D01*
X96795119Y72108096D01*
X96747500Y72012858D01*
X96699880Y71965239D01*
X96604642Y71917620D01*
X96223690Y71917620D01*
X96223690Y72917620D01*
X96557023Y72917620D01*
X96652261Y72870000D01*
X96699880Y72822381D01*
X96747500Y72727143D01*
X96747500Y72631905D01*
X96699880Y72536667D01*
X96652261Y72489048D01*
X96557023Y72441429D01*
X96223690Y72441429D01*
X97176071Y72203334D02*
X97652261Y72203334D01*
X97080833Y71917620D02*
X97414166Y72917620D01*
X97747500Y71917620D01*
X97937976Y72917620D02*
X98509404Y72917620D01*
X98223690Y71917620D02*
X98223690Y72917620D01*
X98699880Y72917620D02*
X99271309Y72917620D01*
X98985595Y71917620D02*
X98985595Y72917620D01*
X96176071Y70307620D02*
X96176071Y70831429D01*
X96128452Y70926667D01*
X96033214Y70974286D01*
X95842738Y70974286D01*
X95747500Y70926667D01*
X96176071Y70355239D02*
X96080833Y70307620D01*
X95842738Y70307620D01*
X95747500Y70355239D01*
X95699880Y70450477D01*
X95699880Y70545715D01*
X95747500Y70640953D01*
X95842738Y70688572D01*
X96080833Y70688572D01*
X96176071Y70736191D01*
X97176071Y70307620D02*
X96604642Y70307620D01*
X96890357Y70307620D02*
X96890357Y71307620D01*
X96795119Y71164762D01*
X96699880Y71069524D01*
X96604642Y71021905D01*
X96176071Y68697620D02*
X96176071Y69221429D01*
X96128452Y69316667D01*
X96033214Y69364286D01*
X95842738Y69364286D01*
X95747500Y69316667D01*
X96176071Y68745239D02*
X96080833Y68697620D01*
X95842738Y68697620D01*
X95747500Y68745239D01*
X95699880Y68840477D01*
X95699880Y68935715D01*
X95747500Y69030953D01*
X95842738Y69078572D01*
X96080833Y69078572D01*
X96176071Y69126191D01*
X96604642Y69602381D02*
X96652261Y69650000D01*
X96747500Y69697620D01*
X96985595Y69697620D01*
X97080833Y69650000D01*
X97128452Y69602381D01*
X97176071Y69507143D01*
X97176071Y69411905D01*
X97128452Y69269048D01*
X96557023Y68697620D01*
X97176071Y68697620D01*
X96176071Y67087620D02*
X96176071Y67611429D01*
X96128452Y67706667D01*
X96033214Y67754286D01*
X95842738Y67754286D01*
X95747500Y67706667D01*
X96176071Y67135239D02*
X96080833Y67087620D01*
X95842738Y67087620D01*
X95747500Y67135239D01*
X95699880Y67230477D01*
X95699880Y67325715D01*
X95747500Y67420953D01*
X95842738Y67468572D01*
X96080833Y67468572D01*
X96176071Y67516191D01*
X96557023Y68087620D02*
X97176071Y68087620D01*
X96842738Y67706667D01*
X96985595Y67706667D01*
X97080833Y67659048D01*
X97128452Y67611429D01*
X97176071Y67516191D01*
X97176071Y67278096D01*
X97128452Y67182858D01*
X97080833Y67135239D01*
X96985595Y67087620D01*
X96699880Y67087620D01*
X96604642Y67135239D01*
X96557023Y67182858D01*
X96176071Y65477620D02*
X96176071Y66001429D01*
X96128452Y66096667D01*
X96033214Y66144286D01*
X95842738Y66144286D01*
X95747500Y66096667D01*
X96176071Y65525239D02*
X96080833Y65477620D01*
X95842738Y65477620D01*
X95747500Y65525239D01*
X95699880Y65620477D01*
X95699880Y65715715D01*
X95747500Y65810953D01*
X95842738Y65858572D01*
X96080833Y65858572D01*
X96176071Y65906191D01*
X97080833Y66144286D02*
X97080833Y65477620D01*
X96842738Y66525239D02*
X96604642Y65810953D01*
X97223690Y65810953D01*
D10*
X13740714Y2308929D02*
X14026428Y2308929D01*
X14169285Y2237500D01*
X14312142Y2094643D01*
X14383571Y1808929D01*
X14383571Y1308929D01*
X14312142Y1023215D01*
X14169285Y880358D01*
X14026428Y808929D01*
X13740714Y808929D01*
X13597857Y880358D01*
X13455000Y1023215D01*
X13383571Y1308929D01*
X13383571Y1808929D01*
X13455000Y2094643D01*
X13597857Y2237500D01*
X13740714Y2308929D01*
X15026428Y2308929D02*
X15026428Y1094643D01*
X15097857Y951786D01*
X15169285Y880358D01*
X15312142Y808929D01*
X15597857Y808929D01*
X15740714Y880358D01*
X15812142Y951786D01*
X15883571Y1094643D01*
X15883571Y2308929D01*
X16383571Y2308929D02*
X17240714Y2308929D01*
X16812142Y808929D02*
X16812142Y2308929D01*
X17955000Y1666072D02*
X17812142Y1737500D01*
X17740714Y1808929D01*
X17669285Y1951786D01*
X17669285Y2023215D01*
X17740714Y2166072D01*
X17812142Y2237500D01*
X17955000Y2308929D01*
X18240714Y2308929D01*
X18383571Y2237500D01*
X18455000Y2166072D01*
X18526428Y2023215D01*
X18526428Y1951786D01*
X18455000Y1808929D01*
X18383571Y1737500D01*
X18240714Y1666072D01*
X17955000Y1666072D01*
X17812142Y1594643D01*
X17740714Y1523215D01*
X17669285Y1380358D01*
X17669285Y1094643D01*
X17740714Y951786D01*
X17812142Y880358D01*
X17955000Y808929D01*
X18240714Y808929D01*
X18383571Y880358D01*
X18455000Y951786D01*
X18526428Y1094643D01*
X18526428Y1380358D01*
X18455000Y1523215D01*
X18383571Y1594643D01*
X18240714Y1666072D01*
X53660714Y2258929D02*
X53946428Y2258929D01*
X54089285Y2187500D01*
X54232142Y2044643D01*
X54303571Y1758929D01*
X54303571Y1258929D01*
X54232142Y973215D01*
X54089285Y830358D01*
X53946428Y758929D01*
X53660714Y758929D01*
X53517857Y830358D01*
X53375000Y973215D01*
X53303571Y1258929D01*
X53303571Y1758929D01*
X53375000Y2044643D01*
X53517857Y2187500D01*
X53660714Y2258929D01*
X54946428Y2258929D02*
X54946428Y1044643D01*
X55017857Y901786D01*
X55089285Y830358D01*
X55232142Y758929D01*
X55517857Y758929D01*
X55660714Y830358D01*
X55732142Y901786D01*
X55803571Y1044643D01*
X55803571Y2258929D01*
X56303571Y2258929D02*
X57160714Y2258929D01*
X56732142Y758929D02*
X56732142Y2258929D01*
X58303571Y2258929D02*
X58017857Y2258929D01*
X57875000Y2187500D01*
X57803571Y2116072D01*
X57660714Y1901786D01*
X57589285Y1616072D01*
X57589285Y1044643D01*
X57660714Y901786D01*
X57732142Y830358D01*
X57875000Y758929D01*
X58160714Y758929D01*
X58303571Y830358D01*
X58375000Y901786D01*
X58446428Y1044643D01*
X58446428Y1401786D01*
X58375000Y1544643D01*
X58303571Y1616072D01*
X58160714Y1687500D01*
X57875000Y1687500D01*
X57732142Y1616072D01*
X57660714Y1544643D01*
X57589285Y1401786D01*
X33710714Y2258929D02*
X33996428Y2258929D01*
X34139285Y2187500D01*
X34282142Y2044643D01*
X34353571Y1758929D01*
X34353571Y1258929D01*
X34282142Y973215D01*
X34139285Y830358D01*
X33996428Y758929D01*
X33710714Y758929D01*
X33567857Y830358D01*
X33425000Y973215D01*
X33353571Y1258929D01*
X33353571Y1758929D01*
X33425000Y2044643D01*
X33567857Y2187500D01*
X33710714Y2258929D01*
X34996428Y2258929D02*
X34996428Y1044643D01*
X35067857Y901786D01*
X35139285Y830358D01*
X35282142Y758929D01*
X35567857Y758929D01*
X35710714Y830358D01*
X35782142Y901786D01*
X35853571Y1044643D01*
X35853571Y2258929D01*
X36353571Y2258929D02*
X37210714Y2258929D01*
X36782142Y758929D02*
X36782142Y2258929D01*
X37567857Y2258929D02*
X38567857Y2258929D01*
X37925000Y758929D01*
D11*
X96176071Y23767620D02*
X96176071Y24291429D01*
X96128452Y24386667D01*
X96033214Y24434286D01*
X95842738Y24434286D01*
X95747500Y24386667D01*
X96176071Y23815239D02*
X96080833Y23767620D01*
X95842738Y23767620D01*
X95747500Y23815239D01*
X95699880Y23910477D01*
X95699880Y24005715D01*
X95747500Y24100953D01*
X95842738Y24148572D01*
X96080833Y24148572D01*
X96176071Y24196191D01*
X96795119Y24339048D02*
X96699880Y24386667D01*
X96652261Y24434286D01*
X96604642Y24529524D01*
X96604642Y24577143D01*
X96652261Y24672381D01*
X96699880Y24720000D01*
X96795119Y24767620D01*
X96985595Y24767620D01*
X97080833Y24720000D01*
X97128452Y24672381D01*
X97176071Y24577143D01*
X97176071Y24529524D01*
X97128452Y24434286D01*
X97080833Y24386667D01*
X96985595Y24339048D01*
X96795119Y24339048D01*
X96699880Y24291429D01*
X96652261Y24243810D01*
X96604642Y24148572D01*
X96604642Y23958096D01*
X96652261Y23862858D01*
X96699880Y23815239D01*
X96795119Y23767620D01*
X96985595Y23767620D01*
X97080833Y23815239D01*
X97128452Y23862858D01*
X97176071Y23958096D01*
X97176071Y24148572D01*
X97128452Y24243810D01*
X97080833Y24291429D01*
X96985595Y24339048D01*
X96176071Y22157620D02*
X96176071Y22681429D01*
X96128452Y22776667D01*
X96033214Y22824286D01*
X95842738Y22824286D01*
X95747500Y22776667D01*
X96176071Y22205239D02*
X96080833Y22157620D01*
X95842738Y22157620D01*
X95747500Y22205239D01*
X95699880Y22300477D01*
X95699880Y22395715D01*
X95747500Y22490953D01*
X95842738Y22538572D01*
X96080833Y22538572D01*
X96176071Y22586191D01*
X96557023Y23157620D02*
X97223690Y23157620D01*
X96795119Y22157620D01*
X96176071Y20547620D02*
X96176071Y21071429D01*
X96128452Y21166667D01*
X96033214Y21214286D01*
X95842738Y21214286D01*
X95747500Y21166667D01*
X96176071Y20595239D02*
X96080833Y20547620D01*
X95842738Y20547620D01*
X95747500Y20595239D01*
X95699880Y20690477D01*
X95699880Y20785715D01*
X95747500Y20880953D01*
X95842738Y20928572D01*
X96080833Y20928572D01*
X96176071Y20976191D01*
X97080833Y21547620D02*
X96890357Y21547620D01*
X96795119Y21500000D01*
X96747500Y21452381D01*
X96652261Y21309524D01*
X96604642Y21119048D01*
X96604642Y20738096D01*
X96652261Y20642858D01*
X96699880Y20595239D01*
X96795119Y20547620D01*
X96985595Y20547620D01*
X97080833Y20595239D01*
X97128452Y20642858D01*
X97176071Y20738096D01*
X97176071Y20976191D01*
X97128452Y21071429D01*
X97080833Y21119048D01*
X96985595Y21166667D01*
X96795119Y21166667D01*
X96699880Y21119048D01*
X96652261Y21071429D01*
X96604642Y20976191D01*
X96176071Y18937620D02*
X96176071Y19461429D01*
X96128452Y19556667D01*
X96033214Y19604286D01*
X95842738Y19604286D01*
X95747500Y19556667D01*
X96176071Y18985239D02*
X96080833Y18937620D01*
X95842738Y18937620D01*
X95747500Y18985239D01*
X95699880Y19080477D01*
X95699880Y19175715D01*
X95747500Y19270953D01*
X95842738Y19318572D01*
X96080833Y19318572D01*
X96176071Y19366191D01*
X97128452Y19937620D02*
X96652261Y19937620D01*
X96604642Y19461429D01*
X96652261Y19509048D01*
X96747500Y19556667D01*
X96985595Y19556667D01*
X97080833Y19509048D01*
X97128452Y19461429D01*
X97176071Y19366191D01*
X97176071Y19128096D01*
X97128452Y19032858D01*
X97080833Y18985239D01*
X96985595Y18937620D01*
X96747500Y18937620D01*
X96652261Y18985239D01*
X96604642Y19032858D01*
X94985595Y17708572D02*
X95747500Y17708572D01*
X95366547Y17327620D02*
X95366547Y18089524D01*
X96557023Y17851429D02*
X96699880Y17803810D01*
X96747500Y17756191D01*
X96795119Y17660953D01*
X96795119Y17518096D01*
X96747500Y17422858D01*
X96699880Y17375239D01*
X96604642Y17327620D01*
X96223690Y17327620D01*
X96223690Y18327620D01*
X96557023Y18327620D01*
X96652261Y18280000D01*
X96699880Y18232381D01*
X96747500Y18137143D01*
X96747500Y18041905D01*
X96699880Y17946667D01*
X96652261Y17899048D01*
X96557023Y17851429D01*
X96223690Y17851429D01*
X97176071Y17613334D02*
X97652261Y17613334D01*
X97080833Y17327620D02*
X97414166Y18327620D01*
X97747500Y17327620D01*
X97937976Y18327620D02*
X98509404Y18327620D01*
X98223690Y17327620D02*
X98223690Y18327620D01*
X98699880Y18327620D02*
X99271309Y18327620D01*
X98985595Y17327620D02*
X98985595Y18327620D01*
%TO.C,RP4*%
X31183333Y64997620D02*
X30850000Y65473810D01*
X30611904Y64997620D02*
X30611904Y65997620D01*
X30992857Y65997620D01*
X31088095Y65950000D01*
X31135714Y65902381D01*
X31183333Y65807143D01*
X31183333Y65664286D01*
X31135714Y65569048D01*
X31088095Y65521429D01*
X30992857Y65473810D01*
X30611904Y65473810D01*
X31611904Y64997620D02*
X31611904Y65997620D01*
X31992857Y65997620D01*
X32088095Y65950000D01*
X32135714Y65902381D01*
X32183333Y65807143D01*
X32183333Y65664286D01*
X32135714Y65569048D01*
X32088095Y65521429D01*
X31992857Y65473810D01*
X31611904Y65473810D01*
X33040476Y65664286D02*
X33040476Y64997620D01*
X32802380Y66045239D02*
X32564285Y65330953D01*
X33183333Y65330953D01*
%TO.C,HQ7*%
X43754285Y42754620D02*
X43754285Y43754620D01*
X43754285Y43278429D02*
X44325714Y43278429D01*
X44325714Y42754620D02*
X44325714Y43754620D01*
X45468571Y42659381D02*
X45373333Y42707000D01*
X45278095Y42802239D01*
X45135238Y42945096D01*
X45040000Y42992715D01*
X44944761Y42992715D01*
X44992380Y42754620D02*
X44897142Y42802239D01*
X44801904Y42897477D01*
X44754285Y43087953D01*
X44754285Y43421286D01*
X44801904Y43611762D01*
X44897142Y43707000D01*
X44992380Y43754620D01*
X45182857Y43754620D01*
X45278095Y43707000D01*
X45373333Y43611762D01*
X45420952Y43421286D01*
X45420952Y43087953D01*
X45373333Y42897477D01*
X45278095Y42802239D01*
X45182857Y42754620D01*
X44992380Y42754620D01*
X45754285Y43754620D02*
X46420952Y43754620D01*
X45992380Y42754620D01*
%TO.C,JL4*%
X11261904Y81547620D02*
X11261904Y80833334D01*
X11214285Y80690477D01*
X11119047Y80595239D01*
X10976190Y80547620D01*
X10880952Y80547620D01*
X12214285Y80547620D02*
X11738095Y80547620D01*
X11738095Y81547620D01*
X12976190Y81214286D02*
X12976190Y80547620D01*
X12738095Y81595239D02*
X12500000Y80880953D01*
X13119047Y80880953D01*
%TO.C,JPWR2*%
X745238Y48597620D02*
X745238Y47883334D01*
X697619Y47740477D01*
X602380Y47645239D01*
X459523Y47597620D01*
X364285Y47597620D01*
X1221428Y47597620D02*
X1221428Y48597620D01*
X1602380Y48597620D01*
X1697619Y48550000D01*
X1745238Y48502381D01*
X1792857Y48407143D01*
X1792857Y48264286D01*
X1745238Y48169048D01*
X1697619Y48121429D01*
X1602380Y48073810D01*
X1221428Y48073810D01*
X2126190Y48597620D02*
X2364285Y47597620D01*
X2554761Y48311905D01*
X2745238Y47597620D01*
X2983333Y48597620D01*
X3935714Y47597620D02*
X3602380Y48073810D01*
X3364285Y47597620D02*
X3364285Y48597620D01*
X3745238Y48597620D01*
X3840476Y48550000D01*
X3888095Y48502381D01*
X3935714Y48407143D01*
X3935714Y48264286D01*
X3888095Y48169048D01*
X3840476Y48121429D01*
X3745238Y48073810D01*
X3364285Y48073810D01*
X4316666Y48502381D02*
X4364285Y48550000D01*
X4459523Y48597620D01*
X4697619Y48597620D01*
X4792857Y48550000D01*
X4840476Y48502381D01*
X4888095Y48407143D01*
X4888095Y48311905D01*
X4840476Y48169048D01*
X4269047Y47597620D01*
X4888095Y47597620D01*
X19107142Y47928572D02*
X19107142Y49071429D01*
X19007142Y64228572D02*
X19007142Y65371429D01*
X19578571Y64800000D02*
X18435714Y64800000D01*
%TO.C,JP1*%
X9916666Y20847620D02*
X9916666Y20133334D01*
X9869047Y19990477D01*
X9773809Y19895239D01*
X9630952Y19847620D01*
X9535714Y19847620D01*
X10392857Y19847620D02*
X10392857Y20847620D01*
X10773809Y20847620D01*
X10869047Y20800000D01*
X10916666Y20752381D01*
X10964285Y20657143D01*
X10964285Y20514286D01*
X10916666Y20419048D01*
X10869047Y20371429D01*
X10773809Y20323810D01*
X10392857Y20323810D01*
X11916666Y19847620D02*
X11345238Y19847620D01*
X11630952Y19847620D02*
X11630952Y20847620D01*
X11535714Y20704762D01*
X11440476Y20609524D01*
X11345238Y20561905D01*
%TO.C,RL1*%
X72428571Y77547620D02*
X72095238Y78023810D01*
X71857142Y77547620D02*
X71857142Y78547620D01*
X72238095Y78547620D01*
X72333333Y78500000D01*
X72380952Y78452381D01*
X72428571Y78357143D01*
X72428571Y78214286D01*
X72380952Y78119048D01*
X72333333Y78071429D01*
X72238095Y78023810D01*
X71857142Y78023810D01*
X73333333Y77547620D02*
X72857142Y77547620D01*
X72857142Y78547620D01*
X74190476Y77547620D02*
X73619047Y77547620D01*
X73904761Y77547620D02*
X73904761Y78547620D01*
X73809523Y78404762D01*
X73714285Y78309524D01*
X73619047Y78261905D01*
%TO.C,J3*%
X51066666Y73947620D02*
X51066666Y73233334D01*
X51019047Y73090477D01*
X50923809Y72995239D01*
X50780952Y72947620D01*
X50685714Y72947620D01*
X51447619Y73947620D02*
X52066666Y73947620D01*
X51733333Y73566667D01*
X51876190Y73566667D01*
X51971428Y73519048D01*
X52019047Y73471429D01*
X52066666Y73376191D01*
X52066666Y73138096D01*
X52019047Y73042858D01*
X51971428Y72995239D01*
X51876190Y72947620D01*
X51590476Y72947620D01*
X51495238Y72995239D01*
X51447619Y73042858D01*
%TO.C,RP6*%
X64183333Y24097620D02*
X63850000Y24573810D01*
X63611904Y24097620D02*
X63611904Y25097620D01*
X63992857Y25097620D01*
X64088095Y25050000D01*
X64135714Y25002381D01*
X64183333Y24907143D01*
X64183333Y24764286D01*
X64135714Y24669048D01*
X64088095Y24621429D01*
X63992857Y24573810D01*
X63611904Y24573810D01*
X64611904Y24097620D02*
X64611904Y25097620D01*
X64992857Y25097620D01*
X65088095Y25050000D01*
X65135714Y25002381D01*
X65183333Y24907143D01*
X65183333Y24764286D01*
X65135714Y24669048D01*
X65088095Y24621429D01*
X64992857Y24573810D01*
X64611904Y24573810D01*
X66040476Y25097620D02*
X65850000Y25097620D01*
X65754761Y25050000D01*
X65707142Y25002381D01*
X65611904Y24859524D01*
X65564285Y24669048D01*
X65564285Y24288096D01*
X65611904Y24192858D01*
X65659523Y24145239D01*
X65754761Y24097620D01*
X65945238Y24097620D01*
X66040476Y24145239D01*
X66088095Y24192858D01*
X66135714Y24288096D01*
X66135714Y24526191D01*
X66088095Y24621429D01*
X66040476Y24669048D01*
X65945238Y24716667D01*
X65754761Y24716667D01*
X65659523Y24669048D01*
X65611904Y24621429D01*
X65564285Y24526191D01*
%TO.C,LED1*%
X74280952Y85847620D02*
X73804761Y85847620D01*
X73804761Y86847620D01*
X74614285Y86371429D02*
X74947619Y86371429D01*
X75090476Y85847620D02*
X74614285Y85847620D01*
X74614285Y86847620D01*
X75090476Y86847620D01*
X75519047Y85847620D02*
X75519047Y86847620D01*
X75757142Y86847620D01*
X75900000Y86800000D01*
X75995238Y86704762D01*
X76042857Y86609524D01*
X76090476Y86419048D01*
X76090476Y86276191D01*
X76042857Y86085715D01*
X75995238Y85990477D01*
X75900000Y85895239D01*
X75757142Y85847620D01*
X75519047Y85847620D01*
X77042857Y85847620D02*
X76471428Y85847620D01*
X76757142Y85847620D02*
X76757142Y86847620D01*
X76661904Y86704762D01*
X76566666Y86609524D01*
X76471428Y86561905D01*
%TO.C,J8*%
X31966666Y17097620D02*
X31966666Y16383334D01*
X31919047Y16240477D01*
X31823809Y16145239D01*
X31680952Y16097620D01*
X31585714Y16097620D01*
X32585714Y16669048D02*
X32490476Y16716667D01*
X32442857Y16764286D01*
X32395238Y16859524D01*
X32395238Y16907143D01*
X32442857Y17002381D01*
X32490476Y17050000D01*
X32585714Y17097620D01*
X32776190Y17097620D01*
X32871428Y17050000D01*
X32919047Y17002381D01*
X32966666Y16907143D01*
X32966666Y16859524D01*
X32919047Y16764286D01*
X32871428Y16716667D01*
X32776190Y16669048D01*
X32585714Y16669048D01*
X32490476Y16621429D01*
X32442857Y16573810D01*
X32395238Y16478572D01*
X32395238Y16288096D01*
X32442857Y16192858D01*
X32490476Y16145239D01*
X32585714Y16097620D01*
X32776190Y16097620D01*
X32871428Y16145239D01*
X32919047Y16192858D01*
X32966666Y16288096D01*
X32966666Y16478572D01*
X32919047Y16573810D01*
X32871428Y16621429D01*
X32776190Y16669048D01*
%TO.C,JL5*%
X72361904Y9547620D02*
X72361904Y8833334D01*
X72314285Y8690477D01*
X72219047Y8595239D01*
X72076190Y8547620D01*
X71980952Y8547620D01*
X73314285Y8547620D02*
X72838095Y8547620D01*
X72838095Y9547620D01*
X74123809Y9547620D02*
X73647619Y9547620D01*
X73600000Y9071429D01*
X73647619Y9119048D01*
X73742857Y9166667D01*
X73980952Y9166667D01*
X74076190Y9119048D01*
X74123809Y9071429D01*
X74171428Y8976191D01*
X74171428Y8738096D01*
X74123809Y8642858D01*
X74076190Y8595239D01*
X73980952Y8547620D01*
X73742857Y8547620D01*
X73647619Y8595239D01*
X73600000Y8642858D01*
%TO.C,J5*%
X91966666Y17097620D02*
X91966666Y16383334D01*
X91919047Y16240477D01*
X91823809Y16145239D01*
X91680952Y16097620D01*
X91585714Y16097620D01*
X92919047Y17097620D02*
X92442857Y17097620D01*
X92395238Y16621429D01*
X92442857Y16669048D01*
X92538095Y16716667D01*
X92776190Y16716667D01*
X92871428Y16669048D01*
X92919047Y16621429D01*
X92966666Y16526191D01*
X92966666Y16288096D01*
X92919047Y16192858D01*
X92871428Y16145239D01*
X92776190Y16097620D01*
X92538095Y16097620D01*
X92442857Y16145239D01*
X92395238Y16192858D01*
%TO.C,JCNTL1*%
X94807142Y51297620D02*
X94807142Y50583334D01*
X94759523Y50440477D01*
X94664285Y50345239D01*
X94521428Y50297620D01*
X94426190Y50297620D01*
X95854761Y50392858D02*
X95807142Y50345239D01*
X95664285Y50297620D01*
X95569047Y50297620D01*
X95426190Y50345239D01*
X95330952Y50440477D01*
X95283333Y50535715D01*
X95235714Y50726191D01*
X95235714Y50869048D01*
X95283333Y51059524D01*
X95330952Y51154762D01*
X95426190Y51250000D01*
X95569047Y51297620D01*
X95664285Y51297620D01*
X95807142Y51250000D01*
X95854761Y51202381D01*
X96283333Y50297620D02*
X96283333Y51297620D01*
X96854761Y50297620D01*
X96854761Y51297620D01*
X97188095Y51297620D02*
X97759523Y51297620D01*
X97473809Y50297620D02*
X97473809Y51297620D01*
X98569047Y50297620D02*
X98092857Y50297620D01*
X98092857Y51297620D01*
X99426190Y50297620D02*
X98854761Y50297620D01*
X99140476Y50297620D02*
X99140476Y51297620D01*
X99045238Y51154762D01*
X98950000Y51059524D01*
X98854761Y51011905D01*
%TO.C,RP7*%
X44183333Y24097620D02*
X43850000Y24573810D01*
X43611904Y24097620D02*
X43611904Y25097620D01*
X43992857Y25097620D01*
X44088095Y25050000D01*
X44135714Y25002381D01*
X44183333Y24907143D01*
X44183333Y24764286D01*
X44135714Y24669048D01*
X44088095Y24621429D01*
X43992857Y24573810D01*
X43611904Y24573810D01*
X44611904Y24097620D02*
X44611904Y25097620D01*
X44992857Y25097620D01*
X45088095Y25050000D01*
X45135714Y25002381D01*
X45183333Y24907143D01*
X45183333Y24764286D01*
X45135714Y24669048D01*
X45088095Y24621429D01*
X44992857Y24573810D01*
X44611904Y24573810D01*
X45516666Y25097620D02*
X46183333Y25097620D01*
X45754761Y24097620D01*
%TO.C,R1*%
X5633333Y21997620D02*
X5300000Y22473810D01*
X5061904Y21997620D02*
X5061904Y22997620D01*
X5442857Y22997620D01*
X5538095Y22950000D01*
X5585714Y22902381D01*
X5633333Y22807143D01*
X5633333Y22664286D01*
X5585714Y22569048D01*
X5538095Y22521429D01*
X5442857Y22473810D01*
X5061904Y22473810D01*
X6585714Y21997620D02*
X6014285Y21997620D01*
X6300000Y21997620D02*
X6300000Y22997620D01*
X6204761Y22854762D01*
X6109523Y22759524D01*
X6014285Y22711905D01*
%TO.C,RP3*%
X51183333Y64997620D02*
X50850000Y65473810D01*
X50611904Y64997620D02*
X50611904Y65997620D01*
X50992857Y65997620D01*
X51088095Y65950000D01*
X51135714Y65902381D01*
X51183333Y65807143D01*
X51183333Y65664286D01*
X51135714Y65569048D01*
X51088095Y65521429D01*
X50992857Y65473810D01*
X50611904Y65473810D01*
X51611904Y64997620D02*
X51611904Y65997620D01*
X51992857Y65997620D01*
X52088095Y65950000D01*
X52135714Y65902381D01*
X52183333Y65807143D01*
X52183333Y65664286D01*
X52135714Y65569048D01*
X52088095Y65521429D01*
X51992857Y65473810D01*
X51611904Y65473810D01*
X52516666Y65997620D02*
X53135714Y65997620D01*
X52802380Y65616667D01*
X52945238Y65616667D01*
X53040476Y65569048D01*
X53088095Y65521429D01*
X53135714Y65426191D01*
X53135714Y65188096D01*
X53088095Y65092858D01*
X53040476Y65045239D01*
X52945238Y64997620D01*
X52659523Y64997620D01*
X52564285Y65045239D01*
X52516666Y65092858D01*
%TO.C,TVS2*%
X53733333Y67947620D02*
X54304761Y67947620D01*
X54019047Y66947620D02*
X54019047Y67947620D01*
X54495238Y67947620D02*
X54828571Y66947620D01*
X55161904Y67947620D01*
X55447619Y66995239D02*
X55590476Y66947620D01*
X55828571Y66947620D01*
X55923809Y66995239D01*
X55971428Y67042858D01*
X56019047Y67138096D01*
X56019047Y67233334D01*
X55971428Y67328572D01*
X55923809Y67376191D01*
X55828571Y67423810D01*
X55638095Y67471429D01*
X55542857Y67519048D01*
X55495238Y67566667D01*
X55447619Y67661905D01*
X55447619Y67757143D01*
X55495238Y67852381D01*
X55542857Y67900000D01*
X55638095Y67947620D01*
X55876190Y67947620D01*
X56019047Y67900000D01*
X56400000Y67852381D02*
X56447619Y67900000D01*
X56542857Y67947620D01*
X56780952Y67947620D01*
X56876190Y67900000D01*
X56923809Y67852381D01*
X56971428Y67757143D01*
X56971428Y67661905D01*
X56923809Y67519048D01*
X56352380Y66947620D01*
X56971428Y66947620D01*
%TO.C,RP2*%
X71183333Y64997620D02*
X70850000Y65473810D01*
X70611904Y64997620D02*
X70611904Y65997620D01*
X70992857Y65997620D01*
X71088095Y65950000D01*
X71135714Y65902381D01*
X71183333Y65807143D01*
X71183333Y65664286D01*
X71135714Y65569048D01*
X71088095Y65521429D01*
X70992857Y65473810D01*
X70611904Y65473810D01*
X71611904Y64997620D02*
X71611904Y65997620D01*
X71992857Y65997620D01*
X72088095Y65950000D01*
X72135714Y65902381D01*
X72183333Y65807143D01*
X72183333Y65664286D01*
X72135714Y65569048D01*
X72088095Y65521429D01*
X71992857Y65473810D01*
X71611904Y65473810D01*
X72564285Y65902381D02*
X72611904Y65950000D01*
X72707142Y65997620D01*
X72945238Y65997620D01*
X73040476Y65950000D01*
X73088095Y65902381D01*
X73135714Y65807143D01*
X73135714Y65711905D01*
X73088095Y65569048D01*
X72516666Y64997620D01*
X73135714Y64997620D01*
%TO.C,LED6*%
X55280952Y3197620D02*
X54804761Y3197620D01*
X54804761Y4197620D01*
X55614285Y3721429D02*
X55947619Y3721429D01*
X56090476Y3197620D02*
X55614285Y3197620D01*
X55614285Y4197620D01*
X56090476Y4197620D01*
X56519047Y3197620D02*
X56519047Y4197620D01*
X56757142Y4197620D01*
X56900000Y4150000D01*
X56995238Y4054762D01*
X57042857Y3959524D01*
X57090476Y3769048D01*
X57090476Y3626191D01*
X57042857Y3435715D01*
X56995238Y3340477D01*
X56900000Y3245239D01*
X56757142Y3197620D01*
X56519047Y3197620D01*
X57947619Y4197620D02*
X57757142Y4197620D01*
X57661904Y4150000D01*
X57614285Y4102381D01*
X57519047Y3959524D01*
X57471428Y3769048D01*
X57471428Y3388096D01*
X57519047Y3292858D01*
X57566666Y3245239D01*
X57661904Y3197620D01*
X57852380Y3197620D01*
X57947619Y3245239D01*
X57995238Y3292858D01*
X58042857Y3388096D01*
X58042857Y3626191D01*
X57995238Y3721429D01*
X57947619Y3769048D01*
X57852380Y3816667D01*
X57661904Y3816667D01*
X57566666Y3769048D01*
X57519047Y3721429D01*
X57471428Y3626191D01*
%TO.C,LED7*%
X35280952Y3147620D02*
X34804761Y3147620D01*
X34804761Y4147620D01*
X35614285Y3671429D02*
X35947619Y3671429D01*
X36090476Y3147620D02*
X35614285Y3147620D01*
X35614285Y4147620D01*
X36090476Y4147620D01*
X36519047Y3147620D02*
X36519047Y4147620D01*
X36757142Y4147620D01*
X36900000Y4100000D01*
X36995238Y4004762D01*
X37042857Y3909524D01*
X37090476Y3719048D01*
X37090476Y3576191D01*
X37042857Y3385715D01*
X36995238Y3290477D01*
X36900000Y3195239D01*
X36757142Y3147620D01*
X36519047Y3147620D01*
X37423809Y4147620D02*
X38090476Y4147620D01*
X37661904Y3147620D01*
%TO.C,RL7*%
X33328571Y11547620D02*
X32995238Y12023810D01*
X32757142Y11547620D02*
X32757142Y12547620D01*
X33138095Y12547620D01*
X33233333Y12500000D01*
X33280952Y12452381D01*
X33328571Y12357143D01*
X33328571Y12214286D01*
X33280952Y12119048D01*
X33233333Y12071429D01*
X33138095Y12023810D01*
X32757142Y12023810D01*
X34233333Y11547620D02*
X33757142Y11547620D01*
X33757142Y12547620D01*
X34471428Y12547620D02*
X35138095Y12547620D01*
X34709523Y11547620D01*
%TO.C,H5*%
X54738095Y44547620D02*
X54738095Y45547620D01*
X54738095Y45071429D02*
X55309523Y45071429D01*
X55309523Y44547620D02*
X55309523Y45547620D01*
X56261904Y45547620D02*
X55785714Y45547620D01*
X55738095Y45071429D01*
X55785714Y45119048D01*
X55880952Y45166667D01*
X56119047Y45166667D01*
X56214285Y45119048D01*
X56261904Y45071429D01*
X56309523Y44976191D01*
X56309523Y44738096D01*
X56261904Y44642858D01*
X56214285Y44595239D01*
X56119047Y44547620D01*
X55880952Y44547620D01*
X55785714Y44595239D01*
X55738095Y44642858D01*
%TO.C,TVSP1*%
X3583333Y45547620D02*
X4154761Y45547620D01*
X3869047Y44547620D02*
X3869047Y45547620D01*
X4345238Y45547620D02*
X4678571Y44547620D01*
X5011904Y45547620D01*
X5297619Y44595239D02*
X5440476Y44547620D01*
X5678571Y44547620D01*
X5773809Y44595239D01*
X5821428Y44642858D01*
X5869047Y44738096D01*
X5869047Y44833334D01*
X5821428Y44928572D01*
X5773809Y44976191D01*
X5678571Y45023810D01*
X5488095Y45071429D01*
X5392857Y45119048D01*
X5345238Y45166667D01*
X5297619Y45261905D01*
X5297619Y45357143D01*
X5345238Y45452381D01*
X5392857Y45500000D01*
X5488095Y45547620D01*
X5726190Y45547620D01*
X5869047Y45500000D01*
X6297619Y44547620D02*
X6297619Y45547620D01*
X6678571Y45547620D01*
X6773809Y45500000D01*
X6821428Y45452381D01*
X6869047Y45357143D01*
X6869047Y45214286D01*
X6821428Y45119048D01*
X6773809Y45071429D01*
X6678571Y45023810D01*
X6297619Y45023810D01*
X7821428Y44547620D02*
X7250000Y44547620D01*
X7535714Y44547620D02*
X7535714Y45547620D01*
X7440476Y45404762D01*
X7345238Y45309524D01*
X7250000Y45261905D01*
%TO.C,HQ6*%
X63754285Y42754620D02*
X63754285Y43754620D01*
X63754285Y43278429D02*
X64325714Y43278429D01*
X64325714Y42754620D02*
X64325714Y43754620D01*
X65468571Y42659381D02*
X65373333Y42707000D01*
X65278095Y42802239D01*
X65135238Y42945096D01*
X65040000Y42992715D01*
X64944761Y42992715D01*
X64992380Y42754620D02*
X64897142Y42802239D01*
X64801904Y42897477D01*
X64754285Y43087953D01*
X64754285Y43421286D01*
X64801904Y43611762D01*
X64897142Y43707000D01*
X64992380Y43754620D01*
X65182857Y43754620D01*
X65278095Y43707000D01*
X65373333Y43611762D01*
X65420952Y43421286D01*
X65420952Y43087953D01*
X65373333Y42897477D01*
X65278095Y42802239D01*
X65182857Y42754620D01*
X64992380Y42754620D01*
X66278095Y43754620D02*
X66087619Y43754620D01*
X65992380Y43707000D01*
X65944761Y43659381D01*
X65849523Y43516524D01*
X65801904Y43326048D01*
X65801904Y42945096D01*
X65849523Y42849858D01*
X65897142Y42802239D01*
X65992380Y42754620D01*
X66182857Y42754620D01*
X66278095Y42802239D01*
X66325714Y42849858D01*
X66373333Y42945096D01*
X66373333Y43183191D01*
X66325714Y43278429D01*
X66278095Y43326048D01*
X66182857Y43373667D01*
X65992380Y43373667D01*
X65897142Y43326048D01*
X65849523Y43278429D01*
X65801904Y43183191D01*
%TO.C,RP1*%
X91183333Y64997620D02*
X90850000Y65473810D01*
X90611904Y64997620D02*
X90611904Y65997620D01*
X90992857Y65997620D01*
X91088095Y65950000D01*
X91135714Y65902381D01*
X91183333Y65807143D01*
X91183333Y65664286D01*
X91135714Y65569048D01*
X91088095Y65521429D01*
X90992857Y65473810D01*
X90611904Y65473810D01*
X91611904Y64997620D02*
X91611904Y65997620D01*
X91992857Y65997620D01*
X92088095Y65950000D01*
X92135714Y65902381D01*
X92183333Y65807143D01*
X92183333Y65664286D01*
X92135714Y65569048D01*
X92088095Y65521429D01*
X91992857Y65473810D01*
X91611904Y65473810D01*
X93135714Y64997620D02*
X92564285Y64997620D01*
X92850000Y64997620D02*
X92850000Y65997620D01*
X92754761Y65854762D01*
X92659523Y65759524D01*
X92564285Y65711905D01*
%TO.C,J1*%
X91066666Y73947620D02*
X91066666Y73233334D01*
X91019047Y73090477D01*
X90923809Y72995239D01*
X90780952Y72947620D01*
X90685714Y72947620D01*
X92066666Y72947620D02*
X91495238Y72947620D01*
X91780952Y72947620D02*
X91780952Y73947620D01*
X91685714Y73804762D01*
X91590476Y73709524D01*
X91495238Y73661905D01*
%TO.C,JL8*%
X12341904Y9547620D02*
X12341904Y8833334D01*
X12294285Y8690477D01*
X12199047Y8595239D01*
X12056190Y8547620D01*
X11960952Y8547620D01*
X13294285Y8547620D02*
X12818095Y8547620D01*
X12818095Y9547620D01*
X13770476Y9119048D02*
X13675238Y9166667D01*
X13627619Y9214286D01*
X13580000Y9309524D01*
X13580000Y9357143D01*
X13627619Y9452381D01*
X13675238Y9500000D01*
X13770476Y9547620D01*
X13960952Y9547620D01*
X14056190Y9500000D01*
X14103809Y9452381D01*
X14151428Y9357143D01*
X14151428Y9309524D01*
X14103809Y9214286D01*
X14056190Y9166667D01*
X13960952Y9119048D01*
X13770476Y9119048D01*
X13675238Y9071429D01*
X13627619Y9023810D01*
X13580000Y8928572D01*
X13580000Y8738096D01*
X13627619Y8642858D01*
X13675238Y8595239D01*
X13770476Y8547620D01*
X13960952Y8547620D01*
X14056190Y8595239D01*
X14103809Y8642858D01*
X14151428Y8738096D01*
X14151428Y8928572D01*
X14103809Y9023810D01*
X14056190Y9071429D01*
X13960952Y9119048D01*
%TO.C,LED8*%
X15260952Y3147620D02*
X14784761Y3147620D01*
X14784761Y4147620D01*
X15594285Y3671429D02*
X15927619Y3671429D01*
X16070476Y3147620D02*
X15594285Y3147620D01*
X15594285Y4147620D01*
X16070476Y4147620D01*
X16499047Y3147620D02*
X16499047Y4147620D01*
X16737142Y4147620D01*
X16880000Y4100000D01*
X16975238Y4004762D01*
X17022857Y3909524D01*
X17070476Y3719048D01*
X17070476Y3576191D01*
X17022857Y3385715D01*
X16975238Y3290477D01*
X16880000Y3195239D01*
X16737142Y3147620D01*
X16499047Y3147620D01*
X17641904Y3719048D02*
X17546666Y3766667D01*
X17499047Y3814286D01*
X17451428Y3909524D01*
X17451428Y3957143D01*
X17499047Y4052381D01*
X17546666Y4100000D01*
X17641904Y4147620D01*
X17832380Y4147620D01*
X17927619Y4100000D01*
X17975238Y4052381D01*
X18022857Y3957143D01*
X18022857Y3909524D01*
X17975238Y3814286D01*
X17927619Y3766667D01*
X17832380Y3719048D01*
X17641904Y3719048D01*
X17546666Y3671429D01*
X17499047Y3623810D01*
X17451428Y3528572D01*
X17451428Y3338096D01*
X17499047Y3242858D01*
X17546666Y3195239D01*
X17641904Y3147620D01*
X17832380Y3147620D01*
X17927619Y3195239D01*
X17975238Y3242858D01*
X18022857Y3338096D01*
X18022857Y3528572D01*
X17975238Y3623810D01*
X17927619Y3671429D01*
X17832380Y3719048D01*
%TO.C,TVS5*%
X74733333Y23097620D02*
X75304761Y23097620D01*
X75019047Y22097620D02*
X75019047Y23097620D01*
X75495238Y23097620D02*
X75828571Y22097620D01*
X76161904Y23097620D01*
X76447619Y22145239D02*
X76590476Y22097620D01*
X76828571Y22097620D01*
X76923809Y22145239D01*
X76971428Y22192858D01*
X77019047Y22288096D01*
X77019047Y22383334D01*
X76971428Y22478572D01*
X76923809Y22526191D01*
X76828571Y22573810D01*
X76638095Y22621429D01*
X76542857Y22669048D01*
X76495238Y22716667D01*
X76447619Y22811905D01*
X76447619Y22907143D01*
X76495238Y23002381D01*
X76542857Y23050000D01*
X76638095Y23097620D01*
X76876190Y23097620D01*
X77019047Y23050000D01*
X77923809Y23097620D02*
X77447619Y23097620D01*
X77400000Y22621429D01*
X77447619Y22669048D01*
X77542857Y22716667D01*
X77780952Y22716667D01*
X77876190Y22669048D01*
X77923809Y22621429D01*
X77971428Y22526191D01*
X77971428Y22288096D01*
X77923809Y22192858D01*
X77876190Y22145239D01*
X77780952Y22097620D01*
X77542857Y22097620D01*
X77447619Y22145239D01*
X77400000Y22192858D01*
%TO.C,J2*%
X71066666Y73947620D02*
X71066666Y73233334D01*
X71019047Y73090477D01*
X70923809Y72995239D01*
X70780952Y72947620D01*
X70685714Y72947620D01*
X71495238Y73852381D02*
X71542857Y73900000D01*
X71638095Y73947620D01*
X71876190Y73947620D01*
X71971428Y73900000D01*
X72019047Y73852381D01*
X72066666Y73757143D01*
X72066666Y73661905D01*
X72019047Y73519048D01*
X71447619Y72947620D01*
X72066666Y72947620D01*
%TO.C,HQ4*%
X23754285Y46297620D02*
X23754285Y47297620D01*
X23754285Y46821429D02*
X24325714Y46821429D01*
X24325714Y46297620D02*
X24325714Y47297620D01*
X25468571Y46202381D02*
X25373333Y46250000D01*
X25278095Y46345239D01*
X25135238Y46488096D01*
X25040000Y46535715D01*
X24944761Y46535715D01*
X24992380Y46297620D02*
X24897142Y46345239D01*
X24801904Y46440477D01*
X24754285Y46630953D01*
X24754285Y46964286D01*
X24801904Y47154762D01*
X24897142Y47250000D01*
X24992380Y47297620D01*
X25182857Y47297620D01*
X25278095Y47250000D01*
X25373333Y47154762D01*
X25420952Y46964286D01*
X25420952Y46630953D01*
X25373333Y46440477D01*
X25278095Y46345239D01*
X25182857Y46297620D01*
X24992380Y46297620D01*
X26278095Y46964286D02*
X26278095Y46297620D01*
X26040000Y47345239D02*
X25801904Y46630953D01*
X26420952Y46630953D01*
%TO.C,LED3*%
X34280952Y85847620D02*
X33804761Y85847620D01*
X33804761Y86847620D01*
X34614285Y86371429D02*
X34947619Y86371429D01*
X35090476Y85847620D02*
X34614285Y85847620D01*
X34614285Y86847620D01*
X35090476Y86847620D01*
X35519047Y85847620D02*
X35519047Y86847620D01*
X35757142Y86847620D01*
X35900000Y86800000D01*
X35995238Y86704762D01*
X36042857Y86609524D01*
X36090476Y86419048D01*
X36090476Y86276191D01*
X36042857Y86085715D01*
X35995238Y85990477D01*
X35900000Y85895239D01*
X35757142Y85847620D01*
X35519047Y85847620D01*
X36423809Y86847620D02*
X37042857Y86847620D01*
X36709523Y86466667D01*
X36852380Y86466667D01*
X36947619Y86419048D01*
X36995238Y86371429D01*
X37042857Y86276191D01*
X37042857Y86038096D01*
X36995238Y85942858D01*
X36947619Y85895239D01*
X36852380Y85847620D01*
X36566666Y85847620D01*
X36471428Y85895239D01*
X36423809Y85942858D01*
%TO.C,RP5*%
X84183333Y24097620D02*
X83850000Y24573810D01*
X83611904Y24097620D02*
X83611904Y25097620D01*
X83992857Y25097620D01*
X84088095Y25050000D01*
X84135714Y25002381D01*
X84183333Y24907143D01*
X84183333Y24764286D01*
X84135714Y24669048D01*
X84088095Y24621429D01*
X83992857Y24573810D01*
X83611904Y24573810D01*
X84611904Y24097620D02*
X84611904Y25097620D01*
X84992857Y25097620D01*
X85088095Y25050000D01*
X85135714Y25002381D01*
X85183333Y24907143D01*
X85183333Y24764286D01*
X85135714Y24669048D01*
X85088095Y24621429D01*
X84992857Y24573810D01*
X84611904Y24573810D01*
X86088095Y25097620D02*
X85611904Y25097620D01*
X85564285Y24621429D01*
X85611904Y24669048D01*
X85707142Y24716667D01*
X85945238Y24716667D01*
X86040476Y24669048D01*
X86088095Y24621429D01*
X86135714Y24526191D01*
X86135714Y24288096D01*
X86088095Y24192858D01*
X86040476Y24145239D01*
X85945238Y24097620D01*
X85707142Y24097620D01*
X85611904Y24145239D01*
X85564285Y24192858D01*
%TO.C,H1*%
X4238095Y80297620D02*
X4238095Y81297620D01*
X4238095Y80821429D02*
X4809523Y80821429D01*
X4809523Y80297620D02*
X4809523Y81297620D01*
X5809523Y80297620D02*
X5238095Y80297620D01*
X5523809Y80297620D02*
X5523809Y81297620D01*
X5428571Y81154762D01*
X5333333Y81059524D01*
X5238095Y81011905D01*
%TO.C,J4*%
X31066666Y73947620D02*
X31066666Y73233334D01*
X31019047Y73090477D01*
X30923809Y72995239D01*
X30780952Y72947620D01*
X30685714Y72947620D01*
X31971428Y73614286D02*
X31971428Y72947620D01*
X31733333Y73995239D02*
X31495238Y73280953D01*
X32114285Y73280953D01*
%TO.C,HQ3*%
X43754285Y46297620D02*
X43754285Y47297620D01*
X43754285Y46821429D02*
X44325714Y46821429D01*
X44325714Y46297620D02*
X44325714Y47297620D01*
X45468571Y46202381D02*
X45373333Y46250000D01*
X45278095Y46345239D01*
X45135238Y46488096D01*
X45040000Y46535715D01*
X44944761Y46535715D01*
X44992380Y46297620D02*
X44897142Y46345239D01*
X44801904Y46440477D01*
X44754285Y46630953D01*
X44754285Y46964286D01*
X44801904Y47154762D01*
X44897142Y47250000D01*
X44992380Y47297620D01*
X45182857Y47297620D01*
X45278095Y47250000D01*
X45373333Y47154762D01*
X45420952Y46964286D01*
X45420952Y46630953D01*
X45373333Y46440477D01*
X45278095Y46345239D01*
X45182857Y46297620D01*
X44992380Y46297620D01*
X45754285Y47297620D02*
X46373333Y47297620D01*
X46040000Y46916667D01*
X46182857Y46916667D01*
X46278095Y46869048D01*
X46325714Y46821429D01*
X46373333Y46726191D01*
X46373333Y46488096D01*
X46325714Y46392858D01*
X46278095Y46345239D01*
X46182857Y46297620D01*
X45897142Y46297620D01*
X45801904Y46345239D01*
X45754285Y46392858D01*
%TO.C,H4*%
X4238095Y8647620D02*
X4238095Y9647620D01*
X4238095Y9171429D02*
X4809523Y9171429D01*
X4809523Y8647620D02*
X4809523Y9647620D01*
X5714285Y9314286D02*
X5714285Y8647620D01*
X5476190Y9695239D02*
X5238095Y8980953D01*
X5857142Y8980953D01*
%TO.C,TVS4*%
X8583333Y74397620D02*
X9154761Y74397620D01*
X8869047Y73397620D02*
X8869047Y74397620D01*
X9345238Y74397620D02*
X9678571Y73397620D01*
X10011904Y74397620D01*
X10297619Y73445239D02*
X10440476Y73397620D01*
X10678571Y73397620D01*
X10773809Y73445239D01*
X10821428Y73492858D01*
X10869047Y73588096D01*
X10869047Y73683334D01*
X10821428Y73778572D01*
X10773809Y73826191D01*
X10678571Y73873810D01*
X10488095Y73921429D01*
X10392857Y73969048D01*
X10345238Y74016667D01*
X10297619Y74111905D01*
X10297619Y74207143D01*
X10345238Y74302381D01*
X10392857Y74350000D01*
X10488095Y74397620D01*
X10726190Y74397620D01*
X10869047Y74350000D01*
X11726190Y74064286D02*
X11726190Y73397620D01*
X11488095Y74445239D02*
X11250000Y73730953D01*
X11869047Y73730953D01*
%TO.C,JL7*%
X32361904Y9547620D02*
X32361904Y8833334D01*
X32314285Y8690477D01*
X32219047Y8595239D01*
X32076190Y8547620D01*
X31980952Y8547620D01*
X33314285Y8547620D02*
X32838095Y8547620D01*
X32838095Y9547620D01*
X33552380Y9547620D02*
X34219047Y9547620D01*
X33790476Y8547620D01*
%TO.C,HQ5*%
X83754285Y42754620D02*
X83754285Y43754620D01*
X83754285Y43278429D02*
X84325714Y43278429D01*
X84325714Y42754620D02*
X84325714Y43754620D01*
X85468571Y42659381D02*
X85373333Y42707000D01*
X85278095Y42802239D01*
X85135238Y42945096D01*
X85040000Y42992715D01*
X84944761Y42992715D01*
X84992380Y42754620D02*
X84897142Y42802239D01*
X84801904Y42897477D01*
X84754285Y43087953D01*
X84754285Y43421286D01*
X84801904Y43611762D01*
X84897142Y43707000D01*
X84992380Y43754620D01*
X85182857Y43754620D01*
X85278095Y43707000D01*
X85373333Y43611762D01*
X85420952Y43421286D01*
X85420952Y43087953D01*
X85373333Y42897477D01*
X85278095Y42802239D01*
X85182857Y42754620D01*
X84992380Y42754620D01*
X86325714Y43754620D02*
X85849523Y43754620D01*
X85801904Y43278429D01*
X85849523Y43326048D01*
X85944761Y43373667D01*
X86182857Y43373667D01*
X86278095Y43326048D01*
X86325714Y43278429D01*
X86373333Y43183191D01*
X86373333Y42945096D01*
X86325714Y42849858D01*
X86278095Y42802239D01*
X86182857Y42754620D01*
X85944761Y42754620D01*
X85849523Y42802239D01*
X85801904Y42849858D01*
%TO.C,RL6*%
X53328571Y11547620D02*
X52995238Y12023810D01*
X52757142Y11547620D02*
X52757142Y12547620D01*
X53138095Y12547620D01*
X53233333Y12500000D01*
X53280952Y12452381D01*
X53328571Y12357143D01*
X53328571Y12214286D01*
X53280952Y12119048D01*
X53233333Y12071429D01*
X53138095Y12023810D01*
X52757142Y12023810D01*
X54233333Y11547620D02*
X53757142Y11547620D01*
X53757142Y12547620D01*
X54995238Y12547620D02*
X54804761Y12547620D01*
X54709523Y12500000D01*
X54661904Y12452381D01*
X54566666Y12309524D01*
X54519047Y12119048D01*
X54519047Y11738096D01*
X54566666Y11642858D01*
X54614285Y11595239D01*
X54709523Y11547620D01*
X54900000Y11547620D01*
X54995238Y11595239D01*
X55042857Y11642858D01*
X55090476Y11738096D01*
X55090476Y11976191D01*
X55042857Y12071429D01*
X54995238Y12119048D01*
X54900000Y12166667D01*
X54709523Y12166667D01*
X54614285Y12119048D01*
X54566666Y12071429D01*
X54519047Y11976191D01*
%TO.C,JL6*%
X52361904Y9547620D02*
X52361904Y8833334D01*
X52314285Y8690477D01*
X52219047Y8595239D01*
X52076190Y8547620D01*
X51980952Y8547620D01*
X53314285Y8547620D02*
X52838095Y8547620D01*
X52838095Y9547620D01*
X54076190Y9547620D02*
X53885714Y9547620D01*
X53790476Y9500000D01*
X53742857Y9452381D01*
X53647619Y9309524D01*
X53600000Y9119048D01*
X53600000Y8738096D01*
X53647619Y8642858D01*
X53695238Y8595239D01*
X53790476Y8547620D01*
X53980952Y8547620D01*
X54076190Y8595239D01*
X54123809Y8642858D01*
X54171428Y8738096D01*
X54171428Y8976191D01*
X54123809Y9071429D01*
X54076190Y9119048D01*
X53980952Y9166667D01*
X53790476Y9166667D01*
X53695238Y9119048D01*
X53647619Y9071429D01*
X53600000Y8976191D01*
%TO.C,LED2*%
X54280952Y85797620D02*
X53804761Y85797620D01*
X53804761Y86797620D01*
X54614285Y86321429D02*
X54947619Y86321429D01*
X55090476Y85797620D02*
X54614285Y85797620D01*
X54614285Y86797620D01*
X55090476Y86797620D01*
X55519047Y85797620D02*
X55519047Y86797620D01*
X55757142Y86797620D01*
X55900000Y86750000D01*
X55995238Y86654762D01*
X56042857Y86559524D01*
X56090476Y86369048D01*
X56090476Y86226191D01*
X56042857Y86035715D01*
X55995238Y85940477D01*
X55900000Y85845239D01*
X55757142Y85797620D01*
X55519047Y85797620D01*
X56471428Y86702381D02*
X56519047Y86750000D01*
X56614285Y86797620D01*
X56852380Y86797620D01*
X56947619Y86750000D01*
X56995238Y86702381D01*
X57042857Y86607143D01*
X57042857Y86511905D01*
X56995238Y86369048D01*
X56423809Y85797620D01*
X57042857Y85797620D01*
%TO.C,RP8*%
X24383333Y24097620D02*
X24050000Y24573810D01*
X23811904Y24097620D02*
X23811904Y25097620D01*
X24192857Y25097620D01*
X24288095Y25050000D01*
X24335714Y25002381D01*
X24383333Y24907143D01*
X24383333Y24764286D01*
X24335714Y24669048D01*
X24288095Y24621429D01*
X24192857Y24573810D01*
X23811904Y24573810D01*
X24811904Y24097620D02*
X24811904Y25097620D01*
X25192857Y25097620D01*
X25288095Y25050000D01*
X25335714Y25002381D01*
X25383333Y24907143D01*
X25383333Y24764286D01*
X25335714Y24669048D01*
X25288095Y24621429D01*
X25192857Y24573810D01*
X24811904Y24573810D01*
X25954761Y24669048D02*
X25859523Y24716667D01*
X25811904Y24764286D01*
X25764285Y24859524D01*
X25764285Y24907143D01*
X25811904Y25002381D01*
X25859523Y25050000D01*
X25954761Y25097620D01*
X26145238Y25097620D01*
X26240476Y25050000D01*
X26288095Y25002381D01*
X26335714Y24907143D01*
X26335714Y24859524D01*
X26288095Y24764286D01*
X26240476Y24716667D01*
X26145238Y24669048D01*
X25954761Y24669048D01*
X25859523Y24621429D01*
X25811904Y24573810D01*
X25764285Y24478572D01*
X25764285Y24288096D01*
X25811904Y24192858D01*
X25859523Y24145239D01*
X25954761Y24097620D01*
X26145238Y24097620D01*
X26240476Y24145239D01*
X26288095Y24192858D01*
X26335714Y24288096D01*
X26335714Y24478572D01*
X26288095Y24573810D01*
X26240476Y24621429D01*
X26145238Y24669048D01*
%TO.C,LEDP1*%
X1080952Y17147620D02*
X604761Y17147620D01*
X604761Y18147620D01*
X1414285Y17671429D02*
X1747619Y17671429D01*
X1890476Y17147620D02*
X1414285Y17147620D01*
X1414285Y18147620D01*
X1890476Y18147620D01*
X2319047Y17147620D02*
X2319047Y18147620D01*
X2557142Y18147620D01*
X2700000Y18100000D01*
X2795238Y18004762D01*
X2842857Y17909524D01*
X2890476Y17719048D01*
X2890476Y17576191D01*
X2842857Y17385715D01*
X2795238Y17290477D01*
X2700000Y17195239D01*
X2557142Y17147620D01*
X2319047Y17147620D01*
X3319047Y17147620D02*
X3319047Y18147620D01*
X3700000Y18147620D01*
X3795238Y18100000D01*
X3842857Y18052381D01*
X3890476Y17957143D01*
X3890476Y17814286D01*
X3842857Y17719048D01*
X3795238Y17671429D01*
X3700000Y17623810D01*
X3319047Y17623810D01*
X4842857Y17147620D02*
X4271428Y17147620D01*
X4557142Y17147620D02*
X4557142Y18147620D01*
X4461904Y18004762D01*
X4366666Y17909524D01*
X4271428Y17861905D01*
%TO.C,RL3*%
X32428571Y77547620D02*
X32095238Y78023810D01*
X31857142Y77547620D02*
X31857142Y78547620D01*
X32238095Y78547620D01*
X32333333Y78500000D01*
X32380952Y78452381D01*
X32428571Y78357143D01*
X32428571Y78214286D01*
X32380952Y78119048D01*
X32333333Y78071429D01*
X32238095Y78023810D01*
X31857142Y78023810D01*
X33333333Y77547620D02*
X32857142Y77547620D01*
X32857142Y78547620D01*
X33571428Y78547620D02*
X34190476Y78547620D01*
X33857142Y78166667D01*
X34000000Y78166667D01*
X34095238Y78119048D01*
X34142857Y78071429D01*
X34190476Y77976191D01*
X34190476Y77738096D01*
X34142857Y77642858D01*
X34095238Y77595239D01*
X34000000Y77547620D01*
X33714285Y77547620D01*
X33619047Y77595239D01*
X33571428Y77642858D01*
%TO.C,RL8*%
X13308571Y11547620D02*
X12975238Y12023810D01*
X12737142Y11547620D02*
X12737142Y12547620D01*
X13118095Y12547620D01*
X13213333Y12500000D01*
X13260952Y12452381D01*
X13308571Y12357143D01*
X13308571Y12214286D01*
X13260952Y12119048D01*
X13213333Y12071429D01*
X13118095Y12023810D01*
X12737142Y12023810D01*
X14213333Y11547620D02*
X13737142Y11547620D01*
X13737142Y12547620D01*
X14689523Y12119048D02*
X14594285Y12166667D01*
X14546666Y12214286D01*
X14499047Y12309524D01*
X14499047Y12357143D01*
X14546666Y12452381D01*
X14594285Y12500000D01*
X14689523Y12547620D01*
X14880000Y12547620D01*
X14975238Y12500000D01*
X15022857Y12452381D01*
X15070476Y12357143D01*
X15070476Y12309524D01*
X15022857Y12214286D01*
X14975238Y12166667D01*
X14880000Y12119048D01*
X14689523Y12119048D01*
X14594285Y12071429D01*
X14546666Y12023810D01*
X14499047Y11928572D01*
X14499047Y11738096D01*
X14546666Y11642858D01*
X14594285Y11595239D01*
X14689523Y11547620D01*
X14880000Y11547620D01*
X14975238Y11595239D01*
X15022857Y11642858D01*
X15070476Y11738096D01*
X15070476Y11928572D01*
X15022857Y12023810D01*
X14975238Y12071429D01*
X14880000Y12119048D01*
%TO.C,JPWR1*%
X745238Y25497620D02*
X745238Y24783334D01*
X697619Y24640477D01*
X602380Y24545239D01*
X459523Y24497620D01*
X364285Y24497620D01*
X1221428Y24497620D02*
X1221428Y25497620D01*
X1602380Y25497620D01*
X1697619Y25450000D01*
X1745238Y25402381D01*
X1792857Y25307143D01*
X1792857Y25164286D01*
X1745238Y25069048D01*
X1697619Y25021429D01*
X1602380Y24973810D01*
X1221428Y24973810D01*
X2126190Y25497620D02*
X2364285Y24497620D01*
X2554761Y25211905D01*
X2745238Y24497620D01*
X2983333Y25497620D01*
X3935714Y24497620D02*
X3602380Y24973810D01*
X3364285Y24497620D02*
X3364285Y25497620D01*
X3745238Y25497620D01*
X3840476Y25450000D01*
X3888095Y25402381D01*
X3935714Y25307143D01*
X3935714Y25164286D01*
X3888095Y25069048D01*
X3840476Y25021429D01*
X3745238Y24973810D01*
X3364285Y24973810D01*
X4888095Y24497620D02*
X4316666Y24497620D01*
X4602380Y24497620D02*
X4602380Y25497620D01*
X4507142Y25354762D01*
X4411904Y25259524D01*
X4316666Y25211905D01*
X18607142Y24128572D02*
X18607142Y25271429D01*
X18957142Y41328572D02*
X18957142Y42471429D01*
X19528571Y41900000D02*
X18385714Y41900000D01*
%TO.C,TVS7*%
X34733333Y23097620D02*
X35304761Y23097620D01*
X35019047Y22097620D02*
X35019047Y23097620D01*
X35495238Y23097620D02*
X35828571Y22097620D01*
X36161904Y23097620D01*
X36447619Y22145239D02*
X36590476Y22097620D01*
X36828571Y22097620D01*
X36923809Y22145239D01*
X36971428Y22192858D01*
X37019047Y22288096D01*
X37019047Y22383334D01*
X36971428Y22478572D01*
X36923809Y22526191D01*
X36828571Y22573810D01*
X36638095Y22621429D01*
X36542857Y22669048D01*
X36495238Y22716667D01*
X36447619Y22811905D01*
X36447619Y22907143D01*
X36495238Y23002381D01*
X36542857Y23050000D01*
X36638095Y23097620D01*
X36876190Y23097620D01*
X37019047Y23050000D01*
X37352380Y23097620D02*
X38019047Y23097620D01*
X37590476Y22097620D01*
%TO.C,TVS3*%
X33733333Y67947620D02*
X34304761Y67947620D01*
X34019047Y66947620D02*
X34019047Y67947620D01*
X34495238Y67947620D02*
X34828571Y66947620D01*
X35161904Y67947620D01*
X35447619Y66995239D02*
X35590476Y66947620D01*
X35828571Y66947620D01*
X35923809Y66995239D01*
X35971428Y67042858D01*
X36019047Y67138096D01*
X36019047Y67233334D01*
X35971428Y67328572D01*
X35923809Y67376191D01*
X35828571Y67423810D01*
X35638095Y67471429D01*
X35542857Y67519048D01*
X35495238Y67566667D01*
X35447619Y67661905D01*
X35447619Y67757143D01*
X35495238Y67852381D01*
X35542857Y67900000D01*
X35638095Y67947620D01*
X35876190Y67947620D01*
X36019047Y67900000D01*
X36352380Y67947620D02*
X36971428Y67947620D01*
X36638095Y67566667D01*
X36780952Y67566667D01*
X36876190Y67519048D01*
X36923809Y67471429D01*
X36971428Y67376191D01*
X36971428Y67138096D01*
X36923809Y67042858D01*
X36876190Y66995239D01*
X36780952Y66947620D01*
X36495238Y66947620D01*
X36400000Y66995239D01*
X36352380Y67042858D01*
%TO.C,HQ2*%
X63754285Y46297620D02*
X63754285Y47297620D01*
X63754285Y46821429D02*
X64325714Y46821429D01*
X64325714Y46297620D02*
X64325714Y47297620D01*
X65468571Y46202381D02*
X65373333Y46250000D01*
X65278095Y46345239D01*
X65135238Y46488096D01*
X65040000Y46535715D01*
X64944761Y46535715D01*
X64992380Y46297620D02*
X64897142Y46345239D01*
X64801904Y46440477D01*
X64754285Y46630953D01*
X64754285Y46964286D01*
X64801904Y47154762D01*
X64897142Y47250000D01*
X64992380Y47297620D01*
X65182857Y47297620D01*
X65278095Y47250000D01*
X65373333Y47154762D01*
X65420952Y46964286D01*
X65420952Y46630953D01*
X65373333Y46440477D01*
X65278095Y46345239D01*
X65182857Y46297620D01*
X64992380Y46297620D01*
X65801904Y47202381D02*
X65849523Y47250000D01*
X65944761Y47297620D01*
X66182857Y47297620D01*
X66278095Y47250000D01*
X66325714Y47202381D01*
X66373333Y47107143D01*
X66373333Y47011905D01*
X66325714Y46869048D01*
X65754285Y46297620D01*
X66373333Y46297620D01*
%TO.C,J7*%
X52016666Y17097620D02*
X52016666Y16383334D01*
X51969047Y16240477D01*
X51873809Y16145239D01*
X51730952Y16097620D01*
X51635714Y16097620D01*
X52397619Y17097620D02*
X53064285Y17097620D01*
X52635714Y16097620D01*
%TO.C,RL4*%
X12428571Y77547620D02*
X12095238Y78023810D01*
X11857142Y77547620D02*
X11857142Y78547620D01*
X12238095Y78547620D01*
X12333333Y78500000D01*
X12380952Y78452381D01*
X12428571Y78357143D01*
X12428571Y78214286D01*
X12380952Y78119048D01*
X12333333Y78071429D01*
X12238095Y78023810D01*
X11857142Y78023810D01*
X13333333Y77547620D02*
X12857142Y77547620D01*
X12857142Y78547620D01*
X14095238Y78214286D02*
X14095238Y77547620D01*
X13857142Y78595239D02*
X13619047Y77880953D01*
X14238095Y77880953D01*
%TO.C,LED5*%
X75280952Y3147620D02*
X74804761Y3147620D01*
X74804761Y4147620D01*
X75614285Y3671429D02*
X75947619Y3671429D01*
X76090476Y3147620D02*
X75614285Y3147620D01*
X75614285Y4147620D01*
X76090476Y4147620D01*
X76519047Y3147620D02*
X76519047Y4147620D01*
X76757142Y4147620D01*
X76900000Y4100000D01*
X76995238Y4004762D01*
X77042857Y3909524D01*
X77090476Y3719048D01*
X77090476Y3576191D01*
X77042857Y3385715D01*
X76995238Y3290477D01*
X76900000Y3195239D01*
X76757142Y3147620D01*
X76519047Y3147620D01*
X77995238Y4147620D02*
X77519047Y4147620D01*
X77471428Y3671429D01*
X77519047Y3719048D01*
X77614285Y3766667D01*
X77852380Y3766667D01*
X77947619Y3719048D01*
X77995238Y3671429D01*
X78042857Y3576191D01*
X78042857Y3338096D01*
X77995238Y3242858D01*
X77947619Y3195239D01*
X77852380Y3147620D01*
X77614285Y3147620D01*
X77519047Y3195239D01*
X77471428Y3242858D01*
%TO.C,H3*%
X94988095Y8647620D02*
X94988095Y9647620D01*
X94988095Y9171429D02*
X95559523Y9171429D01*
X95559523Y8647620D02*
X95559523Y9647620D01*
X95940476Y9647620D02*
X96559523Y9647620D01*
X96226190Y9266667D01*
X96369047Y9266667D01*
X96464285Y9219048D01*
X96511904Y9171429D01*
X96559523Y9076191D01*
X96559523Y8838096D01*
X96511904Y8742858D01*
X96464285Y8695239D01*
X96369047Y8647620D01*
X96083333Y8647620D01*
X95988095Y8695239D01*
X95940476Y8742858D01*
%TO.C,JL3*%
X32211904Y83297620D02*
X32211904Y82583334D01*
X32164285Y82440477D01*
X32069047Y82345239D01*
X31926190Y82297620D01*
X31830952Y82297620D01*
X33164285Y82297620D02*
X32688095Y82297620D01*
X32688095Y83297620D01*
X33402380Y83297620D02*
X34021428Y83297620D01*
X33688095Y82916667D01*
X33830952Y82916667D01*
X33926190Y82869048D01*
X33973809Y82821429D01*
X34021428Y82726191D01*
X34021428Y82488096D01*
X33973809Y82392858D01*
X33926190Y82345239D01*
X33830952Y82297620D01*
X33545238Y82297620D01*
X33450000Y82345239D01*
X33402380Y82392858D01*
%TO.C,LED4*%
X14280952Y85847620D02*
X13804761Y85847620D01*
X13804761Y86847620D01*
X14614285Y86371429D02*
X14947619Y86371429D01*
X15090476Y85847620D02*
X14614285Y85847620D01*
X14614285Y86847620D01*
X15090476Y86847620D01*
X15519047Y85847620D02*
X15519047Y86847620D01*
X15757142Y86847620D01*
X15900000Y86800000D01*
X15995238Y86704762D01*
X16042857Y86609524D01*
X16090476Y86419048D01*
X16090476Y86276191D01*
X16042857Y86085715D01*
X15995238Y85990477D01*
X15900000Y85895239D01*
X15757142Y85847620D01*
X15519047Y85847620D01*
X16947619Y86514286D02*
X16947619Y85847620D01*
X16709523Y86895239D02*
X16471428Y86180953D01*
X17090476Y86180953D01*
%TO.C,RL2*%
X52428571Y77547620D02*
X52095238Y78023810D01*
X51857142Y77547620D02*
X51857142Y78547620D01*
X52238095Y78547620D01*
X52333333Y78500000D01*
X52380952Y78452381D01*
X52428571Y78357143D01*
X52428571Y78214286D01*
X52380952Y78119048D01*
X52333333Y78071429D01*
X52238095Y78023810D01*
X51857142Y78023810D01*
X53333333Y77547620D02*
X52857142Y77547620D01*
X52857142Y78547620D01*
X53619047Y78452381D02*
X53666666Y78500000D01*
X53761904Y78547620D01*
X54000000Y78547620D01*
X54095238Y78500000D01*
X54142857Y78452381D01*
X54190476Y78357143D01*
X54190476Y78261905D01*
X54142857Y78119048D01*
X53571428Y77547620D01*
X54190476Y77547620D01*
%TO.C,JP2*%
X3366666Y20397620D02*
X3366666Y19683334D01*
X3319047Y19540477D01*
X3223809Y19445239D01*
X3080952Y19397620D01*
X2985714Y19397620D01*
X3842857Y19397620D02*
X3842857Y20397620D01*
X4223809Y20397620D01*
X4319047Y20350000D01*
X4366666Y20302381D01*
X4414285Y20207143D01*
X4414285Y20064286D01*
X4366666Y19969048D01*
X4319047Y19921429D01*
X4223809Y19873810D01*
X3842857Y19873810D01*
X4795238Y20302381D02*
X4842857Y20350000D01*
X4938095Y20397620D01*
X5176190Y20397620D01*
X5271428Y20350000D01*
X5319047Y20302381D01*
X5366666Y20207143D01*
X5366666Y20111905D01*
X5319047Y19969048D01*
X4747619Y19397620D01*
X5366666Y19397620D01*
%TO.C,TVS8*%
X14613333Y23097620D02*
X15184761Y23097620D01*
X14899047Y22097620D02*
X14899047Y23097620D01*
X15375238Y23097620D02*
X15708571Y22097620D01*
X16041904Y23097620D01*
X16327619Y22145239D02*
X16470476Y22097620D01*
X16708571Y22097620D01*
X16803809Y22145239D01*
X16851428Y22192858D01*
X16899047Y22288096D01*
X16899047Y22383334D01*
X16851428Y22478572D01*
X16803809Y22526191D01*
X16708571Y22573810D01*
X16518095Y22621429D01*
X16422857Y22669048D01*
X16375238Y22716667D01*
X16327619Y22811905D01*
X16327619Y22907143D01*
X16375238Y23002381D01*
X16422857Y23050000D01*
X16518095Y23097620D01*
X16756190Y23097620D01*
X16899047Y23050000D01*
X17470476Y22669048D02*
X17375238Y22716667D01*
X17327619Y22764286D01*
X17280000Y22859524D01*
X17280000Y22907143D01*
X17327619Y23002381D01*
X17375238Y23050000D01*
X17470476Y23097620D01*
X17660952Y23097620D01*
X17756190Y23050000D01*
X17803809Y23002381D01*
X17851428Y22907143D01*
X17851428Y22859524D01*
X17803809Y22764286D01*
X17756190Y22716667D01*
X17660952Y22669048D01*
X17470476Y22669048D01*
X17375238Y22621429D01*
X17327619Y22573810D01*
X17280000Y22478572D01*
X17280000Y22288096D01*
X17327619Y22192858D01*
X17375238Y22145239D01*
X17470476Y22097620D01*
X17660952Y22097620D01*
X17756190Y22145239D01*
X17803809Y22192858D01*
X17851428Y22288096D01*
X17851428Y22478572D01*
X17803809Y22573810D01*
X17756190Y22621429D01*
X17660952Y22669048D01*
%TO.C,JL2*%
X52211904Y83297620D02*
X52211904Y82583334D01*
X52164285Y82440477D01*
X52069047Y82345239D01*
X51926190Y82297620D01*
X51830952Y82297620D01*
X53164285Y82297620D02*
X52688095Y82297620D01*
X52688095Y83297620D01*
X53450000Y83202381D02*
X53497619Y83250000D01*
X53592857Y83297620D01*
X53830952Y83297620D01*
X53926190Y83250000D01*
X53973809Y83202381D01*
X54021428Y83107143D01*
X54021428Y83011905D01*
X53973809Y82869048D01*
X53402380Y82297620D01*
X54021428Y82297620D01*
%TO.C,JCNTL2*%
X94807142Y39697620D02*
X94807142Y38983334D01*
X94759523Y38840477D01*
X94664285Y38745239D01*
X94521428Y38697620D01*
X94426190Y38697620D01*
X95854761Y38792858D02*
X95807142Y38745239D01*
X95664285Y38697620D01*
X95569047Y38697620D01*
X95426190Y38745239D01*
X95330952Y38840477D01*
X95283333Y38935715D01*
X95235714Y39126191D01*
X95235714Y39269048D01*
X95283333Y39459524D01*
X95330952Y39554762D01*
X95426190Y39650000D01*
X95569047Y39697620D01*
X95664285Y39697620D01*
X95807142Y39650000D01*
X95854761Y39602381D01*
X96283333Y38697620D02*
X96283333Y39697620D01*
X96854761Y38697620D01*
X96854761Y39697620D01*
X97188095Y39697620D02*
X97759523Y39697620D01*
X97473809Y38697620D02*
X97473809Y39697620D01*
X98569047Y38697620D02*
X98092857Y38697620D01*
X98092857Y39697620D01*
X98854761Y39602381D02*
X98902380Y39650000D01*
X98997619Y39697620D01*
X99235714Y39697620D01*
X99330952Y39650000D01*
X99378571Y39602381D01*
X99426190Y39507143D01*
X99426190Y39411905D01*
X99378571Y39269048D01*
X98807142Y38697620D01*
X99426190Y38697620D01*
%TO.C,HQ1*%
X83754285Y46297620D02*
X83754285Y47297620D01*
X83754285Y46821429D02*
X84325714Y46821429D01*
X84325714Y46297620D02*
X84325714Y47297620D01*
X85468571Y46202381D02*
X85373333Y46250000D01*
X85278095Y46345239D01*
X85135238Y46488096D01*
X85040000Y46535715D01*
X84944761Y46535715D01*
X84992380Y46297620D02*
X84897142Y46345239D01*
X84801904Y46440477D01*
X84754285Y46630953D01*
X84754285Y46964286D01*
X84801904Y47154762D01*
X84897142Y47250000D01*
X84992380Y47297620D01*
X85182857Y47297620D01*
X85278095Y47250000D01*
X85373333Y47154762D01*
X85420952Y46964286D01*
X85420952Y46630953D01*
X85373333Y46440477D01*
X85278095Y46345239D01*
X85182857Y46297620D01*
X84992380Y46297620D01*
X86373333Y46297620D02*
X85801904Y46297620D01*
X86087619Y46297620D02*
X86087619Y47297620D01*
X85992380Y47154762D01*
X85897142Y47059524D01*
X85801904Y47011905D01*
%TO.C,HQ8*%
X23754285Y42754620D02*
X23754285Y43754620D01*
X23754285Y43278429D02*
X24325714Y43278429D01*
X24325714Y42754620D02*
X24325714Y43754620D01*
X25468571Y42659381D02*
X25373333Y42707000D01*
X25278095Y42802239D01*
X25135238Y42945096D01*
X25040000Y42992715D01*
X24944761Y42992715D01*
X24992380Y42754620D02*
X24897142Y42802239D01*
X24801904Y42897477D01*
X24754285Y43087953D01*
X24754285Y43421286D01*
X24801904Y43611762D01*
X24897142Y43707000D01*
X24992380Y43754620D01*
X25182857Y43754620D01*
X25278095Y43707000D01*
X25373333Y43611762D01*
X25420952Y43421286D01*
X25420952Y43087953D01*
X25373333Y42897477D01*
X25278095Y42802239D01*
X25182857Y42754620D01*
X24992380Y42754620D01*
X25992380Y43326048D02*
X25897142Y43373667D01*
X25849523Y43421286D01*
X25801904Y43516524D01*
X25801904Y43564143D01*
X25849523Y43659381D01*
X25897142Y43707000D01*
X25992380Y43754620D01*
X26182857Y43754620D01*
X26278095Y43707000D01*
X26325714Y43659381D01*
X26373333Y43564143D01*
X26373333Y43516524D01*
X26325714Y43421286D01*
X26278095Y43373667D01*
X26182857Y43326048D01*
X25992380Y43326048D01*
X25897142Y43278429D01*
X25849523Y43230810D01*
X25801904Y43135572D01*
X25801904Y42945096D01*
X25849523Y42849858D01*
X25897142Y42802239D01*
X25992380Y42754620D01*
X26182857Y42754620D01*
X26278095Y42802239D01*
X26325714Y42849858D01*
X26373333Y42945096D01*
X26373333Y43135572D01*
X26325714Y43230810D01*
X26278095Y43278429D01*
X26182857Y43326048D01*
%TO.C,JL1*%
X71911904Y83597620D02*
X71911904Y82883334D01*
X71864285Y82740477D01*
X71769047Y82645239D01*
X71626190Y82597620D01*
X71530952Y82597620D01*
X72864285Y82597620D02*
X72388095Y82597620D01*
X72388095Y83597620D01*
X73721428Y82597620D02*
X73150000Y82597620D01*
X73435714Y82597620D02*
X73435714Y83597620D01*
X73340476Y83454762D01*
X73245238Y83359524D01*
X73150000Y83311905D01*
%TO.C,H2*%
X94988095Y80297620D02*
X94988095Y81297620D01*
X94988095Y80821429D02*
X95559523Y80821429D01*
X95559523Y80297620D02*
X95559523Y81297620D01*
X95988095Y81202381D02*
X96035714Y81250000D01*
X96130952Y81297620D01*
X96369047Y81297620D01*
X96464285Y81250000D01*
X96511904Y81202381D01*
X96559523Y81107143D01*
X96559523Y81011905D01*
X96511904Y80869048D01*
X95940476Y80297620D01*
X96559523Y80297620D01*
%TO.C,J6*%
X71966666Y17097620D02*
X71966666Y16383334D01*
X71919047Y16240477D01*
X71823809Y16145239D01*
X71680952Y16097620D01*
X71585714Y16097620D01*
X72871428Y17097620D02*
X72680952Y17097620D01*
X72585714Y17050000D01*
X72538095Y17002381D01*
X72442857Y16859524D01*
X72395238Y16669048D01*
X72395238Y16288096D01*
X72442857Y16192858D01*
X72490476Y16145239D01*
X72585714Y16097620D01*
X72776190Y16097620D01*
X72871428Y16145239D01*
X72919047Y16192858D01*
X72966666Y16288096D01*
X72966666Y16526191D01*
X72919047Y16621429D01*
X72871428Y16669048D01*
X72776190Y16716667D01*
X72585714Y16716667D01*
X72490476Y16669048D01*
X72442857Y16621429D01*
X72395238Y16526191D01*
%TO.C,TVS6*%
X54733333Y23097620D02*
X55304761Y23097620D01*
X55019047Y22097620D02*
X55019047Y23097620D01*
X55495238Y23097620D02*
X55828571Y22097620D01*
X56161904Y23097620D01*
X56447619Y22145239D02*
X56590476Y22097620D01*
X56828571Y22097620D01*
X56923809Y22145239D01*
X56971428Y22192858D01*
X57019047Y22288096D01*
X57019047Y22383334D01*
X56971428Y22478572D01*
X56923809Y22526191D01*
X56828571Y22573810D01*
X56638095Y22621429D01*
X56542857Y22669048D01*
X56495238Y22716667D01*
X56447619Y22811905D01*
X56447619Y22907143D01*
X56495238Y23002381D01*
X56542857Y23050000D01*
X56638095Y23097620D01*
X56876190Y23097620D01*
X57019047Y23050000D01*
X57876190Y23097620D02*
X57685714Y23097620D01*
X57590476Y23050000D01*
X57542857Y23002381D01*
X57447619Y22859524D01*
X57400000Y22669048D01*
X57400000Y22288096D01*
X57447619Y22192858D01*
X57495238Y22145239D01*
X57590476Y22097620D01*
X57780952Y22097620D01*
X57876190Y22145239D01*
X57923809Y22192858D01*
X57971428Y22288096D01*
X57971428Y22526191D01*
X57923809Y22621429D01*
X57876190Y22669048D01*
X57780952Y22716667D01*
X57590476Y22716667D01*
X57495238Y22669048D01*
X57447619Y22621429D01*
X57400000Y22526191D01*
%TO.C,TVS1*%
X73733333Y67947620D02*
X74304761Y67947620D01*
X74019047Y66947620D02*
X74019047Y67947620D01*
X74495238Y67947620D02*
X74828571Y66947620D01*
X75161904Y67947620D01*
X75447619Y66995239D02*
X75590476Y66947620D01*
X75828571Y66947620D01*
X75923809Y66995239D01*
X75971428Y67042858D01*
X76019047Y67138096D01*
X76019047Y67233334D01*
X75971428Y67328572D01*
X75923809Y67376191D01*
X75828571Y67423810D01*
X75638095Y67471429D01*
X75542857Y67519048D01*
X75495238Y67566667D01*
X75447619Y67661905D01*
X75447619Y67757143D01*
X75495238Y67852381D01*
X75542857Y67900000D01*
X75638095Y67947620D01*
X75876190Y67947620D01*
X76019047Y67900000D01*
X76971428Y66947620D02*
X76400000Y66947620D01*
X76685714Y66947620D02*
X76685714Y67947620D01*
X76590476Y67804762D01*
X76495238Y67709524D01*
X76400000Y67661905D01*
%TO.C,RL5*%
X73328571Y11547620D02*
X72995238Y12023810D01*
X72757142Y11547620D02*
X72757142Y12547620D01*
X73138095Y12547620D01*
X73233333Y12500000D01*
X73280952Y12452381D01*
X73328571Y12357143D01*
X73328571Y12214286D01*
X73280952Y12119048D01*
X73233333Y12071429D01*
X73138095Y12023810D01*
X72757142Y12023810D01*
X74233333Y11547620D02*
X73757142Y11547620D01*
X73757142Y12547620D01*
X75042857Y12547620D02*
X74566666Y12547620D01*
X74519047Y12071429D01*
X74566666Y12119048D01*
X74661904Y12166667D01*
X74900000Y12166667D01*
X74995238Y12119048D01*
X75042857Y12071429D01*
X75090476Y11976191D01*
X75090476Y11738096D01*
X75042857Y11642858D01*
X74995238Y11595239D01*
X74900000Y11547620D01*
X74661904Y11547620D01*
X74566666Y11595239D01*
X74519047Y11642858D01*
D10*
%TO.C,RP4*%
X28530000Y65975000D02*
X28530000Y64925000D01*
D14*
X27316750Y64180000D02*
G75*
G03*
X27316750Y64180000I-56750J0D01*
G01*
D15*
%TO.C,JL4*%
X15085000Y81608276D02*
X15085000Y81695000D01*
X15960000Y81394493D02*
X15960000Y81695000D01*
X15085000Y80305000D02*
X15085000Y80391724D01*
X15960000Y80305000D02*
X15960000Y80605507D01*
X15085000Y80305000D02*
X15960000Y80305000D01*
X13715000Y80305000D02*
X13715000Y81000000D01*
X14400000Y80305000D02*
X13715000Y80305000D01*
X15085000Y81695000D02*
X15960000Y81695000D01*
D16*
%TO.C,JPWR2*%
X18550000Y64300000D02*
X13700000Y64300000D01*
X350000Y48800000D02*
X350000Y64300000D01*
X18550000Y48800000D02*
X18550000Y50850000D01*
X13700000Y48800000D02*
X18550000Y48800000D01*
X9700000Y48800000D02*
X350000Y48800000D01*
X18550000Y61950000D02*
X18550000Y64300000D01*
X350000Y64300000D02*
X9700000Y64300000D01*
D12*
X16850000Y48050000D02*
G75*
G03*
X16850000Y48050000I-150000J0D01*
G01*
D15*
%TO.C,JP1*%
X10900000Y22150000D02*
X10900000Y22750000D01*
X13000000Y21450000D02*
X11600000Y21450000D01*
X11600000Y23450000D02*
X13000000Y23450000D01*
X13700000Y22750000D02*
X13700000Y22150000D01*
X10900000Y22150000D02*
G75*
G03*
X11600000Y21450000I700000J0D01*
G01*
X13000000Y21450000D02*
G75*
G03*
X13700000Y22150000I1J699999D01*
G01*
X11600000Y23450000D02*
G75*
G03*
X10900000Y22750000I0J-700000D01*
G01*
X13700000Y22750000D02*
G75*
G03*
X13000000Y23450000I-699999J1D01*
G01*
D10*
%TO.C,RL1*%
X74875000Y78000000D02*
X75925000Y78000000D01*
D14*
X76726750Y76730000D02*
G75*
G03*
X76726750Y76730000I-56750J0D01*
G01*
D10*
%TO.C,J3*%
X50900000Y74750000D02*
X50900000Y74750000D01*
X50330000Y89650000D02*
X50330000Y71850000D01*
X50330000Y71850000D02*
X38830000Y71850000D01*
X50800000Y74750000D02*
X50800000Y74750000D01*
X38830000Y89650000D02*
X50330000Y89650000D01*
X38830000Y71850000D02*
X38830000Y89650000D01*
X50900000Y74750000D02*
X50900000Y74750000D01*
X50900000Y74750000D02*
G75*
G03*
X50800000Y74750000I-50000J0D01*
G01*
X50800000Y74750000D02*
G75*
G03*
X50900000Y74750000I50000J0D01*
G01*
X50900000Y74750000D02*
G75*
G03*
X50800000Y74750000I-50000J0D01*
G01*
%TO.C,RP6*%
X61550000Y24025000D02*
X61550000Y25075000D01*
D14*
X62876750Y25820000D02*
G75*
G03*
X62876750Y25820000I-56750J0D01*
G01*
D10*
%TO.C,LED1*%
X74600000Y85525000D02*
X74600000Y83250000D01*
X76200000Y85525000D02*
X74600000Y85525000D01*
X76200000Y83250000D02*
X76200000Y85525000D01*
%TO.C,J8*%
X31250000Y350000D02*
X19750000Y350000D01*
X19180000Y15250000D02*
X19180000Y15250000D01*
X19180000Y15250000D02*
X19180000Y15250000D01*
X31250000Y18150000D02*
X31250000Y350000D01*
X19280000Y15250000D02*
X19280000Y15250000D01*
X19750000Y350000D02*
X19750000Y18150000D01*
X19750000Y18150000D02*
X31250000Y18150000D01*
X19180000Y15250000D02*
G75*
G03*
X19280000Y15250000I50000J0D01*
G01*
X19180000Y15250000D02*
G75*
G03*
X19280000Y15250000I50000J0D01*
G01*
X19280000Y15250000D02*
G75*
G03*
X19180000Y15250000I-50000J0D01*
G01*
D15*
%TO.C,JL5*%
X76085000Y9608276D02*
X76085000Y9695000D01*
X75400000Y8305000D02*
X74715000Y8305000D01*
X76960000Y9394493D02*
X76960000Y9695000D01*
X76085000Y9695000D02*
X76960000Y9695000D01*
X74715000Y8305000D02*
X74715000Y9000000D01*
X76085000Y8305000D02*
X76960000Y8305000D01*
X76960000Y8305000D02*
X76960000Y8605507D01*
X76085000Y8305000D02*
X76085000Y8391724D01*
D10*
%TO.C,J5*%
X79750000Y18150000D02*
X91250000Y18150000D01*
X79280000Y15250000D02*
X79280000Y15250000D01*
X79180000Y15250000D02*
X79180000Y15250000D01*
X91250000Y18150000D02*
X91250000Y350000D01*
X91250000Y350000D02*
X79750000Y350000D01*
X79750000Y350000D02*
X79750000Y18150000D01*
X79180000Y15250000D02*
X79180000Y15250000D01*
X79180000Y15250000D02*
G75*
G03*
X79280000Y15250000I50000J0D01*
G01*
X79280000Y15250000D02*
G75*
G03*
X79180000Y15250000I-50000J0D01*
G01*
X79180000Y15250000D02*
G75*
G03*
X79280000Y15250000I50000J0D01*
G01*
%TO.C,JCNTL1*%
X94405000Y51650000D02*
X94405000Y64350000D01*
X99735000Y51650000D02*
X94405000Y51650000D01*
X99735000Y51650000D02*
X99735000Y64350000D01*
X94405000Y64350000D02*
X99735000Y64350000D01*
X93870000Y64350000D02*
G75*
G03*
X93870000Y64350000I-100000J0D01*
G01*
%TO.C,RP7*%
X41550000Y24025000D02*
X41550000Y25075000D01*
D14*
X42876750Y25820000D02*
G75*
G03*
X42876750Y25820000I-56750J0D01*
G01*
D10*
%TO.C,R1*%
X8450000Y22975000D02*
X8450000Y21925000D01*
D14*
X7236750Y21180000D02*
G75*
G03*
X7236750Y21180000I-56750J0D01*
G01*
D10*
%TO.C,RP3*%
X48530000Y65975000D02*
X48530000Y64925000D01*
D14*
X47316750Y64180000D02*
G75*
G03*
X47316750Y64180000I-56750J0D01*
G01*
D10*
%TO.C,TVS2*%
X57212000Y69875000D02*
X57212000Y75225000D01*
X53588000Y69875000D02*
X53588000Y75225000D01*
%TO.C,RP2*%
X68530000Y65975000D02*
X68530000Y64925000D01*
D14*
X67316750Y64180000D02*
G75*
G03*
X67316750Y64180000I-56750J0D01*
G01*
D10*
%TO.C,LED6*%
X55600000Y6750000D02*
X55600000Y4475000D01*
X57200000Y4475000D02*
X57200000Y6750000D01*
X55600000Y4475000D02*
X57200000Y4475000D01*
%TO.C,LED7*%
X35600000Y4475000D02*
X37200000Y4475000D01*
X35600000Y6750000D02*
X35600000Y4475000D01*
X37200000Y4475000D02*
X37200000Y6750000D01*
%TO.C,RL7*%
X36925000Y12000000D02*
X35875000Y12000000D01*
D14*
X35186750Y13270000D02*
G75*
G03*
X35186750Y13270000I-56750J0D01*
G01*
D10*
%TO.C,TVSP1*%
X15025000Y43188000D02*
X9675000Y43188000D01*
X15025000Y46812000D02*
X9675000Y46812000D01*
%TO.C,RP1*%
X88530000Y65975000D02*
X88530000Y64925000D01*
D14*
X87316750Y64180000D02*
G75*
G03*
X87316750Y64180000I-56750J0D01*
G01*
D10*
%TO.C,J1*%
X90330000Y89650000D02*
X90330000Y71850000D01*
X78830000Y71850000D02*
X78830000Y89650000D01*
X90900000Y74750000D02*
X90900000Y74750000D01*
X90800000Y74750000D02*
X90800000Y74750000D01*
X78830000Y89650000D02*
X90330000Y89650000D01*
X90900000Y74750000D02*
X90900000Y74750000D01*
X90330000Y71850000D02*
X78830000Y71850000D01*
X90900000Y74750000D02*
G75*
G03*
X90800000Y74750000I-50000J0D01*
G01*
X90900000Y74750000D02*
G75*
G03*
X90800000Y74750000I-50000J0D01*
G01*
X90800000Y74750000D02*
G75*
G03*
X90900000Y74750000I50000J0D01*
G01*
D15*
%TO.C,JL8*%
X16940000Y9394493D02*
X16940000Y9695000D01*
X15380000Y8305000D02*
X14695000Y8305000D01*
X16065000Y9608276D02*
X16065000Y9695000D01*
X16065000Y8305000D02*
X16065000Y8391724D01*
X16065000Y8305000D02*
X16940000Y8305000D01*
X16065000Y9695000D02*
X16940000Y9695000D01*
X16940000Y8305000D02*
X16940000Y8605507D01*
X14695000Y8305000D02*
X14695000Y9000000D01*
D10*
%TO.C,LED8*%
X17180000Y4475000D02*
X17180000Y6750000D01*
X15580000Y6750000D02*
X15580000Y4475000D01*
X15580000Y4475000D02*
X17180000Y4475000D01*
%TO.C,TVS5*%
X74588000Y20125000D02*
X74588000Y14775000D01*
X78212000Y20125000D02*
X78212000Y14775000D01*
%TO.C,J2*%
X70800000Y74750000D02*
X70800000Y74750000D01*
X70330000Y89650000D02*
X70330000Y71850000D01*
X70900000Y74750000D02*
X70900000Y74750000D01*
X70900000Y74750000D02*
X70900000Y74750000D01*
X70330000Y71850000D02*
X58830000Y71850000D01*
X58830000Y89650000D02*
X70330000Y89650000D01*
X58830000Y71850000D02*
X58830000Y89650000D01*
X70900000Y74750000D02*
G75*
G03*
X70800000Y74750000I-50000J0D01*
G01*
X70900000Y74750000D02*
G75*
G03*
X70800000Y74750000I-50000J0D01*
G01*
X70800000Y74750000D02*
G75*
G03*
X70900000Y74750000I50000J0D01*
G01*
%TO.C,LED3*%
X36200000Y85525000D02*
X34600000Y85525000D01*
X36200000Y83250000D02*
X36200000Y85525000D01*
X34600000Y85525000D02*
X34600000Y83250000D01*
%TO.C,RP5*%
X81550000Y24025000D02*
X81550000Y25075000D01*
D14*
X82876750Y25820000D02*
G75*
G03*
X82876750Y25820000I-56750J0D01*
G01*
D10*
%TO.C,J4*%
X18830000Y89650000D02*
X30330000Y89650000D01*
X30800000Y74750000D02*
X30800000Y74750000D01*
X18830000Y71850000D02*
X18830000Y89650000D01*
X30330000Y89650000D02*
X30330000Y71850000D01*
X30900000Y74750000D02*
X30900000Y74750000D01*
X30900000Y74750000D02*
X30900000Y74750000D01*
X30330000Y71850000D02*
X18830000Y71850000D01*
X30800000Y74750000D02*
G75*
G03*
X30900000Y74750000I50000J0D01*
G01*
X30900000Y74750000D02*
G75*
G03*
X30800000Y74750000I-50000J0D01*
G01*
X30900000Y74750000D02*
G75*
G03*
X30800000Y74750000I-50000J0D01*
G01*
%TO.C,TVS4*%
X17212000Y69875000D02*
X17212000Y75225000D01*
X13588000Y69875000D02*
X13588000Y75225000D01*
D11*
%TO.C,#LOGO_CC*%
X32200920Y43600460D02*
X32000260Y44298960D01*
X29800620Y43699520D02*
X30199400Y42599700D01*
X37301240Y43001020D02*
X37900680Y42901960D01*
X33999240Y47499360D02*
X33501400Y47397760D01*
X38002280Y42401580D02*
X38401060Y42401580D01*
X32002800Y43801120D02*
X32401580Y43801120D01*
X37501900Y46899920D02*
X36800860Y46600200D01*
X34502160Y42800360D02*
X34801880Y42901960D01*
X29599960Y44900940D02*
X29800620Y43699520D01*
X31598940Y44601220D02*
X31700540Y44100840D01*
X34298960Y42299980D02*
X34700280Y42399040D01*
X38700780Y42899420D02*
X38799840Y42599700D01*
X36800860Y46600200D02*
X36300480Y46000760D01*
X34801880Y42599700D02*
X34702820Y42401580D01*
X34400560Y47499360D02*
X33999240Y47499360D01*
X31700540Y49201160D02*
X30999500Y48599180D01*
X35502920Y44502160D02*
X35601980Y43900180D01*
X34499620Y50400040D02*
X33699520Y50100320D01*
X32703840Y43501400D02*
X33204220Y43100080D01*
X35701040Y45299720D02*
X36000760Y46000760D01*
X39699000Y47499360D02*
X38401060Y49099560D01*
X32399040Y40199400D02*
X33699520Y39699020D01*
X32101860Y43501400D02*
X32503180Y43001020D01*
X36000760Y43300740D02*
X36501140Y42800360D01*
X37999740Y47400300D02*
X38299460Y47301240D01*
X37402840Y47400300D02*
X37001520Y47202180D01*
X31901200Y45000000D02*
X32000260Y45599440D01*
X34700280Y42399040D02*
X34799340Y42899420D01*
X33600460Y46897380D02*
X33100080Y46597660D01*
X34601220Y46998980D02*
X34100840Y46998980D01*
X32200920Y44799340D02*
X32401580Y43999240D01*
X34103380Y42800360D02*
X34502160Y42800360D01*
X33402340Y42701300D02*
X32703840Y43201680D01*
X32500640Y46699260D02*
X32299980Y46600200D01*
X34100840Y46998980D02*
X33600460Y46897380D01*
X32800360Y46699260D02*
X33300740Y46998980D01*
X40001260Y43199140D02*
X40400040Y44700280D01*
X32302520Y43999240D02*
X32602240Y43600460D01*
X36102360Y46600200D02*
X35802640Y46099820D01*
X32000260Y45800100D02*
X32299980Y46300480D01*
X35802640Y44301500D02*
X35701040Y45299720D01*
X36501140Y47001520D02*
X36102360Y46600200D01*
X32599700Y46300480D02*
X32299980Y45800100D01*
X33699520Y50100320D02*
X33001020Y49899660D01*
X38002280Y47100580D02*
X38101340Y46899920D01*
X33501400Y47397760D02*
X32899420Y47098040D01*
X32503180Y43001020D02*
X33102620Y42599700D01*
X32401580Y46600200D02*
X31901200Y45899160D01*
X33702060Y42901960D02*
X34103380Y42800360D01*
X36300480Y43801120D02*
X36701800Y43300740D01*
X36201420Y43399800D02*
X35802640Y44301500D01*
X29998740Y47100580D02*
X29699020Y46099820D01*
X37100580Y42500640D02*
X37600960Y42401580D01*
X35601980Y43900180D02*
X36000760Y43300740D01*
X36501140Y42800360D02*
X37100580Y42500640D01*
X38401060Y49099560D02*
X37400300Y49800600D01*
X36602740Y46701800D02*
X37301240Y47100580D01*
X37301240Y47100580D02*
X38002280Y47100580D01*
X31901200Y45899160D02*
X31700540Y45299720D01*
X35099060Y39699020D02*
X36600200Y39800620D01*
X33803660Y42401580D02*
X34304040Y42299980D01*
X38299460Y47301240D02*
X38098800Y46998980D01*
X33001020Y49899660D02*
X32299980Y49699000D01*
X31700540Y45299720D02*
X31700540Y44598680D01*
X29699020Y46099820D02*
X29599960Y44900940D01*
X30199400Y42599700D02*
X31200160Y41101100D01*
X37600960Y42401580D02*
X38002280Y42401580D01*
X34801880Y42901960D02*
X34702820Y42599700D01*
X37801620Y42599700D02*
X36800860Y42901960D01*
X38401060Y42901960D02*
X38700780Y43001020D01*
X31700540Y45500380D02*
X31598940Y44601220D01*
X33699520Y39699020D02*
X35099060Y39699020D01*
X36300480Y46000760D02*
X36000760Y45401320D01*
X34103380Y42500640D02*
X33402340Y42701300D01*
X40199380Y46399540D02*
X39699000Y47499360D01*
X33102620Y42599700D02*
X33803660Y42401580D01*
X36800860Y42901960D02*
X36201420Y43399800D01*
X32299980Y49699000D02*
X31700540Y49201160D01*
X33300740Y46998980D02*
X33801120Y47199640D01*
X36399540Y50199380D02*
X35000000Y50300980D01*
X32200920Y45299720D02*
X32200920Y44799340D01*
X35000000Y50400040D02*
X34499620Y50400040D01*
X35802640Y46099820D02*
X35601980Y45701040D01*
X30499120Y47999740D02*
X29998740Y47100580D01*
X34700280Y47199640D02*
X34799340Y47397760D01*
X33100080Y46597660D02*
X32599700Y46198880D01*
X32299980Y45800100D02*
X32200920Y45299720D01*
X36000760Y44900940D02*
X36000760Y44301500D01*
X38002280Y47400300D02*
X37402840Y47400300D01*
X33801120Y47199640D02*
X34301500Y47199640D01*
X30999500Y48599180D02*
X30499120Y47999740D01*
X32703840Y43201680D02*
X32203460Y43702060D01*
X34301500Y47199640D02*
X34700280Y47199640D01*
X31901200Y46000760D02*
X31700540Y45500380D01*
X37600960Y40301000D02*
X39201160Y41598940D01*
X40400040Y44700280D02*
X40199380Y46399540D01*
X33204220Y43100080D02*
X33702060Y42901960D01*
X32899420Y47098040D02*
X32401580Y46699260D01*
X35601980Y45701040D02*
X35502920Y45200660D01*
X38700780Y42701300D02*
X37801620Y42599700D01*
X31700540Y44598680D02*
X31799600Y43999240D01*
X38101340Y46899920D02*
X37501900Y46899920D01*
X32299980Y46600200D02*
X31901200Y46000760D01*
X36701800Y43300740D02*
X37301240Y43001020D01*
X36000760Y45401320D02*
X36000760Y44900940D01*
X37900680Y42901960D02*
X38401060Y42901960D01*
X39201160Y41598940D02*
X40001260Y43199140D01*
X35502920Y45200660D02*
X35502920Y44502160D01*
X36000760Y44301500D02*
X36300480Y43801120D01*
X36000760Y46000760D02*
X36602740Y46701800D01*
X37001520Y47202180D02*
X36501140Y47001520D01*
X32299980Y46099820D02*
X32800360Y46600200D01*
X32000260Y44298960D02*
X31901200Y45000000D01*
X37400300Y49800600D02*
X36399540Y50199380D01*
X36600200Y39800620D02*
X37600960Y40301000D01*
X38802380Y42500640D02*
X38700780Y42701300D01*
X31700540Y44199900D02*
X32000260Y43600460D01*
X31200160Y41101100D02*
X32399040Y40199400D01*
X34799340Y47397760D02*
X34400560Y47499360D01*
X38401060Y42401580D02*
X38802380Y42500640D01*
X34702820Y42599700D02*
X34103380Y42500640D01*
X40180604Y45000000D02*
G75*
G03*
X40180604Y45000000I-5180604J0D01*
G01*
X40588000Y45000000D02*
G75*
G03*
X40588000Y45000000I-5588000J0D01*
G01*
D15*
%TO.C,JL7*%
X35400000Y8305000D02*
X34715000Y8305000D01*
X36085000Y9695000D02*
X36960000Y9695000D01*
X36960000Y9394493D02*
X36960000Y9695000D01*
X36960000Y8305000D02*
X36960000Y8605507D01*
X36085000Y9608276D02*
X36085000Y9695000D01*
X36085000Y8305000D02*
X36085000Y8391724D01*
X36085000Y8305000D02*
X36960000Y8305000D01*
X34715000Y8305000D02*
X34715000Y9000000D01*
%TO.C,#LOGO_OSHW1*%
G36*
X75746535Y50366828D02*
G01*
X75859117Y49769637D01*
X76274531Y49598390D01*
X76689944Y49427143D01*
X77188302Y49766022D01*
X77327868Y49860378D01*
X77454028Y49944625D01*
X77560895Y50014917D01*
X77642582Y50067408D01*
X77693201Y50098251D01*
X77706986Y50104902D01*
X77731820Y50087797D01*
X77784888Y50040511D01*
X77860240Y49969083D01*
X77951929Y49879555D01*
X78054007Y49777966D01*
X78160526Y49670357D01*
X78265536Y49562768D01*
X78363091Y49461240D01*
X78447242Y49371814D01*
X78512040Y49300529D01*
X78551538Y49253427D01*
X78560980Y49237663D01*
X78547391Y49208602D01*
X78509293Y49144934D01*
X78450694Y49052888D01*
X78375597Y48938691D01*
X78288009Y48808571D01*
X78237254Y48734354D01*
X78144745Y48598833D01*
X78062540Y48476539D01*
X77994630Y48373560D01*
X77945000Y48295982D01*
X77917640Y48249894D01*
X77913529Y48240208D01*
X77922849Y48212681D01*
X77948254Y48148527D01*
X77985911Y48056765D01*
X78031986Y47946416D01*
X78082646Y47826500D01*
X78134059Y47706036D01*
X78182389Y47594046D01*
X78223806Y47499548D01*
X78254474Y47431563D01*
X78270562Y47399112D01*
X78271511Y47397835D01*
X78296772Y47391638D01*
X78364046Y47377815D01*
X78466360Y47357723D01*
X78596741Y47332721D01*
X78748216Y47304169D01*
X78836594Y47287704D01*
X78998452Y47256886D01*
X79144649Y47227561D01*
X79267787Y47201334D01*
X79360469Y47179809D01*
X79415301Y47164590D01*
X79426323Y47159762D01*
X79437119Y47127081D01*
X79445829Y47053270D01*
X79452460Y46946963D01*
X79457018Y46816788D01*
X79459509Y46671379D01*
X79459938Y46519365D01*
X79458311Y46369378D01*
X79454635Y46230049D01*
X79448915Y46110010D01*
X79441158Y46017890D01*
X79431368Y45962323D01*
X79425496Y45950755D01*
X79390399Y45936890D01*
X79316028Y45917067D01*
X79212223Y45893616D01*
X79088819Y45868864D01*
X79045741Y45860857D01*
X78838047Y45822814D01*
X78673984Y45792176D01*
X78548130Y45767726D01*
X78455065Y45748246D01*
X78389367Y45732519D01*
X78345617Y45719327D01*
X78318392Y45707451D01*
X78302272Y45695675D01*
X78300017Y45693347D01*
X78277503Y45655855D01*
X78243158Y45582890D01*
X78200411Y45483388D01*
X78152692Y45366282D01*
X78103430Y45240507D01*
X78056055Y45114998D01*
X78013995Y44998690D01*
X77980680Y44900516D01*
X77959541Y44829412D01*
X77954005Y44794313D01*
X77954466Y44793083D01*
X77973223Y44764394D01*
X78015776Y44701270D01*
X78077653Y44610282D01*
X78154382Y44498000D01*
X78241491Y44370995D01*
X78266299Y44334902D01*
X78354753Y44204052D01*
X78432588Y44084664D01*
X78495566Y43983593D01*
X78539445Y43907696D01*
X78559985Y43863828D01*
X78560980Y43858438D01*
X78543722Y43830111D01*
X78496036Y43773994D01*
X78424050Y43696118D01*
X78333897Y43602515D01*
X78231705Y43499214D01*
X78123606Y43392249D01*
X78015728Y43287649D01*
X77914204Y43191446D01*
X77825162Y43109671D01*
X77754733Y43048355D01*
X77709047Y43013529D01*
X77696409Y43007843D01*
X77666991Y43021235D01*
X77606761Y43057356D01*
X77525530Y43110119D01*
X77463030Y43152588D01*
X77349785Y43230515D01*
X77215674Y43322271D01*
X77081155Y43413880D01*
X77008833Y43462909D01*
X76764038Y43628485D01*
X76558551Y43517380D01*
X76464936Y43468707D01*
X76385330Y43430874D01*
X76331467Y43409297D01*
X76317757Y43406294D01*
X76301270Y43428462D01*
X76268745Y43491106D01*
X76222609Y43588446D01*
X76165290Y43714706D01*
X76099216Y43864105D01*
X76026815Y44030867D01*
X75950516Y44209213D01*
X75872746Y44393364D01*
X75795934Y44577543D01*
X75722506Y44755970D01*
X75654892Y44922868D01*
X75595520Y45072458D01*
X75546816Y45198962D01*
X75511210Y45296601D01*
X75491130Y45359598D01*
X75487900Y45381234D01*
X75513496Y45408831D01*
X75569539Y45453630D01*
X75644311Y45506321D01*
X75650587Y45510490D01*
X75843845Y45665186D01*
X75999674Y45845664D01*
X76116724Y46046153D01*
X76193645Y46260881D01*
X76229086Y46484078D01*
X76221697Y46709974D01*
X76170127Y46932796D01*
X76073026Y47146776D01*
X76044458Y47193591D01*
X75895868Y47382637D01*
X75720327Y47534443D01*
X75523910Y47648221D01*
X75312693Y47723180D01*
X75092753Y47758533D01*
X74870163Y47753488D01*
X74651001Y47707256D01*
X74441342Y47619049D01*
X74247261Y47488076D01*
X74187226Y47434918D01*
X74034435Y47268516D01*
X73923097Y47093343D01*
X73846723Y46896989D01*
X73804187Y46702538D01*
X73793686Y46483913D01*
X73828701Y46264203D01*
X73905673Y46050835D01*
X74021047Y45851233D01*
X74171266Y45672826D01*
X74352773Y45523038D01*
X74376627Y45507249D01*
X74452201Y45455543D01*
X74509651Y45410743D01*
X74537117Y45382138D01*
X74537517Y45381234D01*
X74531620Y45350291D01*
X74508245Y45280064D01*
X74469821Y45176330D01*
X74418777Y45044865D01*
X74357542Y44891448D01*
X74288544Y44721854D01*
X74214214Y44541862D01*
X74136978Y44357247D01*
X74059268Y44173787D01*
X73983511Y43997259D01*
X73912137Y43833441D01*
X73847574Y43688108D01*
X73792252Y43567038D01*
X73748600Y43476008D01*
X73719046Y43420795D01*
X73707144Y43406294D01*
X73670777Y43417586D01*
X73602730Y43447870D01*
X73514737Y43491735D01*
X73466351Y43517380D01*
X73260863Y43628485D01*
X73016068Y43462909D01*
X72891106Y43378085D01*
X72754295Y43284739D01*
X72626089Y43196847D01*
X72561871Y43152588D01*
X72471551Y43091937D01*
X72395071Y43043874D01*
X72342407Y43014485D01*
X72325302Y43008273D01*
X72300405Y43025032D01*
X72245305Y43071819D01*
X72165343Y43143775D01*
X72065861Y43236043D01*
X71952200Y43343765D01*
X71880315Y43412929D01*
X71754551Y43536498D01*
X71645863Y43647021D01*
X71558645Y43739770D01*
X71497289Y43810018D01*
X71466191Y43853035D01*
X71463208Y43861765D01*
X71477053Y43894971D01*
X71515312Y43962113D01*
X71573742Y44056392D01*
X71648097Y44171010D01*
X71734135Y44299172D01*
X71758603Y44334902D01*
X71847755Y44464766D01*
X71927738Y44581686D01*
X71994080Y44679093D01*
X72042311Y44750416D01*
X72067957Y44789085D01*
X72070435Y44793083D01*
X72066729Y44823900D01*
X72047061Y44891656D01*
X72014860Y44987416D01*
X71973555Y45102246D01*
X71926575Y45227211D01*
X71877349Y45353376D01*
X71829308Y45471807D01*
X71785881Y45573570D01*
X71750496Y45649729D01*
X71726584Y45691351D01*
X71724884Y45693347D01*
X71710262Y45705242D01*
X71685565Y45717005D01*
X71645372Y45729854D01*
X71584263Y45745006D01*
X71496817Y45763679D01*
X71377612Y45787090D01*
X71221227Y45816458D01*
X71022243Y45853000D01*
X70979160Y45860857D01*
X70851471Y45885528D01*
X70740153Y45909662D01*
X70655045Y45930931D01*
X70605983Y45947007D01*
X70599405Y45950755D01*
X70588564Y45983982D01*
X70579753Y46058234D01*
X70572976Y46164879D01*
X70568240Y46295288D01*
X70565550Y46440828D01*
X70564913Y46592869D01*
X70566334Y46742779D01*
X70569820Y46881927D01*
X70575376Y47001683D01*
X70583008Y47093414D01*
X70592722Y47148489D01*
X70598578Y47159762D01*
X70631180Y47171132D01*
X70705418Y47189631D01*
X70813896Y47213653D01*
X70949217Y47241593D01*
X71103985Y47271847D01*
X71188308Y47287704D01*
X71348296Y47317611D01*
X71490967Y47344705D01*
X71609348Y47367624D01*
X71696465Y47385012D01*
X71745345Y47395508D01*
X71753390Y47397835D01*
X71766987Y47424069D01*
X71795729Y47487260D01*
X71835785Y47578378D01*
X71883324Y47688398D01*
X71934515Y47808290D01*
X71985526Y47929028D01*
X72032526Y48041584D01*
X72071684Y48136929D01*
X72099169Y48206038D01*
X72111149Y48239881D01*
X72111372Y48241360D01*
X72097791Y48268058D01*
X72059715Y48329495D01*
X72001147Y48419566D01*
X71926088Y48532165D01*
X71838540Y48661185D01*
X71787647Y48735294D01*
X71694909Y48871178D01*
X71612541Y48994546D01*
X71544561Y49099158D01*
X71494988Y49178772D01*
X71467842Y49227148D01*
X71463921Y49237993D01*
X71480775Y49263235D01*
X71527368Y49317131D01*
X71597749Y49393642D01*
X71685965Y49486732D01*
X71786065Y49590360D01*
X71892098Y49698491D01*
X71998111Y49805085D01*
X72098152Y49904105D01*
X72186270Y49989513D01*
X72256513Y50055270D01*
X72302928Y50095339D01*
X72318456Y50104902D01*
X72343739Y50091455D01*
X72404211Y50053680D01*
X72493992Y49995420D01*
X72607203Y49920521D01*
X72737964Y49832830D01*
X72836600Y49766022D01*
X73334957Y49427143D01*
X73750371Y49598390D01*
X74165784Y49769637D01*
X74278366Y50366828D01*
X74390949Y50964020D01*
X75633952Y50964020D01*
X75746535Y50366828D01*
G37*
D17*
X75746535Y50366828D02*
X75859117Y49769637D01*
X76274531Y49598390D01*
X76689944Y49427143D01*
X77188302Y49766022D01*
X77327868Y49860378D01*
X77454028Y49944625D01*
X77560895Y50014917D01*
X77642582Y50067408D01*
X77693201Y50098251D01*
X77706986Y50104902D01*
X77731820Y50087797D01*
X77784888Y50040511D01*
X77860240Y49969083D01*
X77951929Y49879555D01*
X78054007Y49777966D01*
X78160526Y49670357D01*
X78265536Y49562768D01*
X78363091Y49461240D01*
X78447242Y49371814D01*
X78512040Y49300529D01*
X78551538Y49253427D01*
X78560980Y49237663D01*
X78547391Y49208602D01*
X78509293Y49144934D01*
X78450694Y49052888D01*
X78375597Y48938691D01*
X78288009Y48808571D01*
X78237254Y48734354D01*
X78144745Y48598833D01*
X78062540Y48476539D01*
X77994630Y48373560D01*
X77945000Y48295982D01*
X77917640Y48249894D01*
X77913529Y48240208D01*
X77922849Y48212681D01*
X77948254Y48148527D01*
X77985911Y48056765D01*
X78031986Y47946416D01*
X78082646Y47826500D01*
X78134059Y47706036D01*
X78182389Y47594046D01*
X78223806Y47499548D01*
X78254474Y47431563D01*
X78270562Y47399112D01*
X78271511Y47397835D01*
X78296772Y47391638D01*
X78364046Y47377815D01*
X78466360Y47357723D01*
X78596741Y47332721D01*
X78748216Y47304169D01*
X78836594Y47287704D01*
X78998452Y47256886D01*
X79144649Y47227561D01*
X79267787Y47201334D01*
X79360469Y47179809D01*
X79415301Y47164590D01*
X79426323Y47159762D01*
X79437119Y47127081D01*
X79445829Y47053270D01*
X79452460Y46946963D01*
X79457018Y46816788D01*
X79459509Y46671379D01*
X79459938Y46519365D01*
X79458311Y46369378D01*
X79454635Y46230049D01*
X79448915Y46110010D01*
X79441158Y46017890D01*
X79431368Y45962323D01*
X79425496Y45950755D01*
X79390399Y45936890D01*
X79316028Y45917067D01*
X79212223Y45893616D01*
X79088819Y45868864D01*
X79045741Y45860857D01*
X78838047Y45822814D01*
X78673984Y45792176D01*
X78548130Y45767726D01*
X78455065Y45748246D01*
X78389367Y45732519D01*
X78345617Y45719327D01*
X78318392Y45707451D01*
X78302272Y45695675D01*
X78300017Y45693347D01*
X78277503Y45655855D01*
X78243158Y45582890D01*
X78200411Y45483388D01*
X78152692Y45366282D01*
X78103430Y45240507D01*
X78056055Y45114998D01*
X78013995Y44998690D01*
X77980680Y44900516D01*
X77959541Y44829412D01*
X77954005Y44794313D01*
X77954466Y44793083D01*
X77973223Y44764394D01*
X78015776Y44701270D01*
X78077653Y44610282D01*
X78154382Y44498000D01*
X78241491Y44370995D01*
X78266299Y44334902D01*
X78354753Y44204052D01*
X78432588Y44084664D01*
X78495566Y43983593D01*
X78539445Y43907696D01*
X78559985Y43863828D01*
X78560980Y43858438D01*
X78543722Y43830111D01*
X78496036Y43773994D01*
X78424050Y43696118D01*
X78333897Y43602515D01*
X78231705Y43499214D01*
X78123606Y43392249D01*
X78015728Y43287649D01*
X77914204Y43191446D01*
X77825162Y43109671D01*
X77754733Y43048355D01*
X77709047Y43013529D01*
X77696409Y43007843D01*
X77666991Y43021235D01*
X77606761Y43057356D01*
X77525530Y43110119D01*
X77463030Y43152588D01*
X77349785Y43230515D01*
X77215674Y43322271D01*
X77081155Y43413880D01*
X77008833Y43462909D01*
X76764038Y43628485D01*
X76558551Y43517380D01*
X76464936Y43468707D01*
X76385330Y43430874D01*
X76331467Y43409297D01*
X76317757Y43406294D01*
X76301270Y43428462D01*
X76268745Y43491106D01*
X76222609Y43588446D01*
X76165290Y43714706D01*
X76099216Y43864105D01*
X76026815Y44030867D01*
X75950516Y44209213D01*
X75872746Y44393364D01*
X75795934Y44577543D01*
X75722506Y44755970D01*
X75654892Y44922868D01*
X75595520Y45072458D01*
X75546816Y45198962D01*
X75511210Y45296601D01*
X75491130Y45359598D01*
X75487900Y45381234D01*
X75513496Y45408831D01*
X75569539Y45453630D01*
X75644311Y45506321D01*
X75650587Y45510490D01*
X75843845Y45665186D01*
X75999674Y45845664D01*
X76116724Y46046153D01*
X76193645Y46260881D01*
X76229086Y46484078D01*
X76221697Y46709974D01*
X76170127Y46932796D01*
X76073026Y47146776D01*
X76044458Y47193591D01*
X75895868Y47382637D01*
X75720327Y47534443D01*
X75523910Y47648221D01*
X75312693Y47723180D01*
X75092753Y47758533D01*
X74870163Y47753488D01*
X74651001Y47707256D01*
X74441342Y47619049D01*
X74247261Y47488076D01*
X74187226Y47434918D01*
X74034435Y47268516D01*
X73923097Y47093343D01*
X73846723Y46896989D01*
X73804187Y46702538D01*
X73793686Y46483913D01*
X73828701Y46264203D01*
X73905673Y46050835D01*
X74021047Y45851233D01*
X74171266Y45672826D01*
X74352773Y45523038D01*
X74376627Y45507249D01*
X74452201Y45455543D01*
X74509651Y45410743D01*
X74537117Y45382138D01*
X74537517Y45381234D01*
X74531620Y45350291D01*
X74508245Y45280064D01*
X74469821Y45176330D01*
X74418777Y45044865D01*
X74357542Y44891448D01*
X74288544Y44721854D01*
X74214214Y44541862D01*
X74136978Y44357247D01*
X74059268Y44173787D01*
X73983511Y43997259D01*
X73912137Y43833441D01*
X73847574Y43688108D01*
X73792252Y43567038D01*
X73748600Y43476008D01*
X73719046Y43420795D01*
X73707144Y43406294D01*
X73670777Y43417586D01*
X73602730Y43447870D01*
X73514737Y43491735D01*
X73466351Y43517380D01*
X73260863Y43628485D01*
X73016068Y43462909D01*
X72891106Y43378085D01*
X72754295Y43284739D01*
X72626089Y43196847D01*
X72561871Y43152588D01*
X72471551Y43091937D01*
X72395071Y43043874D01*
X72342407Y43014485D01*
X72325302Y43008273D01*
X72300405Y43025032D01*
X72245305Y43071819D01*
X72165343Y43143775D01*
X72065861Y43236043D01*
X71952200Y43343765D01*
X71880315Y43412929D01*
X71754551Y43536498D01*
X71645863Y43647021D01*
X71558645Y43739770D01*
X71497289Y43810018D01*
X71466191Y43853035D01*
X71463208Y43861765D01*
X71477053Y43894971D01*
X71515312Y43962113D01*
X71573742Y44056392D01*
X71648097Y44171010D01*
X71734135Y44299172D01*
X71758603Y44334902D01*
X71847755Y44464766D01*
X71927738Y44581686D01*
X71994080Y44679093D01*
X72042311Y44750416D01*
X72067957Y44789085D01*
X72070435Y44793083D01*
X72066729Y44823900D01*
X72047061Y44891656D01*
X72014860Y44987416D01*
X71973555Y45102246D01*
X71926575Y45227211D01*
X71877349Y45353376D01*
X71829308Y45471807D01*
X71785881Y45573570D01*
X71750496Y45649729D01*
X71726584Y45691351D01*
X71724884Y45693347D01*
X71710262Y45705242D01*
X71685565Y45717005D01*
X71645372Y45729854D01*
X71584263Y45745006D01*
X71496817Y45763679D01*
X71377612Y45787090D01*
X71221227Y45816458D01*
X71022243Y45853000D01*
X70979160Y45860857D01*
X70851471Y45885528D01*
X70740153Y45909662D01*
X70655045Y45930931D01*
X70605983Y45947007D01*
X70599405Y45950755D01*
X70588564Y45983982D01*
X70579753Y46058234D01*
X70572976Y46164879D01*
X70568240Y46295288D01*
X70565550Y46440828D01*
X70564913Y46592869D01*
X70566334Y46742779D01*
X70569820Y46881927D01*
X70575376Y47001683D01*
X70583008Y47093414D01*
X70592722Y47148489D01*
X70598578Y47159762D01*
X70631180Y47171132D01*
X70705418Y47189631D01*
X70813896Y47213653D01*
X70949217Y47241593D01*
X71103985Y47271847D01*
X71188308Y47287704D01*
X71348296Y47317611D01*
X71490967Y47344705D01*
X71609348Y47367624D01*
X71696465Y47385012D01*
X71745345Y47395508D01*
X71753390Y47397835D01*
X71766987Y47424069D01*
X71795729Y47487260D01*
X71835785Y47578378D01*
X71883324Y47688398D01*
X71934515Y47808290D01*
X71985526Y47929028D01*
X72032526Y48041584D01*
X72071684Y48136929D01*
X72099169Y48206038D01*
X72111149Y48239881D01*
X72111372Y48241360D01*
X72097791Y48268058D01*
X72059715Y48329495D01*
X72001147Y48419566D01*
X71926088Y48532165D01*
X71838540Y48661185D01*
X71787647Y48735294D01*
X71694909Y48871178D01*
X71612541Y48994546D01*
X71544561Y49099158D01*
X71494988Y49178772D01*
X71467842Y49227148D01*
X71463921Y49237993D01*
X71480775Y49263235D01*
X71527368Y49317131D01*
X71597749Y49393642D01*
X71685965Y49486732D01*
X71786065Y49590360D01*
X71892098Y49698491D01*
X71998111Y49805085D01*
X72098152Y49904105D01*
X72186270Y49989513D01*
X72256513Y50055270D01*
X72302928Y50095339D01*
X72318456Y50104902D01*
X72343739Y50091455D01*
X72404211Y50053680D01*
X72493992Y49995420D01*
X72607203Y49920521D01*
X72737964Y49832830D01*
X72836600Y49766022D01*
X73334957Y49427143D01*
X73750371Y49598390D01*
X74165784Y49769637D01*
X74278366Y50366828D01*
X74390949Y50964020D01*
X75633952Y50964020D01*
X75746535Y50366828D01*
G36*
X75027759Y42115655D02*
G01*
X75122059Y42097771D01*
X75219890Y42060367D01*
X75230343Y42055598D01*
X75304531Y42016588D01*
X75355910Y41980336D01*
X75372517Y41957113D01*
X75356702Y41919239D01*
X75318288Y41863356D01*
X75301237Y41842495D01*
X75230969Y41760382D01*
X75140379Y41813832D01*
X75054164Y41849439D01*
X74954549Y41868471D01*
X74859019Y41869674D01*
X74785061Y41851790D01*
X74767312Y41840627D01*
X74733512Y41789447D01*
X74729404Y41730491D01*
X74754696Y41684433D01*
X74769656Y41675501D01*
X74814486Y41664408D01*
X74893286Y41651370D01*
X74990426Y41638912D01*
X75008346Y41636958D01*
X75164365Y41609970D01*
X75277523Y41564127D01*
X75352569Y41495197D01*
X75394253Y41398946D01*
X75407238Y41281383D01*
X75389299Y41147746D01*
X75331050Y41042805D01*
X75232255Y40966370D01*
X75092682Y40918252D01*
X74937745Y40899268D01*
X74811398Y40899496D01*
X74708913Y40916738D01*
X74638921Y40940543D01*
X74550483Y40982022D01*
X74468754Y41030158D01*
X74439705Y41051345D01*
X74365000Y41112324D01*
X74455098Y41203492D01*
X74545196Y41294661D01*
X74647632Y41226872D01*
X74750374Y41175958D01*
X74860087Y41149327D01*
X74965551Y41146517D01*
X75055546Y41167065D01*
X75118854Y41210507D01*
X75139296Y41247162D01*
X75136229Y41305947D01*
X75085434Y41350901D01*
X74987048Y41381943D01*
X74879256Y41396290D01*
X74713365Y41423663D01*
X74590124Y41475307D01*
X74507886Y41552734D01*
X74465001Y41657456D01*
X74459060Y41781613D01*
X74488406Y41911298D01*
X74555309Y42009323D01*
X74660371Y42076134D01*
X74804190Y42112180D01*
X74910738Y42119246D01*
X75027759Y42115655D01*
G37*
X75027759Y42115655D02*
X75122059Y42097771D01*
X75219890Y42060367D01*
X75230343Y42055598D01*
X75304531Y42016588D01*
X75355910Y41980336D01*
X75372517Y41957113D01*
X75356702Y41919239D01*
X75318288Y41863356D01*
X75301237Y41842495D01*
X75230969Y41760382D01*
X75140379Y41813832D01*
X75054164Y41849439D01*
X74954549Y41868471D01*
X74859019Y41869674D01*
X74785061Y41851790D01*
X74767312Y41840627D01*
X74733512Y41789447D01*
X74729404Y41730491D01*
X74754696Y41684433D01*
X74769656Y41675501D01*
X74814486Y41664408D01*
X74893286Y41651370D01*
X74990426Y41638912D01*
X75008346Y41636958D01*
X75164365Y41609970D01*
X75277523Y41564127D01*
X75352569Y41495197D01*
X75394253Y41398946D01*
X75407238Y41281383D01*
X75389299Y41147746D01*
X75331050Y41042805D01*
X75232255Y40966370D01*
X75092682Y40918252D01*
X74937745Y40899268D01*
X74811398Y40899496D01*
X74708913Y40916738D01*
X74638921Y40940543D01*
X74550483Y40982022D01*
X74468754Y41030158D01*
X74439705Y41051345D01*
X74365000Y41112324D01*
X74455098Y41203492D01*
X74545196Y41294661D01*
X74647632Y41226872D01*
X74750374Y41175958D01*
X74860087Y41149327D01*
X74965551Y41146517D01*
X75055546Y41167065D01*
X75118854Y41210507D01*
X75139296Y41247162D01*
X75136229Y41305947D01*
X75085434Y41350901D01*
X74987048Y41381943D01*
X74879256Y41396290D01*
X74713365Y41423663D01*
X74590124Y41475307D01*
X74507886Y41552734D01*
X74465001Y41657456D01*
X74459060Y41781613D01*
X74488406Y41911298D01*
X74555309Y42009323D01*
X74660371Y42076134D01*
X74804190Y42112180D01*
X74910738Y42119246D01*
X75027759Y42115655D01*
G36*
X76458880Y39583145D02*
G01*
X76520196Y39659715D01*
X76557332Y39692819D01*
X76593687Y39714575D01*
X76640990Y39727839D01*
X76710973Y39735472D01*
X76815364Y39740330D01*
X76856770Y39741727D01*
X77116666Y39750220D01*
X77116285Y39828884D01*
X77106219Y39911572D01*
X77069829Y39961569D01*
X76996311Y39993511D01*
X76994339Y39994080D01*
X76890105Y40006639D01*
X76788108Y39990234D01*
X76712305Y39950343D01*
X76681890Y39930646D01*
X76649132Y39933371D01*
X76598721Y39961909D01*
X76569119Y39982050D01*
X76511218Y40025081D01*
X76475352Y40057338D01*
X76469597Y40066573D01*
X76493295Y40114364D01*
X76563313Y40171438D01*
X76593725Y40190695D01*
X76681155Y40223860D01*
X76798983Y40242650D01*
X76929866Y40246871D01*
X77056459Y40236331D01*
X77161420Y40210837D01*
X77191761Y40197331D01*
X77250573Y40161954D01*
X77295709Y40122110D01*
X77329106Y40070880D01*
X77352701Y40001346D01*
X77368433Y39906591D01*
X77378239Y39779695D01*
X77384057Y39613742D01*
X77386266Y39502892D01*
X77394396Y39023529D01*
X77255531Y39023529D01*
X77171287Y39027062D01*
X77127884Y39039134D01*
X77116666Y39059406D01*
X77110744Y39081326D01*
X77084266Y39077135D01*
X77048186Y39059559D01*
X76957862Y39032618D01*
X76841777Y39025358D01*
X76719680Y39037233D01*
X76611321Y39067695D01*
X76601602Y39071923D01*
X76502568Y39141495D01*
X76437281Y39238211D01*
X76407240Y39351262D01*
X76409535Y39391878D01*
X76654633Y39391878D01*
X76676229Y39337218D01*
X76740259Y39298048D01*
X76843565Y39277026D01*
X76898774Y39274234D01*
X76990782Y39281380D01*
X77051941Y39309152D01*
X77066862Y39322353D01*
X77107287Y39394171D01*
X77116666Y39459314D01*
X77116666Y39546470D01*
X76995269Y39546470D01*
X76854153Y39539278D01*
X76755173Y39516655D01*
X76692633Y39477036D01*
X76678631Y39459372D01*
X76654633Y39391878D01*
X76409535Y39391878D01*
X76413941Y39469843D01*
X76458880Y39583145D01*
G37*
X76458880Y39583145D02*
X76520196Y39659715D01*
X76557332Y39692819D01*
X76593687Y39714575D01*
X76640990Y39727839D01*
X76710973Y39735472D01*
X76815364Y39740330D01*
X76856770Y39741727D01*
X77116666Y39750220D01*
X77116285Y39828884D01*
X77106219Y39911572D01*
X77069829Y39961569D01*
X76996311Y39993511D01*
X76994339Y39994080D01*
X76890105Y40006639D01*
X76788108Y39990234D01*
X76712305Y39950343D01*
X76681890Y39930646D01*
X76649132Y39933371D01*
X76598721Y39961909D01*
X76569119Y39982050D01*
X76511218Y40025081D01*
X76475352Y40057338D01*
X76469597Y40066573D01*
X76493295Y40114364D01*
X76563313Y40171438D01*
X76593725Y40190695D01*
X76681155Y40223860D01*
X76798983Y40242650D01*
X76929866Y40246871D01*
X77056459Y40236331D01*
X77161420Y40210837D01*
X77191761Y40197331D01*
X77250573Y40161954D01*
X77295709Y40122110D01*
X77329106Y40070880D01*
X77352701Y40001346D01*
X77368433Y39906591D01*
X77378239Y39779695D01*
X77384057Y39613742D01*
X77386266Y39502892D01*
X77394396Y39023529D01*
X77255531Y39023529D01*
X77171287Y39027062D01*
X77127884Y39039134D01*
X77116666Y39059406D01*
X77110744Y39081326D01*
X77084266Y39077135D01*
X77048186Y39059559D01*
X76957862Y39032618D01*
X76841777Y39025358D01*
X76719680Y39037233D01*
X76611321Y39067695D01*
X76601602Y39071923D01*
X76502568Y39141495D01*
X76437281Y39238211D01*
X76407240Y39351262D01*
X76409535Y39391878D01*
X76654633Y39391878D01*
X76676229Y39337218D01*
X76740259Y39298048D01*
X76843565Y39277026D01*
X76898774Y39274234D01*
X76990782Y39281380D01*
X77051941Y39309152D01*
X77066862Y39322353D01*
X77107287Y39394171D01*
X77116666Y39459314D01*
X77116666Y39546470D01*
X76995269Y39546470D01*
X76854153Y39539278D01*
X76755173Y39516655D01*
X76692633Y39477036D01*
X76678631Y39459372D01*
X76654633Y39391878D01*
X76409535Y39391878D01*
X76413941Y39469843D01*
X76458880Y39583145D01*
G36*
X78563637Y42112528D02*
G01*
X78649290Y42086359D01*
X78704437Y42053293D01*
X78722401Y42027145D01*
X78717457Y41996148D01*
X78685372Y41947453D01*
X78658243Y41912965D01*
X78602317Y41850617D01*
X78560299Y41824385D01*
X78524480Y41826097D01*
X78418224Y41853137D01*
X78340189Y41851909D01*
X78276820Y41821265D01*
X78255546Y41803330D01*
X78187451Y41740221D01*
X78187451Y40916078D01*
X77913529Y40916078D01*
X77913529Y42111372D01*
X78050490Y42111372D01*
X78132719Y42108121D01*
X78175144Y42096574D01*
X78187445Y42074048D01*
X78187451Y42073380D01*
X78193260Y42049785D01*
X78219531Y42052862D01*
X78255931Y42069885D01*
X78331111Y42101561D01*
X78392158Y42120619D01*
X78470708Y42125504D01*
X78563637Y42112528D01*
G37*
X78563637Y42112528D02*
X78649290Y42086359D01*
X78704437Y42053293D01*
X78722401Y42027145D01*
X78717457Y41996148D01*
X78685372Y41947453D01*
X78658243Y41912965D01*
X78602317Y41850617D01*
X78560299Y41824385D01*
X78524480Y41826097D01*
X78418224Y41853137D01*
X78340189Y41851909D01*
X78276820Y41821265D01*
X78255546Y41803330D01*
X78187451Y41740221D01*
X78187451Y40916078D01*
X77913529Y40916078D01*
X77913529Y42111372D01*
X78050490Y42111372D01*
X78132719Y42108121D01*
X78175144Y42096574D01*
X78187445Y42074048D01*
X78187451Y42073380D01*
X78193260Y42049785D01*
X78219531Y42052862D01*
X78255931Y42069885D01*
X78331111Y42101561D01*
X78392158Y42120619D01*
X78470708Y42125504D01*
X78563637Y42112528D01*
G36*
X70629705Y42111372D02*
G01*
X70711935Y42108121D01*
X70754360Y42096574D01*
X70766661Y42074048D01*
X70766666Y42073380D01*
X70772374Y42051319D01*
X70797547Y42053824D01*
X70847598Y42078065D01*
X70964219Y42115149D01*
X71095429Y42119047D01*
X71219909Y42090440D01*
X71272412Y42064501D01*
X71337158Y42019300D01*
X71384347Y41970009D01*
X71416665Y41908115D01*
X71436797Y41825104D01*
X71447430Y41712462D01*
X71451247Y41561676D01*
X71451470Y41496851D01*
X71450818Y41354779D01*
X71448112Y41253243D01*
X71442224Y41182985D01*
X71432027Y41134744D01*
X71416394Y41099262D01*
X71400128Y41075057D01*
X71296295Y40972071D01*
X71174021Y40910126D01*
X71042114Y40891494D01*
X70909384Y40918451D01*
X70867333Y40937514D01*
X70766666Y40989985D01*
X70766666Y40167741D01*
X70840135Y40205733D01*
X70936941Y40235128D01*
X71055928Y40242658D01*
X71174745Y40228755D01*
X71264473Y40197524D01*
X71338899Y40138046D01*
X71402490Y40052934D01*
X71407271Y40044195D01*
X71427437Y40003034D01*
X71442165Y39961546D01*
X71452303Y39911287D01*
X71458699Y39843816D01*
X71462201Y39750691D01*
X71463658Y39623469D01*
X71463921Y39480299D01*
X71463921Y39023529D01*
X71190000Y39023529D01*
X71190000Y39865769D01*
X71113383Y39930237D01*
X71033793Y39981806D01*
X70958422Y39991182D01*
X70882633Y39967053D01*
X70842241Y39943426D01*
X70812179Y39909773D01*
X70790797Y39858913D01*
X70776450Y39783666D01*
X70767490Y39676854D01*
X70762270Y39531296D01*
X70760431Y39434412D01*
X70754215Y39035980D01*
X70623480Y39028453D01*
X70492745Y39020927D01*
X70492745Y41493418D01*
X70766666Y41493418D01*
X70773650Y41355577D01*
X70797182Y41259893D01*
X70841135Y41200359D01*
X70909382Y41170971D01*
X70978333Y41165098D01*
X71056386Y41171846D01*
X71108189Y41198406D01*
X71140583Y41233501D01*
X71166084Y41271248D01*
X71181265Y41313300D01*
X71188019Y41372221D01*
X71188241Y41460572D01*
X71185968Y41534552D01*
X71180749Y41646000D01*
X71172979Y41719167D01*
X71159895Y41765578D01*
X71138732Y41796756D01*
X71118760Y41814777D01*
X71035314Y41854075D01*
X70936551Y41860421D01*
X70879841Y41846884D01*
X70823692Y41798767D01*
X70786499Y41705167D01*
X70768472Y41566746D01*
X70766666Y41493418D01*
X70492745Y41493418D01*
X70492745Y42111372D01*
X70629705Y42111372D01*
G37*
X70629705Y42111372D02*
X70711935Y42108121D01*
X70754360Y42096574D01*
X70766661Y42074048D01*
X70766666Y42073380D01*
X70772374Y42051319D01*
X70797547Y42053824D01*
X70847598Y42078065D01*
X70964219Y42115149D01*
X71095429Y42119047D01*
X71219909Y42090440D01*
X71272412Y42064501D01*
X71337158Y42019300D01*
X71384347Y41970009D01*
X71416665Y41908115D01*
X71436797Y41825104D01*
X71447430Y41712462D01*
X71451247Y41561676D01*
X71451470Y41496851D01*
X71450818Y41354779D01*
X71448112Y41253243D01*
X71442224Y41182985D01*
X71432027Y41134744D01*
X71416394Y41099262D01*
X71400128Y41075057D01*
X71296295Y40972071D01*
X71174021Y40910126D01*
X71042114Y40891494D01*
X70909384Y40918451D01*
X70867333Y40937514D01*
X70766666Y40989985D01*
X70766666Y40167741D01*
X70840135Y40205733D01*
X70936941Y40235128D01*
X71055928Y40242658D01*
X71174745Y40228755D01*
X71264473Y40197524D01*
X71338899Y40138046D01*
X71402490Y40052934D01*
X71407271Y40044195D01*
X71427437Y40003034D01*
X71442165Y39961546D01*
X71452303Y39911287D01*
X71458699Y39843816D01*
X71462201Y39750691D01*
X71463658Y39623469D01*
X71463921Y39480299D01*
X71463921Y39023529D01*
X71190000Y39023529D01*
X71190000Y39865769D01*
X71113383Y39930237D01*
X71033793Y39981806D01*
X70958422Y39991182D01*
X70882633Y39967053D01*
X70842241Y39943426D01*
X70812179Y39909773D01*
X70790797Y39858913D01*
X70776450Y39783666D01*
X70767490Y39676854D01*
X70762270Y39531296D01*
X70760431Y39434412D01*
X70754215Y39035980D01*
X70623480Y39028453D01*
X70492745Y39020927D01*
X70492745Y41493418D01*
X70766666Y41493418D01*
X70773650Y41355577D01*
X70797182Y41259893D01*
X70841135Y41200359D01*
X70909382Y41170971D01*
X70978333Y41165098D01*
X71056386Y41171846D01*
X71108189Y41198406D01*
X71140583Y41233501D01*
X71166084Y41271248D01*
X71181265Y41313300D01*
X71188019Y41372221D01*
X71188241Y41460572D01*
X71185968Y41534552D01*
X71180749Y41646000D01*
X71172979Y41719167D01*
X71159895Y41765578D01*
X71138732Y41796756D01*
X71118760Y41814777D01*
X71035314Y41854075D01*
X70936551Y41860421D01*
X70879841Y41846884D01*
X70823692Y41798767D01*
X70786499Y41705167D01*
X70768472Y41566746D01*
X70766666Y41493418D01*
X70492745Y41493418D01*
X70492745Y42111372D01*
X70629705Y42111372D01*
G36*
X76967254Y41723755D02*
G01*
X76969608Y41541121D01*
X76978207Y41402400D01*
X76995360Y41301853D01*
X77023374Y41233746D01*
X77064557Y41192341D01*
X77121217Y41171903D01*
X77191372Y41166682D01*
X77264848Y41172532D01*
X77320657Y41193907D01*
X77361109Y41236542D01*
X77388509Y41306175D01*
X77405167Y41408540D01*
X77413389Y41549376D01*
X77415490Y41723755D01*
X77415490Y42111372D01*
X77689411Y42111372D01*
X77689411Y40916078D01*
X77552451Y40916078D01*
X77469884Y40919424D01*
X77427368Y40931174D01*
X77415490Y40953480D01*
X77408336Y40973346D01*
X77379865Y40969143D01*
X77322476Y40941029D01*
X77190945Y40897658D01*
X77051438Y40900730D01*
X76917765Y40947826D01*
X76854108Y40985029D01*
X76805553Y41025309D01*
X76770081Y41075709D01*
X76745674Y41143271D01*
X76730313Y41235035D01*
X76721982Y41358045D01*
X76718662Y41519341D01*
X76718235Y41644072D01*
X76718235Y42111372D01*
X76967254Y42111372D01*
X76967254Y41723755D01*
G37*
X76967254Y41723755D02*
X76969608Y41541121D01*
X76978207Y41402400D01*
X76995360Y41301853D01*
X77023374Y41233746D01*
X77064557Y41192341D01*
X77121217Y41171903D01*
X77191372Y41166682D01*
X77264848Y41172532D01*
X77320657Y41193907D01*
X77361109Y41236542D01*
X77388509Y41306175D01*
X77405167Y41408540D01*
X77413389Y41549376D01*
X77415490Y41723755D01*
X77415490Y42111372D01*
X77689411Y42111372D01*
X77689411Y40916078D01*
X77552451Y40916078D01*
X77469884Y40919424D01*
X77427368Y40931174D01*
X77415490Y40953480D01*
X77408336Y40973346D01*
X77379865Y40969143D01*
X77322476Y40941029D01*
X77190945Y40897658D01*
X77051438Y40900730D01*
X76917765Y40947826D01*
X76854108Y40985029D01*
X76805553Y41025309D01*
X76770081Y41075709D01*
X76745674Y41143271D01*
X76730313Y41235035D01*
X76721982Y41358045D01*
X76718662Y41519341D01*
X76718235Y41644072D01*
X76718235Y42111372D01*
X76967254Y42111372D01*
X76967254Y41723755D01*
G36*
X71700590Y41910539D02*
G01*
X71764421Y41988539D01*
X71882433Y42073118D01*
X72021158Y42118314D01*
X72168710Y42122400D01*
X72313204Y42083646D01*
X72338019Y42071963D01*
X72423906Y42009049D01*
X72505121Y41917231D01*
X72565764Y41816132D01*
X72583012Y41769651D01*
X72598749Y41686624D01*
X72608133Y41586287D01*
X72609272Y41544853D01*
X72609411Y41414118D01*
X71856953Y41414118D01*
X71872993Y41345637D01*
X71912363Y41264645D01*
X71981194Y41194649D01*
X72063081Y41149559D01*
X72115263Y41140196D01*
X72186029Y41151559D01*
X72270460Y41180057D01*
X72299142Y41193169D01*
X72405209Y41246142D01*
X72495728Y41177099D01*
X72547961Y41130403D01*
X72575753Y41091860D01*
X72577160Y41080548D01*
X72552332Y41053132D01*
X72497917Y41011468D01*
X72448528Y40978963D01*
X72315252Y40920532D01*
X72165839Y40894085D01*
X72017751Y40900961D01*
X71899705Y40936904D01*
X71778018Y41013899D01*
X71691540Y41115272D01*
X71637441Y41246430D01*
X71612891Y41412776D01*
X71610714Y41488892D01*
X71619427Y41663315D01*
X71620497Y41668389D01*
X71869827Y41668389D01*
X71876694Y41652032D01*
X71904917Y41643012D01*
X71963127Y41639146D01*
X72059958Y41638251D01*
X72097243Y41638235D01*
X72210683Y41639587D01*
X72282622Y41644495D01*
X72321313Y41654240D01*
X72335005Y41670101D01*
X72335490Y41675195D01*
X72319863Y41715674D01*
X72280753Y41772379D01*
X72263939Y41792234D01*
X72201519Y41848389D01*
X72136453Y41870468D01*
X72101397Y41872314D01*
X72006558Y41849234D01*
X71927027Y41787241D01*
X71876577Y41697198D01*
X71875683Y41694265D01*
X71869827Y41668389D01*
X71620497Y41668389D01*
X71648399Y41800657D01*
X71700590Y41910539D01*
G37*
X71700590Y41910539D02*
X71764421Y41988539D01*
X71882433Y42073118D01*
X72021158Y42118314D01*
X72168710Y42122400D01*
X72313204Y42083646D01*
X72338019Y42071963D01*
X72423906Y42009049D01*
X72505121Y41917231D01*
X72565764Y41816132D01*
X72583012Y41769651D01*
X72598749Y41686624D01*
X72608133Y41586287D01*
X72609272Y41544853D01*
X72609411Y41414118D01*
X71856953Y41414118D01*
X71872993Y41345637D01*
X71912363Y41264645D01*
X71981194Y41194649D01*
X72063081Y41149559D01*
X72115263Y41140196D01*
X72186029Y41151559D01*
X72270460Y41180057D01*
X72299142Y41193169D01*
X72405209Y41246142D01*
X72495728Y41177099D01*
X72547961Y41130403D01*
X72575753Y41091860D01*
X72577160Y41080548D01*
X72552332Y41053132D01*
X72497917Y41011468D01*
X72448528Y40978963D01*
X72315252Y40920532D01*
X72165839Y40894085D01*
X72017751Y40900961D01*
X71899705Y40936904D01*
X71778018Y41013899D01*
X71691540Y41115272D01*
X71637441Y41246430D01*
X71612891Y41412776D01*
X71610714Y41488892D01*
X71619427Y41663315D01*
X71620497Y41668389D01*
X71869827Y41668389D01*
X71876694Y41652032D01*
X71904917Y41643012D01*
X71963127Y41639146D01*
X72059958Y41638251D01*
X72097243Y41638235D01*
X72210683Y41639587D01*
X72282622Y41644495D01*
X72321313Y41654240D01*
X72335005Y41670101D01*
X72335490Y41675195D01*
X72319863Y41715674D01*
X72280753Y41772379D01*
X72263939Y41792234D01*
X72201519Y41848389D01*
X72136453Y41870468D01*
X72101397Y41872314D01*
X72006558Y41849234D01*
X71927027Y41787241D01*
X71876577Y41697198D01*
X71875683Y41694265D01*
X71869827Y41668389D01*
X71620497Y41668389D01*
X71648399Y41800657D01*
X71700590Y41910539D01*
G36*
X71671534Y39605718D02*
G01*
X71758200Y39689288D01*
X71770179Y39696890D01*
X71821655Y39721643D01*
X71885368Y39736632D01*
X71974435Y39743918D01*
X72080245Y39745593D01*
X72310588Y39745686D01*
X72310588Y39842245D01*
X72300817Y39917164D01*
X72275884Y39967356D01*
X72272965Y39970028D01*
X72217481Y39991985D01*
X72133727Y40000495D01*
X72041167Y39996313D01*
X71959270Y39980191D01*
X71910673Y39956010D01*
X71884341Y39936641D01*
X71856535Y39932943D01*
X71818161Y39948812D01*
X71760125Y39988145D01*
X71673331Y40054836D01*
X71665365Y40061084D01*
X71669447Y40084200D01*
X71703501Y40122648D01*
X71755260Y40165373D01*
X71812455Y40201321D01*
X71830425Y40209809D01*
X71895972Y40226748D01*
X71992020Y40238830D01*
X72099329Y40243677D01*
X72104347Y40243687D01*
X72258720Y40234078D01*
X72375870Y40202820D01*
X72465051Y40146163D01*
X72527984Y40071955D01*
X72547548Y40040284D01*
X72561992Y40007109D01*
X72572089Y39964671D01*
X72578615Y39905212D01*
X72582342Y39820971D01*
X72584046Y39704190D01*
X72584500Y39547110D01*
X72584509Y39505435D01*
X72584509Y39023529D01*
X72464980Y39023529D01*
X72388739Y39028869D01*
X72332366Y39042396D01*
X72318242Y39050738D01*
X72279630Y39065136D01*
X72240192Y39050738D01*
X72175262Y39032763D01*
X72080945Y39025528D01*
X71976407Y39028667D01*
X71880811Y39041814D01*
X71825000Y39058682D01*
X71716998Y39128014D01*
X71649503Y39224228D01*
X71619159Y39352156D01*
X71618877Y39355441D01*
X71621540Y39412192D01*
X71862353Y39412192D01*
X71883405Y39347642D01*
X71917697Y39311314D01*
X71986532Y39283838D01*
X72077390Y39272871D01*
X72170042Y39278269D01*
X72244256Y39299890D01*
X72265049Y39313761D01*
X72301381Y39377857D01*
X72310588Y39450722D01*
X72310588Y39546470D01*
X72172827Y39546470D01*
X72041953Y39536395D01*
X71942741Y39507852D01*
X71881023Y39463361D01*
X71862353Y39412192D01*
X71621540Y39412192D01*
X71625436Y39495210D01*
X71671534Y39605718D01*
G37*
X71671534Y39605718D02*
X71758200Y39689288D01*
X71770179Y39696890D01*
X71821655Y39721643D01*
X71885368Y39736632D01*
X71974435Y39743918D01*
X72080245Y39745593D01*
X72310588Y39745686D01*
X72310588Y39842245D01*
X72300817Y39917164D01*
X72275884Y39967356D01*
X72272965Y39970028D01*
X72217481Y39991985D01*
X72133727Y40000495D01*
X72041167Y39996313D01*
X71959270Y39980191D01*
X71910673Y39956010D01*
X71884341Y39936641D01*
X71856535Y39932943D01*
X71818161Y39948812D01*
X71760125Y39988145D01*
X71673331Y40054836D01*
X71665365Y40061084D01*
X71669447Y40084200D01*
X71703501Y40122648D01*
X71755260Y40165373D01*
X71812455Y40201321D01*
X71830425Y40209809D01*
X71895972Y40226748D01*
X71992020Y40238830D01*
X72099329Y40243677D01*
X72104347Y40243687D01*
X72258720Y40234078D01*
X72375870Y40202820D01*
X72465051Y40146163D01*
X72527984Y40071955D01*
X72547548Y40040284D01*
X72561992Y40007109D01*
X72572089Y39964671D01*
X72578615Y39905212D01*
X72582342Y39820971D01*
X72584046Y39704190D01*
X72584500Y39547110D01*
X72584509Y39505435D01*
X72584509Y39023529D01*
X72464980Y39023529D01*
X72388739Y39028869D01*
X72332366Y39042396D01*
X72318242Y39050738D01*
X72279630Y39065136D01*
X72240192Y39050738D01*
X72175262Y39032763D01*
X72080945Y39025528D01*
X71976407Y39028667D01*
X71880811Y39041814D01*
X71825000Y39058682D01*
X71716998Y39128014D01*
X71649503Y39224228D01*
X71619159Y39352156D01*
X71618877Y39355441D01*
X71621540Y39412192D01*
X71862353Y39412192D01*
X71883405Y39347642D01*
X71917697Y39311314D01*
X71986532Y39283838D01*
X72077390Y39272871D01*
X72170042Y39278269D01*
X72244256Y39299890D01*
X72265049Y39313761D01*
X72301381Y39377857D01*
X72310588Y39450722D01*
X72310588Y39546470D01*
X72172827Y39546470D01*
X72041953Y39536395D01*
X71942741Y39507852D01*
X71881023Y39463361D01*
X71862353Y39412192D01*
X71621540Y39412192D01*
X71625436Y39495210D01*
X71671534Y39605718D01*
G36*
X69328260Y41716400D02*
G01*
X69343283Y41803633D01*
X69370376Y41872470D01*
X69411600Y41933263D01*
X69426885Y41951314D01*
X69522454Y42041254D01*
X69624961Y42093789D01*
X69750321Y42115799D01*
X69811450Y42117598D01*
X69973247Y42098432D01*
X70103522Y42040837D01*
X70202419Y41944666D01*
X70270082Y41809771D01*
X70306655Y41636004D01*
X70309276Y41608874D01*
X70311330Y41417592D01*
X70284699Y41249927D01*
X70231001Y41114033D01*
X70202247Y41070319D01*
X70102091Y40977802D01*
X69974537Y40917881D01*
X69831837Y40893015D01*
X69686240Y40905661D01*
X69575562Y40944609D01*
X69480384Y41010245D01*
X69402594Y41096301D01*
X69401249Y41098315D01*
X69369657Y41151430D01*
X69349127Y41204840D01*
X69336695Y41272246D01*
X69329397Y41367347D01*
X69326182Y41445334D01*
X69324844Y41516056D01*
X69573814Y41516056D01*
X69576247Y41445652D01*
X69585080Y41351932D01*
X69600664Y41291786D01*
X69628766Y41248994D01*
X69655086Y41223998D01*
X69748392Y41171662D01*
X69846020Y41164667D01*
X69936942Y41202324D01*
X69982402Y41244521D01*
X70015162Y41287044D01*
X70034323Y41327733D01*
X70042733Y41380686D01*
X70043237Y41460003D01*
X70040645Y41533050D01*
X70035071Y41637399D01*
X70026234Y41705080D01*
X70010307Y41749226D01*
X69983462Y41782969D01*
X69962189Y41802254D01*
X69873206Y41852914D01*
X69777211Y41855440D01*
X69696719Y41825433D01*
X69628053Y41762769D01*
X69587144Y41659832D01*
X69573814Y41516056D01*
X69324844Y41516056D01*
X69323246Y41600418D01*
X69328260Y41716400D01*
G37*
X69328260Y41716400D02*
X69343283Y41803633D01*
X69370376Y41872470D01*
X69411600Y41933263D01*
X69426885Y41951314D01*
X69522454Y42041254D01*
X69624961Y42093789D01*
X69750321Y42115799D01*
X69811450Y42117598D01*
X69973247Y42098432D01*
X70103522Y42040837D01*
X70202419Y41944666D01*
X70270082Y41809771D01*
X70306655Y41636004D01*
X70309276Y41608874D01*
X70311330Y41417592D01*
X70284699Y41249927D01*
X70231001Y41114033D01*
X70202247Y41070319D01*
X70102091Y40977802D01*
X69974537Y40917881D01*
X69831837Y40893015D01*
X69686240Y40905661D01*
X69575562Y40944609D01*
X69480384Y41010245D01*
X69402594Y41096301D01*
X69401249Y41098315D01*
X69369657Y41151430D01*
X69349127Y41204840D01*
X69336695Y41272246D01*
X69329397Y41367347D01*
X69326182Y41445334D01*
X69324844Y41516056D01*
X69573814Y41516056D01*
X69576247Y41445652D01*
X69585080Y41351932D01*
X69600664Y41291786D01*
X69628766Y41248994D01*
X69655086Y41223998D01*
X69748392Y41171662D01*
X69846020Y41164667D01*
X69936942Y41202324D01*
X69982402Y41244521D01*
X70015162Y41287044D01*
X70034323Y41327733D01*
X70042733Y41380686D01*
X70043237Y41460003D01*
X70040645Y41533050D01*
X70035071Y41637399D01*
X70026234Y41705080D01*
X70010307Y41749226D01*
X69983462Y41782969D01*
X69962189Y41802254D01*
X69873206Y41852914D01*
X69777211Y41855440D01*
X69696719Y41825433D01*
X69628053Y41762769D01*
X69587144Y41659832D01*
X69573814Y41516056D01*
X69324844Y41516056D01*
X69323246Y41600418D01*
X69328260Y41716400D01*
G36*
X73506760Y42090801D02*
G01*
X73568736Y42061198D01*
X73628759Y42018439D01*
X73674486Y41969225D01*
X73707793Y41906456D01*
X73730555Y41823029D01*
X73744647Y41711841D01*
X73751942Y41565791D01*
X73754318Y41377777D01*
X73754355Y41358088D01*
X73754902Y40916078D01*
X73480980Y40916078D01*
X73480980Y41323565D01*
X73480785Y41474529D01*
X73479436Y41583944D01*
X73475788Y41660067D01*
X73468696Y41711152D01*
X73457013Y41745455D01*
X73439594Y41771232D01*
X73415329Y41796702D01*
X73330435Y41851429D01*
X73237761Y41861584D01*
X73149473Y41826983D01*
X73118770Y41801230D01*
X73096229Y41777018D01*
X73080046Y41751088D01*
X73069168Y41715292D01*
X73062542Y41661481D01*
X73059115Y41581507D01*
X73057834Y41467221D01*
X73057647Y41328093D01*
X73057647Y40916078D01*
X72783725Y40916078D01*
X72783725Y42111372D01*
X72920686Y42111372D01*
X73002916Y42108121D01*
X73045340Y42096574D01*
X73057641Y42074048D01*
X73057647Y42073380D01*
X73063354Y42051319D01*
X73088527Y42053823D01*
X73138578Y42078063D01*
X73252094Y42113729D01*
X73381945Y42117695D01*
X73506760Y42090801D01*
G37*
X73506760Y42090801D02*
X73568736Y42061198D01*
X73628759Y42018439D01*
X73674486Y41969225D01*
X73707793Y41906456D01*
X73730555Y41823029D01*
X73744647Y41711841D01*
X73751942Y41565791D01*
X73754318Y41377777D01*
X73754355Y41358088D01*
X73754902Y40916078D01*
X73480980Y40916078D01*
X73480980Y41323565D01*
X73480785Y41474529D01*
X73479436Y41583944D01*
X73475788Y41660067D01*
X73468696Y41711152D01*
X73457013Y41745455D01*
X73439594Y41771232D01*
X73415329Y41796702D01*
X73330435Y41851429D01*
X73237761Y41861584D01*
X73149473Y41826983D01*
X73118770Y41801230D01*
X73096229Y41777018D01*
X73080046Y41751088D01*
X73069168Y41715292D01*
X73062542Y41661481D01*
X73059115Y41581507D01*
X73057834Y41467221D01*
X73057647Y41328093D01*
X73057647Y40916078D01*
X72783725Y40916078D01*
X72783725Y42111372D01*
X72920686Y42111372D01*
X73002916Y42108121D01*
X73045340Y42096574D01*
X73057641Y42074048D01*
X73057647Y42073380D01*
X73063354Y42051319D01*
X73088527Y42053823D01*
X73138578Y42078063D01*
X73252094Y42113729D01*
X73381945Y42117695D01*
X73506760Y42090801D01*
G36*
X79809773Y41902289D02*
G01*
X79900878Y42012026D01*
X80015978Y42086826D01*
X80151355Y42122696D01*
X80303287Y42115645D01*
X80367051Y42100155D01*
X80489300Y42043431D01*
X80593834Y41956798D01*
X80666180Y41852926D01*
X80676119Y41829604D01*
X80689754Y41768516D01*
X80699298Y41678147D01*
X80702549Y41586810D01*
X80702549Y41414118D01*
X80341470Y41414118D01*
X80192546Y41413555D01*
X80087632Y41410136D01*
X80020937Y41401269D01*
X79986666Y41384359D01*
X79979028Y41356811D01*
X79992229Y41316032D01*
X80015877Y41268317D01*
X80081843Y41188686D01*
X80173512Y41149013D01*
X80285555Y41150305D01*
X80412472Y41193486D01*
X80522158Y41246776D01*
X80613173Y41174809D01*
X80704188Y41102843D01*
X80618563Y41023731D01*
X80504250Y40948983D01*
X80363666Y40903916D01*
X80212449Y40891304D01*
X80066236Y40913921D01*
X80042647Y40921595D01*
X79914141Y40988704D01*
X79818551Y41088753D01*
X79753861Y41224729D01*
X79718057Y41399620D01*
X79717640Y41403368D01*
X79714434Y41593968D01*
X79727393Y41661965D01*
X79980392Y41661965D01*
X80003627Y41651509D01*
X80066710Y41643500D01*
X80159706Y41638927D01*
X80218638Y41638235D01*
X80328537Y41638668D01*
X80397252Y41641422D01*
X80433405Y41648679D01*
X80445615Y41662624D01*
X80442504Y41685438D01*
X80439894Y41694265D01*
X80395344Y41777200D01*
X80325279Y41844040D01*
X80263446Y41873411D01*
X80181301Y41871638D01*
X80098062Y41835010D01*
X80028238Y41774366D01*
X79986337Y41700544D01*
X79980392Y41661965D01*
X79727393Y41661965D01*
X79746385Y41761605D01*
X79809773Y41902289D01*
G37*
X79809773Y41902289D02*
X79900878Y42012026D01*
X80015978Y42086826D01*
X80151355Y42122696D01*
X80303287Y42115645D01*
X80367051Y42100155D01*
X80489300Y42043431D01*
X80593834Y41956798D01*
X80666180Y41852926D01*
X80676119Y41829604D01*
X80689754Y41768516D01*
X80699298Y41678147D01*
X80702549Y41586810D01*
X80702549Y41414118D01*
X80341470Y41414118D01*
X80192546Y41413555D01*
X80087632Y41410136D01*
X80020937Y41401269D01*
X79986666Y41384359D01*
X79979028Y41356811D01*
X79992229Y41316032D01*
X80015877Y41268317D01*
X80081843Y41188686D01*
X80173512Y41149013D01*
X80285555Y41150305D01*
X80412472Y41193486D01*
X80522158Y41246776D01*
X80613173Y41174809D01*
X80704188Y41102843D01*
X80618563Y41023731D01*
X80504250Y40948983D01*
X80363666Y40903916D01*
X80212449Y40891304D01*
X80066236Y40913921D01*
X80042647Y40921595D01*
X79914141Y40988704D01*
X79818551Y41088753D01*
X79753861Y41224729D01*
X79718057Y41399620D01*
X79717640Y41403368D01*
X79714434Y41593968D01*
X79727393Y41661965D01*
X79980392Y41661965D01*
X80003627Y41651509D01*
X80066710Y41643500D01*
X80159706Y41638927D01*
X80218638Y41638235D01*
X80328537Y41638668D01*
X80397252Y41641422D01*
X80433405Y41648679D01*
X80445615Y41662624D01*
X80442504Y41685438D01*
X80439894Y41694265D01*
X80395344Y41777200D01*
X80325279Y41844040D01*
X80263446Y41873411D01*
X80181301Y41871638D01*
X80098062Y41835010D01*
X80028238Y41774366D01*
X79986337Y41700544D01*
X79980392Y41661965D01*
X79727393Y41661965D01*
X79746385Y41761605D01*
X79809773Y41902289D01*
G36*
X78493520Y39987729D02*
G01*
X78565635Y40105931D01*
X78668273Y40186560D01*
X78802332Y40230861D01*
X78874957Y40239393D01*
X79025307Y40237216D01*
X79144337Y40206269D01*
X79244021Y40142400D01*
X79292288Y40094687D01*
X79371408Y39981894D01*
X79416752Y39851050D01*
X79432330Y39690208D01*
X79432410Y39677206D01*
X79432549Y39546470D01*
X78680091Y39546470D01*
X78696130Y39477990D01*
X78725091Y39415969D01*
X78775778Y39351346D01*
X78786379Y39341029D01*
X78877494Y39285195D01*
X78981400Y39275725D01*
X79101000Y39312460D01*
X79121274Y39322353D01*
X79183456Y39352426D01*
X79225106Y39369560D01*
X79232373Y39371145D01*
X79257740Y39355758D01*
X79306120Y39318113D01*
X79330679Y39297541D01*
X79381570Y39250286D01*
X79398281Y39219083D01*
X79386683Y39190380D01*
X79380483Y39182532D01*
X79338493Y39148181D01*
X79269206Y39106435D01*
X79220882Y39082065D01*
X79083711Y39039127D01*
X78931847Y39025214D01*
X78788024Y39041700D01*
X78747745Y39053504D01*
X78623078Y39120311D01*
X78530671Y39223108D01*
X78469990Y39362895D01*
X78440498Y39540670D01*
X78437260Y39633627D01*
X78446714Y39768967D01*
X78685490Y39768967D01*
X78708584Y39758962D01*
X78770662Y39751112D01*
X78860914Y39746479D01*
X78922058Y39745686D01*
X79032040Y39746451D01*
X79101457Y39750030D01*
X79139538Y39758351D01*
X79155515Y39773343D01*
X79158627Y39795097D01*
X79137278Y39862108D01*
X79083529Y39928336D01*
X79012822Y39979168D01*
X78942089Y39999962D01*
X78846016Y39981516D01*
X78762849Y39928189D01*
X78705186Y39851323D01*
X78685490Y39768967D01*
X78446714Y39768967D01*
X78451028Y39830709D01*
X78493520Y39987729D01*
G37*
X78493520Y39987729D02*
X78565635Y40105931D01*
X78668273Y40186560D01*
X78802332Y40230861D01*
X78874957Y40239393D01*
X79025307Y40237216D01*
X79144337Y40206269D01*
X79244021Y40142400D01*
X79292288Y40094687D01*
X79371408Y39981894D01*
X79416752Y39851050D01*
X79432330Y39690208D01*
X79432410Y39677206D01*
X79432549Y39546470D01*
X78680091Y39546470D01*
X78696130Y39477990D01*
X78725091Y39415969D01*
X78775778Y39351346D01*
X78786379Y39341029D01*
X78877494Y39285195D01*
X78981400Y39275725D01*
X79101000Y39312460D01*
X79121274Y39322353D01*
X79183456Y39352426D01*
X79225106Y39369560D01*
X79232373Y39371145D01*
X79257740Y39355758D01*
X79306120Y39318113D01*
X79330679Y39297541D01*
X79381570Y39250286D01*
X79398281Y39219083D01*
X79386683Y39190380D01*
X79380483Y39182532D01*
X79338493Y39148181D01*
X79269206Y39106435D01*
X79220882Y39082065D01*
X79083711Y39039127D01*
X78931847Y39025214D01*
X78788024Y39041700D01*
X78747745Y39053504D01*
X78623078Y39120311D01*
X78530671Y39223108D01*
X78469990Y39362895D01*
X78440498Y39540670D01*
X78437260Y39633627D01*
X78446714Y39768967D01*
X78685490Y39768967D01*
X78708584Y39758962D01*
X78770662Y39751112D01*
X78860914Y39746479D01*
X78922058Y39745686D01*
X79032040Y39746451D01*
X79101457Y39750030D01*
X79139538Y39758351D01*
X79155515Y39773343D01*
X79158627Y39795097D01*
X79137278Y39862108D01*
X79083529Y39928336D01*
X79012822Y39979168D01*
X78942089Y39999962D01*
X78846016Y39981516D01*
X78762849Y39928189D01*
X78705186Y39851323D01*
X78685490Y39768967D01*
X78446714Y39768967D01*
X78451028Y39830709D01*
X78493520Y39987729D01*
G36*
X75557528Y40238668D02*
G01*
X75656014Y40231274D01*
X75784776Y39845294D01*
X75913537Y39459314D01*
X75953911Y39596274D01*
X75978207Y39680917D01*
X76010167Y39795303D01*
X76044679Y39921037D01*
X76062928Y39988480D01*
X76131571Y40243725D01*
X76414773Y40243725D01*
X76330122Y39976029D01*
X76288435Y39844362D01*
X76238074Y39685542D01*
X76185481Y39519872D01*
X76138530Y39372157D01*
X76031589Y39035980D01*
X75800661Y39020956D01*
X75738050Y39227684D01*
X75699438Y39356104D01*
X75657300Y39497678D01*
X75620472Y39622715D01*
X75619018Y39627691D01*
X75591511Y39712414D01*
X75567242Y39770222D01*
X75550243Y39792082D01*
X75546750Y39789554D01*
X75534490Y39755664D01*
X75511195Y39683070D01*
X75479700Y39580899D01*
X75442842Y39458280D01*
X75422899Y39390833D01*
X75314895Y39023529D01*
X75085679Y39023529D01*
X74902439Y39602500D01*
X74850963Y39764909D01*
X74804070Y39912398D01*
X74763977Y40038040D01*
X74732897Y40134905D01*
X74713045Y40196066D01*
X74707011Y40213935D01*
X74711788Y40232232D01*
X74749297Y40240245D01*
X74827355Y40239443D01*
X74839574Y40238837D01*
X74984326Y40231274D01*
X75079130Y39882647D01*
X75113977Y39755503D01*
X75145117Y39643735D01*
X75169809Y39557047D01*
X75185312Y39505144D01*
X75188176Y39496682D01*
X75200046Y39506413D01*
X75223983Y39556828D01*
X75257239Y39641065D01*
X75297064Y39752259D01*
X75330730Y39852703D01*
X75459041Y40246061D01*
X75557528Y40238668D01*
G37*
X75557528Y40238668D02*
X75656014Y40231274D01*
X75784776Y39845294D01*
X75913537Y39459314D01*
X75953911Y39596274D01*
X75978207Y39680917D01*
X76010167Y39795303D01*
X76044679Y39921037D01*
X76062928Y39988480D01*
X76131571Y40243725D01*
X76414773Y40243725D01*
X76330122Y39976029D01*
X76288435Y39844362D01*
X76238074Y39685542D01*
X76185481Y39519872D01*
X76138530Y39372157D01*
X76031589Y39035980D01*
X75800661Y39020956D01*
X75738050Y39227684D01*
X75699438Y39356104D01*
X75657300Y39497678D01*
X75620472Y39622715D01*
X75619018Y39627691D01*
X75591511Y39712414D01*
X75567242Y39770222D01*
X75550243Y39792082D01*
X75546750Y39789554D01*
X75534490Y39755664D01*
X75511195Y39683070D01*
X75479700Y39580899D01*
X75442842Y39458280D01*
X75422899Y39390833D01*
X75314895Y39023529D01*
X75085679Y39023529D01*
X74902439Y39602500D01*
X74850963Y39764909D01*
X74804070Y39912398D01*
X74763977Y40038040D01*
X74732897Y40134905D01*
X74713045Y40196066D01*
X74707011Y40213935D01*
X74711788Y40232232D01*
X74749297Y40240245D01*
X74827355Y40239443D01*
X74839574Y40238837D01*
X74984326Y40231274D01*
X75079130Y39882647D01*
X75113977Y39755503D01*
X75145117Y39643735D01*
X75169809Y39557047D01*
X75185312Y39505144D01*
X75188176Y39496682D01*
X75200046Y39506413D01*
X75223983Y39556828D01*
X75257239Y39641065D01*
X75297064Y39752259D01*
X75330730Y39852703D01*
X75459041Y40246061D01*
X75557528Y40238668D01*
G36*
X78238446Y40244117D02*
G01*
X78334177Y40225245D01*
X78388677Y40197301D01*
X78446008Y40150877D01*
X78364441Y40047889D01*
X78314150Y39985521D01*
X78280001Y39955093D01*
X78246063Y39950445D01*
X78196406Y39965414D01*
X78173096Y39973883D01*
X78078063Y39986378D01*
X77991032Y39959594D01*
X77927138Y39899085D01*
X77916759Y39879792D01*
X77905456Y39828686D01*
X77896732Y39734500D01*
X77890997Y39603911D01*
X77888660Y39443595D01*
X77888627Y39420789D01*
X77888627Y39023529D01*
X77614705Y39023529D01*
X77614705Y40243725D01*
X77751666Y40243725D01*
X77830638Y40241663D01*
X77871779Y40232487D01*
X77886992Y40211710D01*
X77888627Y40192114D01*
X77888627Y40140503D01*
X77954240Y40192114D01*
X78029475Y40227325D01*
X78130544Y40244735D01*
X78238446Y40244117D01*
G37*
X78238446Y40244117D02*
X78334177Y40225245D01*
X78388677Y40197301D01*
X78446008Y40150877D01*
X78364441Y40047889D01*
X78314150Y39985521D01*
X78280001Y39955093D01*
X78246063Y39950445D01*
X78196406Y39965414D01*
X78173096Y39973883D01*
X78078063Y39986378D01*
X77991032Y39959594D01*
X77927138Y39899085D01*
X77916759Y39879792D01*
X77905456Y39828686D01*
X77896732Y39734500D01*
X77890997Y39603911D01*
X77888660Y39443595D01*
X77888627Y39420789D01*
X77888627Y39023529D01*
X77614705Y39023529D01*
X77614705Y40243725D01*
X77751666Y40243725D01*
X77830638Y40241663D01*
X77871779Y40232487D01*
X77886992Y40211710D01*
X77888627Y40192114D01*
X77888627Y40140503D01*
X77954240Y40192114D01*
X78029475Y40227325D01*
X78130544Y40244735D01*
X78238446Y40244117D01*
G36*
X75565180Y41810577D02*
G01*
X75631802Y41945186D01*
X75730799Y42041960D01*
X75862175Y42100906D01*
X75890385Y42107741D01*
X76059926Y42123787D01*
X76209547Y42096636D01*
X76335502Y42028041D01*
X76434047Y41919755D01*
X76480478Y41831685D01*
X76500412Y41753899D01*
X76513328Y41643007D01*
X76518863Y41515262D01*
X76516654Y41386916D01*
X76506337Y41274221D01*
X76494286Y41214031D01*
X76453634Y41131689D01*
X76383230Y41044230D01*
X76298382Y40967749D01*
X76214397Y40918345D01*
X76212349Y40917561D01*
X76108134Y40895973D01*
X75984627Y40895438D01*
X75867261Y40915092D01*
X75821942Y40930845D01*
X75705220Y40997034D01*
X75621624Y41083754D01*
X75566701Y41198562D01*
X75535995Y41349018D01*
X75529047Y41427827D01*
X75529933Y41526855D01*
X75796862Y41526855D01*
X75805854Y41382355D01*
X75831736Y41272240D01*
X75872868Y41201884D01*
X75902172Y41181765D01*
X75977251Y41167735D01*
X76066494Y41171889D01*
X76143650Y41192078D01*
X76163883Y41203185D01*
X76217265Y41267877D01*
X76252500Y41366881D01*
X76267498Y41487368D01*
X76260172Y41616506D01*
X76243799Y41694225D01*
X76196790Y41784229D01*
X76122582Y41840491D01*
X76033209Y41859943D01*
X75940707Y41839519D01*
X75869653Y41789563D01*
X75832312Y41748345D01*
X75810518Y41707719D01*
X75800130Y41652736D01*
X75797006Y41568451D01*
X75796862Y41526855D01*
X75529933Y41526855D01*
X75530930Y41638126D01*
X75565180Y41810577D01*
G37*
X75565180Y41810577D02*
X75631802Y41945186D01*
X75730799Y42041960D01*
X75862175Y42100906D01*
X75890385Y42107741D01*
X76059926Y42123787D01*
X76209547Y42096636D01*
X76335502Y42028041D01*
X76434047Y41919755D01*
X76480478Y41831685D01*
X76500412Y41753899D01*
X76513328Y41643007D01*
X76518863Y41515262D01*
X76516654Y41386916D01*
X76506337Y41274221D01*
X76494286Y41214031D01*
X76453634Y41131689D01*
X76383230Y41044230D01*
X76298382Y40967749D01*
X76214397Y40918345D01*
X76212349Y40917561D01*
X76108134Y40895973D01*
X75984627Y40895438D01*
X75867261Y40915092D01*
X75821942Y40930845D01*
X75705220Y40997034D01*
X75621624Y41083754D01*
X75566701Y41198562D01*
X75535995Y41349018D01*
X75529047Y41427827D01*
X75529933Y41526855D01*
X75796862Y41526855D01*
X75805854Y41382355D01*
X75831736Y41272240D01*
X75872868Y41201884D01*
X75902172Y41181765D01*
X75977251Y41167735D01*
X76066494Y41171889D01*
X76143650Y41192078D01*
X76163883Y41203185D01*
X76217265Y41267877D01*
X76252500Y41366881D01*
X76267498Y41487368D01*
X76260172Y41616506D01*
X76243799Y41694225D01*
X76196790Y41784229D01*
X76122582Y41840491D01*
X76033209Y41859943D01*
X75940707Y41839519D01*
X75869653Y41789563D01*
X75832312Y41748345D01*
X75810518Y41707719D01*
X75800130Y41652736D01*
X75797006Y41568451D01*
X75796862Y41526855D01*
X75529933Y41526855D01*
X75530930Y41638126D01*
X75565180Y41810577D01*
G36*
X79390976Y42100944D02*
G01*
X79535256Y42039652D01*
X79580699Y42009815D01*
X79638779Y41963964D01*
X79675238Y41927911D01*
X79681568Y41916168D01*
X79663693Y41890111D01*
X79617950Y41845895D01*
X79581328Y41815035D01*
X79481088Y41734480D01*
X79401935Y41801082D01*
X79340769Y41844079D01*
X79281129Y41858921D01*
X79212872Y41855296D01*
X79104482Y41828348D01*
X79029872Y41772413D01*
X78984530Y41681986D01*
X78963947Y41551565D01*
X78963942Y41551483D01*
X78965722Y41405710D01*
X78993387Y41298755D01*
X79048571Y41225936D01*
X79086192Y41201277D01*
X79186105Y41170569D01*
X79292822Y41170551D01*
X79385669Y41200345D01*
X79407647Y41214902D01*
X79462765Y41252086D01*
X79505859Y41258180D01*
X79552335Y41230504D01*
X79603716Y41180795D01*
X79685046Y41096884D01*
X79594749Y41022454D01*
X79455236Y40938451D01*
X79297912Y40897053D01*
X79133503Y40900050D01*
X79025531Y40927500D01*
X78899331Y40995380D01*
X78798401Y41102169D01*
X78752548Y41177549D01*
X78715410Y41285703D01*
X78696827Y41422682D01*
X78696684Y41571136D01*
X78714865Y41713719D01*
X78751255Y41833082D01*
X78756987Y41845320D01*
X78841865Y41965345D01*
X78956782Y42052733D01*
X79092659Y42105671D01*
X79240417Y42122346D01*
X79390976Y42100944D01*
G37*
X79390976Y42100944D02*
X79535256Y42039652D01*
X79580699Y42009815D01*
X79638779Y41963964D01*
X79675238Y41927911D01*
X79681568Y41916168D01*
X79663693Y41890111D01*
X79617950Y41845895D01*
X79581328Y41815035D01*
X79481088Y41734480D01*
X79401935Y41801082D01*
X79340769Y41844079D01*
X79281129Y41858921D01*
X79212872Y41855296D01*
X79104482Y41828348D01*
X79029872Y41772413D01*
X78984530Y41681986D01*
X78963947Y41551565D01*
X78963942Y41551483D01*
X78965722Y41405710D01*
X78993387Y41298755D01*
X79048571Y41225936D01*
X79086192Y41201277D01*
X79186105Y41170569D01*
X79292822Y41170551D01*
X79385669Y41200345D01*
X79407647Y41214902D01*
X79462765Y41252086D01*
X79505859Y41258180D01*
X79552335Y41230504D01*
X79603716Y41180795D01*
X79685046Y41096884D01*
X79594749Y41022454D01*
X79455236Y40938451D01*
X79297912Y40897053D01*
X79133503Y40900050D01*
X79025531Y40927500D01*
X78899331Y40995380D01*
X78798401Y41102169D01*
X78752548Y41177549D01*
X78715410Y41285703D01*
X78696827Y41422682D01*
X78696684Y41571136D01*
X78714865Y41713719D01*
X78751255Y41833082D01*
X78756987Y41845320D01*
X78841865Y41965345D01*
X78956782Y42052733D01*
X79092659Y42105671D01*
X79240417Y42122346D01*
X79390976Y42100944D01*
G36*
X73032764Y40241079D02*
G01*
X73070030Y40229909D01*
X73082043Y40205367D01*
X73082549Y40194288D01*
X73084704Y40163428D01*
X73099551Y40158583D01*
X73139657Y40179740D01*
X73163480Y40194194D01*
X73238638Y40225150D01*
X73328406Y40240456D01*
X73422529Y40241633D01*
X73510754Y40230201D01*
X73582826Y40207680D01*
X73628492Y40175591D01*
X73637498Y40135455D01*
X73632953Y40124585D01*
X73599821Y40079466D01*
X73548445Y40023974D01*
X73539152Y40015004D01*
X73490182Y39973755D01*
X73447931Y39960428D01*
X73388841Y39969729D01*
X73365169Y39975910D01*
X73291504Y39990754D01*
X73239710Y39984079D01*
X73195969Y39960535D01*
X73155902Y39928939D01*
X73126392Y39889202D01*
X73105884Y39833748D01*
X73092824Y39754997D01*
X73085656Y39645371D01*
X73082824Y39497294D01*
X73082549Y39407889D01*
X73082549Y39023529D01*
X72833529Y39023529D01*
X72833529Y40243725D01*
X72958039Y40243725D01*
X73032764Y40241079D01*
G37*
X73032764Y40241079D02*
X73070030Y40229909D01*
X73082043Y40205367D01*
X73082549Y40194288D01*
X73084704Y40163428D01*
X73099551Y40158583D01*
X73139657Y40179740D01*
X73163480Y40194194D01*
X73238638Y40225150D01*
X73328406Y40240456D01*
X73422529Y40241633D01*
X73510754Y40230201D01*
X73582826Y40207680D01*
X73628492Y40175591D01*
X73637498Y40135455D01*
X73632953Y40124585D01*
X73599821Y40079466D01*
X73548445Y40023974D01*
X73539152Y40015004D01*
X73490182Y39973755D01*
X73447931Y39960428D01*
X73388841Y39969729D01*
X73365169Y39975910D01*
X73291504Y39990754D01*
X73239710Y39984079D01*
X73195969Y39960535D01*
X73155902Y39928939D01*
X73126392Y39889202D01*
X73105884Y39833748D01*
X73092824Y39754997D01*
X73085656Y39645371D01*
X73082824Y39497294D01*
X73082549Y39407889D01*
X73082549Y39023529D01*
X72833529Y39023529D01*
X72833529Y40243725D01*
X72958039Y40243725D01*
X73032764Y40241079D01*
G36*
X73634194Y39727082D02*
G01*
X73646373Y39888645D01*
X73671685Y40009947D01*
X73713793Y40099621D01*
X73776359Y40166301D01*
X73837100Y40205443D01*
X73921964Y40232960D01*
X74027515Y40242397D01*
X74135598Y40234710D01*
X74228058Y40210854D01*
X74276910Y40182315D01*
X74327647Y40136399D01*
X74327647Y40716863D01*
X74601568Y40716863D01*
X74601568Y39023529D01*
X74464607Y39023529D01*
X74385111Y39025860D01*
X74343708Y39035512D01*
X74328801Y39056475D01*
X74327647Y39070649D01*
X74325133Y39099073D01*
X74309280Y39104525D01*
X74267621Y39087002D01*
X74235224Y39070649D01*
X74110849Y39031897D01*
X73975646Y39029654D01*
X73865726Y39058556D01*
X73763366Y39128381D01*
X73685340Y39231445D01*
X73642614Y39353011D01*
X73641526Y39359808D01*
X73635178Y39433968D01*
X73632021Y39540430D01*
X73632275Y39620948D01*
X73904289Y39620948D01*
X73910590Y39513930D01*
X73924925Y39425722D01*
X73944331Y39375910D01*
X74017746Y39307838D01*
X74104914Y39283436D01*
X74194804Y39303169D01*
X74271617Y39362032D01*
X74300708Y39401621D01*
X74317717Y39448862D01*
X74325684Y39517819D01*
X74327647Y39621393D01*
X74324134Y39723961D01*
X74314857Y39814079D01*
X74301706Y39874387D01*
X74299514Y39879792D01*
X74246478Y39944060D01*
X74169067Y39979344D01*
X74082454Y39985041D01*
X74001807Y39960547D01*
X73942297Y39905258D01*
X73936124Y39894257D01*
X73916801Y39827173D01*
X73906274Y39730716D01*
X73904289Y39620948D01*
X73632275Y39620948D01*
X73632404Y39661775D01*
X73634194Y39727082D01*
G37*
X73634194Y39727082D02*
X73646373Y39888645D01*
X73671685Y40009947D01*
X73713793Y40099621D01*
X73776359Y40166301D01*
X73837100Y40205443D01*
X73921964Y40232960D01*
X74027515Y40242397D01*
X74135598Y40234710D01*
X74228058Y40210854D01*
X74276910Y40182315D01*
X74327647Y40136399D01*
X74327647Y40716863D01*
X74601568Y40716863D01*
X74601568Y39023529D01*
X74464607Y39023529D01*
X74385111Y39025860D01*
X74343708Y39035512D01*
X74328801Y39056475D01*
X74327647Y39070649D01*
X74325133Y39099073D01*
X74309280Y39104525D01*
X74267621Y39087002D01*
X74235224Y39070649D01*
X74110849Y39031897D01*
X73975646Y39029654D01*
X73865726Y39058556D01*
X73763366Y39128381D01*
X73685340Y39231445D01*
X73642614Y39353011D01*
X73641526Y39359808D01*
X73635178Y39433968D01*
X73632021Y39540430D01*
X73632275Y39620948D01*
X73904289Y39620948D01*
X73910590Y39513930D01*
X73924925Y39425722D01*
X73944331Y39375910D01*
X74017746Y39307838D01*
X74104914Y39283436D01*
X74194804Y39303169D01*
X74271617Y39362032D01*
X74300708Y39401621D01*
X74317717Y39448862D01*
X74325684Y39517819D01*
X74327647Y39621393D01*
X74324134Y39723961D01*
X74314857Y39814079D01*
X74301706Y39874387D01*
X74299514Y39879792D01*
X74246478Y39944060D01*
X74169067Y39979344D01*
X74082454Y39985041D01*
X74001807Y39960547D01*
X73942297Y39905258D01*
X73936124Y39894257D01*
X73916801Y39827173D01*
X73906274Y39730716D01*
X73904289Y39620948D01*
X73632275Y39620948D01*
X73632404Y39661775D01*
X73634194Y39727082D01*
D10*
%TO.C,RL6*%
X56925000Y12000000D02*
X55875000Y12000000D01*
D14*
X55186750Y13270000D02*
G75*
G03*
X55186750Y13270000I-56750J0D01*
G01*
D15*
%TO.C,JL6*%
X54715000Y8305000D02*
X54715000Y9000000D01*
X56960000Y9394493D02*
X56960000Y9695000D01*
X56085000Y8305000D02*
X56960000Y8305000D01*
X56085000Y9608276D02*
X56085000Y9695000D01*
X56085000Y9695000D02*
X56960000Y9695000D01*
X55400000Y8305000D02*
X54715000Y8305000D01*
X56085000Y8305000D02*
X56085000Y8391724D01*
X56960000Y8305000D02*
X56960000Y8605507D01*
D10*
%TO.C,LED2*%
X56200000Y83250000D02*
X56200000Y85525000D01*
X54600000Y85525000D02*
X54600000Y83250000D01*
X56200000Y85525000D02*
X54600000Y85525000D01*
%TO.C,RP8*%
X21550000Y24025000D02*
X21550000Y25075000D01*
D14*
X22876750Y25820000D02*
G75*
G03*
X22876750Y25820000I-56750J0D01*
G01*
D10*
%TO.C,LEDP1*%
X5100000Y18425000D02*
X5100000Y16775000D01*
X5100000Y16775000D02*
X7500000Y16775000D01*
X7500000Y18425000D02*
X5100000Y18425000D01*
%TO.C,RL3*%
X34875000Y78000000D02*
X35925000Y78000000D01*
D14*
X36726750Y76730000D02*
G75*
G03*
X36726750Y76730000I-56750J0D01*
G01*
D10*
%TO.C,RL8*%
X16905000Y12000000D02*
X15855000Y12000000D01*
D14*
X15166750Y13270000D02*
G75*
G03*
X15166750Y13270000I-56750J0D01*
G01*
D16*
%TO.C,JPWR1*%
X13700000Y25700000D02*
X18550000Y25700000D01*
X350000Y41200000D02*
X9700000Y41200000D01*
X350000Y25700000D02*
X350000Y41200000D01*
X9700000Y25700000D02*
X350000Y25700000D01*
X18550000Y41200000D02*
X13700000Y41200000D01*
X18550000Y25700000D02*
X18550000Y27750000D01*
X18550000Y38850000D02*
X18550000Y41200000D01*
D12*
X16850000Y24950000D02*
G75*
G03*
X16850000Y24950000I-150000J0D01*
G01*
D10*
%TO.C,TVS7*%
X34588000Y20125000D02*
X34588000Y14775000D01*
X38212000Y20125000D02*
X38212000Y14775000D01*
%TO.C,TVS3*%
X37212000Y69875000D02*
X37212000Y75225000D01*
X33588000Y69875000D02*
X33588000Y75225000D01*
%TO.C,J7*%
X51250000Y350000D02*
X39750000Y350000D01*
X39180000Y15250000D02*
X39180000Y15250000D01*
X39180000Y15250000D02*
X39180000Y15250000D01*
X39750000Y350000D02*
X39750000Y18150000D01*
X39750000Y18150000D02*
X51250000Y18150000D01*
X51250000Y18150000D02*
X51250000Y350000D01*
X39280000Y15250000D02*
X39280000Y15250000D01*
X39180000Y15250000D02*
G75*
G03*
X39280000Y15250000I50000J0D01*
G01*
X39280000Y15250000D02*
G75*
G03*
X39180000Y15250000I-50000J0D01*
G01*
X39180000Y15250000D02*
G75*
G03*
X39280000Y15250000I50000J0D01*
G01*
%TO.C,RL4*%
X14875000Y78000000D02*
X15925000Y78000000D01*
D14*
X16726750Y76730000D02*
G75*
G03*
X16726750Y76730000I-56750J0D01*
G01*
D10*
%TO.C,LED5*%
X75600000Y6750000D02*
X75600000Y4475000D01*
X77200000Y4475000D02*
X77200000Y6750000D01*
X75600000Y4475000D02*
X77200000Y4475000D01*
D15*
%TO.C,JL3*%
X35960000Y81394493D02*
X35960000Y81695000D01*
X35085000Y80305000D02*
X35960000Y80305000D01*
X33715000Y80305000D02*
X33715000Y81000000D01*
X35085000Y80305000D02*
X35085000Y80391724D01*
X35085000Y81695000D02*
X35960000Y81695000D01*
X35085000Y81608276D02*
X35085000Y81695000D01*
X34400000Y80305000D02*
X33715000Y80305000D01*
X35960000Y80305000D02*
X35960000Y80605507D01*
D10*
%TO.C,LED4*%
X14600000Y85525000D02*
X14600000Y83250000D01*
X16200000Y83250000D02*
X16200000Y85525000D01*
X16200000Y85525000D02*
X14600000Y85525000D01*
%TO.C,RL2*%
X54875000Y78000000D02*
X55925000Y78000000D01*
D14*
X56726750Y76730000D02*
G75*
G03*
X56726750Y76730000I-56750J0D01*
G01*
D15*
%TO.C,JP2*%
X8060000Y19155000D02*
X8060000Y19455507D01*
X5815000Y19155000D02*
X5815000Y19850000D01*
X7185000Y20545000D02*
X8060000Y20545000D01*
X7185000Y19155000D02*
X7185000Y19241724D01*
X7185000Y20458276D02*
X7185000Y20545000D01*
X8060000Y20244493D02*
X8060000Y20545000D01*
X7185000Y19155000D02*
X8060000Y19155000D01*
X6500000Y19155000D02*
X5815000Y19155000D01*
D10*
%TO.C,TVS8*%
X18192000Y20125000D02*
X18192000Y14775000D01*
X14568000Y20125000D02*
X14568000Y14775000D01*
D15*
%TO.C,JL2*%
X55085000Y81695000D02*
X55960000Y81695000D01*
X55085000Y80305000D02*
X55085000Y80391724D01*
X55085000Y81608276D02*
X55085000Y81695000D01*
X55960000Y81394493D02*
X55960000Y81695000D01*
X55085000Y80305000D02*
X55960000Y80305000D01*
X55960000Y80305000D02*
X55960000Y80605507D01*
X54400000Y80305000D02*
X53715000Y80305000D01*
X53715000Y80305000D02*
X53715000Y81000000D01*
D10*
%TO.C,JCNTL2*%
X99735000Y25650000D02*
X99735000Y38350000D01*
X94405000Y38350000D02*
X99735000Y38350000D01*
X94405000Y25650000D02*
X94405000Y38350000D01*
X99735000Y25650000D02*
X94405000Y25650000D01*
X93870000Y38350000D02*
G75*
G03*
X93870000Y38350000I-100000J0D01*
G01*
D15*
%TO.C,JL1*%
X75085000Y80305000D02*
X75085000Y80391724D01*
X75085000Y81695000D02*
X75960000Y81695000D01*
X75085000Y81608276D02*
X75085000Y81695000D01*
X75960000Y80305000D02*
X75960000Y80605507D01*
X75960000Y81394493D02*
X75960000Y81695000D01*
X74400000Y80305000D02*
X73715000Y80305000D01*
X75085000Y80305000D02*
X75960000Y80305000D01*
X73715000Y80305000D02*
X73715000Y81000000D01*
D10*
%TO.C,J6*%
X71250000Y18150000D02*
X71250000Y350000D01*
X59280000Y15250000D02*
X59280000Y15250000D01*
X59750000Y18150000D02*
X71250000Y18150000D01*
X71250000Y350000D02*
X59750000Y350000D01*
X59750000Y350000D02*
X59750000Y18150000D01*
X59180000Y15250000D02*
X59180000Y15250000D01*
X59180000Y15250000D02*
X59180000Y15250000D01*
X59180000Y15250000D02*
G75*
G03*
X59280000Y15250000I50000J0D01*
G01*
X59280000Y15250000D02*
G75*
G03*
X59180000Y15250000I-50000J0D01*
G01*
X59180000Y15250000D02*
G75*
G03*
X59280000Y15250000I50000J0D01*
G01*
%TO.C,TVS6*%
X54588000Y20125000D02*
X54588000Y14775000D01*
X58212000Y20125000D02*
X58212000Y14775000D01*
%TO.C,TVS1*%
X73588000Y69875000D02*
X73588000Y75225000D01*
X77212000Y69875000D02*
X77212000Y75225000D01*
%TO.C,RL5*%
X76925000Y12000000D02*
X75875000Y12000000D01*
D14*
X75186750Y13270000D02*
G75*
G03*
X75186750Y13270000I-56750J0D01*
G01*
%TD*%
M02*
